M48
; DRILL file KiCad 10.0.2 date 2026-07-02T13:50:14
; FORMAT={-:-/ absolute / metric / decimal}
; #@! TF.CreationDate,2026-07-02T13:50:14-04:00
; #@! TF.GenerationSoftware,Kicad,Pcbnew,10.0.2
; #@! TF.FileFunction,MixedPlating,1,4
FMAT,2
METRIC
; #@! TA.AperFunction,Plated,PTH,ViaDrill
T1C0.200
; #@! TA.AperFunction,Plated,PTH,ViaDrill
T2C0.250
; #@! TA.AperFunction,Plated,PTH,ViaDrill
T3C0.300
; #@! TA.AperFunction,Plated,PTH,ComponentDrill
T4C0.300
; #@! TA.AperFunction,Plated,PTH,ComponentDrill
T5C0.600
; #@! TA.AperFunction,NonPlated,NPTH,ComponentDrill
T6C0.650
; #@! TA.AperFunction,NonPlated,NPTH,ComponentDrill
T7C0.900
; #@! TA.AperFunction,NonPlated,NPTH,ComponentDrill
T8C0.991
%
G90
G05
T1
X90.533Y-107.605
X90.75Y-100.97
X91.25Y-107.5
X91.75Y-100.97
X92.75Y-100.97
X93.262Y-93.562
X93.463Y-94.313
X95.15Y-98.7
X95.915Y-98.596
T2
X93.15Y-107.5
X94.45Y-95.6
X94.45Y-97.0
X99.45Y-107.55
X99.85Y-110.85
T3
X83.443Y-108.905
X83.519Y-100.435
X84.0Y-86.2
X84.0Y-88.4
X84.0Y-97.2
X84.0Y-112.6
X84.0Y-114.8
X84.21Y-109.34
X84.383Y-105.253
X84.649Y-99.803
X84.921Y-92.364
X85.025Y-101.878
X85.092Y-90.142
X85.21Y-105.357
X85.242Y-110.065
X85.568Y-99.237
X86.2Y-84.0
X86.2Y-95.0
X86.2Y-114.8
X87.076Y-105.586
X87.165Y-99.455
X87.238Y-104.119
X87.279Y-102.231
X87.601Y-112.287
X87.752Y-107.183
X88.199Y-99.004
X88.4Y-84.0
X88.4Y-117.0
X88.517Y-101.746
X88.637Y-112.471
X88.85Y-87.347
X88.947Y-114.962
X89.72Y-89.763
X89.864Y-112.806
X89.924Y-88.834
X90.6Y-84.0
X90.6Y-86.2
X90.6Y-117.0
X90.766Y-89.003
X90.814Y-91.912
X90.851Y-96.532
X91.004Y-95.586
X92.174Y-99.272
X92.188Y-90.653
X92.425Y-88.455
X92.8Y-84.0
X92.8Y-114.8
X92.8Y-117.0
X93.007Y-95.538
X93.413Y-87.233
X93.725Y-109.608
X93.806Y-89.827
X94.246Y-92.975
X94.45Y-87.2
X94.583Y-91.008
X95.0Y-117.0
X95.382Y-105.449
X96.944Y-96.89
X97.2Y-114.8
X97.2Y-117.0
X97.342Y-90.872
X97.385Y-113.174
X97.769Y-94.902
X97.822Y-93.57
X98.097Y-92.374
X98.239Y-110.811
X98.383Y-89.597
X99.0Y-98.45
X99.4Y-95.0
X99.4Y-103.8
X99.4Y-114.8
X99.4Y-117.0
X100.0Y-98.45
X100.001Y-92.759
X100.362Y-104.518
X101.5Y-105.425
X101.5Y-106.975
X101.6Y-88.4
X101.6Y-92.8
X101.6Y-95.0
X101.6Y-108.2
X101.6Y-110.75
X101.6Y-117.0
X101.713Y-98.934
X102.1Y-103.9
X103.135Y-100.266
X103.233Y-112.789
X103.8Y-117.0
X104.436Y-111.976
X104.5Y-103.9
X104.565Y-105.117
X104.608Y-96.107
X104.753Y-96.937
X105.55Y-87.2
X105.7Y-97.7
X105.85Y-87.95
X106.0Y-90.6
X106.0Y-95.0
X106.0Y-99.4
X106.0Y-101.6
X106.0Y-103.8
X106.0Y-106.0
X106.0Y-108.2
X106.0Y-114.8
X106.0Y-117.0
X108.04Y-104.203
X108.2Y-84.0
X108.2Y-86.2
X108.2Y-88.4
X108.2Y-90.6
X108.2Y-92.8
X108.2Y-97.2
X108.2Y-112.6
X108.2Y-114.8
X108.2Y-117.0
X109.184Y-106.663
X109.654Y-114.48
X110.4Y-84.0
X110.4Y-86.2
X110.4Y-88.4
X110.4Y-90.6
X110.4Y-92.8
X110.4Y-99.4
X110.4Y-117.0
X112.6Y-84.0
X112.6Y-86.2
X112.6Y-88.4
X112.6Y-90.6
X112.6Y-92.8
X112.6Y-97.2
X112.6Y-99.4
X112.6Y-101.6
X112.6Y-103.8
X112.6Y-108.2
X112.6Y-110.4
X112.6Y-112.6
X112.6Y-114.8
X112.6Y-117.0
X114.8Y-84.0
X114.8Y-86.2
X114.8Y-88.4
X114.8Y-90.6
X114.8Y-99.4
X114.8Y-101.6
X114.8Y-110.4
X114.8Y-112.6
X114.8Y-114.8
X117.0Y-88.4
X117.0Y-90.6
X117.0Y-99.4
X117.0Y-101.6
X117.0Y-110.4
X117.0Y-112.6
T4
X89.55Y-102.75
X89.55Y-104.2
X89.55Y-105.65
X91.0Y-102.75
X91.0Y-104.2
X91.0Y-105.65
X92.45Y-102.75
X92.45Y-104.2
X92.45Y-105.65
T6
X97.11Y-111.0
X102.89Y-111.0
T7
X115.9Y-92.875
X115.9Y-97.125
X115.9Y-103.875
X115.9Y-108.125
T8
X85.884Y-86.46
X86.9Y-91.54
X87.916Y-86.46
T5
X95.68Y-111.02G85X95.68Y-109.92
G05
X95.68Y-114.95G85X95.68Y-114.35
G05
X104.32Y-111.02G85X104.32Y-109.92
G05
X104.32Y-114.95G85X104.32Y-114.35
G05
M30
