G04 #@! TF.GenerationSoftware,KiCad,Pcbnew,10.0.2*
G04 #@! TF.CreationDate,2026-07-02T13:50:14-04:00*
G04 #@! TF.ProjectId,jrwatch,6a727761-7463-4682-9e6b-696361645f70,rev?*
G04 #@! TF.SameCoordinates,Original*
G04 #@! TF.FileFunction,Copper,L2,Inr*
G04 #@! TF.FilePolarity,Positive*
%FSLAX46Y46*%
G04 Gerber Fmt 4.6, Leading zero omitted, Abs format (unit mm)*
G04 Created by KiCad (PCBNEW 10.0.2) date 2026-07-02 13:50:14*
%MOMM*%
%LPD*%
G01*
G04 APERTURE LIST*
G04 #@! TA.AperFunction,HeatsinkPad*
%ADD10C,0.600000*%
G04 #@! TD*
G04 #@! TA.AperFunction,ComponentPad*
%ADD11O,1.000000X1.600000*%
G04 #@! TD*
G04 #@! TA.AperFunction,ComponentPad*
%ADD12O,1.000000X2.100000*%
G04 #@! TD*
G04 #@! TA.AperFunction,ViaPad*
%ADD13C,0.600000*%
G04 #@! TD*
G04 #@! TA.AperFunction,ViaPad*
%ADD14C,0.480000*%
G04 #@! TD*
G04 #@! TA.AperFunction,ViaPad*
%ADD15C,0.500000*%
G04 #@! TD*
G04 #@! TA.AperFunction,Conductor*
%ADD16C,0.350000*%
G04 #@! TD*
G04 #@! TA.AperFunction,Conductor*
%ADD17C,0.150000*%
G04 #@! TD*
G04 APERTURE END LIST*
D10*
X92450000Y-105650000D03*
X92450000Y-104200000D03*
X92450000Y-102750000D03*
X91000000Y-105650000D03*
X91000000Y-104200000D03*
X91000000Y-102750000D03*
X89550000Y-105650000D03*
X89550000Y-104200000D03*
X89550000Y-102750000D03*
D11*
X104320000Y-114650000D03*
D12*
X104320000Y-110470000D03*
D11*
X95680000Y-114650000D03*
D12*
X95680000Y-110470000D03*
D13*
X94245800Y-92974900D03*
X84210400Y-109340400D03*
X93261600Y-93562500D03*
X83519000Y-100435000D03*
X104608400Y-96107000D03*
X104752900Y-96936800D03*
X101713100Y-98933900D03*
X100362500Y-104518100D03*
X88517000Y-101746000D03*
X99400000Y-95000000D03*
X106000000Y-99400000D03*
X106000000Y-95000000D03*
X95000000Y-117000000D03*
X101600000Y-117000000D03*
X105700000Y-97700000D03*
X101600000Y-88400000D03*
X106000000Y-101600000D03*
X84000000Y-114800000D03*
X112600000Y-112600000D03*
X108200000Y-92800000D03*
X99400000Y-103800000D03*
X86200000Y-95000000D03*
X112600000Y-92800000D03*
X117000000Y-110400000D03*
X112600000Y-99400000D03*
X92800000Y-84000000D03*
X97200000Y-114800000D03*
X112600000Y-97200000D03*
X112600000Y-86200000D03*
X112600000Y-114800000D03*
X108200000Y-90600000D03*
X106000000Y-106000000D03*
X110400000Y-86200000D03*
X88400000Y-84000000D03*
X108200000Y-97200000D03*
X86200000Y-84000000D03*
X88400000Y-117000000D03*
X84000000Y-112600000D03*
X103800000Y-117000000D03*
X106000000Y-90600000D03*
X92800000Y-114800000D03*
X84000000Y-97200000D03*
X117000000Y-88400000D03*
X106000000Y-117000000D03*
X114800000Y-86200000D03*
X95150000Y-98700000D03*
X114800000Y-90600000D03*
X110400000Y-88400000D03*
X114800000Y-112600000D03*
X114800000Y-99400000D03*
X112600000Y-110400000D03*
X106000000Y-114800000D03*
X110400000Y-117000000D03*
X108200000Y-86200000D03*
X114800000Y-88400000D03*
X117000000Y-112600000D03*
X97200000Y-117000000D03*
X112600000Y-88400000D03*
X92800000Y-117000000D03*
X99400000Y-114800000D03*
X112600000Y-108200000D03*
X110400000Y-92800000D03*
X108200000Y-88400000D03*
X102100000Y-103900000D03*
X112600000Y-117000000D03*
X110400000Y-90600000D03*
X94450000Y-87200000D03*
X84000000Y-86200000D03*
X114800000Y-110400000D03*
X90600000Y-117000000D03*
X117000000Y-101600000D03*
X86200000Y-114800000D03*
X106000000Y-103800000D03*
X112600000Y-90600000D03*
X108200000Y-117000000D03*
X99400000Y-117000000D03*
X106000000Y-108200000D03*
X114800000Y-101600000D03*
X105850000Y-87950000D03*
X117000000Y-90600000D03*
X101500000Y-105425000D03*
X90600000Y-86200000D03*
X108200000Y-114800000D03*
X114800000Y-84000000D03*
X101600000Y-108200000D03*
X101600000Y-95000000D03*
X114800000Y-114800000D03*
X112600000Y-101600000D03*
X84000000Y-88400000D03*
X104500000Y-103900000D03*
X101600000Y-92800000D03*
X108200000Y-112600000D03*
X117000000Y-99400000D03*
X112600000Y-103800000D03*
X108200000Y-84000000D03*
X110400000Y-84000000D03*
X112600000Y-84000000D03*
X110400000Y-99400000D03*
X105550000Y-87200000D03*
X90600000Y-84000000D03*
X90814300Y-91911900D03*
X101500000Y-106975000D03*
X100000000Y-98450000D03*
D14*
X92750000Y-100970000D03*
X90750000Y-100970000D03*
D13*
X99000000Y-98450000D03*
D14*
X91750000Y-100970000D03*
D13*
X85092400Y-90142000D03*
X90766300Y-89002600D03*
X93007300Y-95538300D03*
X85241800Y-110065300D03*
X88198700Y-99003900D03*
X87164600Y-99455300D03*
X94583000Y-91007700D03*
X92424700Y-88454700D03*
X89720200Y-89763300D03*
X93413300Y-87232700D03*
X85025200Y-101878200D03*
X87278600Y-102230800D03*
X103135300Y-100265600D03*
X87600900Y-112286600D03*
X104565400Y-105116500D03*
X103233500Y-112789100D03*
X109183600Y-106662800D03*
X95915200Y-98596400D03*
X83443200Y-108905100D03*
X92174300Y-99272000D03*
D15*
X99850000Y-110850000D03*
X99450000Y-107550000D03*
X91250000Y-107500000D03*
X94450000Y-95600000D03*
D13*
X98239400Y-110810800D03*
X101600000Y-110750000D03*
X93725300Y-109608200D03*
X85209600Y-105357100D03*
X87752200Y-107182900D03*
X87237600Y-104118800D03*
D15*
X94450000Y-97000000D03*
X93150000Y-107500000D03*
D13*
X87076100Y-105586400D03*
X84383300Y-105253500D03*
X97385100Y-113174300D03*
X90851200Y-96532500D03*
X89863700Y-112806000D03*
X93463300Y-94312700D03*
X108040000Y-104203200D03*
X88637300Y-112471500D03*
X104436400Y-111976400D03*
X84921100Y-92364100D03*
X97822000Y-93570500D03*
X98382900Y-89596800D03*
X88850100Y-87347500D03*
X91004300Y-95585800D03*
X97768900Y-94901700D03*
X90533300Y-107604500D03*
X93806500Y-89826800D03*
X97342100Y-90871600D03*
X89923900Y-88834400D03*
X100000500Y-92759300D03*
X98097300Y-92373600D03*
X92187600Y-90653400D03*
X96943600Y-96889700D03*
X95382300Y-105449400D03*
X109654100Y-114479900D03*
X88947000Y-114961500D03*
X84648800Y-99802800D03*
X85568400Y-99236900D03*
D16*
X90814300Y-94185400D02*
X90814300Y-91911900D01*
X90261700Y-94738000D02*
X90814300Y-94185400D01*
D17*
X93413300Y-87466100D02*
X93413300Y-87232700D01*
X92424700Y-88454700D02*
X93413300Y-87466100D01*
D16*
X87752200Y-109047800D02*
X87752200Y-107182900D01*
X89848300Y-111143900D02*
X87752200Y-109047800D01*
X87393100Y-105269400D02*
X87076100Y-105586400D01*
X88850000Y-105269400D02*
X87393100Y-105269400D01*
G04 #@! TA.AperFunction,Conductor*
G36*
X103415908Y-109004843D02*
G01*
X103428597Y-109008966D01*
X103478096Y-109044928D01*
X103481091Y-109049050D01*
X103500000Y-109107240D01*
X103500000Y-110541432D01*
X103495154Y-110572026D01*
X103491774Y-110582428D01*
X103455809Y-110631928D01*
X103397618Y-110650834D01*
X103345892Y-110636245D01*
X103340990Y-110633241D01*
X103322715Y-110618834D01*
X103243362Y-110539482D01*
X103169426Y-110496795D01*
X103148390Y-110473432D01*
X103055347Y-110448503D01*
X103055346Y-110448502D01*
X102987046Y-110430202D01*
X102965766Y-110424500D01*
X102965765Y-110424500D01*
X102814235Y-110424500D01*
X102814234Y-110424500D01*
X102795304Y-110429572D01*
X102724652Y-110448502D01*
X102724652Y-110448503D01*
X102667860Y-110463720D01*
X102667858Y-110463720D01*
X102667854Y-110463722D01*
X102536643Y-110539477D01*
X102429477Y-110646643D01*
X102353722Y-110777854D01*
X102353720Y-110777858D01*
X102353720Y-110777860D01*
X102339745Y-110830016D01*
X102339745Y-110830017D01*
X102339744Y-110830016D01*
X102318499Y-110909309D01*
X102314500Y-110924234D01*
X102314500Y-111075766D01*
X102333275Y-111145835D01*
X102353720Y-111222139D01*
X102353721Y-111222141D01*
X102353722Y-111222144D01*
X102429479Y-111353358D01*
X102429481Y-111353360D01*
X102429483Y-111353362D01*
X102429485Y-111353365D01*
X102536635Y-111460515D01*
X102536637Y-111460516D01*
X102536639Y-111460518D01*
X102537186Y-111460913D01*
X102539188Y-111461990D01*
X102547073Y-111466542D01*
X102611091Y-111503503D01*
X102632685Y-111527486D01*
X102667010Y-111536067D01*
X102668612Y-111536481D01*
X102814234Y-111575500D01*
X102814236Y-111575500D01*
X102965764Y-111575500D01*
X102965766Y-111575500D01*
X103112135Y-111536281D01*
X103112137Y-111536279D01*
X103112139Y-111536279D01*
X103237225Y-111464059D01*
X103240114Y-111462657D01*
X103240907Y-111462135D01*
X103245917Y-111459041D01*
X103247210Y-111458294D01*
X103252568Y-111451311D01*
X103319914Y-111383964D01*
X103344969Y-111365762D01*
X103354717Y-111360795D01*
X103415150Y-111351229D01*
X103469664Y-111379010D01*
X103495918Y-111425886D01*
X103497262Y-111431481D01*
X103500000Y-111454604D01*
X103500000Y-112197652D01*
X103495153Y-112228250D01*
X103491350Y-112239952D01*
X103474096Y-112263695D01*
X103457468Y-112287893D01*
X103456183Y-112288347D01*
X103455383Y-112289450D01*
X103399794Y-112308320D01*
X103389732Y-112308584D01*
X103361513Y-112305245D01*
X103343501Y-112300419D01*
X103343500Y-112300418D01*
X103302564Y-112289450D01*
X103299392Y-112288600D01*
X103299391Y-112288600D01*
X103167609Y-112288600D01*
X103167608Y-112288600D01*
X103164436Y-112289450D01*
X103091622Y-112308959D01*
X103091623Y-112308960D01*
X103040308Y-112322709D01*
X102926191Y-112388595D01*
X102832992Y-112481794D01*
X102767110Y-112595905D01*
X102767109Y-112595907D01*
X102754227Y-112643981D01*
X102754228Y-112643982D01*
X102740645Y-112694675D01*
X102733000Y-112723208D01*
X102733000Y-112854992D01*
X102737992Y-112873622D01*
X102755211Y-112937889D01*
X102767108Y-112982289D01*
X102799228Y-113037921D01*
X102810329Y-113066841D01*
X102812697Y-113077983D01*
X102806300Y-113138833D01*
X102765371Y-113184294D01*
X102765358Y-113184300D01*
X102765358Y-113184302D01*
X102765356Y-113184302D01*
X102761757Y-113186381D01*
X102761162Y-113186725D01*
X102761153Y-113186730D01*
X102711642Y-113200000D01*
X98000159Y-113200000D01*
X97969566Y-113195154D01*
X97956883Y-113191033D01*
X97956881Y-113191033D01*
X97956879Y-113191032D01*
X97907380Y-113155069D01*
X97907379Y-113155068D01*
X97903059Y-113149121D01*
X97889123Y-113114181D01*
X97887279Y-113114676D01*
X97885600Y-113108409D01*
X97885600Y-113108408D01*
X97851492Y-112981114D01*
X97851490Y-112981111D01*
X97851490Y-112981109D01*
X97851483Y-112981098D01*
X97851166Y-112980394D01*
X97849912Y-112978376D01*
X97785603Y-112866990D01*
X97785601Y-112866988D01*
X97785600Y-112866986D01*
X97692414Y-112773800D01*
X97692411Y-112773798D01*
X97692409Y-112773796D01*
X97692402Y-112773792D01*
X97635576Y-112740983D01*
X97614542Y-112717622D01*
X97528899Y-112694675D01*
X97528898Y-112694674D01*
X97471866Y-112679393D01*
X97450992Y-112673800D01*
X97450991Y-112673800D01*
X97319209Y-112673800D01*
X97319208Y-112673800D01*
X97296267Y-112679947D01*
X97241299Y-112694675D01*
X97241298Y-112694674D01*
X97191907Y-112707909D01*
X97191905Y-112707910D01*
X97077794Y-112773792D01*
X96984592Y-112866994D01*
X96918710Y-112981104D01*
X96913865Y-112999186D01*
X96884601Y-113108405D01*
X96884513Y-113108732D01*
X96878240Y-113125733D01*
X96871379Y-113140116D01*
X96829269Y-113184492D01*
X96822809Y-113188000D01*
X96775565Y-113200000D01*
X90401305Y-113200000D01*
X90370708Y-113195153D01*
X90359879Y-113191634D01*
X90359877Y-113191634D01*
X90359875Y-113191632D01*
X90359873Y-113191632D01*
X90346883Y-113182193D01*
X90310377Y-113155670D01*
X90310375Y-113155666D01*
X90291470Y-113097479D01*
X90291470Y-113092609D01*
X90304733Y-113043110D01*
X90307729Y-113037921D01*
X90330090Y-112999190D01*
X90330090Y-112999188D01*
X90330092Y-112999186D01*
X90364200Y-112871892D01*
X90364200Y-112740108D01*
X90330092Y-112612814D01*
X90330090Y-112612811D01*
X90330090Y-112612809D01*
X90330083Y-112612798D01*
X90329766Y-112612094D01*
X90328512Y-112610076D01*
X90264203Y-112498690D01*
X90264201Y-112498688D01*
X90264200Y-112498686D01*
X90171014Y-112405500D01*
X90171011Y-112405498D01*
X90171009Y-112405496D01*
X90171007Y-112405495D01*
X90114176Y-112372683D01*
X90093142Y-112349322D01*
X89993817Y-112322709D01*
X89993816Y-112322708D01*
X89942501Y-112308959D01*
X89929592Y-112305500D01*
X89929591Y-112305500D01*
X89797809Y-112305500D01*
X89797808Y-112305500D01*
X89790389Y-112307488D01*
X89733582Y-112322708D01*
X89733583Y-112322709D01*
X89670508Y-112339609D01*
X89556391Y-112405495D01*
X89463192Y-112498694D01*
X89397308Y-112612809D01*
X89396840Y-112614051D01*
X89396484Y-112615886D01*
X89371827Y-112707910D01*
X89363200Y-112740108D01*
X89363200Y-112871892D01*
X89372102Y-112905114D01*
X89388059Y-112964669D01*
X89388060Y-112964672D01*
X89390024Y-112972000D01*
X89397309Y-112999190D01*
X89422369Y-113042595D01*
X89424542Y-113047529D01*
X89424963Y-113051710D01*
X89430772Y-113066841D01*
X89433140Y-113077983D01*
X89430321Y-113104793D01*
X89430686Y-113108405D01*
X89429778Y-113109962D01*
X89426743Y-113138833D01*
X89385823Y-113184289D01*
X89382895Y-113185980D01*
X89381604Y-113186725D01*
X89332086Y-113200000D01*
X88114680Y-113200000D01*
X88084087Y-113195154D01*
X88071401Y-113191032D01*
X88021901Y-113155068D01*
X88021894Y-113155058D01*
X88018900Y-113150936D01*
X88000000Y-113092756D01*
X88000000Y-112753818D01*
X88004844Y-112723229D01*
X88007391Y-112715389D01*
X88019332Y-112698952D01*
X88043351Y-112665889D01*
X88043352Y-112665888D01*
X88043353Y-112665888D01*
X88068426Y-112657740D01*
X88101541Y-112646978D01*
X88101543Y-112646978D01*
X88159733Y-112665882D01*
X88163140Y-112668357D01*
X88190690Y-112698952D01*
X88233899Y-112773792D01*
X88236796Y-112778809D01*
X88236798Y-112778811D01*
X88236800Y-112778814D01*
X88329986Y-112872000D01*
X88329988Y-112872001D01*
X88329990Y-112872003D01*
X88330537Y-112872398D01*
X88332539Y-112873475D01*
X88376507Y-112898859D01*
X88387340Y-112905114D01*
X88408934Y-112929096D01*
X88443244Y-112937674D01*
X88444848Y-112938088D01*
X88571408Y-112972000D01*
X88571410Y-112972000D01*
X88703190Y-112972000D01*
X88703192Y-112972000D01*
X88830486Y-112937892D01*
X88830488Y-112937890D01*
X88830490Y-112937890D01*
X88938490Y-112875535D01*
X88941367Y-112874139D01*
X88942153Y-112873622D01*
X88947162Y-112870528D01*
X88948461Y-112869777D01*
X88953819Y-112862794D01*
X89037800Y-112778814D01*
X89040697Y-112773796D01*
X89103690Y-112664690D01*
X89103690Y-112664688D01*
X89103692Y-112664686D01*
X89137800Y-112537392D01*
X89137800Y-112405608D01*
X89103692Y-112278314D01*
X89103690Y-112278311D01*
X89103690Y-112278309D01*
X89103683Y-112278298D01*
X89103366Y-112277594D01*
X89102112Y-112275576D01*
X89037803Y-112164190D01*
X89037801Y-112164188D01*
X89037800Y-112164186D01*
X88944614Y-112071000D01*
X88944611Y-112070998D01*
X88944609Y-112070996D01*
X88887776Y-112038183D01*
X88866742Y-112014822D01*
X88781099Y-111991875D01*
X88781098Y-111991874D01*
X88724066Y-111976593D01*
X88703192Y-111971000D01*
X88703191Y-111971000D01*
X88571409Y-111971000D01*
X88571408Y-111971000D01*
X88532454Y-111981437D01*
X88493499Y-111991875D01*
X88493498Y-111991874D01*
X88444108Y-112005109D01*
X88329988Y-112070997D01*
X88329980Y-112071004D01*
X88250403Y-112150580D01*
X88225347Y-112168784D01*
X88215199Y-112173955D01*
X88154768Y-112183529D01*
X88100250Y-112155752D01*
X88100248Y-112155751D01*
X88096802Y-112152305D01*
X88071180Y-112107924D01*
X88067292Y-112093414D01*
X88019567Y-112010752D01*
X88009565Y-111986453D01*
X88008677Y-111983081D01*
X88008557Y-111982269D01*
X88003316Y-111962710D01*
X88003260Y-111962496D01*
X88003277Y-111962192D01*
X88000000Y-111937299D01*
X88000000Y-109851004D01*
X94979500Y-109851004D01*
X94979500Y-111088995D01*
X95004093Y-111212631D01*
X95004518Y-111214764D01*
X95004518Y-111214768D01*
X95006419Y-111224330D01*
X95059216Y-111351794D01*
X95059219Y-111351801D01*
X95059232Y-111351824D01*
X95135884Y-111466540D01*
X95233458Y-111564114D01*
X95348174Y-111640766D01*
X95348177Y-111640767D01*
X95348182Y-111640771D01*
X95348193Y-111640777D01*
X95348197Y-111640779D01*
X95395283Y-111660282D01*
X95475672Y-111693580D01*
X95611007Y-111720500D01*
X95611008Y-111720500D01*
X95748992Y-111720500D01*
X95748993Y-111720500D01*
X95884328Y-111693580D01*
X96011811Y-111640775D01*
X96126542Y-111564114D01*
X96224114Y-111466542D01*
X96300775Y-111351811D01*
X96353580Y-111224328D01*
X96361731Y-111183346D01*
X96361764Y-111183287D01*
X96372449Y-111154291D01*
X96376482Y-111147089D01*
X96387945Y-111136494D01*
X96391572Y-111130012D01*
X96397325Y-111124686D01*
X96404111Y-111121551D01*
X96421411Y-111105561D01*
X96444694Y-111102805D01*
X96452871Y-111099029D01*
X96461748Y-111100787D01*
X96482173Y-111098371D01*
X96500033Y-111108373D01*
X96512890Y-111110921D01*
X96521834Y-111120583D01*
X96535552Y-111128265D01*
X96537277Y-111130131D01*
X96547005Y-111147771D01*
X96554456Y-111155819D01*
X96555285Y-111162784D01*
X96560207Y-111171709D01*
X96573720Y-111222139D01*
X96573721Y-111222141D01*
X96573722Y-111222144D01*
X96649479Y-111353358D01*
X96649481Y-111353360D01*
X96649483Y-111353362D01*
X96649485Y-111353365D01*
X96756635Y-111460515D01*
X96756637Y-111460516D01*
X96756639Y-111460518D01*
X96757186Y-111460913D01*
X96759188Y-111461990D01*
X96767073Y-111466542D01*
X96831091Y-111503503D01*
X96852685Y-111527486D01*
X96887010Y-111536067D01*
X96888612Y-111536481D01*
X97034234Y-111575500D01*
X97034236Y-111575500D01*
X97185764Y-111575500D01*
X97185766Y-111575500D01*
X97332135Y-111536281D01*
X97332137Y-111536279D01*
X97332139Y-111536279D01*
X97457225Y-111464059D01*
X97460114Y-111462657D01*
X97460904Y-111462137D01*
X97465913Y-111459043D01*
X97467212Y-111458292D01*
X97472572Y-111451308D01*
X97570515Y-111353365D01*
X97618763Y-111269797D01*
X97646279Y-111222139D01*
X97646279Y-111222137D01*
X97646281Y-111222135D01*
X97685500Y-111075766D01*
X97685500Y-110924234D01*
X97649718Y-110790691D01*
X99399500Y-110790691D01*
X99399500Y-110909309D01*
X99426574Y-111010351D01*
X99430202Y-111023890D01*
X99489507Y-111126608D01*
X99489509Y-111126610D01*
X99489511Y-111126613D01*
X99573387Y-111210489D01*
X99573389Y-111210490D01*
X99573391Y-111210492D01*
X99573939Y-111210887D01*
X99575934Y-111211960D01*
X99673357Y-111268207D01*
X99673357Y-111268208D01*
X99676109Y-111269797D01*
X99676112Y-111269797D01*
X99676114Y-111269799D01*
X99790691Y-111300500D01*
X99790693Y-111300500D01*
X99909307Y-111300500D01*
X99909309Y-111300500D01*
X100023886Y-111269799D01*
X100023887Y-111269798D01*
X100023889Y-111269797D01*
X100023890Y-111269797D01*
X100120473Y-111214034D01*
X100123361Y-111212631D01*
X100124145Y-111212115D01*
X100129162Y-111209016D01*
X100130460Y-111208266D01*
X100135818Y-111201283D01*
X100210489Y-111126613D01*
X100210492Y-111126608D01*
X100269797Y-111023890D01*
X100269797Y-111023888D01*
X100269799Y-111023886D01*
X100300500Y-110909309D01*
X100300500Y-110790691D01*
X100269799Y-110676114D01*
X100269797Y-110676111D01*
X100269797Y-110676109D01*
X100269794Y-110676105D01*
X100269475Y-110675399D01*
X100268224Y-110673384D01*
X100210492Y-110573391D01*
X100210490Y-110573389D01*
X100210489Y-110573387D01*
X100126613Y-110489511D01*
X100126610Y-110489509D01*
X100126608Y-110489507D01*
X100126605Y-110489505D01*
X100126603Y-110489503D01*
X100081176Y-110463276D01*
X100060142Y-110439915D01*
X100002610Y-110424500D01*
X99979430Y-110418289D01*
X99909309Y-110399500D01*
X99909307Y-110399500D01*
X99790692Y-110399500D01*
X99790691Y-110399500D01*
X99755629Y-110408894D01*
X99720566Y-110418289D01*
X99720565Y-110418288D01*
X99676111Y-110430200D01*
X99676108Y-110430201D01*
X99573393Y-110489505D01*
X99489503Y-110573395D01*
X99430201Y-110676109D01*
X99429924Y-110676844D01*
X99429377Y-110679185D01*
X99402938Y-110777860D01*
X99399500Y-110790691D01*
X97649718Y-110790691D01*
X97646281Y-110777865D01*
X97646279Y-110777861D01*
X97646279Y-110777860D01*
X97646276Y-110777854D01*
X97571991Y-110649189D01*
X97570915Y-110647190D01*
X97570518Y-110646639D01*
X97570516Y-110646637D01*
X97570515Y-110646635D01*
X97463365Y-110539485D01*
X97463362Y-110539483D01*
X97463360Y-110539481D01*
X97463359Y-110539480D01*
X97389426Y-110496795D01*
X97368390Y-110473432D01*
X97275347Y-110448503D01*
X97275346Y-110448502D01*
X97207046Y-110430202D01*
X97185766Y-110424500D01*
X97185765Y-110424500D01*
X97034235Y-110424500D01*
X97034234Y-110424500D01*
X97015304Y-110429572D01*
X96944652Y-110448502D01*
X96944652Y-110448503D01*
X96887860Y-110463720D01*
X96887858Y-110463720D01*
X96887854Y-110463722D01*
X96756643Y-110539477D01*
X96649480Y-110646640D01*
X96590790Y-110748294D01*
X96587925Y-110752954D01*
X96583193Y-110760194D01*
X96562554Y-110791972D01*
X96515002Y-110830474D01*
X96453900Y-110833673D01*
X96402587Y-110800347D01*
X96402429Y-110800002D01*
X96402381Y-110799971D01*
X96402215Y-110799537D01*
X96382105Y-110755647D01*
X96382077Y-110755492D01*
X96381036Y-110743877D01*
X96380621Y-110742786D01*
X96380859Y-110741905D01*
X96380500Y-110737893D01*
X96380500Y-109851013D01*
X96380500Y-109851008D01*
X96380499Y-109851004D01*
X96380498Y-109851002D01*
X96380426Y-109850418D01*
X96380036Y-109848676D01*
X96353580Y-109715672D01*
X96300775Y-109588189D01*
X96300774Y-109588187D01*
X96300771Y-109588182D01*
X96224114Y-109473458D01*
X96126541Y-109375885D01*
X96126540Y-109375884D01*
X96011824Y-109299232D01*
X96011801Y-109299219D01*
X95884329Y-109246420D01*
X95748995Y-109219500D01*
X95748993Y-109219500D01*
X95611007Y-109219500D01*
X95611004Y-109219500D01*
X95611003Y-109219500D01*
X95555876Y-109230465D01*
X95485234Y-109244518D01*
X95485227Y-109244518D01*
X95475668Y-109246419D01*
X95348204Y-109299216D01*
X95348197Y-109299219D01*
X95348174Y-109299232D01*
X95233458Y-109375884D01*
X95135884Y-109473458D01*
X95059232Y-109588174D01*
X95059219Y-109588197D01*
X95059216Y-109588204D01*
X95006421Y-109715665D01*
X95006421Y-109715666D01*
X95006420Y-109715673D01*
X94979617Y-109850418D01*
X94979500Y-109851004D01*
X88000000Y-109851004D01*
X88000000Y-109114680D01*
X88004843Y-109084094D01*
X88008965Y-109071405D01*
X88044923Y-109021906D01*
X88045522Y-109021471D01*
X88049063Y-109018900D01*
X88107243Y-109000000D01*
X103385320Y-109000000D01*
X103415908Y-109004843D01*
G37*
G04 #@! TD.AperFunction*
G04 #@! TA.AperFunction,Conductor*
G36*
X87115908Y-94004843D02*
G01*
X87128597Y-94008966D01*
X87178096Y-94044928D01*
X87181091Y-94049050D01*
X87200000Y-94107240D01*
X87200000Y-101642058D01*
X87195154Y-101672651D01*
X87191032Y-101685337D01*
X87155068Y-101734837D01*
X87146131Y-101741330D01*
X87113565Y-101756863D01*
X87085423Y-101764403D01*
X87085407Y-101764409D01*
X87085393Y-101764417D01*
X86971292Y-101830294D01*
X86878092Y-101923494D01*
X86812208Y-102037609D01*
X86811930Y-102038345D01*
X86811384Y-102040686D01*
X86778100Y-102164908D01*
X86778100Y-102296691D01*
X86790934Y-102344590D01*
X86812210Y-102423994D01*
X86878094Y-102538107D01*
X86878096Y-102538109D01*
X86878098Y-102538111D01*
X86878100Y-102538114D01*
X86971286Y-102631300D01*
X86971288Y-102631301D01*
X86971290Y-102631303D01*
X87085410Y-102697190D01*
X87085411Y-102697190D01*
X87085414Y-102697192D01*
X87111481Y-102704176D01*
X87139769Y-102716770D01*
X87150956Y-102724035D01*
X87189460Y-102771577D01*
X87193421Y-102781893D01*
X87200000Y-102817380D01*
X87200000Y-103519072D01*
X87195154Y-103549665D01*
X87191032Y-103562351D01*
X87155068Y-103611851D01*
X87146131Y-103618344D01*
X87113564Y-103633878D01*
X87044413Y-103652407D01*
X87044408Y-103652409D01*
X87044393Y-103652417D01*
X86930292Y-103718294D01*
X86837092Y-103811494D01*
X86771208Y-103925609D01*
X86770930Y-103926345D01*
X86770384Y-103928686D01*
X86737100Y-104052908D01*
X86737100Y-104184692D01*
X86767179Y-104296951D01*
X86771209Y-104311990D01*
X86837096Y-104426109D01*
X86837098Y-104426111D01*
X86837100Y-104426114D01*
X86930286Y-104519300D01*
X86930288Y-104519301D01*
X86930290Y-104519303D01*
X86930837Y-104519698D01*
X86932847Y-104520779D01*
X86987640Y-104552414D01*
X87009234Y-104576397D01*
X87043543Y-104584974D01*
X87045156Y-104585391D01*
X87111487Y-104603164D01*
X87115060Y-104604754D01*
X87115104Y-104604609D01*
X87117112Y-104605203D01*
X87126840Y-104609998D01*
X87139765Y-104615751D01*
X87140922Y-104616502D01*
X87140707Y-104616832D01*
X87147213Y-104620039D01*
X87154353Y-104625227D01*
X87154370Y-104625238D01*
X87155178Y-104625825D01*
X87189413Y-104670441D01*
X87193424Y-104680890D01*
X87200000Y-104716368D01*
X87200000Y-104875676D01*
X87195155Y-104906269D01*
X87188228Y-104927588D01*
X87164979Y-104966085D01*
X87150332Y-104981117D01*
X87149430Y-104982031D01*
X87085644Y-105045817D01*
X87060585Y-105064023D01*
X87037595Y-105075737D01*
X87000402Y-105086223D01*
X86995051Y-105086643D01*
X86986397Y-105092279D01*
X86986279Y-105092310D01*
X86882909Y-105120008D01*
X86882905Y-105120010D01*
X86768794Y-105185892D01*
X86675595Y-105279091D01*
X86609708Y-105393211D01*
X86601728Y-105422990D01*
X86601729Y-105422991D01*
X86601729Y-105422992D01*
X86575600Y-105520508D01*
X86575600Y-105652292D01*
X86593713Y-105719890D01*
X86609709Y-105779590D01*
X86609710Y-105779592D01*
X86609711Y-105779595D01*
X86675594Y-105893707D01*
X86675596Y-105893709D01*
X86675598Y-105893711D01*
X86675600Y-105893714D01*
X86768786Y-105986900D01*
X86768788Y-105986901D01*
X86768790Y-105986903D01*
X86769337Y-105987298D01*
X86771347Y-105988379D01*
X86826140Y-106020014D01*
X86847734Y-106043996D01*
X86882044Y-106052574D01*
X86883648Y-106052988D01*
X87010208Y-106086900D01*
X87010210Y-106086900D01*
X87085320Y-106086900D01*
X87115908Y-106091743D01*
X87128595Y-106095866D01*
X87178095Y-106131827D01*
X87178096Y-106131828D01*
X87181091Y-106135950D01*
X87200000Y-106194140D01*
X87200000Y-111385319D01*
X87195154Y-111415912D01*
X87191032Y-111428598D01*
X87155080Y-111478089D01*
X87150959Y-111481084D01*
X87092771Y-111500000D01*
X83514680Y-111500000D01*
X83484087Y-111495154D01*
X83471401Y-111491032D01*
X83421901Y-111455068D01*
X83421894Y-111455058D01*
X83418900Y-111450936D01*
X83400000Y-111392756D01*
X83400000Y-109520280D01*
X83404843Y-109489694D01*
X83408965Y-109477005D01*
X83444923Y-109427506D01*
X83447459Y-109425665D01*
X83449063Y-109424500D01*
X83502740Y-109407062D01*
X83502659Y-109406447D01*
X83505982Y-109406009D01*
X83507243Y-109405600D01*
X83509092Y-109405600D01*
X83587366Y-109384625D01*
X83622701Y-109381730D01*
X83630002Y-109382449D01*
X83633351Y-109382780D01*
X83633353Y-109382780D01*
X83634062Y-109382850D01*
X83686665Y-109404445D01*
X83690719Y-109407729D01*
X83724029Y-109459032D01*
X83744005Y-109533582D01*
X83744009Y-109533590D01*
X83744017Y-109533605D01*
X83809895Y-109647708D01*
X83809896Y-109647709D01*
X83809898Y-109647711D01*
X83809900Y-109647714D01*
X83903086Y-109740900D01*
X83903088Y-109740901D01*
X83903090Y-109740903D01*
X83903637Y-109741298D01*
X83905639Y-109742375D01*
X83949607Y-109767759D01*
X83960440Y-109774014D01*
X83982034Y-109797996D01*
X84016344Y-109806574D01*
X84017948Y-109806988D01*
X84144508Y-109840900D01*
X84144510Y-109840900D01*
X84276290Y-109840900D01*
X84276292Y-109840900D01*
X84403586Y-109806792D01*
X84403588Y-109806790D01*
X84403590Y-109806790D01*
X84511590Y-109744435D01*
X84514467Y-109743039D01*
X84515253Y-109742522D01*
X84520262Y-109739428D01*
X84521561Y-109738677D01*
X84526919Y-109731694D01*
X84610900Y-109647714D01*
X84610903Y-109647709D01*
X84676790Y-109533590D01*
X84676790Y-109533588D01*
X84676792Y-109533586D01*
X84710900Y-109406292D01*
X84710900Y-109274508D01*
X84676792Y-109147214D01*
X84676790Y-109147211D01*
X84676790Y-109147209D01*
X84676783Y-109147198D01*
X84676466Y-109146494D01*
X84675212Y-109144476D01*
X84610903Y-109033090D01*
X84610901Y-109033088D01*
X84610900Y-109033086D01*
X84517714Y-108939900D01*
X84517711Y-108939898D01*
X84517709Y-108939896D01*
X84460876Y-108907083D01*
X84439842Y-108883722D01*
X84354199Y-108860775D01*
X84354198Y-108860774D01*
X84297166Y-108845493D01*
X84276292Y-108839900D01*
X84276291Y-108839900D01*
X84144506Y-108839900D01*
X84118034Y-108846992D01*
X84118035Y-108846993D01*
X84068094Y-108860374D01*
X84037284Y-108863610D01*
X84032809Y-108863376D01*
X84023965Y-108862912D01*
X84018399Y-108860775D01*
X83966848Y-108840983D01*
X83966846Y-108840981D01*
X83966845Y-108840981D01*
X83966844Y-108840980D01*
X83962888Y-108837776D01*
X83929567Y-108786463D01*
X83909593Y-108711918D01*
X83909592Y-108711914D01*
X83909590Y-108711911D01*
X83909590Y-108711909D01*
X83909585Y-108711900D01*
X83909265Y-108711193D01*
X83908012Y-108709176D01*
X83843703Y-108597790D01*
X83843701Y-108597788D01*
X83843700Y-108597786D01*
X83750514Y-108504600D01*
X83750511Y-108504598D01*
X83750509Y-108504596D01*
X83693676Y-108471783D01*
X83672642Y-108448422D01*
X83587928Y-108425724D01*
X83586999Y-108425475D01*
X83509092Y-108404600D01*
X83502606Y-108404600D01*
X83490888Y-108401699D01*
X83489018Y-108400535D01*
X83484087Y-108399754D01*
X83471401Y-108395632D01*
X83421901Y-108359668D01*
X83421894Y-108359658D01*
X83418900Y-108355536D01*
X83400000Y-108297356D01*
X83400000Y-105187608D01*
X83882800Y-105187608D01*
X83882800Y-105319392D01*
X83893793Y-105360420D01*
X83907818Y-105412763D01*
X83907819Y-105412765D01*
X83910559Y-105422990D01*
X83916909Y-105446690D01*
X83982796Y-105560809D01*
X83982798Y-105560811D01*
X83982800Y-105560814D01*
X84075986Y-105654000D01*
X84075988Y-105654001D01*
X84075990Y-105654003D01*
X84076537Y-105654398D01*
X84078539Y-105655475D01*
X84117062Y-105677716D01*
X84133340Y-105687114D01*
X84154934Y-105711096D01*
X84189244Y-105719674D01*
X84190848Y-105720088D01*
X84317408Y-105754000D01*
X84317410Y-105754000D01*
X84449190Y-105754000D01*
X84449192Y-105754000D01*
X84576486Y-105719892D01*
X84576488Y-105719890D01*
X84576490Y-105719890D01*
X84679765Y-105660263D01*
X84679768Y-105660263D01*
X84708675Y-105649166D01*
X84721725Y-105646392D01*
X84737318Y-105648030D01*
X84739613Y-105647543D01*
X84741755Y-105648496D01*
X84782571Y-105652785D01*
X84792669Y-105657281D01*
X84822401Y-105677716D01*
X84902286Y-105757600D01*
X84902837Y-105757998D01*
X84904839Y-105759075D01*
X84940373Y-105779590D01*
X84959640Y-105790714D01*
X84981234Y-105814696D01*
X85015544Y-105823274D01*
X85017148Y-105823688D01*
X85143708Y-105857600D01*
X85143710Y-105857600D01*
X85275490Y-105857600D01*
X85275492Y-105857600D01*
X85402786Y-105823492D01*
X85402788Y-105823490D01*
X85402790Y-105823490D01*
X85510790Y-105761135D01*
X85513667Y-105759739D01*
X85514453Y-105759222D01*
X85519462Y-105756128D01*
X85520760Y-105755378D01*
X85526118Y-105748395D01*
X85610100Y-105664414D01*
X85616111Y-105654003D01*
X85617100Y-105652291D01*
X85668573Y-105563136D01*
X85675990Y-105550290D01*
X85675990Y-105550288D01*
X85675992Y-105550286D01*
X85710100Y-105422992D01*
X85710100Y-105291208D01*
X85675992Y-105163914D01*
X85675990Y-105163911D01*
X85675990Y-105163909D01*
X85675983Y-105163898D01*
X85675666Y-105163194D01*
X85674412Y-105161176D01*
X85610103Y-105049790D01*
X85610101Y-105049788D01*
X85610100Y-105049786D01*
X85516914Y-104956600D01*
X85516911Y-104956598D01*
X85516909Y-104956596D01*
X85506063Y-104950334D01*
X85460076Y-104923783D01*
X85439042Y-104900422D01*
X85353399Y-104877475D01*
X85353398Y-104877474D01*
X85296366Y-104862193D01*
X85275492Y-104856600D01*
X85275491Y-104856600D01*
X85143709Y-104856600D01*
X85143708Y-104856600D01*
X85130117Y-104860241D01*
X85065799Y-104877474D01*
X85065800Y-104877475D01*
X85016409Y-104890709D01*
X85016408Y-104890709D01*
X85016406Y-104890710D01*
X84913137Y-104950334D01*
X84884219Y-104961434D01*
X84871173Y-104964208D01*
X84810323Y-104957812D01*
X84800231Y-104953318D01*
X84770498Y-104932883D01*
X84690612Y-104852998D01*
X84633776Y-104820183D01*
X84612742Y-104796822D01*
X84527099Y-104773875D01*
X84527098Y-104773874D01*
X84470066Y-104758593D01*
X84449192Y-104753000D01*
X84449191Y-104753000D01*
X84317409Y-104753000D01*
X84317408Y-104753000D01*
X84278454Y-104763437D01*
X84239499Y-104773875D01*
X84239498Y-104773874D01*
X84190107Y-104787109D01*
X84190105Y-104787110D01*
X84075994Y-104852992D01*
X83982792Y-104946194D01*
X83916910Y-105060305D01*
X83916908Y-105060309D01*
X83910051Y-105085898D01*
X83910052Y-105085899D01*
X83910052Y-105085900D01*
X83882800Y-105187608D01*
X83400000Y-105187608D01*
X83400000Y-101812308D01*
X84524700Y-101812308D01*
X84524700Y-101818276D01*
X84524700Y-101944091D01*
X84549758Y-102037609D01*
X84549758Y-102037611D01*
X84558806Y-102071384D01*
X84558807Y-102071386D01*
X84558808Y-102071389D01*
X84558809Y-102071390D01*
X84624696Y-102185509D01*
X84624698Y-102185511D01*
X84624700Y-102185514D01*
X84717886Y-102278700D01*
X84717888Y-102278701D01*
X84717890Y-102278703D01*
X84718437Y-102279098D01*
X84720439Y-102280175D01*
X84749046Y-102296691D01*
X84775240Y-102311814D01*
X84796834Y-102335796D01*
X84831144Y-102344374D01*
X84832748Y-102344788D01*
X84959308Y-102378700D01*
X84959310Y-102378700D01*
X85091090Y-102378700D01*
X85091092Y-102378700D01*
X85218386Y-102344592D01*
X85218388Y-102344590D01*
X85218390Y-102344590D01*
X85326390Y-102282235D01*
X85329267Y-102280839D01*
X85330053Y-102280322D01*
X85335062Y-102277228D01*
X85336361Y-102276477D01*
X85341719Y-102269494D01*
X85425700Y-102185514D01*
X85491592Y-102071386D01*
X85525700Y-101944092D01*
X85525700Y-101812308D01*
X85491592Y-101685014D01*
X85491590Y-101685011D01*
X85491590Y-101685009D01*
X85491583Y-101684998D01*
X85491266Y-101684294D01*
X85490012Y-101682276D01*
X85425703Y-101570890D01*
X85425701Y-101570888D01*
X85425700Y-101570886D01*
X85332514Y-101477700D01*
X85332511Y-101477698D01*
X85332509Y-101477696D01*
X85332502Y-101477692D01*
X85275676Y-101444883D01*
X85254642Y-101421522D01*
X85168999Y-101398575D01*
X85168998Y-101398574D01*
X85111966Y-101383293D01*
X85091092Y-101377700D01*
X85091091Y-101377700D01*
X84959309Y-101377700D01*
X84959308Y-101377700D01*
X84920354Y-101388137D01*
X84881399Y-101398575D01*
X84881398Y-101398574D01*
X84832007Y-101411809D01*
X84832005Y-101411810D01*
X84717894Y-101477692D01*
X84624692Y-101570894D01*
X84558808Y-101685009D01*
X84558530Y-101685745D01*
X84558264Y-101686885D01*
X84558271Y-101686990D01*
X84558113Y-101687605D01*
X84524700Y-101812308D01*
X83400000Y-101812308D01*
X83400000Y-101050180D01*
X83404843Y-101019594D01*
X83408965Y-101006905D01*
X83444923Y-100957406D01*
X83445522Y-100956971D01*
X83449063Y-100954400D01*
X83507243Y-100935500D01*
X83584890Y-100935500D01*
X83584892Y-100935500D01*
X83712186Y-100901392D01*
X83712188Y-100901390D01*
X83712190Y-100901390D01*
X83820190Y-100839035D01*
X83823067Y-100837639D01*
X83823853Y-100837122D01*
X83828862Y-100834028D01*
X83830161Y-100833277D01*
X83835519Y-100826294D01*
X83919500Y-100742314D01*
X83985392Y-100628186D01*
X84019500Y-100500892D01*
X84019500Y-100369108D01*
X83985392Y-100241814D01*
X83985390Y-100241811D01*
X83985390Y-100241809D01*
X83985383Y-100241798D01*
X83985066Y-100241094D01*
X83983812Y-100239076D01*
X83919503Y-100127690D01*
X83919501Y-100127688D01*
X83919500Y-100127686D01*
X83826314Y-100034500D01*
X83826311Y-100034498D01*
X83826309Y-100034496D01*
X83769476Y-100001683D01*
X83748442Y-99978322D01*
X83662799Y-99955375D01*
X83662798Y-99955374D01*
X83605766Y-99940093D01*
X83584892Y-99934500D01*
X83584891Y-99934500D01*
X83514679Y-99934500D01*
X83490535Y-99931511D01*
X83487284Y-99930693D01*
X83484088Y-99929655D01*
X83483154Y-99929655D01*
X83477277Y-99928177D01*
X83454921Y-99914145D01*
X83431410Y-99902162D01*
X83427705Y-99897061D01*
X83425454Y-99895649D01*
X83423939Y-99891877D01*
X83413209Y-99877107D01*
X83410788Y-99872355D01*
X83402903Y-99839508D01*
X83402648Y-99838873D01*
X83402700Y-99838664D01*
X83400000Y-99827414D01*
X83400000Y-99736908D01*
X84148300Y-99736908D01*
X84148300Y-99868692D01*
X84157468Y-99902907D01*
X84182409Y-99995990D01*
X84182410Y-99995992D01*
X84182411Y-99995995D01*
X84248294Y-100110107D01*
X84248296Y-100110109D01*
X84248298Y-100110111D01*
X84248300Y-100110114D01*
X84341486Y-100203300D01*
X84341488Y-100203301D01*
X84341490Y-100203303D01*
X84342037Y-100203698D01*
X84344039Y-100204775D01*
X84388007Y-100230159D01*
X84398840Y-100236414D01*
X84420434Y-100260396D01*
X84454744Y-100268974D01*
X84456348Y-100269388D01*
X84582908Y-100303300D01*
X84582910Y-100303300D01*
X84714690Y-100303300D01*
X84714692Y-100303300D01*
X84841986Y-100269192D01*
X84841988Y-100269190D01*
X84841990Y-100269190D01*
X84949990Y-100206835D01*
X84952867Y-100205439D01*
X84953653Y-100204922D01*
X84958662Y-100201828D01*
X84959961Y-100201077D01*
X84965319Y-100194094D01*
X85049300Y-100110114D01*
X85115192Y-99995986D01*
X85149300Y-99868692D01*
X85149300Y-99760013D01*
X85154147Y-99729416D01*
X85157668Y-99718581D01*
X85193634Y-99669083D01*
X85251821Y-99650178D01*
X85256692Y-99650178D01*
X85306191Y-99663441D01*
X85375214Y-99703292D01*
X85502508Y-99737400D01*
X85502510Y-99737400D01*
X85634290Y-99737400D01*
X85634292Y-99737400D01*
X85761586Y-99703292D01*
X85761588Y-99703290D01*
X85761590Y-99703290D01*
X85869590Y-99640935D01*
X85872467Y-99639539D01*
X85873253Y-99639022D01*
X85878262Y-99635928D01*
X85879561Y-99635177D01*
X85884919Y-99628194D01*
X85968900Y-99544214D01*
X86034792Y-99430086D01*
X86068900Y-99302792D01*
X86068900Y-99171008D01*
X86034792Y-99043714D01*
X86034790Y-99043711D01*
X86034790Y-99043709D01*
X86034783Y-99043698D01*
X86034466Y-99042994D01*
X86033212Y-99040976D01*
X85968903Y-98929590D01*
X85968901Y-98929588D01*
X85968900Y-98929586D01*
X85875714Y-98836400D01*
X85875711Y-98836398D01*
X85875709Y-98836396D01*
X85875702Y-98836392D01*
X85818876Y-98803583D01*
X85797842Y-98780222D01*
X85712199Y-98757275D01*
X85712198Y-98757274D01*
X85655166Y-98741993D01*
X85634292Y-98736400D01*
X85634291Y-98736400D01*
X85502509Y-98736400D01*
X85502508Y-98736400D01*
X85463554Y-98746837D01*
X85424599Y-98757275D01*
X85424598Y-98757274D01*
X85375207Y-98770509D01*
X85375205Y-98770510D01*
X85261094Y-98836392D01*
X85167892Y-98929594D01*
X85102011Y-99043703D01*
X85102009Y-99043707D01*
X85102009Y-99043709D01*
X85067900Y-99171009D01*
X85067900Y-99171010D01*
X85067900Y-99279685D01*
X85063054Y-99310279D01*
X85059533Y-99321115D01*
X85023569Y-99370615D01*
X84965379Y-99389521D01*
X84960507Y-99389521D01*
X84911007Y-99376257D01*
X84871690Y-99353557D01*
X84841986Y-99336407D01*
X84799555Y-99325037D01*
X84799555Y-99325038D01*
X84744471Y-99310279D01*
X84714692Y-99302300D01*
X84714691Y-99302300D01*
X84582909Y-99302300D01*
X84582908Y-99302300D01*
X84543954Y-99312737D01*
X84504999Y-99323175D01*
X84504998Y-99323174D01*
X84455607Y-99336409D01*
X84455605Y-99336410D01*
X84341494Y-99402292D01*
X84248292Y-99495494D01*
X84182408Y-99609609D01*
X84182130Y-99610345D01*
X84181864Y-99611485D01*
X84181871Y-99611590D01*
X84181713Y-99612205D01*
X84148300Y-99736908D01*
X83400000Y-99736908D01*
X83400000Y-97546923D01*
X83403267Y-97536866D01*
X83402161Y-97526350D01*
X83404844Y-97516334D01*
X83407391Y-97508494D01*
X83416608Y-97495806D01*
X83418907Y-97488732D01*
X83432748Y-97473359D01*
X83433234Y-97472920D01*
X83443353Y-97458993D01*
X83501543Y-97440083D01*
X83541540Y-97453075D01*
X83554447Y-97455817D01*
X83556293Y-97457866D01*
X83559726Y-97458982D01*
X83563135Y-97461458D01*
X83590689Y-97492054D01*
X83592856Y-97495806D01*
X83599502Y-97507317D01*
X83599503Y-97507318D01*
X83692686Y-97600500D01*
X83693237Y-97600898D01*
X83695239Y-97601975D01*
X83739207Y-97627359D01*
X83750040Y-97633614D01*
X83771634Y-97657596D01*
X83805944Y-97666174D01*
X83807548Y-97666588D01*
X83934108Y-97700500D01*
X83934110Y-97700500D01*
X84065890Y-97700500D01*
X84065892Y-97700500D01*
X84193186Y-97666392D01*
X84193188Y-97666390D01*
X84193190Y-97666390D01*
X84301190Y-97604035D01*
X84304067Y-97602639D01*
X84304853Y-97602122D01*
X84309862Y-97599028D01*
X84311161Y-97598277D01*
X84316519Y-97591294D01*
X84400500Y-97507314D01*
X84400503Y-97507309D01*
X84466390Y-97393190D01*
X84466390Y-97393188D01*
X84466392Y-97393186D01*
X84500500Y-97265892D01*
X84500500Y-97134108D01*
X84466392Y-97006814D01*
X84466390Y-97006811D01*
X84466390Y-97006809D01*
X84466383Y-97006798D01*
X84466066Y-97006094D01*
X84464812Y-97004076D01*
X84400503Y-96892690D01*
X84400501Y-96892688D01*
X84400500Y-96892686D01*
X84307314Y-96799500D01*
X84307311Y-96799498D01*
X84307309Y-96799496D01*
X84307302Y-96799492D01*
X84250476Y-96766683D01*
X84229442Y-96743322D01*
X84143799Y-96720375D01*
X84143798Y-96720374D01*
X84086766Y-96705093D01*
X84065892Y-96699500D01*
X84065891Y-96699500D01*
X83934109Y-96699500D01*
X83934108Y-96699500D01*
X83895154Y-96709937D01*
X83856199Y-96720375D01*
X83856198Y-96720374D01*
X83806807Y-96733609D01*
X83806805Y-96733610D01*
X83692694Y-96799492D01*
X83599496Y-96892690D01*
X83592573Y-96904681D01*
X83584710Y-96911759D01*
X83580408Y-96921423D01*
X83573077Y-96928754D01*
X83566951Y-96934269D01*
X83552628Y-96940644D01*
X83547102Y-96945620D01*
X83527420Y-96952014D01*
X83526779Y-96952150D01*
X83511054Y-96959150D01*
X83451206Y-96946425D01*
X83423075Y-96915177D01*
X83413262Y-96906341D01*
X83412687Y-96903638D01*
X83410270Y-96900953D01*
X83408553Y-96897096D01*
X83400000Y-96856843D01*
X83400000Y-94934108D01*
X85699500Y-94934108D01*
X85699500Y-95065892D01*
X85729579Y-95178151D01*
X85733609Y-95193190D01*
X85799496Y-95307309D01*
X85799498Y-95307311D01*
X85799500Y-95307314D01*
X85892686Y-95400500D01*
X85892688Y-95400501D01*
X85892690Y-95400503D01*
X85893237Y-95400898D01*
X85895239Y-95401975D01*
X85939207Y-95427359D01*
X85950040Y-95433614D01*
X85971634Y-95457596D01*
X86005944Y-95466174D01*
X86007548Y-95466588D01*
X86134108Y-95500500D01*
X86134110Y-95500500D01*
X86265890Y-95500500D01*
X86265892Y-95500500D01*
X86393186Y-95466392D01*
X86393188Y-95466390D01*
X86393190Y-95466390D01*
X86501190Y-95404035D01*
X86504067Y-95402639D01*
X86504853Y-95402122D01*
X86509862Y-95399028D01*
X86511161Y-95398277D01*
X86516519Y-95391294D01*
X86600500Y-95307314D01*
X86666392Y-95193186D01*
X86700500Y-95065892D01*
X86700500Y-94934108D01*
X86666392Y-94806814D01*
X86666390Y-94806811D01*
X86666390Y-94806809D01*
X86666383Y-94806798D01*
X86666066Y-94806094D01*
X86664812Y-94804076D01*
X86600503Y-94692690D01*
X86600501Y-94692688D01*
X86600500Y-94692686D01*
X86507314Y-94599500D01*
X86507311Y-94599498D01*
X86507309Y-94599496D01*
X86507302Y-94599492D01*
X86450476Y-94566683D01*
X86429442Y-94543322D01*
X86343799Y-94520375D01*
X86343798Y-94520374D01*
X86286766Y-94505093D01*
X86265892Y-94499500D01*
X86265891Y-94499500D01*
X86134109Y-94499500D01*
X86134108Y-94499500D01*
X86095154Y-94509937D01*
X86056199Y-94520375D01*
X86056198Y-94520374D01*
X86006807Y-94533609D01*
X86006805Y-94533610D01*
X85892694Y-94599492D01*
X85799492Y-94692694D01*
X85733608Y-94806809D01*
X85733330Y-94807545D01*
X85732784Y-94809886D01*
X85699500Y-94934108D01*
X83400000Y-94934108D01*
X83400000Y-94114680D01*
X83404843Y-94084094D01*
X83408965Y-94071405D01*
X83444923Y-94021906D01*
X83445522Y-94021471D01*
X83449063Y-94018900D01*
X83507243Y-94000000D01*
X87085320Y-94000000D01*
X87115908Y-94004843D01*
G37*
G04 #@! TD.AperFunction*
G04 #@! TA.AperFunction,Conductor*
G36*
X94815908Y-103404843D02*
G01*
X94828597Y-103408966D01*
X94878096Y-103444928D01*
X94881091Y-103449050D01*
X94900000Y-103507240D01*
X94900000Y-105296061D01*
X94899153Y-105308983D01*
X94897474Y-105321736D01*
X94894948Y-105334435D01*
X94881800Y-105383505D01*
X94881800Y-105515291D01*
X94894948Y-105564364D01*
X94897473Y-105577060D01*
X94899152Y-105589809D01*
X94900000Y-105602735D01*
X94900000Y-108485319D01*
X94895154Y-108515912D01*
X94891032Y-108528598D01*
X94855080Y-108578089D01*
X94850959Y-108581084D01*
X94792771Y-108600000D01*
X88714680Y-108600000D01*
X88684087Y-108595154D01*
X88671401Y-108591032D01*
X88621901Y-108555068D01*
X88621894Y-108555058D01*
X88618900Y-108550936D01*
X88600000Y-108492756D01*
X88600000Y-107538608D01*
X90032800Y-107538608D01*
X90032800Y-107670392D01*
X90043216Y-107709267D01*
X90061259Y-107776606D01*
X90066909Y-107797690D01*
X90066910Y-107797693D01*
X90132794Y-107911807D01*
X90132796Y-107911809D01*
X90132798Y-107911811D01*
X90132800Y-107911814D01*
X90225986Y-108005000D01*
X90225988Y-108005001D01*
X90225990Y-108005003D01*
X90226537Y-108005398D01*
X90228539Y-108006475D01*
X90272507Y-108031859D01*
X90283340Y-108038114D01*
X90304934Y-108062096D01*
X90339244Y-108070674D01*
X90340848Y-108071088D01*
X90467408Y-108105000D01*
X90467410Y-108105000D01*
X90599190Y-108105000D01*
X90599192Y-108105000D01*
X90726486Y-108070892D01*
X90726488Y-108070890D01*
X90726490Y-108070890D01*
X90834490Y-108008535D01*
X90837367Y-108007139D01*
X90838156Y-108006620D01*
X90843166Y-108003526D01*
X90844459Y-108002779D01*
X90849817Y-107995796D01*
X90916031Y-107929581D01*
X90941082Y-107911381D01*
X90952969Y-107905324D01*
X91013397Y-107895754D01*
X91024315Y-107897483D01*
X91058322Y-107909526D01*
X91061651Y-107911448D01*
X91061653Y-107911450D01*
X91073361Y-107918210D01*
X91073365Y-107918212D01*
X91076110Y-107919797D01*
X91076111Y-107919797D01*
X91076114Y-107919799D01*
X91190691Y-107950500D01*
X91190693Y-107950500D01*
X91309307Y-107950500D01*
X91309309Y-107950500D01*
X91423886Y-107919799D01*
X91423887Y-107919798D01*
X91423889Y-107919797D01*
X91423890Y-107919797D01*
X91520473Y-107864034D01*
X91523361Y-107862631D01*
X91524145Y-107862115D01*
X91529162Y-107859016D01*
X91530460Y-107858266D01*
X91535818Y-107851283D01*
X91610489Y-107776613D01*
X91610492Y-107776608D01*
X91610494Y-107776606D01*
X91669797Y-107673890D01*
X91669797Y-107673888D01*
X91669799Y-107673886D01*
X91700500Y-107559309D01*
X91700500Y-107440691D01*
X92699500Y-107440691D01*
X92699500Y-107559309D01*
X92726574Y-107660351D01*
X92730202Y-107673890D01*
X92789507Y-107776608D01*
X92789509Y-107776610D01*
X92789511Y-107776613D01*
X92873387Y-107860489D01*
X92873389Y-107860490D01*
X92873391Y-107860492D01*
X92873939Y-107860887D01*
X92875934Y-107861960D01*
X92973357Y-107918207D01*
X92973357Y-107918208D01*
X92976109Y-107919797D01*
X92976112Y-107919797D01*
X92976114Y-107919799D01*
X93090691Y-107950500D01*
X93090693Y-107950500D01*
X93209307Y-107950500D01*
X93209309Y-107950500D01*
X93323886Y-107919799D01*
X93323887Y-107919798D01*
X93323889Y-107919797D01*
X93323890Y-107919797D01*
X93420473Y-107864034D01*
X93423361Y-107862631D01*
X93424145Y-107862115D01*
X93429162Y-107859016D01*
X93430460Y-107858266D01*
X93435818Y-107851283D01*
X93510489Y-107776613D01*
X93510492Y-107776608D01*
X93510494Y-107776606D01*
X93569797Y-107673890D01*
X93569797Y-107673888D01*
X93569799Y-107673886D01*
X93600500Y-107559309D01*
X93600500Y-107440691D01*
X93569799Y-107326114D01*
X93569797Y-107326111D01*
X93569797Y-107326109D01*
X93569794Y-107326105D01*
X93569475Y-107325399D01*
X93568224Y-107323384D01*
X93510492Y-107223391D01*
X93510490Y-107223389D01*
X93510489Y-107223387D01*
X93426613Y-107139511D01*
X93426610Y-107139509D01*
X93426608Y-107139507D01*
X93381175Y-107113276D01*
X93360142Y-107089916D01*
X93310352Y-107076574D01*
X93310351Y-107076574D01*
X93209309Y-107049500D01*
X93209307Y-107049500D01*
X93090692Y-107049500D01*
X93090691Y-107049500D01*
X93055629Y-107058894D01*
X93020566Y-107068289D01*
X93020565Y-107068288D01*
X92976111Y-107080200D01*
X92976108Y-107080201D01*
X92873393Y-107139505D01*
X92789503Y-107223395D01*
X92730201Y-107326109D01*
X92729924Y-107326844D01*
X92729377Y-107329185D01*
X92707374Y-107411305D01*
X92699500Y-107440691D01*
X91700500Y-107440691D01*
X91669799Y-107326114D01*
X91669797Y-107326111D01*
X91669797Y-107326109D01*
X91669608Y-107325781D01*
X91669535Y-107325496D01*
X91668224Y-107323384D01*
X91610492Y-107223391D01*
X91610490Y-107223389D01*
X91610489Y-107223387D01*
X91526613Y-107139511D01*
X91526610Y-107139509D01*
X91526608Y-107139507D01*
X91481175Y-107113276D01*
X91460142Y-107089916D01*
X91410352Y-107076574D01*
X91410351Y-107076574D01*
X91309309Y-107049500D01*
X91309307Y-107049500D01*
X91190692Y-107049500D01*
X91190691Y-107049500D01*
X91155629Y-107058894D01*
X91120566Y-107068289D01*
X91120565Y-107068288D01*
X91076111Y-107080200D01*
X91076108Y-107080201D01*
X90973393Y-107139505D01*
X90973390Y-107139508D01*
X90973384Y-107139512D01*
X90973380Y-107139516D01*
X90948702Y-107164193D01*
X90923645Y-107182397D01*
X90911763Y-107188451D01*
X90851337Y-107198023D01*
X90840423Y-107196295D01*
X90806405Y-107184248D01*
X90783775Y-107171183D01*
X90762741Y-107147821D01*
X90677099Y-107124875D01*
X90677098Y-107124874D01*
X90620066Y-107109593D01*
X90599192Y-107104000D01*
X90599191Y-107104000D01*
X90467409Y-107104000D01*
X90467408Y-107104000D01*
X90428454Y-107114437D01*
X90389499Y-107124875D01*
X90389498Y-107124874D01*
X90340107Y-107138109D01*
X90340105Y-107138110D01*
X90225994Y-107203992D01*
X90132792Y-107297194D01*
X90066910Y-107411305D01*
X90066908Y-107411309D01*
X90059035Y-107440690D01*
X90059036Y-107440691D01*
X90059036Y-107440692D01*
X90032800Y-107538608D01*
X88600000Y-107538608D01*
X88600000Y-105584108D01*
X89049500Y-105584108D01*
X89049500Y-105715891D01*
X89060438Y-105756714D01*
X89083610Y-105843194D01*
X89149494Y-105957307D01*
X89149496Y-105957309D01*
X89149498Y-105957311D01*
X89149500Y-105957314D01*
X89242686Y-106050500D01*
X89242688Y-106050501D01*
X89242690Y-106050503D01*
X89243237Y-106050898D01*
X89245239Y-106051975D01*
X89289207Y-106077359D01*
X89300040Y-106083614D01*
X89321634Y-106107596D01*
X89355944Y-106116174D01*
X89357548Y-106116588D01*
X89484108Y-106150500D01*
X89484110Y-106150500D01*
X89615890Y-106150500D01*
X89615892Y-106150500D01*
X89743186Y-106116392D01*
X89743188Y-106116390D01*
X89743190Y-106116390D01*
X89851190Y-106054035D01*
X89854067Y-106052639D01*
X89854853Y-106052122D01*
X89859862Y-106049028D01*
X89861161Y-106048277D01*
X89866519Y-106041294D01*
X89950500Y-105957314D01*
X89950503Y-105957309D01*
X90016390Y-105843190D01*
X90016390Y-105843188D01*
X90016392Y-105843186D01*
X90050500Y-105715892D01*
X90050500Y-105584108D01*
X90499500Y-105584108D01*
X90499500Y-105715891D01*
X90510438Y-105756714D01*
X90533610Y-105843194D01*
X90599494Y-105957307D01*
X90599496Y-105957309D01*
X90599498Y-105957311D01*
X90599500Y-105957314D01*
X90692686Y-106050500D01*
X90692688Y-106050501D01*
X90692690Y-106050503D01*
X90693237Y-106050898D01*
X90695239Y-106051975D01*
X90739207Y-106077359D01*
X90750040Y-106083614D01*
X90771634Y-106107596D01*
X90805944Y-106116174D01*
X90807548Y-106116588D01*
X90934108Y-106150500D01*
X90934110Y-106150500D01*
X91065890Y-106150500D01*
X91065892Y-106150500D01*
X91193186Y-106116392D01*
X91193188Y-106116390D01*
X91193190Y-106116390D01*
X91301190Y-106054035D01*
X91304067Y-106052639D01*
X91304853Y-106052122D01*
X91309862Y-106049028D01*
X91311161Y-106048277D01*
X91316519Y-106041294D01*
X91400500Y-105957314D01*
X91400503Y-105957309D01*
X91466390Y-105843190D01*
X91466390Y-105843188D01*
X91466392Y-105843186D01*
X91500500Y-105715892D01*
X91500500Y-105584108D01*
X91949500Y-105584108D01*
X91949500Y-105715891D01*
X91960438Y-105756714D01*
X91983610Y-105843194D01*
X92049494Y-105957307D01*
X92049496Y-105957309D01*
X92049498Y-105957311D01*
X92049500Y-105957314D01*
X92142686Y-106050500D01*
X92142688Y-106050501D01*
X92142690Y-106050503D01*
X92143237Y-106050898D01*
X92145239Y-106051975D01*
X92189207Y-106077359D01*
X92200040Y-106083614D01*
X92221634Y-106107596D01*
X92255944Y-106116174D01*
X92257548Y-106116588D01*
X92384108Y-106150500D01*
X92384110Y-106150500D01*
X92515890Y-106150500D01*
X92515892Y-106150500D01*
X92643186Y-106116392D01*
X92643188Y-106116390D01*
X92643190Y-106116390D01*
X92751190Y-106054035D01*
X92754067Y-106052639D01*
X92754853Y-106052122D01*
X92759862Y-106049028D01*
X92761161Y-106048277D01*
X92766519Y-106041294D01*
X92850500Y-105957314D01*
X92850503Y-105957309D01*
X92916390Y-105843190D01*
X92916390Y-105843188D01*
X92916392Y-105843186D01*
X92950500Y-105715892D01*
X92950500Y-105584108D01*
X92916392Y-105456814D01*
X92916390Y-105456811D01*
X92916390Y-105456809D01*
X92916383Y-105456798D01*
X92916066Y-105456094D01*
X92914812Y-105454076D01*
X92850503Y-105342690D01*
X92850501Y-105342688D01*
X92850500Y-105342686D01*
X92757314Y-105249500D01*
X92757311Y-105249498D01*
X92757309Y-105249496D01*
X92757302Y-105249492D01*
X92700476Y-105216683D01*
X92679442Y-105193322D01*
X92593799Y-105170375D01*
X92593798Y-105170374D01*
X92536766Y-105155093D01*
X92515892Y-105149500D01*
X92515891Y-105149500D01*
X92384109Y-105149500D01*
X92384108Y-105149500D01*
X92345154Y-105159937D01*
X92306199Y-105170375D01*
X92306198Y-105170374D01*
X92256807Y-105183609D01*
X92256805Y-105183610D01*
X92142694Y-105249492D01*
X92049492Y-105342694D01*
X91983611Y-105456803D01*
X91983609Y-105456807D01*
X91983609Y-105456809D01*
X91983608Y-105456814D01*
X91967939Y-105515292D01*
X91949500Y-105584108D01*
X91500500Y-105584108D01*
X91466392Y-105456814D01*
X91466390Y-105456811D01*
X91466390Y-105456809D01*
X91466217Y-105456509D01*
X91466142Y-105456217D01*
X91464812Y-105454076D01*
X91400503Y-105342690D01*
X91400501Y-105342688D01*
X91400500Y-105342686D01*
X91307314Y-105249500D01*
X91307311Y-105249498D01*
X91307309Y-105249496D01*
X91307302Y-105249492D01*
X91250476Y-105216683D01*
X91229442Y-105193322D01*
X91143799Y-105170375D01*
X91143798Y-105170374D01*
X91086766Y-105155093D01*
X91065892Y-105149500D01*
X91065891Y-105149500D01*
X90934109Y-105149500D01*
X90934108Y-105149500D01*
X90895154Y-105159937D01*
X90856199Y-105170375D01*
X90856198Y-105170374D01*
X90806807Y-105183609D01*
X90806805Y-105183610D01*
X90692694Y-105249492D01*
X90599492Y-105342694D01*
X90533611Y-105456803D01*
X90533609Y-105456807D01*
X90533609Y-105456809D01*
X90533608Y-105456814D01*
X90517939Y-105515292D01*
X90499500Y-105584108D01*
X90050500Y-105584108D01*
X90016392Y-105456814D01*
X90016390Y-105456811D01*
X90016390Y-105456809D01*
X90016217Y-105456509D01*
X90016142Y-105456217D01*
X90014812Y-105454076D01*
X89950503Y-105342690D01*
X89950501Y-105342688D01*
X89950500Y-105342686D01*
X89857314Y-105249500D01*
X89857311Y-105249498D01*
X89857309Y-105249496D01*
X89857302Y-105249492D01*
X89800476Y-105216683D01*
X89779442Y-105193322D01*
X89693799Y-105170375D01*
X89693798Y-105170374D01*
X89636766Y-105155093D01*
X89615892Y-105149500D01*
X89615891Y-105149500D01*
X89484109Y-105149500D01*
X89484108Y-105149500D01*
X89445154Y-105159937D01*
X89406199Y-105170375D01*
X89406198Y-105170374D01*
X89356807Y-105183609D01*
X89356805Y-105183610D01*
X89242694Y-105249492D01*
X89149492Y-105342694D01*
X89083611Y-105456803D01*
X89083609Y-105456807D01*
X89083609Y-105456809D01*
X89083608Y-105456814D01*
X89067939Y-105515292D01*
X89049500Y-105584108D01*
X88600000Y-105584108D01*
X88600000Y-104134108D01*
X89049500Y-104134108D01*
X89049500Y-104265892D01*
X89079579Y-104378151D01*
X89083609Y-104393190D01*
X89149496Y-104507309D01*
X89149498Y-104507311D01*
X89149500Y-104507314D01*
X89242686Y-104600500D01*
X89242688Y-104600501D01*
X89242690Y-104600503D01*
X89243237Y-104600898D01*
X89245239Y-104601975D01*
X89289207Y-104627359D01*
X89300040Y-104633614D01*
X89321634Y-104657596D01*
X89355944Y-104666174D01*
X89357548Y-104666588D01*
X89484108Y-104700500D01*
X89484110Y-104700500D01*
X89615890Y-104700500D01*
X89615892Y-104700500D01*
X89743186Y-104666392D01*
X89743188Y-104666390D01*
X89743190Y-104666390D01*
X89851190Y-104604035D01*
X89854067Y-104602639D01*
X89854853Y-104602122D01*
X89859862Y-104599028D01*
X89861161Y-104598277D01*
X89866519Y-104591294D01*
X89950500Y-104507314D01*
X90016392Y-104393186D01*
X90050500Y-104265892D01*
X90050500Y-104134108D01*
X90499500Y-104134108D01*
X90499500Y-104265892D01*
X90529579Y-104378151D01*
X90533609Y-104393190D01*
X90599496Y-104507309D01*
X90599498Y-104507311D01*
X90599500Y-104507314D01*
X90692686Y-104600500D01*
X90692688Y-104600501D01*
X90692690Y-104600503D01*
X90693237Y-104600898D01*
X90695239Y-104601975D01*
X90739207Y-104627359D01*
X90750040Y-104633614D01*
X90771634Y-104657596D01*
X90805944Y-104666174D01*
X90807548Y-104666588D01*
X90934108Y-104700500D01*
X90934110Y-104700500D01*
X91065890Y-104700500D01*
X91065892Y-104700500D01*
X91193186Y-104666392D01*
X91193188Y-104666390D01*
X91193190Y-104666390D01*
X91301190Y-104604035D01*
X91304067Y-104602639D01*
X91304853Y-104602122D01*
X91309862Y-104599028D01*
X91311161Y-104598277D01*
X91316519Y-104591294D01*
X91400500Y-104507314D01*
X91466392Y-104393186D01*
X91500500Y-104265892D01*
X91500500Y-104134108D01*
X91949500Y-104134108D01*
X91949500Y-104265892D01*
X91979579Y-104378151D01*
X91983609Y-104393190D01*
X92049496Y-104507309D01*
X92049498Y-104507311D01*
X92049500Y-104507314D01*
X92142686Y-104600500D01*
X92142688Y-104600501D01*
X92142690Y-104600503D01*
X92143237Y-104600898D01*
X92145239Y-104601975D01*
X92189207Y-104627359D01*
X92200040Y-104633614D01*
X92221634Y-104657596D01*
X92255944Y-104666174D01*
X92257548Y-104666588D01*
X92384108Y-104700500D01*
X92384110Y-104700500D01*
X92515890Y-104700500D01*
X92515892Y-104700500D01*
X92643186Y-104666392D01*
X92643188Y-104666390D01*
X92643190Y-104666390D01*
X92751190Y-104604035D01*
X92754067Y-104602639D01*
X92754853Y-104602122D01*
X92759862Y-104599028D01*
X92761161Y-104598277D01*
X92766519Y-104591294D01*
X92850500Y-104507314D01*
X92916392Y-104393186D01*
X92950500Y-104265892D01*
X92950500Y-104134108D01*
X92916392Y-104006814D01*
X92916390Y-104006811D01*
X92916390Y-104006809D01*
X92916383Y-104006798D01*
X92916066Y-104006094D01*
X92914812Y-104004076D01*
X92850503Y-103892690D01*
X92850501Y-103892688D01*
X92850500Y-103892686D01*
X92757314Y-103799500D01*
X92757311Y-103799498D01*
X92757309Y-103799496D01*
X92757302Y-103799492D01*
X92700476Y-103766683D01*
X92679442Y-103743322D01*
X92593799Y-103720375D01*
X92593798Y-103720374D01*
X92536766Y-103705093D01*
X92515892Y-103699500D01*
X92515891Y-103699500D01*
X92384109Y-103699500D01*
X92384108Y-103699500D01*
X92345154Y-103709937D01*
X92306199Y-103720375D01*
X92306198Y-103720374D01*
X92256807Y-103733609D01*
X92256805Y-103733610D01*
X92142694Y-103799492D01*
X92049492Y-103892694D01*
X91983608Y-104006809D01*
X91983330Y-104007545D01*
X91982784Y-104009886D01*
X91949500Y-104134108D01*
X91500500Y-104134108D01*
X91466392Y-104006814D01*
X91466390Y-104006811D01*
X91466390Y-104006809D01*
X91466217Y-104006509D01*
X91466142Y-104006217D01*
X91464812Y-104004076D01*
X91400503Y-103892690D01*
X91400501Y-103892688D01*
X91400500Y-103892686D01*
X91307314Y-103799500D01*
X91307311Y-103799498D01*
X91307309Y-103799496D01*
X91307302Y-103799492D01*
X91250476Y-103766683D01*
X91229442Y-103743322D01*
X91143799Y-103720375D01*
X91143798Y-103720374D01*
X91086766Y-103705093D01*
X91065892Y-103699500D01*
X91065891Y-103699500D01*
X90934109Y-103699500D01*
X90934108Y-103699500D01*
X90895154Y-103709937D01*
X90856199Y-103720375D01*
X90856198Y-103720374D01*
X90806807Y-103733609D01*
X90806805Y-103733610D01*
X90692694Y-103799492D01*
X90599492Y-103892694D01*
X90533608Y-104006809D01*
X90533330Y-104007545D01*
X90532784Y-104009886D01*
X90499500Y-104134108D01*
X90050500Y-104134108D01*
X90016392Y-104006814D01*
X90016390Y-104006811D01*
X90016390Y-104006809D01*
X90016217Y-104006509D01*
X90016142Y-104006217D01*
X90014812Y-104004076D01*
X89950503Y-103892690D01*
X89950501Y-103892688D01*
X89950500Y-103892686D01*
X89857314Y-103799500D01*
X89857311Y-103799498D01*
X89857309Y-103799496D01*
X89857302Y-103799492D01*
X89800476Y-103766683D01*
X89779442Y-103743322D01*
X89693799Y-103720375D01*
X89693798Y-103720374D01*
X89636766Y-103705093D01*
X89615892Y-103699500D01*
X89615891Y-103699500D01*
X89484109Y-103699500D01*
X89484108Y-103699500D01*
X89445154Y-103709937D01*
X89406199Y-103720375D01*
X89406198Y-103720374D01*
X89356807Y-103733609D01*
X89356805Y-103733610D01*
X89242694Y-103799492D01*
X89149492Y-103892694D01*
X89083608Y-104006809D01*
X89083330Y-104007545D01*
X89083064Y-104008685D01*
X89083071Y-104008790D01*
X89082913Y-104009405D01*
X89049500Y-104134108D01*
X88600000Y-104134108D01*
X88600000Y-103514680D01*
X88604843Y-103484094D01*
X88608965Y-103471405D01*
X88644923Y-103421906D01*
X88645522Y-103421471D01*
X88649063Y-103418900D01*
X88707243Y-103400000D01*
X94785320Y-103400000D01*
X94815908Y-103404843D01*
G37*
G04 #@! TD.AperFunction*
G04 #@! TA.AperFunction,Conductor*
G36*
X92994543Y-94518907D02*
G01*
X93022087Y-94549498D01*
X93062800Y-94620014D01*
X93155986Y-94713200D01*
X93155988Y-94713201D01*
X93155990Y-94713203D01*
X93270110Y-94779090D01*
X93270108Y-94779090D01*
X93270112Y-94779091D01*
X93270114Y-94779092D01*
X93397408Y-94813200D01*
X93397410Y-94813200D01*
X93529190Y-94813200D01*
X93529192Y-94813200D01*
X93656486Y-94779092D01*
X93656488Y-94779090D01*
X93656490Y-94779090D01*
X93770609Y-94713203D01*
X93770609Y-94713202D01*
X93770614Y-94713200D01*
X93863800Y-94620014D01*
X93904511Y-94549499D01*
X93949981Y-94508559D01*
X93990248Y-94500000D01*
X97251420Y-94500000D01*
X97309611Y-94518907D01*
X97345575Y-94568407D01*
X97345575Y-94629593D01*
X97337157Y-94648500D01*
X97302508Y-94708512D01*
X97283597Y-94779090D01*
X97268400Y-94835808D01*
X97268400Y-94967592D01*
X97294739Y-95065890D01*
X97302509Y-95094890D01*
X97368396Y-95209009D01*
X97368398Y-95209011D01*
X97368400Y-95209014D01*
X97461586Y-95302200D01*
X97461588Y-95302201D01*
X97461590Y-95302203D01*
X97575710Y-95368090D01*
X97575708Y-95368090D01*
X97575712Y-95368091D01*
X97575714Y-95368092D01*
X97703008Y-95402200D01*
X97703010Y-95402200D01*
X97834790Y-95402200D01*
X97834792Y-95402200D01*
X97962086Y-95368092D01*
X97962088Y-95368090D01*
X97962090Y-95368090D01*
X98076209Y-95302203D01*
X98076209Y-95302202D01*
X98076214Y-95302200D01*
X98169400Y-95209014D01*
X98235292Y-95094886D01*
X98269400Y-94967592D01*
X98269400Y-94835808D01*
X98235292Y-94708514D01*
X98226156Y-94692690D01*
X98200643Y-94648500D01*
X98187922Y-94588651D01*
X98212809Y-94532756D01*
X98265797Y-94502163D01*
X98286380Y-94500000D01*
X98953179Y-94500000D01*
X99011370Y-94518907D01*
X99047334Y-94568407D01*
X99047334Y-94629593D01*
X99023184Y-94669001D01*
X98999500Y-94692686D01*
X98999497Y-94692689D01*
X98999496Y-94692690D01*
X98933609Y-94806809D01*
X98933608Y-94806814D01*
X98899500Y-94934108D01*
X98899500Y-95065892D01*
X98929579Y-95178151D01*
X98933609Y-95193190D01*
X98999496Y-95307309D01*
X98999498Y-95307311D01*
X98999500Y-95307314D01*
X99092686Y-95400500D01*
X99092688Y-95400501D01*
X99092690Y-95400503D01*
X99206810Y-95466390D01*
X99206808Y-95466390D01*
X99206812Y-95466391D01*
X99206814Y-95466392D01*
X99334108Y-95500500D01*
X99334110Y-95500500D01*
X99465890Y-95500500D01*
X99465892Y-95500500D01*
X99593186Y-95466392D01*
X99593188Y-95466390D01*
X99593190Y-95466390D01*
X99707309Y-95400503D01*
X99707309Y-95400502D01*
X99707314Y-95400500D01*
X99800500Y-95307314D01*
X99839646Y-95239511D01*
X99866390Y-95193190D01*
X99866390Y-95193188D01*
X99866392Y-95193186D01*
X99900500Y-95065892D01*
X99900500Y-94934108D01*
X99866392Y-94806814D01*
X99866390Y-94806811D01*
X99866390Y-94806809D01*
X99800503Y-94692690D01*
X99800501Y-94692688D01*
X99800500Y-94692686D01*
X99776815Y-94669001D01*
X99749040Y-94614487D01*
X99758611Y-94554055D01*
X99801876Y-94510790D01*
X99846821Y-94500000D01*
X101153179Y-94500000D01*
X101211370Y-94518907D01*
X101247334Y-94568407D01*
X101247334Y-94629593D01*
X101223184Y-94669001D01*
X101199500Y-94692686D01*
X101199497Y-94692689D01*
X101199496Y-94692690D01*
X101133609Y-94806809D01*
X101133608Y-94806814D01*
X101099500Y-94934108D01*
X101099500Y-95065892D01*
X101129579Y-95178151D01*
X101133609Y-95193190D01*
X101199496Y-95307309D01*
X101199498Y-95307311D01*
X101199500Y-95307314D01*
X101292686Y-95400500D01*
X101292688Y-95400501D01*
X101292690Y-95400503D01*
X101406810Y-95466390D01*
X101406808Y-95466390D01*
X101406812Y-95466391D01*
X101406814Y-95466392D01*
X101534108Y-95500500D01*
X101534110Y-95500500D01*
X101665890Y-95500500D01*
X101665892Y-95500500D01*
X101793186Y-95466392D01*
X101793188Y-95466390D01*
X101793190Y-95466390D01*
X101907309Y-95400503D01*
X101907309Y-95400502D01*
X101907314Y-95400500D01*
X102000500Y-95307314D01*
X102039646Y-95239511D01*
X102066390Y-95193190D01*
X102066390Y-95193188D01*
X102066392Y-95193186D01*
X102100500Y-95065892D01*
X102100500Y-94934108D01*
X102066392Y-94806814D01*
X102066390Y-94806811D01*
X102066390Y-94806809D01*
X102000503Y-94692690D01*
X102000501Y-94692688D01*
X102000500Y-94692686D01*
X101976815Y-94669001D01*
X101949040Y-94614487D01*
X101958611Y-94554055D01*
X102001876Y-94510790D01*
X102046821Y-94500000D01*
X105553179Y-94500000D01*
X105611370Y-94518907D01*
X105647334Y-94568407D01*
X105647334Y-94629593D01*
X105623184Y-94669001D01*
X105599500Y-94692686D01*
X105599497Y-94692689D01*
X105599496Y-94692690D01*
X105533609Y-94806809D01*
X105533608Y-94806814D01*
X105499500Y-94934108D01*
X105499500Y-95065892D01*
X105529579Y-95178151D01*
X105533609Y-95193190D01*
X105599496Y-95307309D01*
X105599498Y-95307311D01*
X105599500Y-95307314D01*
X105692686Y-95400500D01*
X105692688Y-95400501D01*
X105692690Y-95400503D01*
X105806810Y-95466390D01*
X105806808Y-95466390D01*
X105806812Y-95466391D01*
X105806814Y-95466392D01*
X105934108Y-95500500D01*
X105934110Y-95500500D01*
X106065890Y-95500500D01*
X106065892Y-95500500D01*
X106193186Y-95466392D01*
X106193188Y-95466390D01*
X106193190Y-95466390D01*
X106307309Y-95400503D01*
X106307309Y-95400502D01*
X106307314Y-95400500D01*
X106330998Y-95376815D01*
X106385513Y-95349040D01*
X106445945Y-95358611D01*
X106489210Y-95401876D01*
X106500000Y-95446821D01*
X106500000Y-98953179D01*
X106481093Y-99011370D01*
X106431593Y-99047334D01*
X106370407Y-99047334D01*
X106330998Y-99023184D01*
X106307314Y-98999500D01*
X106307311Y-98999498D01*
X106307309Y-98999496D01*
X106193189Y-98933609D01*
X106193191Y-98933609D01*
X106143799Y-98920375D01*
X106065892Y-98899500D01*
X105934108Y-98899500D01*
X105856200Y-98920375D01*
X105806809Y-98933609D01*
X105692690Y-98999496D01*
X105599496Y-99092690D01*
X105533609Y-99206809D01*
X105514539Y-99277978D01*
X105499500Y-99334108D01*
X105499500Y-99465892D01*
X105519261Y-99539642D01*
X105533609Y-99593190D01*
X105599496Y-99707309D01*
X105599498Y-99707311D01*
X105599500Y-99707314D01*
X105692686Y-99800500D01*
X105692688Y-99800501D01*
X105692690Y-99800503D01*
X105806810Y-99866390D01*
X105806808Y-99866390D01*
X105806812Y-99866391D01*
X105806814Y-99866392D01*
X105934108Y-99900500D01*
X105934110Y-99900500D01*
X106065890Y-99900500D01*
X106065892Y-99900500D01*
X106193186Y-99866392D01*
X106193188Y-99866390D01*
X106193190Y-99866390D01*
X106307309Y-99800503D01*
X106307309Y-99800502D01*
X106307314Y-99800500D01*
X106330998Y-99776815D01*
X106385513Y-99749040D01*
X106445945Y-99758611D01*
X106489210Y-99801876D01*
X106500000Y-99846821D01*
X106500000Y-101153179D01*
X106481093Y-101211370D01*
X106431593Y-101247334D01*
X106370407Y-101247334D01*
X106330998Y-101223184D01*
X106307314Y-101199500D01*
X106307311Y-101199498D01*
X106307309Y-101199496D01*
X106193189Y-101133609D01*
X106193191Y-101133609D01*
X106143799Y-101120375D01*
X106065892Y-101099500D01*
X105934108Y-101099500D01*
X105856200Y-101120375D01*
X105806809Y-101133609D01*
X105692690Y-101199496D01*
X105599496Y-101292690D01*
X105533609Y-101406809D01*
X105533608Y-101406814D01*
X105499500Y-101534108D01*
X105499500Y-101665892D01*
X105516758Y-101730300D01*
X105533609Y-101793190D01*
X105599496Y-101907309D01*
X105599498Y-101907311D01*
X105599500Y-101907314D01*
X105692686Y-102000500D01*
X105692688Y-102000501D01*
X105692690Y-102000503D01*
X105806810Y-102066390D01*
X105806808Y-102066390D01*
X105806812Y-102066391D01*
X105806814Y-102066392D01*
X105934108Y-102100500D01*
X105934110Y-102100500D01*
X106065890Y-102100500D01*
X106065892Y-102100500D01*
X106193186Y-102066392D01*
X106193188Y-102066390D01*
X106193190Y-102066390D01*
X106307309Y-102000503D01*
X106307309Y-102000502D01*
X106307314Y-102000500D01*
X106330998Y-101976815D01*
X106385513Y-101949040D01*
X106445945Y-101958611D01*
X106489210Y-102001876D01*
X106500000Y-102046821D01*
X106500000Y-103353179D01*
X106481093Y-103411370D01*
X106431593Y-103447334D01*
X106370407Y-103447334D01*
X106330998Y-103423184D01*
X106307314Y-103399500D01*
X106307311Y-103399498D01*
X106307309Y-103399496D01*
X106193189Y-103333609D01*
X106193191Y-103333609D01*
X106143799Y-103320375D01*
X106065892Y-103299500D01*
X105934108Y-103299500D01*
X105856200Y-103320375D01*
X105806809Y-103333609D01*
X105692690Y-103399496D01*
X105599496Y-103492690D01*
X105533609Y-103606809D01*
X105533608Y-103606814D01*
X105499500Y-103734108D01*
X105499500Y-103865892D01*
X105526294Y-103965890D01*
X105533609Y-103993190D01*
X105599496Y-104107309D01*
X105599498Y-104107311D01*
X105599500Y-104107314D01*
X105692686Y-104200500D01*
X105692688Y-104200501D01*
X105692690Y-104200503D01*
X105806810Y-104266390D01*
X105806808Y-104266390D01*
X105806812Y-104266391D01*
X105806814Y-104266392D01*
X105934108Y-104300500D01*
X105934110Y-104300500D01*
X106065890Y-104300500D01*
X106065892Y-104300500D01*
X106193186Y-104266392D01*
X106193188Y-104266390D01*
X106193190Y-104266390D01*
X106307309Y-104200503D01*
X106307309Y-104200502D01*
X106307314Y-104200500D01*
X106330998Y-104176815D01*
X106385513Y-104149040D01*
X106445945Y-104158611D01*
X106489210Y-104201876D01*
X106500000Y-104246821D01*
X106500000Y-105553179D01*
X106481093Y-105611370D01*
X106431593Y-105647334D01*
X106370407Y-105647334D01*
X106330998Y-105623184D01*
X106307314Y-105599500D01*
X106307311Y-105599498D01*
X106307309Y-105599496D01*
X106193189Y-105533609D01*
X106193191Y-105533609D01*
X106143799Y-105520375D01*
X106065892Y-105499500D01*
X105934108Y-105499500D01*
X105856200Y-105520375D01*
X105806809Y-105533609D01*
X105692690Y-105599496D01*
X105599496Y-105692690D01*
X105533609Y-105806809D01*
X105533608Y-105806814D01*
X105499500Y-105934108D01*
X105499500Y-106065892D01*
X105529579Y-106178151D01*
X105533609Y-106193190D01*
X105599496Y-106307309D01*
X105599498Y-106307311D01*
X105599500Y-106307314D01*
X105692686Y-106400500D01*
X105692688Y-106400501D01*
X105692690Y-106400503D01*
X105806810Y-106466390D01*
X105806808Y-106466390D01*
X105806812Y-106466391D01*
X105806814Y-106466392D01*
X105934108Y-106500500D01*
X105934110Y-106500500D01*
X106065890Y-106500500D01*
X106065892Y-106500500D01*
X106193186Y-106466392D01*
X106193188Y-106466390D01*
X106193190Y-106466390D01*
X106307309Y-106400503D01*
X106307309Y-106400502D01*
X106307314Y-106400500D01*
X106330998Y-106376815D01*
X106385513Y-106349040D01*
X106445945Y-106358611D01*
X106489210Y-106401876D01*
X106500000Y-106446821D01*
X106500000Y-107701000D01*
X106495155Y-107715911D01*
X106495155Y-107731593D01*
X106485938Y-107744278D01*
X106481093Y-107759191D01*
X106468407Y-107768407D01*
X106459191Y-107781093D01*
X106444278Y-107785938D01*
X106431593Y-107795155D01*
X106401000Y-107800000D01*
X106334707Y-107800000D01*
X106285207Y-107786736D01*
X106193189Y-107733609D01*
X106193191Y-107733609D01*
X106127139Y-107715911D01*
X106065892Y-107699500D01*
X105934108Y-107699500D01*
X105872861Y-107715911D01*
X105806809Y-107733609D01*
X105714793Y-107786736D01*
X105665293Y-107800000D01*
X101934707Y-107800000D01*
X101885207Y-107786736D01*
X101793189Y-107733609D01*
X101793191Y-107733609D01*
X101727139Y-107715911D01*
X101665892Y-107699500D01*
X101534108Y-107699500D01*
X101472861Y-107715911D01*
X101406809Y-107733609D01*
X101314793Y-107786736D01*
X101265293Y-107800000D01*
X99978424Y-107800000D01*
X99920233Y-107781093D01*
X99884269Y-107731593D01*
X99882797Y-107675377D01*
X99884133Y-107670392D01*
X99900500Y-107609309D01*
X99900500Y-107490691D01*
X99869799Y-107376114D01*
X99869797Y-107376111D01*
X99869797Y-107376109D01*
X99810492Y-107273391D01*
X99810490Y-107273389D01*
X99810489Y-107273387D01*
X99726613Y-107189511D01*
X99726610Y-107189509D01*
X99726608Y-107189507D01*
X99623889Y-107130202D01*
X99623885Y-107130200D01*
X99573376Y-107116666D01*
X99522062Y-107083342D01*
X99500136Y-107026220D01*
X99500000Y-107021040D01*
X99500000Y-105359108D01*
X100999500Y-105359108D01*
X100999500Y-105490892D01*
X101007436Y-105520508D01*
X101033609Y-105618190D01*
X101099496Y-105732309D01*
X101099498Y-105732311D01*
X101099500Y-105732314D01*
X101192686Y-105825500D01*
X101192688Y-105825501D01*
X101192690Y-105825503D01*
X101306810Y-105891390D01*
X101306808Y-105891390D01*
X101306812Y-105891391D01*
X101306814Y-105891392D01*
X101434108Y-105925500D01*
X101434110Y-105925500D01*
X101565890Y-105925500D01*
X101565892Y-105925500D01*
X101693186Y-105891392D01*
X101693188Y-105891390D01*
X101693190Y-105891390D01*
X101807309Y-105825503D01*
X101807309Y-105825502D01*
X101807314Y-105825500D01*
X101900500Y-105732314D01*
X101946701Y-105652292D01*
X101966390Y-105618190D01*
X101966390Y-105618188D01*
X101966392Y-105618186D01*
X102000500Y-105490892D01*
X102000500Y-105359108D01*
X101966392Y-105231814D01*
X101966390Y-105231811D01*
X101966390Y-105231809D01*
X101900503Y-105117690D01*
X101900501Y-105117688D01*
X101900500Y-105117686D01*
X101833422Y-105050608D01*
X104064900Y-105050608D01*
X104064900Y-105182392D01*
X104087486Y-105266686D01*
X104099009Y-105309690D01*
X104164896Y-105423809D01*
X104164898Y-105423811D01*
X104164900Y-105423814D01*
X104258086Y-105517000D01*
X104258088Y-105517001D01*
X104258090Y-105517003D01*
X104372210Y-105582890D01*
X104372208Y-105582890D01*
X104372212Y-105582891D01*
X104372214Y-105582892D01*
X104499508Y-105617000D01*
X104499510Y-105617000D01*
X104631290Y-105617000D01*
X104631292Y-105617000D01*
X104758586Y-105582892D01*
X104758588Y-105582890D01*
X104758590Y-105582890D01*
X104872709Y-105517003D01*
X104872709Y-105517002D01*
X104872714Y-105517000D01*
X104965900Y-105423814D01*
X105003258Y-105359108D01*
X105031790Y-105309690D01*
X105031790Y-105309688D01*
X105031792Y-105309686D01*
X105065900Y-105182392D01*
X105065900Y-105050608D01*
X105031792Y-104923314D01*
X105031790Y-104923311D01*
X105031790Y-104923309D01*
X104965903Y-104809190D01*
X104965901Y-104809188D01*
X104965900Y-104809186D01*
X104872714Y-104716000D01*
X104872711Y-104715998D01*
X104872709Y-104715996D01*
X104758589Y-104650109D01*
X104758591Y-104650109D01*
X104709199Y-104636875D01*
X104631292Y-104616000D01*
X104499508Y-104616000D01*
X104421600Y-104636875D01*
X104372209Y-104650109D01*
X104258090Y-104715996D01*
X104164896Y-104809190D01*
X104099009Y-104923309D01*
X104099008Y-104923314D01*
X104064900Y-105050608D01*
X101833422Y-105050608D01*
X101807314Y-105024500D01*
X101807311Y-105024498D01*
X101807309Y-105024496D01*
X101693189Y-104958609D01*
X101693191Y-104958609D01*
X101643799Y-104945375D01*
X101565892Y-104924500D01*
X101434108Y-104924500D01*
X101356200Y-104945375D01*
X101306809Y-104958609D01*
X101192690Y-105024496D01*
X101099496Y-105117690D01*
X101033609Y-105231809D01*
X101033608Y-105231814D01*
X100999500Y-105359108D01*
X99500000Y-105359108D01*
X99500000Y-104452208D01*
X99862000Y-104452208D01*
X99862000Y-104583992D01*
X99871461Y-104619300D01*
X99896109Y-104711290D01*
X99961996Y-104825409D01*
X99961998Y-104825411D01*
X99962000Y-104825414D01*
X100055186Y-104918600D01*
X100055188Y-104918601D01*
X100055190Y-104918603D01*
X100169310Y-104984490D01*
X100169308Y-104984490D01*
X100169312Y-104984491D01*
X100169314Y-104984492D01*
X100296608Y-105018600D01*
X100296610Y-105018600D01*
X100428390Y-105018600D01*
X100428392Y-105018600D01*
X100555686Y-104984492D01*
X100555688Y-104984490D01*
X100555690Y-104984490D01*
X100669809Y-104918603D01*
X100669809Y-104918602D01*
X100669814Y-104918600D01*
X100763000Y-104825414D01*
X100772369Y-104809186D01*
X100828890Y-104711290D01*
X100828890Y-104711288D01*
X100828892Y-104711286D01*
X100863000Y-104583992D01*
X100863000Y-104452208D01*
X100828892Y-104324914D01*
X100828890Y-104324911D01*
X100828890Y-104324909D01*
X100763003Y-104210790D01*
X100763001Y-104210788D01*
X100763000Y-104210786D01*
X100669814Y-104117600D01*
X100669811Y-104117598D01*
X100669809Y-104117596D01*
X100555689Y-104051709D01*
X100555691Y-104051709D01*
X100506299Y-104038475D01*
X100428392Y-104017600D01*
X100296608Y-104017600D01*
X100218700Y-104038475D01*
X100169309Y-104051709D01*
X100055190Y-104117596D01*
X100055185Y-104117600D01*
X99976010Y-104196774D01*
X99976004Y-104196781D01*
X99962000Y-104210786D01*
X99945545Y-104239285D01*
X99945539Y-104239295D01*
X99896108Y-104324912D01*
X99884994Y-104366392D01*
X99862000Y-104452208D01*
X99500000Y-104452208D01*
X99500000Y-104367326D01*
X99518907Y-104309135D01*
X99568407Y-104273171D01*
X99573346Y-104271707D01*
X99593186Y-104266392D01*
X99707314Y-104200500D01*
X99800500Y-104107314D01*
X99866392Y-103993186D01*
X99900500Y-103865892D01*
X99900500Y-103834108D01*
X101599500Y-103834108D01*
X101599500Y-103965892D01*
X101622816Y-104052908D01*
X101633609Y-104093190D01*
X101699496Y-104207309D01*
X101699498Y-104207311D01*
X101699500Y-104207314D01*
X101792686Y-104300500D01*
X101792688Y-104300501D01*
X101792690Y-104300503D01*
X101906810Y-104366390D01*
X101906808Y-104366390D01*
X101906812Y-104366391D01*
X101906814Y-104366392D01*
X102034108Y-104400500D01*
X102034110Y-104400500D01*
X102165890Y-104400500D01*
X102165892Y-104400500D01*
X102293186Y-104366392D01*
X102293188Y-104366390D01*
X102293190Y-104366390D01*
X102407309Y-104300503D01*
X102407309Y-104300502D01*
X102407314Y-104300500D01*
X102500500Y-104207314D01*
X102513561Y-104184692D01*
X102566390Y-104093190D01*
X102566390Y-104093188D01*
X102566392Y-104093186D01*
X102600500Y-103965892D01*
X102600500Y-103834108D01*
X103999500Y-103834108D01*
X103999500Y-103965892D01*
X104022816Y-104052908D01*
X104033609Y-104093190D01*
X104099496Y-104207309D01*
X104099498Y-104207311D01*
X104099500Y-104207314D01*
X104192686Y-104300500D01*
X104192688Y-104300501D01*
X104192690Y-104300503D01*
X104306810Y-104366390D01*
X104306808Y-104366390D01*
X104306812Y-104366391D01*
X104306814Y-104366392D01*
X104434108Y-104400500D01*
X104434110Y-104400500D01*
X104565890Y-104400500D01*
X104565892Y-104400500D01*
X104693186Y-104366392D01*
X104693188Y-104366390D01*
X104693190Y-104366390D01*
X104807309Y-104300503D01*
X104807309Y-104300502D01*
X104807314Y-104300500D01*
X104900500Y-104207314D01*
X104913561Y-104184692D01*
X104966390Y-104093190D01*
X104966390Y-104093188D01*
X104966392Y-104093186D01*
X105000500Y-103965892D01*
X105000500Y-103834108D01*
X104966392Y-103706814D01*
X104966390Y-103706811D01*
X104966390Y-103706809D01*
X104900503Y-103592690D01*
X104900501Y-103592688D01*
X104900500Y-103592686D01*
X104807314Y-103499500D01*
X104807311Y-103499498D01*
X104807309Y-103499496D01*
X104693189Y-103433609D01*
X104693191Y-103433609D01*
X104643799Y-103420375D01*
X104565892Y-103399500D01*
X104434108Y-103399500D01*
X104356200Y-103420375D01*
X104306809Y-103433609D01*
X104192690Y-103499496D01*
X104099496Y-103592690D01*
X104033609Y-103706809D01*
X104026294Y-103734109D01*
X103999500Y-103834108D01*
X102600500Y-103834108D01*
X102566392Y-103706814D01*
X102566390Y-103706811D01*
X102566390Y-103706809D01*
X102500503Y-103592690D01*
X102500501Y-103592688D01*
X102500500Y-103592686D01*
X102407314Y-103499500D01*
X102407311Y-103499498D01*
X102407309Y-103499496D01*
X102293189Y-103433609D01*
X102293191Y-103433609D01*
X102243799Y-103420375D01*
X102165892Y-103399500D01*
X102034108Y-103399500D01*
X101956200Y-103420375D01*
X101906809Y-103433609D01*
X101792690Y-103499496D01*
X101699496Y-103592690D01*
X101633609Y-103706809D01*
X101626294Y-103734109D01*
X101599500Y-103834108D01*
X99900500Y-103834108D01*
X99900500Y-103734108D01*
X99866392Y-103606814D01*
X99866390Y-103606811D01*
X99866390Y-103606809D01*
X99800503Y-103492690D01*
X99800501Y-103492688D01*
X99800500Y-103492686D01*
X99707314Y-103399500D01*
X99707311Y-103399498D01*
X99707309Y-103399496D01*
X99593189Y-103333609D01*
X99593186Y-103333608D01*
X99573375Y-103328299D01*
X99522061Y-103294974D01*
X99500136Y-103237852D01*
X99500000Y-103232673D01*
X99500000Y-103000001D01*
X99500000Y-103000000D01*
X99499999Y-103000000D01*
X93030188Y-103000000D01*
X92971997Y-102981093D01*
X92936033Y-102931593D01*
X92934561Y-102875378D01*
X92935440Y-102872096D01*
X92950500Y-102815892D01*
X92950500Y-102684108D01*
X92916392Y-102556814D01*
X92916390Y-102556811D01*
X92916390Y-102556809D01*
X92850503Y-102442690D01*
X92850501Y-102442688D01*
X92850500Y-102442686D01*
X92757314Y-102349500D01*
X92757311Y-102349498D01*
X92757309Y-102349496D01*
X92643189Y-102283609D01*
X92643191Y-102283609D01*
X92593799Y-102270375D01*
X92515892Y-102249500D01*
X92384108Y-102249500D01*
X92306200Y-102270375D01*
X92256809Y-102283609D01*
X92142690Y-102349496D01*
X92049496Y-102442690D01*
X91983609Y-102556809D01*
X91949500Y-102684109D01*
X91949500Y-102815891D01*
X91965439Y-102875378D01*
X91962236Y-102936479D01*
X91923731Y-102984029D01*
X91869812Y-103000000D01*
X91580188Y-103000000D01*
X91521997Y-102981093D01*
X91486033Y-102931593D01*
X91484561Y-102875378D01*
X91485440Y-102872096D01*
X91500500Y-102815892D01*
X91500500Y-102684108D01*
X91466392Y-102556814D01*
X91466390Y-102556811D01*
X91466390Y-102556809D01*
X91400503Y-102442690D01*
X91400501Y-102442688D01*
X91400500Y-102442686D01*
X91307314Y-102349500D01*
X91307311Y-102349498D01*
X91307309Y-102349496D01*
X91193189Y-102283609D01*
X91193191Y-102283609D01*
X91143799Y-102270375D01*
X91065892Y-102249500D01*
X90934108Y-102249500D01*
X90856200Y-102270375D01*
X90806809Y-102283609D01*
X90692690Y-102349496D01*
X90599496Y-102442690D01*
X90533609Y-102556809D01*
X90499500Y-102684109D01*
X90499500Y-102815891D01*
X90515439Y-102875378D01*
X90512236Y-102936479D01*
X90473731Y-102984029D01*
X90419812Y-103000000D01*
X90130188Y-103000000D01*
X90071997Y-102981093D01*
X90036033Y-102931593D01*
X90034561Y-102875378D01*
X90035440Y-102872096D01*
X90050500Y-102815892D01*
X90050500Y-102684108D01*
X90016392Y-102556814D01*
X90016390Y-102556811D01*
X90016390Y-102556809D01*
X89950503Y-102442690D01*
X89950501Y-102442688D01*
X89950500Y-102442686D01*
X89857314Y-102349500D01*
X89857311Y-102349498D01*
X89857309Y-102349496D01*
X89743189Y-102283609D01*
X89743191Y-102283609D01*
X89693799Y-102270375D01*
X89615892Y-102249500D01*
X89484108Y-102249500D01*
X89406200Y-102270375D01*
X89356809Y-102283609D01*
X89242690Y-102349496D01*
X89149496Y-102442690D01*
X89083609Y-102556809D01*
X89049500Y-102684109D01*
X89049500Y-102815891D01*
X89065439Y-102875378D01*
X89062236Y-102936479D01*
X89023731Y-102984029D01*
X88969812Y-103000000D01*
X88099000Y-103000000D01*
X88040809Y-102981093D01*
X88004845Y-102931593D01*
X88000000Y-102901000D01*
X88000000Y-102175821D01*
X88018907Y-102117630D01*
X88068407Y-102081666D01*
X88129593Y-102081666D01*
X88169001Y-102105815D01*
X88209686Y-102146500D01*
X88209688Y-102146501D01*
X88209690Y-102146503D01*
X88323810Y-102212390D01*
X88323808Y-102212390D01*
X88323812Y-102212391D01*
X88323814Y-102212392D01*
X88451108Y-102246500D01*
X88451110Y-102246500D01*
X88582890Y-102246500D01*
X88582892Y-102246500D01*
X88710186Y-102212392D01*
X88710188Y-102212390D01*
X88710190Y-102212390D01*
X88824309Y-102146503D01*
X88824309Y-102146502D01*
X88824314Y-102146500D01*
X88917500Y-102053314D01*
X88921249Y-102046821D01*
X88983390Y-101939190D01*
X88983390Y-101939188D01*
X88983392Y-101939186D01*
X89017500Y-101811892D01*
X89017500Y-101680108D01*
X88983392Y-101552814D01*
X88983390Y-101552811D01*
X88983390Y-101552809D01*
X88917503Y-101438690D01*
X88917501Y-101438688D01*
X88917500Y-101438686D01*
X88824314Y-101345500D01*
X88824311Y-101345498D01*
X88824309Y-101345496D01*
X88710189Y-101279609D01*
X88710191Y-101279609D01*
X88660799Y-101266375D01*
X88582892Y-101245500D01*
X88451108Y-101245500D01*
X88373200Y-101266375D01*
X88323809Y-101279609D01*
X88209690Y-101345496D01*
X88209689Y-101345497D01*
X88209686Y-101345499D01*
X88209686Y-101345500D01*
X88169001Y-101386184D01*
X88114487Y-101413960D01*
X88054055Y-101404389D01*
X88010790Y-101361124D01*
X88000000Y-101316179D01*
X88000000Y-100199708D01*
X102634800Y-100199708D01*
X102634800Y-100331492D01*
X102664879Y-100443751D01*
X102668909Y-100458790D01*
X102734796Y-100572909D01*
X102734798Y-100572911D01*
X102734800Y-100572914D01*
X102827986Y-100666100D01*
X102827988Y-100666101D01*
X102827990Y-100666103D01*
X102942110Y-100731990D01*
X102942108Y-100731990D01*
X102942112Y-100731991D01*
X102942114Y-100731992D01*
X103069408Y-100766100D01*
X103069410Y-100766100D01*
X103201190Y-100766100D01*
X103201192Y-100766100D01*
X103328486Y-100731992D01*
X103328488Y-100731990D01*
X103328490Y-100731990D01*
X103442609Y-100666103D01*
X103442609Y-100666102D01*
X103442614Y-100666100D01*
X103535800Y-100572914D01*
X103601692Y-100458786D01*
X103635800Y-100331492D01*
X103635800Y-100199708D01*
X103601692Y-100072414D01*
X103601690Y-100072411D01*
X103601690Y-100072409D01*
X103535803Y-99958290D01*
X103535801Y-99958288D01*
X103535800Y-99958286D01*
X103442614Y-99865100D01*
X103442611Y-99865098D01*
X103442609Y-99865096D01*
X103328489Y-99799209D01*
X103328491Y-99799209D01*
X103279099Y-99785975D01*
X103201192Y-99765100D01*
X103069408Y-99765100D01*
X102991500Y-99785975D01*
X102942109Y-99799209D01*
X102827990Y-99865096D01*
X102734796Y-99958290D01*
X102668909Y-100072409D01*
X102668908Y-100072414D01*
X102634800Y-100199708D01*
X88000000Y-100199708D01*
X88000000Y-99597833D01*
X88018907Y-99539642D01*
X88068407Y-99503678D01*
X88124623Y-99502207D01*
X88132808Y-99504400D01*
X88132809Y-99504400D01*
X88264590Y-99504400D01*
X88264592Y-99504400D01*
X88391886Y-99470292D01*
X88391888Y-99470290D01*
X88391890Y-99470290D01*
X88506009Y-99404403D01*
X88506009Y-99404402D01*
X88506014Y-99404400D01*
X88599200Y-99311214D01*
X88659883Y-99206108D01*
X91673800Y-99206108D01*
X91673800Y-99337892D01*
X91699659Y-99434400D01*
X91707909Y-99465190D01*
X91773796Y-99579309D01*
X91773798Y-99579311D01*
X91773800Y-99579314D01*
X91866986Y-99672500D01*
X91866988Y-99672501D01*
X91866990Y-99672503D01*
X91981110Y-99738390D01*
X91981108Y-99738390D01*
X91981112Y-99738391D01*
X91981114Y-99738392D01*
X92108408Y-99772500D01*
X92108410Y-99772500D01*
X92240190Y-99772500D01*
X92240192Y-99772500D01*
X92367486Y-99738392D01*
X92367488Y-99738390D01*
X92367490Y-99738390D01*
X92481609Y-99672503D01*
X92481609Y-99672502D01*
X92481614Y-99672500D01*
X92574800Y-99579314D01*
X92618052Y-99504400D01*
X92640690Y-99465190D01*
X92640690Y-99465188D01*
X92640692Y-99465186D01*
X92674800Y-99337892D01*
X92674800Y-99206108D01*
X92640692Y-99078814D01*
X92640690Y-99078811D01*
X92640690Y-99078809D01*
X92574803Y-98964690D01*
X92574801Y-98964688D01*
X92574800Y-98964686D01*
X92481614Y-98871500D01*
X92481611Y-98871498D01*
X92481609Y-98871496D01*
X92367489Y-98805609D01*
X92367491Y-98805609D01*
X92307705Y-98789590D01*
X92240192Y-98771500D01*
X92108408Y-98771500D01*
X92040895Y-98789590D01*
X91981109Y-98805609D01*
X91866990Y-98871496D01*
X91773796Y-98964690D01*
X91707909Y-99078809D01*
X91689374Y-99147986D01*
X91673800Y-99206108D01*
X88659883Y-99206108D01*
X88665092Y-99197086D01*
X88699200Y-99069792D01*
X88699200Y-98938008D01*
X88665092Y-98810714D01*
X88665090Y-98810711D01*
X88665090Y-98810709D01*
X88599203Y-98696590D01*
X88599201Y-98696588D01*
X88599200Y-98696586D01*
X88536722Y-98634108D01*
X94649500Y-98634108D01*
X94649500Y-98765892D01*
X94651003Y-98771500D01*
X94683609Y-98893190D01*
X94749496Y-99007309D01*
X94749498Y-99007311D01*
X94749500Y-99007314D01*
X94842686Y-99100500D01*
X94842688Y-99100501D01*
X94842690Y-99100503D01*
X94956810Y-99166390D01*
X94956808Y-99166390D01*
X94956812Y-99166391D01*
X94956814Y-99166392D01*
X95084108Y-99200500D01*
X95084110Y-99200500D01*
X95215890Y-99200500D01*
X95215892Y-99200500D01*
X95343186Y-99166392D01*
X95343188Y-99166390D01*
X95343190Y-99166390D01*
X95457309Y-99100503D01*
X95457309Y-99100502D01*
X95457314Y-99100500D01*
X95524392Y-99033421D01*
X95578906Y-99005645D01*
X95639338Y-99015216D01*
X95643894Y-99017690D01*
X95722010Y-99062790D01*
X95722008Y-99062790D01*
X95722012Y-99062791D01*
X95722014Y-99062792D01*
X95849308Y-99096900D01*
X95849310Y-99096900D01*
X95981090Y-99096900D01*
X95981092Y-99096900D01*
X96108386Y-99062792D01*
X96108388Y-99062790D01*
X96108390Y-99062790D01*
X96222509Y-98996903D01*
X96222509Y-98996902D01*
X96222514Y-98996900D01*
X96315700Y-98903714D01*
X96321776Y-98893190D01*
X96336315Y-98868008D01*
X101212600Y-98868008D01*
X101212600Y-98999792D01*
X101225339Y-99047334D01*
X101246709Y-99127090D01*
X101312596Y-99241209D01*
X101312598Y-99241211D01*
X101312600Y-99241214D01*
X101405786Y-99334400D01*
X101405788Y-99334401D01*
X101405790Y-99334403D01*
X101519910Y-99400290D01*
X101519908Y-99400290D01*
X101519912Y-99400291D01*
X101519914Y-99400292D01*
X101647208Y-99434400D01*
X101647210Y-99434400D01*
X101778990Y-99434400D01*
X101778992Y-99434400D01*
X101906286Y-99400292D01*
X101906288Y-99400290D01*
X101906290Y-99400290D01*
X102020409Y-99334403D01*
X102020409Y-99334402D01*
X102020414Y-99334400D01*
X102113600Y-99241214D01*
X102139076Y-99197089D01*
X102179490Y-99127090D01*
X102179490Y-99127088D01*
X102179492Y-99127086D01*
X102213600Y-98999792D01*
X102213600Y-98868008D01*
X102179492Y-98740714D01*
X102179490Y-98740711D01*
X102179490Y-98740709D01*
X102113603Y-98626590D01*
X102113601Y-98626588D01*
X102113600Y-98626586D01*
X102020414Y-98533400D01*
X102020411Y-98533398D01*
X102020409Y-98533396D01*
X101906289Y-98467509D01*
X101906291Y-98467509D01*
X101856899Y-98454275D01*
X101778992Y-98433400D01*
X101647208Y-98433400D01*
X101569300Y-98454275D01*
X101519909Y-98467509D01*
X101405790Y-98533396D01*
X101312596Y-98626590D01*
X101246709Y-98740709D01*
X101238459Y-98771500D01*
X101212600Y-98868008D01*
X96336315Y-98868008D01*
X96368641Y-98812019D01*
X96381590Y-98789590D01*
X96381590Y-98789588D01*
X96381592Y-98789586D01*
X96415700Y-98662292D01*
X96415700Y-98530508D01*
X96381592Y-98403214D01*
X96381590Y-98403211D01*
X96381590Y-98403209D01*
X96315703Y-98289090D01*
X96315701Y-98289088D01*
X96315700Y-98289086D01*
X96222514Y-98195900D01*
X96222511Y-98195898D01*
X96222509Y-98195896D01*
X96108389Y-98130009D01*
X96108391Y-98130009D01*
X96058999Y-98116775D01*
X95981092Y-98095900D01*
X95849308Y-98095900D01*
X95771400Y-98116775D01*
X95722009Y-98130009D01*
X95607890Y-98195896D01*
X95607889Y-98195897D01*
X95540807Y-98262978D01*
X95486290Y-98290754D01*
X95425858Y-98281182D01*
X95421304Y-98278709D01*
X95343189Y-98233609D01*
X95343191Y-98233609D01*
X95293799Y-98220375D01*
X95215892Y-98199500D01*
X95084108Y-98199500D01*
X95006200Y-98220375D01*
X94956809Y-98233609D01*
X94842690Y-98299496D01*
X94749496Y-98392690D01*
X94683609Y-98506809D01*
X94675383Y-98537509D01*
X94649500Y-98634108D01*
X88536722Y-98634108D01*
X88506014Y-98603400D01*
X88506011Y-98603398D01*
X88506009Y-98603396D01*
X88391889Y-98537509D01*
X88391891Y-98537509D01*
X88342499Y-98524275D01*
X88264592Y-98503400D01*
X88132808Y-98503400D01*
X88128265Y-98504617D01*
X88124619Y-98505594D01*
X88063518Y-98502389D01*
X88015969Y-98463882D01*
X88000000Y-98409966D01*
X88000000Y-97634108D01*
X105199500Y-97634108D01*
X105199500Y-97765892D01*
X105229579Y-97878151D01*
X105233609Y-97893190D01*
X105299496Y-98007309D01*
X105299498Y-98007311D01*
X105299500Y-98007314D01*
X105392686Y-98100500D01*
X105392688Y-98100501D01*
X105392690Y-98100503D01*
X105506810Y-98166390D01*
X105506808Y-98166390D01*
X105506812Y-98166391D01*
X105506814Y-98166392D01*
X105634108Y-98200500D01*
X105634110Y-98200500D01*
X105765890Y-98200500D01*
X105765892Y-98200500D01*
X105893186Y-98166392D01*
X105893188Y-98166390D01*
X105893190Y-98166390D01*
X106007309Y-98100503D01*
X106007309Y-98100502D01*
X106007314Y-98100500D01*
X106100500Y-98007314D01*
X106166392Y-97893186D01*
X106200500Y-97765892D01*
X106200500Y-97634108D01*
X106166392Y-97506814D01*
X106166390Y-97506811D01*
X106166390Y-97506809D01*
X106100503Y-97392690D01*
X106100501Y-97392688D01*
X106100500Y-97392686D01*
X106007314Y-97299500D01*
X106007311Y-97299498D01*
X106007309Y-97299496D01*
X105893189Y-97233609D01*
X105893191Y-97233609D01*
X105843799Y-97220375D01*
X105765892Y-97199500D01*
X105634108Y-97199500D01*
X105556200Y-97220375D01*
X105506809Y-97233609D01*
X105392690Y-97299496D01*
X105299496Y-97392690D01*
X105233609Y-97506809D01*
X105233608Y-97506814D01*
X105199500Y-97634108D01*
X88000000Y-97634108D01*
X88000000Y-96466608D01*
X90350700Y-96466608D01*
X90350700Y-96598392D01*
X90380779Y-96710651D01*
X90384809Y-96725690D01*
X90450696Y-96839809D01*
X90450698Y-96839811D01*
X90450700Y-96839814D01*
X90543886Y-96933000D01*
X90543888Y-96933001D01*
X90543890Y-96933003D01*
X90658010Y-96998890D01*
X90658008Y-96998890D01*
X90658012Y-96998891D01*
X90658014Y-96998892D01*
X90785308Y-97033000D01*
X90785310Y-97033000D01*
X90917090Y-97033000D01*
X90917092Y-97033000D01*
X91044386Y-96998892D01*
X91044388Y-96998890D01*
X91044390Y-96998890D01*
X91145193Y-96940691D01*
X93999500Y-96940691D01*
X93999500Y-97059309D01*
X94005819Y-97082890D01*
X94030202Y-97173890D01*
X94089507Y-97276608D01*
X94089509Y-97276610D01*
X94089511Y-97276613D01*
X94173387Y-97360489D01*
X94173389Y-97360490D01*
X94173391Y-97360492D01*
X94276110Y-97419797D01*
X94276111Y-97419797D01*
X94276114Y-97419799D01*
X94390691Y-97450500D01*
X94390693Y-97450500D01*
X94509307Y-97450500D01*
X94509309Y-97450500D01*
X94623886Y-97419799D01*
X94623888Y-97419797D01*
X94623890Y-97419797D01*
X94726608Y-97360492D01*
X94726608Y-97360491D01*
X94726613Y-97360489D01*
X94810489Y-97276613D01*
X94810492Y-97276608D01*
X94869797Y-97173890D01*
X94869797Y-97173888D01*
X94869799Y-97173886D01*
X94900500Y-97059309D01*
X94900500Y-96940691D01*
X94869799Y-96826114D01*
X94869796Y-96826109D01*
X94868468Y-96823808D01*
X96443100Y-96823808D01*
X96443100Y-96955592D01*
X96463841Y-97033000D01*
X96477209Y-97082890D01*
X96543096Y-97197009D01*
X96543098Y-97197011D01*
X96543100Y-97197014D01*
X96636286Y-97290200D01*
X96636288Y-97290201D01*
X96636290Y-97290203D01*
X96750410Y-97356090D01*
X96750408Y-97356090D01*
X96750412Y-97356091D01*
X96750414Y-97356092D01*
X96877708Y-97390200D01*
X96877710Y-97390200D01*
X97009490Y-97390200D01*
X97009492Y-97390200D01*
X97136786Y-97356092D01*
X97136788Y-97356090D01*
X97136790Y-97356090D01*
X97250909Y-97290203D01*
X97250909Y-97290202D01*
X97250914Y-97290200D01*
X97344100Y-97197014D01*
X97357453Y-97173886D01*
X97409990Y-97082890D01*
X97409990Y-97082888D01*
X97409992Y-97082886D01*
X97444100Y-96955592D01*
X97444100Y-96823808D01*
X97409992Y-96696514D01*
X97409990Y-96696511D01*
X97409990Y-96696509D01*
X97344103Y-96582390D01*
X97344101Y-96582388D01*
X97344100Y-96582386D01*
X97250914Y-96489200D01*
X97250911Y-96489198D01*
X97250909Y-96489196D01*
X97136789Y-96423309D01*
X97136791Y-96423309D01*
X97087399Y-96410075D01*
X97009492Y-96389200D01*
X96877708Y-96389200D01*
X96799800Y-96410075D01*
X96750409Y-96423309D01*
X96636290Y-96489196D01*
X96543096Y-96582390D01*
X96477209Y-96696509D01*
X96477208Y-96696514D01*
X96443100Y-96823808D01*
X94868468Y-96823808D01*
X94810492Y-96723391D01*
X94810490Y-96723389D01*
X94810489Y-96723387D01*
X94726613Y-96639511D01*
X94726610Y-96639509D01*
X94726608Y-96639507D01*
X94623889Y-96580202D01*
X94623890Y-96580202D01*
X94610351Y-96576574D01*
X94509309Y-96549500D01*
X94390691Y-96549500D01*
X94320567Y-96568289D01*
X94276109Y-96580202D01*
X94173391Y-96639507D01*
X94089507Y-96723391D01*
X94030202Y-96826109D01*
X94030201Y-96826114D01*
X93999500Y-96940691D01*
X91145193Y-96940691D01*
X91158509Y-96933003D01*
X91158509Y-96933002D01*
X91158514Y-96933000D01*
X91251700Y-96839814D01*
X91260941Y-96823808D01*
X91317590Y-96725690D01*
X91317590Y-96725688D01*
X91317592Y-96725686D01*
X91351700Y-96598392D01*
X91351700Y-96466608D01*
X91317592Y-96339314D01*
X91317590Y-96339311D01*
X91317590Y-96339309D01*
X91251703Y-96225190D01*
X91251701Y-96225188D01*
X91251700Y-96225186D01*
X91213410Y-96186896D01*
X91185635Y-96132382D01*
X91195206Y-96071950D01*
X91233915Y-96031159D01*
X91311614Y-95986300D01*
X91404800Y-95893114D01*
X91470692Y-95778986D01*
X91504800Y-95651692D01*
X91504800Y-95540691D01*
X93999500Y-95540691D01*
X93999500Y-95659309D01*
X94012144Y-95706496D01*
X94030202Y-95773890D01*
X94089507Y-95876608D01*
X94089509Y-95876610D01*
X94089511Y-95876613D01*
X94173387Y-95960489D01*
X94173389Y-95960490D01*
X94173391Y-95960492D01*
X94276110Y-96019797D01*
X94276111Y-96019797D01*
X94276114Y-96019799D01*
X94390691Y-96050500D01*
X94390693Y-96050500D01*
X94509307Y-96050500D01*
X94509309Y-96050500D01*
X94544360Y-96041108D01*
X104107900Y-96041108D01*
X104107900Y-96172892D01*
X104121912Y-96225186D01*
X104142009Y-96300190D01*
X104207896Y-96414309D01*
X104207898Y-96414311D01*
X104207900Y-96414314D01*
X104301086Y-96507500D01*
X104301088Y-96507501D01*
X104306653Y-96510714D01*
X104347596Y-96556182D01*
X104353993Y-96617032D01*
X104342893Y-96645952D01*
X104286508Y-96743612D01*
X104265020Y-96823808D01*
X104252400Y-96870908D01*
X104252400Y-97002692D01*
X104273888Y-97082886D01*
X104286509Y-97129990D01*
X104352396Y-97244109D01*
X104352398Y-97244111D01*
X104352400Y-97244114D01*
X104445586Y-97337300D01*
X104445588Y-97337301D01*
X104445590Y-97337303D01*
X104559710Y-97403190D01*
X104559708Y-97403190D01*
X104559712Y-97403191D01*
X104559714Y-97403192D01*
X104687008Y-97437300D01*
X104687010Y-97437300D01*
X104818790Y-97437300D01*
X104818792Y-97437300D01*
X104946086Y-97403192D01*
X104946088Y-97403190D01*
X104946090Y-97403190D01*
X105060209Y-97337303D01*
X105060209Y-97337302D01*
X105060214Y-97337300D01*
X105153400Y-97244114D01*
X105219292Y-97129986D01*
X105253400Y-97002692D01*
X105253400Y-96870908D01*
X105219292Y-96743614D01*
X105219290Y-96743611D01*
X105219290Y-96743609D01*
X105153403Y-96629490D01*
X105153401Y-96629488D01*
X105153400Y-96629486D01*
X105060214Y-96536300D01*
X105054644Y-96533084D01*
X105013702Y-96487615D01*
X105007306Y-96426765D01*
X105018405Y-96397850D01*
X105074792Y-96300186D01*
X105108900Y-96172892D01*
X105108900Y-96041108D01*
X105074792Y-95913814D01*
X105074790Y-95913811D01*
X105074790Y-95913809D01*
X105008903Y-95799690D01*
X105008901Y-95799688D01*
X105008900Y-95799686D01*
X104915714Y-95706500D01*
X104915711Y-95706498D01*
X104915709Y-95706496D01*
X104801589Y-95640609D01*
X104801591Y-95640609D01*
X104752199Y-95627375D01*
X104674292Y-95606500D01*
X104542508Y-95606500D01*
X104464600Y-95627375D01*
X104415209Y-95640609D01*
X104301090Y-95706496D01*
X104207896Y-95799690D01*
X104142009Y-95913809D01*
X104129501Y-95960492D01*
X104107900Y-96041108D01*
X94544360Y-96041108D01*
X94623886Y-96019799D01*
X94623888Y-96019797D01*
X94623890Y-96019797D01*
X94726608Y-95960492D01*
X94726608Y-95960491D01*
X94726613Y-95960489D01*
X94810489Y-95876613D01*
X94866852Y-95778990D01*
X94869797Y-95773890D01*
X94869797Y-95773888D01*
X94869799Y-95773886D01*
X94900500Y-95659309D01*
X94900500Y-95540691D01*
X94869799Y-95426114D01*
X94869797Y-95426111D01*
X94869797Y-95426109D01*
X94810492Y-95323391D01*
X94810490Y-95323389D01*
X94810489Y-95323387D01*
X94726613Y-95239511D01*
X94726610Y-95239509D01*
X94726608Y-95239507D01*
X94623889Y-95180202D01*
X94623890Y-95180202D01*
X94610351Y-95176574D01*
X94509309Y-95149500D01*
X94390691Y-95149500D01*
X94320567Y-95168289D01*
X94276109Y-95180202D01*
X94173391Y-95239507D01*
X94089507Y-95323391D01*
X94030202Y-95426109D01*
X94019409Y-95466390D01*
X93999500Y-95540691D01*
X91504800Y-95540691D01*
X91504800Y-95519908D01*
X91470692Y-95392614D01*
X91470690Y-95392611D01*
X91470690Y-95392609D01*
X91404803Y-95278490D01*
X91404801Y-95278488D01*
X91404800Y-95278486D01*
X91311614Y-95185300D01*
X91311611Y-95185298D01*
X91311609Y-95185296D01*
X91197489Y-95119409D01*
X91197491Y-95119409D01*
X91148099Y-95106175D01*
X91070192Y-95085300D01*
X90938408Y-95085300D01*
X90860500Y-95106175D01*
X90811109Y-95119409D01*
X90696990Y-95185296D01*
X90603796Y-95278490D01*
X90537909Y-95392609D01*
X90537908Y-95392614D01*
X90503800Y-95519908D01*
X90503800Y-95651692D01*
X90505841Y-95659309D01*
X90537909Y-95778990D01*
X90603796Y-95893109D01*
X90603798Y-95893111D01*
X90603800Y-95893114D01*
X90642088Y-95931402D01*
X90669864Y-95985917D01*
X90660293Y-96046349D01*
X90621584Y-96087140D01*
X90543888Y-96131998D01*
X90450696Y-96225190D01*
X90384809Y-96339309D01*
X90365739Y-96410478D01*
X90350700Y-96466608D01*
X88000000Y-96466608D01*
X88000000Y-94599000D01*
X88018907Y-94540809D01*
X88068407Y-94504845D01*
X88099000Y-94500000D01*
X92936352Y-94500000D01*
X92994543Y-94518907D01*
G37*
G04 #@! TD.AperFunction*
M02*
