G04 #@! TF.GenerationSoftware,KiCad,Pcbnew,10.0.2*
G04 #@! TF.CreationDate,2026-07-02T13:50:14-04:00*
G04 #@! TF.ProjectId,jrwatch,6a727761-7463-4682-9e6b-696361645f70,rev?*
G04 #@! TF.SameCoordinates,Original*
G04 #@! TF.FileFunction,Copper,L3,Inr*
G04 #@! TF.FilePolarity,Positive*
%FSLAX46Y46*%
G04 Gerber Fmt 4.6, Leading zero omitted, Abs format (unit mm)*
G04 Created by KiCad (PCBNEW 10.0.2) date 2026-07-02 13:50:14*
%MOMM*%
%LPD*%
G01*
G04 APERTURE LIST*
G04 #@! TA.AperFunction,HeatsinkPad*
%ADD10C,0.600000*%
G04 #@! TD*
G04 #@! TA.AperFunction,ComponentPad*
%ADD11O,1.000000X1.600000*%
G04 #@! TD*
G04 #@! TA.AperFunction,ComponentPad*
%ADD12O,1.000000X2.100000*%
G04 #@! TD*
G04 #@! TA.AperFunction,ViaPad*
%ADD13C,0.600000*%
G04 #@! TD*
G04 #@! TA.AperFunction,ViaPad*
%ADD14C,0.480000*%
G04 #@! TD*
G04 #@! TA.AperFunction,ViaPad*
%ADD15C,0.500000*%
G04 #@! TD*
G04 APERTURE END LIST*
D10*
X92450000Y-105650000D03*
X92450000Y-104200000D03*
X92450000Y-102750000D03*
X91000000Y-105650000D03*
X91000000Y-104200000D03*
X91000000Y-102750000D03*
X89550000Y-105650000D03*
X89550000Y-104200000D03*
X89550000Y-102750000D03*
D11*
X104320000Y-114650000D03*
D12*
X104320000Y-110470000D03*
D11*
X95680000Y-114650000D03*
D12*
X95680000Y-110470000D03*
D13*
X94245800Y-92974900D03*
X84210400Y-109340400D03*
X93261600Y-93562500D03*
X83519000Y-100435000D03*
X104608400Y-96107000D03*
X104752900Y-96936800D03*
X101713100Y-98933900D03*
X100362500Y-104518100D03*
X88517000Y-101746000D03*
X99400000Y-95000000D03*
X106000000Y-99400000D03*
X106000000Y-95000000D03*
X95000000Y-117000000D03*
X101600000Y-117000000D03*
X105700000Y-97700000D03*
X101600000Y-88400000D03*
X106000000Y-101600000D03*
X84000000Y-114800000D03*
X112600000Y-112600000D03*
X108200000Y-92800000D03*
X99400000Y-103800000D03*
X86200000Y-95000000D03*
X112600000Y-92800000D03*
X117000000Y-110400000D03*
X112600000Y-99400000D03*
X92800000Y-84000000D03*
X97200000Y-114800000D03*
X112600000Y-97200000D03*
X112600000Y-86200000D03*
X112600000Y-114800000D03*
X108200000Y-90600000D03*
X106000000Y-106000000D03*
X110400000Y-86200000D03*
X88400000Y-84000000D03*
X108200000Y-97200000D03*
X86200000Y-84000000D03*
X88400000Y-117000000D03*
X84000000Y-112600000D03*
X103800000Y-117000000D03*
X106000000Y-90600000D03*
X92800000Y-114800000D03*
X84000000Y-97200000D03*
X117000000Y-88400000D03*
X106000000Y-117000000D03*
X114800000Y-86200000D03*
X95150000Y-98700000D03*
X114800000Y-90600000D03*
X110400000Y-88400000D03*
X114800000Y-112600000D03*
X114800000Y-99400000D03*
X112600000Y-110400000D03*
X106000000Y-114800000D03*
X110400000Y-117000000D03*
X108200000Y-86200000D03*
X114800000Y-88400000D03*
X117000000Y-112600000D03*
X97200000Y-117000000D03*
X112600000Y-88400000D03*
X92800000Y-117000000D03*
X99400000Y-114800000D03*
X112600000Y-108200000D03*
X110400000Y-92800000D03*
X108200000Y-88400000D03*
X102100000Y-103900000D03*
X112600000Y-117000000D03*
X110400000Y-90600000D03*
X94450000Y-87200000D03*
X84000000Y-86200000D03*
X114800000Y-110400000D03*
X90600000Y-117000000D03*
X117000000Y-101600000D03*
X86200000Y-114800000D03*
X106000000Y-103800000D03*
X112600000Y-90600000D03*
X108200000Y-117000000D03*
X99400000Y-117000000D03*
X106000000Y-108200000D03*
X114800000Y-101600000D03*
X105850000Y-87950000D03*
X117000000Y-90600000D03*
X101500000Y-105425000D03*
X90600000Y-86200000D03*
X108200000Y-114800000D03*
X114800000Y-84000000D03*
X101600000Y-108200000D03*
X101600000Y-95000000D03*
X114800000Y-114800000D03*
X112600000Y-101600000D03*
X84000000Y-88400000D03*
X104500000Y-103900000D03*
X101600000Y-92800000D03*
X108200000Y-112600000D03*
X117000000Y-99400000D03*
X112600000Y-103800000D03*
X108200000Y-84000000D03*
X110400000Y-84000000D03*
X112600000Y-84000000D03*
X110400000Y-99400000D03*
X105550000Y-87200000D03*
X90600000Y-84000000D03*
X90814300Y-91911900D03*
X101500000Y-106975000D03*
X100000000Y-98450000D03*
D14*
X92750000Y-100970000D03*
X90750000Y-100970000D03*
D13*
X99000000Y-98450000D03*
D14*
X91750000Y-100970000D03*
D13*
X85092400Y-90142000D03*
X90766300Y-89002600D03*
X93007300Y-95538300D03*
X85241800Y-110065300D03*
X88198700Y-99003900D03*
X87164600Y-99455300D03*
X94583000Y-91007700D03*
X92424700Y-88454700D03*
X89720200Y-89763300D03*
X93413300Y-87232700D03*
X85025200Y-101878200D03*
X87278600Y-102230800D03*
X103135300Y-100265600D03*
X87600900Y-112286600D03*
X104565400Y-105116500D03*
X103233500Y-112789100D03*
X109183600Y-106662800D03*
X95915200Y-98596400D03*
X83443200Y-108905100D03*
X92174300Y-99272000D03*
D15*
X99850000Y-110850000D03*
X99450000Y-107550000D03*
X91250000Y-107500000D03*
X94450000Y-95600000D03*
D13*
X98239400Y-110810800D03*
X101600000Y-110750000D03*
X93725300Y-109608200D03*
X85209600Y-105357100D03*
X87752200Y-107182900D03*
X87237600Y-104118800D03*
D15*
X94450000Y-97000000D03*
X93150000Y-107500000D03*
D13*
X87076100Y-105586400D03*
X84383300Y-105253500D03*
X97385100Y-113174300D03*
X90851200Y-96532500D03*
X89863700Y-112806000D03*
X93463300Y-94312700D03*
X108040000Y-104203200D03*
X88637300Y-112471500D03*
X104436400Y-111976400D03*
X84921100Y-92364100D03*
X97822000Y-93570500D03*
X98382900Y-89596800D03*
X88850100Y-87347500D03*
X91004300Y-95585800D03*
X97768900Y-94901700D03*
X90533300Y-107604500D03*
X93806500Y-89826800D03*
X97342100Y-90871600D03*
X89923900Y-88834400D03*
X100000500Y-92759300D03*
X98097300Y-92373600D03*
X92187600Y-90653400D03*
X96943600Y-96889700D03*
X95382300Y-105449400D03*
X109654100Y-114479900D03*
X88947000Y-114961500D03*
X84648800Y-99802800D03*
X85568400Y-99236900D03*
G04 #@! TA.AperFunction,Conductor*
G36*
X93759191Y-82319407D02*
G01*
X93795155Y-82368907D01*
X93800000Y-82399500D01*
X93800000Y-86550000D01*
X93800001Y-86550000D01*
X106199999Y-86550000D01*
X106200000Y-86550000D01*
X106200000Y-82800000D01*
X106200000Y-82399500D01*
X106218907Y-82341309D01*
X106268407Y-82305345D01*
X106299000Y-82300500D01*
X111952405Y-82300500D01*
X111998047Y-82300500D01*
X112001934Y-82300576D01*
X112443302Y-82317917D01*
X112451033Y-82318526D01*
X112887750Y-82370214D01*
X112895395Y-82371425D01*
X113326722Y-82457222D01*
X113334256Y-82459031D01*
X113757508Y-82578400D01*
X113764878Y-82580795D01*
X113983586Y-82661481D01*
X114177460Y-82733005D01*
X114184641Y-82735980D01*
X114583981Y-82920077D01*
X114590909Y-82923606D01*
X114974590Y-83138479D01*
X114981213Y-83142538D01*
X115346854Y-83386851D01*
X115353143Y-83391421D01*
X115698470Y-83663655D01*
X115704381Y-83668703D01*
X116027298Y-83967204D01*
X116032795Y-83972701D01*
X116331296Y-84295618D01*
X116336344Y-84301529D01*
X116608578Y-84646856D01*
X116613148Y-84653145D01*
X116857461Y-85018786D01*
X116861522Y-85025413D01*
X117076393Y-85409091D01*
X117079922Y-85416018D01*
X117264019Y-85815358D01*
X117266994Y-85822539D01*
X117419200Y-86235110D01*
X117421602Y-86242503D01*
X117540965Y-86665731D01*
X117542780Y-86673290D01*
X117628571Y-87104587D01*
X117629787Y-87112265D01*
X117681472Y-87548957D01*
X117682082Y-87556706D01*
X117699424Y-87998065D01*
X117699500Y-88001952D01*
X117699500Y-111998047D01*
X117699424Y-112001934D01*
X117682082Y-112443292D01*
X117681472Y-112451041D01*
X117629786Y-112887734D01*
X117628570Y-112895412D01*
X117542780Y-113326709D01*
X117540965Y-113334268D01*
X117421602Y-113757496D01*
X117419200Y-113764888D01*
X117266995Y-114177459D01*
X117264020Y-114184641D01*
X117079919Y-114583985D01*
X117076390Y-114590912D01*
X116861520Y-114974590D01*
X116857459Y-114981217D01*
X116613155Y-115346844D01*
X116608585Y-115353133D01*
X116336343Y-115698469D01*
X116331295Y-115704380D01*
X116032794Y-116027297D01*
X116027297Y-116032794D01*
X115704380Y-116331295D01*
X115698469Y-116336343D01*
X115353133Y-116608585D01*
X115346844Y-116613155D01*
X114981217Y-116857459D01*
X114974590Y-116861520D01*
X114590912Y-117076390D01*
X114583985Y-117079919D01*
X114184641Y-117264020D01*
X114177459Y-117266995D01*
X113764888Y-117419200D01*
X113757496Y-117421602D01*
X113334268Y-117540965D01*
X113326709Y-117542780D01*
X112895412Y-117628570D01*
X112887734Y-117629786D01*
X112451041Y-117681472D01*
X112443292Y-117682082D01*
X112001934Y-117699424D01*
X111998047Y-117699500D01*
X88001953Y-117699500D01*
X87998066Y-117699424D01*
X87556706Y-117682082D01*
X87548957Y-117681472D01*
X87112265Y-117629787D01*
X87104587Y-117628571D01*
X86673290Y-117542780D01*
X86665731Y-117540965D01*
X86242503Y-117421602D01*
X86235110Y-117419200D01*
X85822539Y-117266994D01*
X85815358Y-117264019D01*
X85416018Y-117079922D01*
X85409091Y-117076393D01*
X85025413Y-116861522D01*
X85018786Y-116857461D01*
X84653145Y-116613148D01*
X84646856Y-116608578D01*
X84301529Y-116336344D01*
X84295618Y-116331296D01*
X83972701Y-116032795D01*
X83967204Y-116027298D01*
X83668703Y-115704381D01*
X83663655Y-115698470D01*
X83391421Y-115353143D01*
X83386851Y-115346854D01*
X83386844Y-115346844D01*
X83142535Y-114981209D01*
X83138477Y-114974585D01*
X83117705Y-114937494D01*
X83117704Y-114937493D01*
X83094247Y-114895608D01*
X88446500Y-114895608D01*
X88446500Y-115027392D01*
X88476579Y-115139651D01*
X88480609Y-115154690D01*
X88546496Y-115268809D01*
X88546498Y-115268811D01*
X88546500Y-115268814D01*
X88639686Y-115362000D01*
X88639688Y-115362001D01*
X88639690Y-115362003D01*
X88753810Y-115427890D01*
X88753808Y-115427890D01*
X88753812Y-115427891D01*
X88753814Y-115427892D01*
X88881108Y-115462000D01*
X88881110Y-115462000D01*
X89012890Y-115462000D01*
X89012892Y-115462000D01*
X89140186Y-115427892D01*
X89140188Y-115427890D01*
X89140190Y-115427890D01*
X89254309Y-115362003D01*
X89254309Y-115362002D01*
X89254314Y-115362000D01*
X89347500Y-115268814D01*
X89413392Y-115154686D01*
X89447500Y-115027392D01*
X89447500Y-114895608D01*
X89413392Y-114768314D01*
X89413390Y-114768311D01*
X89413390Y-114768309D01*
X89347503Y-114654190D01*
X89347501Y-114654188D01*
X89347500Y-114654186D01*
X89254314Y-114561000D01*
X89254311Y-114560998D01*
X89254309Y-114560996D01*
X89140189Y-114495109D01*
X89140191Y-114495109D01*
X89090799Y-114481875D01*
X89012892Y-114461000D01*
X88881108Y-114461000D01*
X88803200Y-114481875D01*
X88753809Y-114495109D01*
X88639690Y-114560996D01*
X88546496Y-114654190D01*
X88480609Y-114768309D01*
X88480608Y-114768314D01*
X88446500Y-114895608D01*
X83094247Y-114895608D01*
X82923606Y-114590908D01*
X82920077Y-114583981D01*
X82841719Y-114414008D01*
X109153600Y-114414008D01*
X109153600Y-114545792D01*
X109164781Y-114587519D01*
X109187709Y-114673090D01*
X109253596Y-114787209D01*
X109253598Y-114787211D01*
X109253600Y-114787214D01*
X109346786Y-114880400D01*
X109346788Y-114880401D01*
X109346790Y-114880403D01*
X109460910Y-114946290D01*
X109460908Y-114946290D01*
X109460912Y-114946291D01*
X109460914Y-114946292D01*
X109588208Y-114980400D01*
X109588210Y-114980400D01*
X109719990Y-114980400D01*
X109719992Y-114980400D01*
X109847286Y-114946292D01*
X109847288Y-114946290D01*
X109847290Y-114946290D01*
X109961409Y-114880403D01*
X109961409Y-114880402D01*
X109961414Y-114880400D01*
X110054600Y-114787214D01*
X110120492Y-114673086D01*
X110154600Y-114545792D01*
X110154600Y-114414008D01*
X110120492Y-114286714D01*
X110120490Y-114286711D01*
X110120490Y-114286709D01*
X110054603Y-114172590D01*
X110054601Y-114172588D01*
X110054600Y-114172586D01*
X109961414Y-114079400D01*
X109961411Y-114079398D01*
X109961409Y-114079396D01*
X109847289Y-114013509D01*
X109847291Y-114013509D01*
X109797899Y-114000275D01*
X109719992Y-113979400D01*
X109588208Y-113979400D01*
X109510300Y-114000275D01*
X109460909Y-114013509D01*
X109346790Y-114079396D01*
X109253596Y-114172590D01*
X109187709Y-114286709D01*
X109187708Y-114286714D01*
X109153600Y-114414008D01*
X82841719Y-114414008D01*
X82735980Y-114184641D01*
X82733005Y-114177460D01*
X82580799Y-113764889D01*
X82578400Y-113757508D01*
X82459031Y-113334256D01*
X82457222Y-113326722D01*
X82371425Y-112895395D01*
X82370214Y-112887750D01*
X82318526Y-112451033D01*
X82317917Y-112443293D01*
X82317917Y-112443292D01*
X82309172Y-112220708D01*
X87100400Y-112220708D01*
X87100400Y-112352492D01*
X87114633Y-112405609D01*
X87134509Y-112479790D01*
X87200396Y-112593909D01*
X87200398Y-112593911D01*
X87200400Y-112593914D01*
X87293586Y-112687100D01*
X87293588Y-112687101D01*
X87293590Y-112687103D01*
X87407710Y-112752990D01*
X87407708Y-112752990D01*
X87407712Y-112752991D01*
X87407714Y-112752992D01*
X87535008Y-112787100D01*
X87535010Y-112787100D01*
X87666790Y-112787100D01*
X87666792Y-112787100D01*
X87794086Y-112752992D01*
X87794088Y-112752990D01*
X87794090Y-112752990D01*
X87908209Y-112687103D01*
X87908209Y-112687102D01*
X87908214Y-112687100D01*
X87998882Y-112596431D01*
X88053396Y-112568655D01*
X88113829Y-112578226D01*
X88157093Y-112621490D01*
X88164510Y-112640811D01*
X88170908Y-112664686D01*
X88170909Y-112664689D01*
X88236796Y-112778809D01*
X88236798Y-112778811D01*
X88236800Y-112778814D01*
X88329986Y-112872000D01*
X88329988Y-112872001D01*
X88329990Y-112872003D01*
X88444110Y-112937890D01*
X88444108Y-112937890D01*
X88444112Y-112937891D01*
X88444114Y-112937892D01*
X88571408Y-112972000D01*
X88571410Y-112972000D01*
X88703190Y-112972000D01*
X88703192Y-112972000D01*
X88830486Y-112937892D01*
X88830488Y-112937890D01*
X88830490Y-112937890D01*
X88944609Y-112872003D01*
X88944609Y-112872002D01*
X88944614Y-112872000D01*
X89037800Y-112778814D01*
X89040697Y-112773796D01*
X89060147Y-112740108D01*
X89363200Y-112740108D01*
X89363200Y-112871892D01*
X89390024Y-112972000D01*
X89397309Y-112999190D01*
X89463196Y-113113309D01*
X89463198Y-113113311D01*
X89463200Y-113113314D01*
X89556386Y-113206500D01*
X89556388Y-113206501D01*
X89556390Y-113206503D01*
X89670510Y-113272390D01*
X89670508Y-113272390D01*
X89670512Y-113272391D01*
X89670514Y-113272392D01*
X89797808Y-113306500D01*
X89797810Y-113306500D01*
X89929590Y-113306500D01*
X89929592Y-113306500D01*
X90056886Y-113272392D01*
X90056888Y-113272390D01*
X90056890Y-113272390D01*
X90171009Y-113206503D01*
X90171009Y-113206502D01*
X90171014Y-113206500D01*
X90264200Y-113113314D01*
X90267032Y-113108408D01*
X96884600Y-113108408D01*
X96884600Y-113240192D01*
X96893228Y-113272392D01*
X96918709Y-113367490D01*
X96984596Y-113481609D01*
X96984598Y-113481611D01*
X96984600Y-113481614D01*
X97077786Y-113574800D01*
X97077788Y-113574801D01*
X97077790Y-113574803D01*
X97191910Y-113640690D01*
X97191908Y-113640690D01*
X97191912Y-113640691D01*
X97191914Y-113640692D01*
X97319208Y-113674800D01*
X97319210Y-113674800D01*
X97450990Y-113674800D01*
X97450992Y-113674800D01*
X97578286Y-113640692D01*
X97578288Y-113640690D01*
X97578290Y-113640690D01*
X97692409Y-113574803D01*
X97692409Y-113574802D01*
X97692414Y-113574800D01*
X97785600Y-113481614D01*
X97851492Y-113367486D01*
X97885600Y-113240192D01*
X97885600Y-113108408D01*
X97851492Y-112981114D01*
X97851490Y-112981111D01*
X97851490Y-112981109D01*
X97785603Y-112866990D01*
X97785601Y-112866988D01*
X97785600Y-112866986D01*
X97692414Y-112773800D01*
X97692411Y-112773798D01*
X97692409Y-112773796D01*
X97604788Y-112723208D01*
X102733000Y-112723208D01*
X102733000Y-112854992D01*
X102755212Y-112937890D01*
X102767109Y-112982290D01*
X102832996Y-113096409D01*
X102832998Y-113096411D01*
X102833000Y-113096414D01*
X102926186Y-113189600D01*
X102926188Y-113189601D01*
X102926190Y-113189603D01*
X103040310Y-113255490D01*
X103040308Y-113255490D01*
X103040312Y-113255491D01*
X103040314Y-113255492D01*
X103167608Y-113289600D01*
X103167610Y-113289600D01*
X103299390Y-113289600D01*
X103299392Y-113289600D01*
X103426686Y-113255492D01*
X103426688Y-113255490D01*
X103426690Y-113255490D01*
X103540809Y-113189603D01*
X103540809Y-113189602D01*
X103540814Y-113189600D01*
X103634000Y-113096414D01*
X103659401Y-113052418D01*
X103699890Y-112982290D01*
X103699890Y-112982288D01*
X103699892Y-112982286D01*
X103734000Y-112854992D01*
X103734000Y-112723208D01*
X103699892Y-112595914D01*
X103699890Y-112595911D01*
X103699890Y-112595909D01*
X103634003Y-112481790D01*
X103634001Y-112481788D01*
X103634000Y-112481786D01*
X103540814Y-112388600D01*
X103540811Y-112388598D01*
X103540809Y-112388596D01*
X103426689Y-112322709D01*
X103426691Y-112322709D01*
X103362464Y-112305500D01*
X103299392Y-112288600D01*
X103167608Y-112288600D01*
X103104536Y-112305500D01*
X103040309Y-112322709D01*
X102926190Y-112388596D01*
X102832996Y-112481790D01*
X102767109Y-112595909D01*
X102760255Y-112621490D01*
X102733000Y-112723208D01*
X97604788Y-112723208D01*
X97578289Y-112707909D01*
X97578291Y-112707909D01*
X97528899Y-112694675D01*
X97450992Y-112673800D01*
X97319208Y-112673800D01*
X97241300Y-112694675D01*
X97191909Y-112707909D01*
X97077790Y-112773796D01*
X96984596Y-112866990D01*
X96918709Y-112981109D01*
X96899639Y-113052278D01*
X96884600Y-113108408D01*
X90267032Y-113108408D01*
X90283696Y-113079544D01*
X90299359Y-113052418D01*
X90317240Y-113021445D01*
X90330092Y-112999186D01*
X90364200Y-112871892D01*
X90364200Y-112740108D01*
X90330092Y-112612814D01*
X90330090Y-112612811D01*
X90330090Y-112612809D01*
X90264203Y-112498690D01*
X90264201Y-112498688D01*
X90264200Y-112498686D01*
X90171014Y-112405500D01*
X90171011Y-112405498D01*
X90171009Y-112405496D01*
X90056889Y-112339609D01*
X90056891Y-112339609D01*
X89993817Y-112322709D01*
X89929592Y-112305500D01*
X89797808Y-112305500D01*
X89733583Y-112322709D01*
X89670509Y-112339609D01*
X89556390Y-112405496D01*
X89463196Y-112498690D01*
X89397309Y-112612809D01*
X89383408Y-112664689D01*
X89363200Y-112740108D01*
X89060147Y-112740108D01*
X89092473Y-112684119D01*
X89092473Y-112684118D01*
X89098430Y-112673800D01*
X89103692Y-112664686D01*
X89137800Y-112537392D01*
X89137800Y-112405608D01*
X89103692Y-112278314D01*
X89103690Y-112278311D01*
X89103690Y-112278309D01*
X89037803Y-112164190D01*
X89037801Y-112164188D01*
X89037800Y-112164186D01*
X88944614Y-112071000D01*
X88944611Y-112070998D01*
X88944609Y-112070996D01*
X88830489Y-112005109D01*
X88830486Y-112005108D01*
X88703192Y-111971000D01*
X88571408Y-111971000D01*
X88493500Y-111991875D01*
X88444109Y-112005109D01*
X88329990Y-112070996D01*
X88329985Y-112071000D01*
X88239318Y-112161667D01*
X88184801Y-112189444D01*
X88124369Y-112179872D01*
X88081105Y-112136608D01*
X88073688Y-112117286D01*
X88067292Y-112093414D01*
X88067290Y-112093411D01*
X88067290Y-112093409D01*
X88001403Y-111979290D01*
X88001401Y-111979288D01*
X88001400Y-111979286D01*
X87932622Y-111910508D01*
X103935900Y-111910508D01*
X103935900Y-112042292D01*
X103961172Y-112136608D01*
X103970009Y-112169590D01*
X104035896Y-112283709D01*
X104035898Y-112283711D01*
X104035900Y-112283714D01*
X104129086Y-112376900D01*
X104129088Y-112376901D01*
X104129090Y-112376903D01*
X104243210Y-112442790D01*
X104243208Y-112442790D01*
X104243212Y-112442791D01*
X104243214Y-112442792D01*
X104370508Y-112476900D01*
X104370510Y-112476900D01*
X104502290Y-112476900D01*
X104502292Y-112476900D01*
X104629586Y-112442792D01*
X104629588Y-112442790D01*
X104629590Y-112442790D01*
X104743709Y-112376903D01*
X104743709Y-112376902D01*
X104743714Y-112376900D01*
X104836900Y-112283714D01*
X104891327Y-112189444D01*
X104902790Y-112169590D01*
X104902790Y-112169588D01*
X104902792Y-112169586D01*
X104936900Y-112042292D01*
X104936900Y-111910508D01*
X104902792Y-111783214D01*
X104902790Y-111783211D01*
X104902790Y-111783209D01*
X104836903Y-111669090D01*
X104836901Y-111669088D01*
X104836900Y-111669086D01*
X104743714Y-111575900D01*
X104743711Y-111575898D01*
X104743709Y-111575896D01*
X104629589Y-111510009D01*
X104629591Y-111510009D01*
X104580199Y-111496775D01*
X104502292Y-111475900D01*
X104370508Y-111475900D01*
X104292600Y-111496775D01*
X104243209Y-111510009D01*
X104129090Y-111575896D01*
X104035896Y-111669090D01*
X103970009Y-111783209D01*
X103960095Y-111820209D01*
X103935900Y-111910508D01*
X87932622Y-111910508D01*
X87908214Y-111886100D01*
X87908211Y-111886098D01*
X87908209Y-111886096D01*
X87794089Y-111820209D01*
X87794091Y-111820209D01*
X87744699Y-111806975D01*
X87666792Y-111786100D01*
X87535008Y-111786100D01*
X87457100Y-111806975D01*
X87407709Y-111820209D01*
X87293590Y-111886096D01*
X87200396Y-111979290D01*
X87134509Y-112093409D01*
X87122934Y-112136608D01*
X87100400Y-112220708D01*
X82309172Y-112220708D01*
X82300576Y-112001934D01*
X82300500Y-111998047D01*
X82300500Y-110924234D01*
X96534500Y-110924234D01*
X96534500Y-111075766D01*
X96555166Y-111152893D01*
X96573720Y-111222139D01*
X96649481Y-111353360D01*
X96649483Y-111353362D01*
X96649485Y-111353365D01*
X96756635Y-111460515D01*
X96756637Y-111460516D01*
X96756639Y-111460518D01*
X96887861Y-111536279D01*
X96887859Y-111536279D01*
X96887863Y-111536280D01*
X96887865Y-111536281D01*
X97034234Y-111575500D01*
X97034236Y-111575500D01*
X97185764Y-111575500D01*
X97185766Y-111575500D01*
X97332135Y-111536281D01*
X97332137Y-111536279D01*
X97332139Y-111536279D01*
X97463360Y-111460518D01*
X97463360Y-111460517D01*
X97463365Y-111460515D01*
X97570515Y-111353365D01*
X97646281Y-111222135D01*
X97664834Y-111152890D01*
X97698156Y-111101578D01*
X97755277Y-111079651D01*
X97814378Y-111095486D01*
X97834111Y-111113725D01*
X97834312Y-111113525D01*
X97838898Y-111118111D01*
X97838900Y-111118114D01*
X97932086Y-111211300D01*
X97932088Y-111211301D01*
X97932090Y-111211303D01*
X98046210Y-111277190D01*
X98046208Y-111277190D01*
X98046212Y-111277191D01*
X98046214Y-111277192D01*
X98173508Y-111311300D01*
X98173510Y-111311300D01*
X98305290Y-111311300D01*
X98305292Y-111311300D01*
X98432586Y-111277192D01*
X98432588Y-111277190D01*
X98432590Y-111277190D01*
X98546709Y-111211303D01*
X98546709Y-111211302D01*
X98546714Y-111211300D01*
X98639900Y-111118114D01*
X98642434Y-111113725D01*
X98705790Y-111003990D01*
X98705790Y-111003988D01*
X98705792Y-111003986D01*
X98739900Y-110876692D01*
X98739900Y-110790691D01*
X99399500Y-110790691D01*
X99399500Y-110909309D01*
X99424869Y-111003986D01*
X99430202Y-111023890D01*
X99489507Y-111126608D01*
X99489509Y-111126610D01*
X99489511Y-111126613D01*
X99573387Y-111210489D01*
X99573389Y-111210490D01*
X99573391Y-111210492D01*
X99676110Y-111269797D01*
X99676111Y-111269797D01*
X99676114Y-111269799D01*
X99790691Y-111300500D01*
X99790693Y-111300500D01*
X99909307Y-111300500D01*
X99909309Y-111300500D01*
X100023886Y-111269799D01*
X100023888Y-111269797D01*
X100023890Y-111269797D01*
X100126608Y-111210492D01*
X100126608Y-111210491D01*
X100126613Y-111210489D01*
X100210489Y-111126613D01*
X100217930Y-111113725D01*
X100269797Y-111023890D01*
X100269797Y-111023888D01*
X100269799Y-111023886D01*
X100300500Y-110909309D01*
X100300500Y-110790691D01*
X100271941Y-110684108D01*
X101099500Y-110684108D01*
X101099500Y-110815892D01*
X101115791Y-110876690D01*
X101133609Y-110943190D01*
X101199496Y-111057309D01*
X101199498Y-111057311D01*
X101199500Y-111057314D01*
X101292686Y-111150500D01*
X101292688Y-111150501D01*
X101292690Y-111150503D01*
X101406810Y-111216390D01*
X101406808Y-111216390D01*
X101406812Y-111216391D01*
X101406814Y-111216392D01*
X101534108Y-111250500D01*
X101534110Y-111250500D01*
X101665890Y-111250500D01*
X101665892Y-111250500D01*
X101793186Y-111216392D01*
X101793188Y-111216390D01*
X101793190Y-111216390D01*
X101907309Y-111150503D01*
X101907309Y-111150502D01*
X101907314Y-111150500D01*
X102000500Y-111057314D01*
X102000503Y-111057309D01*
X102066390Y-110943190D01*
X102066390Y-110943188D01*
X102066392Y-110943186D01*
X102071470Y-110924234D01*
X102314500Y-110924234D01*
X102314500Y-111075766D01*
X102335166Y-111152893D01*
X102353720Y-111222139D01*
X102429481Y-111353360D01*
X102429483Y-111353362D01*
X102429485Y-111353365D01*
X102536635Y-111460515D01*
X102536637Y-111460516D01*
X102536639Y-111460518D01*
X102667861Y-111536279D01*
X102667859Y-111536279D01*
X102667863Y-111536280D01*
X102667865Y-111536281D01*
X102814234Y-111575500D01*
X102814236Y-111575500D01*
X102965764Y-111575500D01*
X102965766Y-111575500D01*
X103112135Y-111536281D01*
X103112137Y-111536279D01*
X103112139Y-111536279D01*
X103243360Y-111460518D01*
X103243360Y-111460517D01*
X103243365Y-111460515D01*
X103350515Y-111353365D01*
X103350518Y-111353360D01*
X103426279Y-111222139D01*
X103426279Y-111222137D01*
X103426281Y-111222135D01*
X103465500Y-111075766D01*
X103465500Y-110924234D01*
X103426281Y-110777865D01*
X103426279Y-110777862D01*
X103426279Y-110777860D01*
X103350518Y-110646639D01*
X103350516Y-110646637D01*
X103350515Y-110646635D01*
X103243365Y-110539485D01*
X103243362Y-110539483D01*
X103243360Y-110539481D01*
X103112138Y-110463720D01*
X103112140Y-110463720D01*
X103055347Y-110448503D01*
X102965766Y-110424500D01*
X102814234Y-110424500D01*
X102724652Y-110448503D01*
X102667860Y-110463720D01*
X102536639Y-110539481D01*
X102429481Y-110646639D01*
X102353720Y-110777860D01*
X102343530Y-110815890D01*
X102314500Y-110924234D01*
X102071470Y-110924234D01*
X102100500Y-110815892D01*
X102100500Y-110684108D01*
X102066392Y-110556814D01*
X102066390Y-110556811D01*
X102066390Y-110556809D01*
X102000503Y-110442690D01*
X102000501Y-110442688D01*
X102000500Y-110442686D01*
X101907314Y-110349500D01*
X101907311Y-110349498D01*
X101907309Y-110349496D01*
X101793189Y-110283609D01*
X101793191Y-110283609D01*
X101743799Y-110270375D01*
X101665892Y-110249500D01*
X101534108Y-110249500D01*
X101456200Y-110270375D01*
X101406809Y-110283609D01*
X101292690Y-110349496D01*
X101199496Y-110442690D01*
X101133609Y-110556809D01*
X101133608Y-110556814D01*
X101099500Y-110684108D01*
X100271941Y-110684108D01*
X100269799Y-110676114D01*
X100266270Y-110670001D01*
X100210492Y-110573391D01*
X100210490Y-110573389D01*
X100210489Y-110573387D01*
X100126613Y-110489511D01*
X100126610Y-110489509D01*
X100126608Y-110489507D01*
X100023889Y-110430202D01*
X100023890Y-110430202D01*
X100002610Y-110424500D01*
X99909309Y-110399500D01*
X99790691Y-110399500D01*
X99720567Y-110418289D01*
X99676109Y-110430202D01*
X99573391Y-110489507D01*
X99489507Y-110573391D01*
X99430202Y-110676109D01*
X99424487Y-110697439D01*
X99399500Y-110790691D01*
X98739900Y-110790691D01*
X98739900Y-110744908D01*
X98705792Y-110617614D01*
X98705790Y-110617610D01*
X98705790Y-110617609D01*
X98639903Y-110503490D01*
X98639901Y-110503488D01*
X98639900Y-110503486D01*
X98546714Y-110410300D01*
X98546711Y-110410298D01*
X98546709Y-110410296D01*
X98432589Y-110344409D01*
X98432591Y-110344409D01*
X98383199Y-110331175D01*
X98305292Y-110310300D01*
X98173508Y-110310300D01*
X98095600Y-110331175D01*
X98046209Y-110344409D01*
X97932090Y-110410296D01*
X97838896Y-110503490D01*
X97773009Y-110617610D01*
X97773007Y-110617614D01*
X97765368Y-110646125D01*
X97732044Y-110697439D01*
X97674923Y-110719365D01*
X97615822Y-110703529D01*
X97584005Y-110670001D01*
X97570517Y-110646639D01*
X97570515Y-110646635D01*
X97463365Y-110539485D01*
X97463362Y-110539483D01*
X97463360Y-110539481D01*
X97332138Y-110463720D01*
X97332140Y-110463720D01*
X97275347Y-110448503D01*
X97185766Y-110424500D01*
X97034234Y-110424500D01*
X96944652Y-110448503D01*
X96887860Y-110463720D01*
X96756639Y-110539481D01*
X96649481Y-110646639D01*
X96573720Y-110777860D01*
X96563530Y-110815890D01*
X96534500Y-110924234D01*
X82300500Y-110924234D01*
X82300500Y-109999408D01*
X84741300Y-109999408D01*
X84741300Y-110131192D01*
X84771379Y-110243451D01*
X84775409Y-110258490D01*
X84841296Y-110372609D01*
X84841298Y-110372611D01*
X84841300Y-110372614D01*
X84934486Y-110465800D01*
X84934488Y-110465801D01*
X84934490Y-110465803D01*
X85048610Y-110531690D01*
X85048608Y-110531690D01*
X85048612Y-110531691D01*
X85048614Y-110531692D01*
X85175908Y-110565800D01*
X85175910Y-110565800D01*
X85307690Y-110565800D01*
X85307692Y-110565800D01*
X85434986Y-110531692D01*
X85434988Y-110531690D01*
X85434990Y-110531690D01*
X85549109Y-110465803D01*
X85549109Y-110465802D01*
X85549114Y-110465800D01*
X85642300Y-110372614D01*
X85708192Y-110258486D01*
X85742300Y-110131192D01*
X85742300Y-109999408D01*
X85708192Y-109872114D01*
X85708190Y-109872111D01*
X85708190Y-109872109D01*
X85642303Y-109757990D01*
X85642301Y-109757988D01*
X85642300Y-109757986D01*
X85549114Y-109664800D01*
X85549111Y-109664798D01*
X85549109Y-109664796D01*
X85474213Y-109621555D01*
X85434989Y-109598909D01*
X85434991Y-109598909D01*
X85385599Y-109585675D01*
X85307692Y-109564800D01*
X85175908Y-109564800D01*
X85098000Y-109585675D01*
X85048609Y-109598909D01*
X84934490Y-109664796D01*
X84841296Y-109757990D01*
X84775409Y-109872109D01*
X84775408Y-109872114D01*
X84741300Y-109999408D01*
X82300500Y-109999408D01*
X82300500Y-108839208D01*
X82942700Y-108839208D01*
X82942700Y-108970992D01*
X82959338Y-109033086D01*
X82976809Y-109098290D01*
X83042696Y-109212409D01*
X83042698Y-109212411D01*
X83042700Y-109212414D01*
X83135886Y-109305600D01*
X83135888Y-109305601D01*
X83135890Y-109305603D01*
X83250010Y-109371490D01*
X83250008Y-109371490D01*
X83250012Y-109371491D01*
X83250014Y-109371492D01*
X83377308Y-109405600D01*
X83377310Y-109405600D01*
X83509090Y-109405600D01*
X83509092Y-109405600D01*
X83600650Y-109381067D01*
X83661749Y-109384269D01*
X83709299Y-109422775D01*
X83721897Y-109451070D01*
X83744007Y-109533585D01*
X83744009Y-109533589D01*
X83809896Y-109647709D01*
X83809898Y-109647711D01*
X83809900Y-109647714D01*
X83903086Y-109740900D01*
X83903088Y-109740901D01*
X83903090Y-109740903D01*
X84017210Y-109806790D01*
X84017208Y-109806790D01*
X84017212Y-109806791D01*
X84017214Y-109806792D01*
X84144508Y-109840900D01*
X84144510Y-109840900D01*
X84276290Y-109840900D01*
X84276292Y-109840900D01*
X84403586Y-109806792D01*
X84403588Y-109806790D01*
X84403590Y-109806790D01*
X84517709Y-109740903D01*
X84517709Y-109740902D01*
X84517714Y-109740900D01*
X84610900Y-109647714D01*
X84671756Y-109542309D01*
X84671757Y-109542308D01*
X93224800Y-109542308D01*
X93224800Y-109674092D01*
X93242701Y-109740900D01*
X93258909Y-109801390D01*
X93324796Y-109915509D01*
X93324798Y-109915511D01*
X93324800Y-109915514D01*
X93417986Y-110008700D01*
X93417988Y-110008701D01*
X93417990Y-110008703D01*
X93532110Y-110074590D01*
X93532108Y-110074590D01*
X93532112Y-110074591D01*
X93532114Y-110074592D01*
X93659408Y-110108700D01*
X93659410Y-110108700D01*
X93791190Y-110108700D01*
X93791192Y-110108700D01*
X93918486Y-110074592D01*
X93918488Y-110074590D01*
X93918490Y-110074590D01*
X94032609Y-110008703D01*
X94032609Y-110008702D01*
X94032614Y-110008700D01*
X94125800Y-109915514D01*
X94191692Y-109801386D01*
X94225800Y-109674092D01*
X94225800Y-109542308D01*
X94191692Y-109415014D01*
X94191690Y-109415011D01*
X94191690Y-109415009D01*
X94125803Y-109300890D01*
X94125801Y-109300888D01*
X94125800Y-109300886D01*
X94032614Y-109207700D01*
X94032611Y-109207698D01*
X94032609Y-109207696D01*
X93918489Y-109141809D01*
X93918491Y-109141809D01*
X93869099Y-109128575D01*
X93791192Y-109107700D01*
X93659408Y-109107700D01*
X93581500Y-109128575D01*
X93532109Y-109141809D01*
X93417990Y-109207696D01*
X93324796Y-109300890D01*
X93258909Y-109415009D01*
X93258908Y-109415014D01*
X93224800Y-109542308D01*
X84671757Y-109542308D01*
X84676790Y-109533590D01*
X84676790Y-109533588D01*
X84676792Y-109533586D01*
X84710900Y-109406292D01*
X84710900Y-109274508D01*
X84676792Y-109147214D01*
X84676790Y-109147211D01*
X84676790Y-109147209D01*
X84610903Y-109033090D01*
X84610901Y-109033088D01*
X84610900Y-109033086D01*
X84517714Y-108939900D01*
X84517711Y-108939898D01*
X84517709Y-108939896D01*
X84403589Y-108874009D01*
X84403591Y-108874009D01*
X84354199Y-108860775D01*
X84276292Y-108839900D01*
X84144508Y-108839900D01*
X84118035Y-108846993D01*
X84052950Y-108864432D01*
X83991849Y-108861229D01*
X83944299Y-108822723D01*
X83931701Y-108794428D01*
X83918665Y-108745777D01*
X83909592Y-108711914D01*
X83909590Y-108711911D01*
X83909590Y-108711909D01*
X83843703Y-108597790D01*
X83843701Y-108597788D01*
X83843700Y-108597786D01*
X83750514Y-108504600D01*
X83750511Y-108504598D01*
X83750509Y-108504596D01*
X83636389Y-108438709D01*
X83636391Y-108438709D01*
X83586999Y-108425475D01*
X83509092Y-108404600D01*
X83377308Y-108404600D01*
X83299400Y-108425475D01*
X83250009Y-108438709D01*
X83135890Y-108504596D01*
X83042696Y-108597790D01*
X82976809Y-108711909D01*
X82957739Y-108783078D01*
X82942700Y-108839208D01*
X82300500Y-108839208D01*
X82300500Y-107117008D01*
X87251700Y-107117008D01*
X87251700Y-107248792D01*
X87260681Y-107282309D01*
X87285809Y-107376090D01*
X87351696Y-107490209D01*
X87351698Y-107490211D01*
X87351700Y-107490214D01*
X87444886Y-107583400D01*
X87444888Y-107583401D01*
X87444890Y-107583403D01*
X87559010Y-107649290D01*
X87559008Y-107649290D01*
X87559012Y-107649291D01*
X87559014Y-107649292D01*
X87686308Y-107683400D01*
X87686310Y-107683400D01*
X87818090Y-107683400D01*
X87818092Y-107683400D01*
X87945386Y-107649292D01*
X87945388Y-107649290D01*
X87945390Y-107649290D01*
X88059509Y-107583403D01*
X88059509Y-107583402D01*
X88059514Y-107583400D01*
X88104306Y-107538608D01*
X90032800Y-107538608D01*
X90032800Y-107670392D01*
X90047134Y-107723886D01*
X90066909Y-107797690D01*
X90132796Y-107911809D01*
X90132798Y-107911811D01*
X90132800Y-107911814D01*
X90225986Y-108005000D01*
X90225988Y-108005001D01*
X90225990Y-108005003D01*
X90340110Y-108070890D01*
X90340108Y-108070890D01*
X90340112Y-108070891D01*
X90340114Y-108070892D01*
X90467408Y-108105000D01*
X90467410Y-108105000D01*
X90599190Y-108105000D01*
X90599192Y-108105000D01*
X90726486Y-108070892D01*
X90726488Y-108070890D01*
X90726490Y-108070890D01*
X90752273Y-108056004D01*
X115199500Y-108056004D01*
X115199500Y-108193995D01*
X115226420Y-108329327D01*
X115226420Y-108329329D01*
X115279222Y-108456806D01*
X115279228Y-108456817D01*
X115355885Y-108571541D01*
X115453458Y-108669114D01*
X115568182Y-108745771D01*
X115568193Y-108745777D01*
X115615283Y-108765282D01*
X115695672Y-108798580D01*
X115831007Y-108825500D01*
X115831008Y-108825500D01*
X115968992Y-108825500D01*
X115968993Y-108825500D01*
X116104328Y-108798580D01*
X116231811Y-108745775D01*
X116346542Y-108669114D01*
X116444114Y-108571542D01*
X116520775Y-108456811D01*
X116573580Y-108329328D01*
X116600500Y-108193993D01*
X116600500Y-108056007D01*
X116573580Y-107920672D01*
X116548653Y-107860492D01*
X116520777Y-107793193D01*
X116520771Y-107793182D01*
X116444114Y-107678458D01*
X116346541Y-107580885D01*
X116231817Y-107504228D01*
X116231806Y-107504222D01*
X116104328Y-107451420D01*
X115968995Y-107424500D01*
X115968993Y-107424500D01*
X115831007Y-107424500D01*
X115831004Y-107424500D01*
X115695672Y-107451420D01*
X115695670Y-107451420D01*
X115568193Y-107504222D01*
X115568182Y-107504228D01*
X115453458Y-107580885D01*
X115355885Y-107678458D01*
X115279228Y-107793182D01*
X115279222Y-107793193D01*
X115226420Y-107920670D01*
X115226420Y-107920672D01*
X115199500Y-108056004D01*
X90752273Y-108056004D01*
X90840609Y-108005003D01*
X90840609Y-108005002D01*
X90840614Y-108005000D01*
X90927114Y-107918499D01*
X90981628Y-107890723D01*
X91042061Y-107900294D01*
X91046608Y-107902763D01*
X91059994Y-107910492D01*
X91076110Y-107919797D01*
X91076111Y-107919797D01*
X91076114Y-107919799D01*
X91190691Y-107950500D01*
X91190693Y-107950500D01*
X91309307Y-107950500D01*
X91309309Y-107950500D01*
X91423886Y-107919799D01*
X91423888Y-107919797D01*
X91423890Y-107919797D01*
X91526608Y-107860492D01*
X91526608Y-107860491D01*
X91526613Y-107860489D01*
X91610489Y-107776613D01*
X91664306Y-107683400D01*
X91669797Y-107673890D01*
X91669797Y-107673888D01*
X91669799Y-107673886D01*
X91700500Y-107559309D01*
X91700500Y-107440691D01*
X92699500Y-107440691D01*
X92699500Y-107559309D01*
X92723611Y-107649292D01*
X92730202Y-107673890D01*
X92789507Y-107776608D01*
X92789509Y-107776610D01*
X92789511Y-107776613D01*
X92873387Y-107860489D01*
X92873389Y-107860490D01*
X92873391Y-107860492D01*
X92976110Y-107919797D01*
X92976111Y-107919797D01*
X92976114Y-107919799D01*
X93090691Y-107950500D01*
X93090693Y-107950500D01*
X93209307Y-107950500D01*
X93209309Y-107950500D01*
X93323886Y-107919799D01*
X93323888Y-107919797D01*
X93323890Y-107919797D01*
X93426608Y-107860492D01*
X93426608Y-107860491D01*
X93426613Y-107860489D01*
X93510489Y-107776613D01*
X93564306Y-107683400D01*
X93569797Y-107673890D01*
X93569797Y-107673888D01*
X93569799Y-107673886D01*
X93600500Y-107559309D01*
X93600500Y-107490691D01*
X98999500Y-107490691D01*
X98999500Y-107609309D01*
X99016805Y-107673890D01*
X99030202Y-107723890D01*
X99089507Y-107826608D01*
X99089509Y-107826610D01*
X99089511Y-107826613D01*
X99173387Y-107910489D01*
X99173389Y-107910490D01*
X99173391Y-107910492D01*
X99276110Y-107969797D01*
X99276111Y-107969797D01*
X99276114Y-107969799D01*
X99390691Y-108000500D01*
X99390693Y-108000500D01*
X99509307Y-108000500D01*
X99509309Y-108000500D01*
X99623886Y-107969799D01*
X99626049Y-107968549D01*
X99631496Y-107965406D01*
X99677140Y-107939052D01*
X99726613Y-107910489D01*
X99810489Y-107826613D01*
X99869799Y-107723886D01*
X99900500Y-107609309D01*
X99900500Y-107490691D01*
X99869799Y-107376114D01*
X99869797Y-107376111D01*
X99869797Y-107376109D01*
X99810492Y-107273391D01*
X99810490Y-107273389D01*
X99810489Y-107273387D01*
X99726613Y-107189511D01*
X99726610Y-107189509D01*
X99726608Y-107189507D01*
X99623889Y-107130202D01*
X99623890Y-107130202D01*
X99610351Y-107126574D01*
X99509309Y-107099500D01*
X99390691Y-107099500D01*
X99325351Y-107117008D01*
X99276109Y-107130202D01*
X99173391Y-107189507D01*
X99089507Y-107273391D01*
X99030202Y-107376109D01*
X99030201Y-107376114D01*
X98999500Y-107490691D01*
X93600500Y-107490691D01*
X93600500Y-107440691D01*
X93569799Y-107326114D01*
X93569797Y-107326111D01*
X93569797Y-107326109D01*
X93510492Y-107223391D01*
X93510490Y-107223389D01*
X93510489Y-107223387D01*
X93426613Y-107139511D01*
X93426610Y-107139509D01*
X93426608Y-107139507D01*
X93323889Y-107080202D01*
X93323890Y-107080202D01*
X93310351Y-107076574D01*
X93209309Y-107049500D01*
X93090691Y-107049500D01*
X93039178Y-107063303D01*
X92976109Y-107080202D01*
X92873391Y-107139507D01*
X92789507Y-107223391D01*
X92730202Y-107326109D01*
X92730201Y-107326114D01*
X92699500Y-107440691D01*
X91700500Y-107440691D01*
X91669799Y-107326114D01*
X91669797Y-107326111D01*
X91669797Y-107326109D01*
X91610492Y-107223391D01*
X91610490Y-107223389D01*
X91610489Y-107223387D01*
X91526613Y-107139511D01*
X91526610Y-107139509D01*
X91526608Y-107139507D01*
X91423889Y-107080202D01*
X91423890Y-107080202D01*
X91410351Y-107076574D01*
X91309309Y-107049500D01*
X91190691Y-107049500D01*
X91139178Y-107063303D01*
X91076109Y-107080202D01*
X90973391Y-107139507D01*
X90973385Y-107139512D01*
X90937619Y-107175278D01*
X90883102Y-107203055D01*
X90822670Y-107193483D01*
X90818116Y-107191010D01*
X90726489Y-107138109D01*
X90726491Y-107138109D01*
X90677099Y-107124875D01*
X90599192Y-107104000D01*
X90467408Y-107104000D01*
X90389500Y-107124875D01*
X90340109Y-107138109D01*
X90225990Y-107203996D01*
X90132796Y-107297190D01*
X90066909Y-107411309D01*
X90059036Y-107440692D01*
X90032800Y-107538608D01*
X88104306Y-107538608D01*
X88152700Y-107490214D01*
X88218592Y-107376086D01*
X88252700Y-107248792D01*
X88252700Y-107117008D01*
X88218592Y-106989714D01*
X88172054Y-106909108D01*
X100999500Y-106909108D01*
X100999500Y-107040892D01*
X101005505Y-107063303D01*
X101033609Y-107168190D01*
X101099496Y-107282309D01*
X101099498Y-107282311D01*
X101099500Y-107282314D01*
X101192686Y-107375500D01*
X101192688Y-107375501D01*
X101192690Y-107375503D01*
X101306810Y-107441390D01*
X101306808Y-107441390D01*
X101306812Y-107441391D01*
X101306814Y-107441392D01*
X101434108Y-107475500D01*
X101434110Y-107475500D01*
X101565890Y-107475500D01*
X101565892Y-107475500D01*
X101693186Y-107441392D01*
X101693188Y-107441390D01*
X101693190Y-107441390D01*
X101807309Y-107375503D01*
X101807309Y-107375502D01*
X101807314Y-107375500D01*
X101900500Y-107282314D01*
X101923721Y-107242095D01*
X101966390Y-107168190D01*
X101966390Y-107168188D01*
X101966392Y-107168186D01*
X102000500Y-107040892D01*
X102000500Y-106909108D01*
X101966392Y-106781814D01*
X101966390Y-106781811D01*
X101966390Y-106781809D01*
X101900503Y-106667690D01*
X101900501Y-106667688D01*
X101900500Y-106667686D01*
X101829722Y-106596908D01*
X108683100Y-106596908D01*
X108683100Y-106728692D01*
X108697333Y-106781809D01*
X108717209Y-106855990D01*
X108783096Y-106970109D01*
X108783098Y-106970111D01*
X108783100Y-106970114D01*
X108876286Y-107063300D01*
X108876288Y-107063301D01*
X108876290Y-107063303D01*
X108990410Y-107129190D01*
X108990408Y-107129190D01*
X108990412Y-107129191D01*
X108990414Y-107129192D01*
X109117708Y-107163300D01*
X109117710Y-107163300D01*
X109249490Y-107163300D01*
X109249492Y-107163300D01*
X109376786Y-107129192D01*
X109376788Y-107129190D01*
X109376790Y-107129190D01*
X109490909Y-107063303D01*
X109490909Y-107063302D01*
X109490914Y-107063300D01*
X109584100Y-106970114D01*
X109594489Y-106952120D01*
X109649990Y-106855990D01*
X109649990Y-106855988D01*
X109649992Y-106855986D01*
X109684100Y-106728692D01*
X109684100Y-106596908D01*
X109649992Y-106469614D01*
X109649990Y-106469611D01*
X109649990Y-106469609D01*
X109584103Y-106355490D01*
X109584101Y-106355488D01*
X109584100Y-106355486D01*
X109490914Y-106262300D01*
X109490911Y-106262298D01*
X109490909Y-106262296D01*
X109376789Y-106196409D01*
X109376791Y-106196409D01*
X109327399Y-106183175D01*
X109249492Y-106162300D01*
X109117708Y-106162300D01*
X109039800Y-106183175D01*
X108990409Y-106196409D01*
X108876290Y-106262296D01*
X108783096Y-106355490D01*
X108717209Y-106469609D01*
X108706760Y-106508608D01*
X108683100Y-106596908D01*
X101829722Y-106596908D01*
X101807314Y-106574500D01*
X101807311Y-106574498D01*
X101807309Y-106574496D01*
X101693189Y-106508609D01*
X101693191Y-106508609D01*
X101643799Y-106495375D01*
X101565892Y-106474500D01*
X101434108Y-106474500D01*
X101356200Y-106495375D01*
X101306809Y-106508609D01*
X101192690Y-106574496D01*
X101099496Y-106667690D01*
X101033609Y-106781809D01*
X101033608Y-106781814D01*
X100999500Y-106909108D01*
X88172054Y-106909108D01*
X88152700Y-106875586D01*
X88059514Y-106782400D01*
X88059511Y-106782398D01*
X88059509Y-106782396D01*
X87945389Y-106716509D01*
X87945391Y-106716509D01*
X87895999Y-106703275D01*
X87818092Y-106682400D01*
X87686308Y-106682400D01*
X87608400Y-106703275D01*
X87559009Y-106716509D01*
X87444890Y-106782396D01*
X87351696Y-106875590D01*
X87285809Y-106989709D01*
X87266739Y-107060878D01*
X87251700Y-107117008D01*
X82300500Y-107117008D01*
X82300500Y-105187608D01*
X83882800Y-105187608D01*
X83882800Y-105319392D01*
X83905106Y-105402640D01*
X83916909Y-105446690D01*
X83982796Y-105560809D01*
X83982798Y-105560811D01*
X83982800Y-105560814D01*
X84075986Y-105654000D01*
X84075988Y-105654001D01*
X84075990Y-105654003D01*
X84190110Y-105719890D01*
X84190108Y-105719890D01*
X84190112Y-105719891D01*
X84190114Y-105719892D01*
X84317408Y-105754000D01*
X84317410Y-105754000D01*
X84449190Y-105754000D01*
X84449192Y-105754000D01*
X84576486Y-105719892D01*
X84576488Y-105719890D01*
X84576490Y-105719890D01*
X84693341Y-105652426D01*
X84753189Y-105639704D01*
X84809085Y-105664590D01*
X84812825Y-105668139D01*
X84902286Y-105757600D01*
X84902288Y-105757601D01*
X84902290Y-105757603D01*
X85016410Y-105823490D01*
X85016408Y-105823490D01*
X85016412Y-105823491D01*
X85016414Y-105823492D01*
X85143708Y-105857600D01*
X85143710Y-105857600D01*
X85275490Y-105857600D01*
X85275492Y-105857600D01*
X85402786Y-105823492D01*
X85402788Y-105823490D01*
X85402790Y-105823490D01*
X85516909Y-105757603D01*
X85516909Y-105757602D01*
X85516914Y-105757600D01*
X85610100Y-105664414D01*
X85622700Y-105642590D01*
X85675990Y-105550290D01*
X85675990Y-105550288D01*
X85675992Y-105550286D01*
X85683971Y-105520508D01*
X86575600Y-105520508D01*
X86575600Y-105652292D01*
X86593713Y-105719890D01*
X86609709Y-105779590D01*
X86675596Y-105893709D01*
X86675598Y-105893711D01*
X86675600Y-105893714D01*
X86768786Y-105986900D01*
X86768788Y-105986901D01*
X86768790Y-105986903D01*
X86882910Y-106052790D01*
X86882908Y-106052790D01*
X86882912Y-106052791D01*
X86882914Y-106052792D01*
X87010208Y-106086900D01*
X87010210Y-106086900D01*
X87141990Y-106086900D01*
X87141992Y-106086900D01*
X87269286Y-106052792D01*
X87269288Y-106052790D01*
X87269290Y-106052790D01*
X87383409Y-105986903D01*
X87383409Y-105986902D01*
X87383414Y-105986900D01*
X87476600Y-105893714D01*
X87476603Y-105893709D01*
X87542490Y-105779590D01*
X87542490Y-105779588D01*
X87542492Y-105779586D01*
X87576600Y-105652292D01*
X87576600Y-105520508D01*
X87542492Y-105393214D01*
X87536889Y-105383509D01*
X87536888Y-105383508D01*
X94881800Y-105383508D01*
X94881800Y-105515292D01*
X94899860Y-105582694D01*
X94915909Y-105642590D01*
X94981796Y-105756709D01*
X94981798Y-105756711D01*
X94981800Y-105756714D01*
X95074986Y-105849900D01*
X95074988Y-105849901D01*
X95074990Y-105849903D01*
X95189110Y-105915790D01*
X95189108Y-105915790D01*
X95189112Y-105915791D01*
X95189114Y-105915792D01*
X95316408Y-105949900D01*
X95316410Y-105949900D01*
X95448190Y-105949900D01*
X95448192Y-105949900D01*
X95575486Y-105915792D01*
X95575488Y-105915790D01*
X95575490Y-105915790D01*
X95689609Y-105849903D01*
X95689609Y-105849902D01*
X95689614Y-105849900D01*
X95782800Y-105756714D01*
X95804059Y-105719892D01*
X95848690Y-105642590D01*
X95848690Y-105642588D01*
X95848692Y-105642586D01*
X95882800Y-105515292D01*
X95882800Y-105383508D01*
X95848692Y-105256214D01*
X95848690Y-105256211D01*
X95848690Y-105256209D01*
X95782803Y-105142090D01*
X95782801Y-105142088D01*
X95782800Y-105142086D01*
X95691322Y-105050608D01*
X104064900Y-105050608D01*
X104064900Y-105182392D01*
X104090809Y-105279086D01*
X104099009Y-105309690D01*
X104164896Y-105423809D01*
X104164898Y-105423811D01*
X104164900Y-105423814D01*
X104258086Y-105517000D01*
X104258088Y-105517001D01*
X104258090Y-105517003D01*
X104372210Y-105582890D01*
X104372208Y-105582890D01*
X104372212Y-105582891D01*
X104372214Y-105582892D01*
X104499508Y-105617000D01*
X104499510Y-105617000D01*
X104631290Y-105617000D01*
X104631292Y-105617000D01*
X104758586Y-105582892D01*
X104758588Y-105582890D01*
X104758590Y-105582890D01*
X104872709Y-105517003D01*
X104872709Y-105517002D01*
X104872714Y-105517000D01*
X104965900Y-105423814D01*
X104989171Y-105383508D01*
X105031790Y-105309690D01*
X105031790Y-105309688D01*
X105031792Y-105309686D01*
X105065900Y-105182392D01*
X105065900Y-105050608D01*
X105031792Y-104923314D01*
X105031790Y-104923311D01*
X105031790Y-104923309D01*
X104965903Y-104809190D01*
X104965901Y-104809188D01*
X104965900Y-104809186D01*
X104872714Y-104716000D01*
X104872711Y-104715998D01*
X104872709Y-104715996D01*
X104758589Y-104650109D01*
X104758591Y-104650109D01*
X104709199Y-104636875D01*
X104631292Y-104616000D01*
X104499508Y-104616000D01*
X104421600Y-104636875D01*
X104372209Y-104650109D01*
X104258090Y-104715996D01*
X104164896Y-104809190D01*
X104099009Y-104923309D01*
X104083013Y-104983008D01*
X104064900Y-105050608D01*
X95691322Y-105050608D01*
X95689614Y-105048900D01*
X95689611Y-105048898D01*
X95689609Y-105048896D01*
X95575489Y-104983009D01*
X95575491Y-104983009D01*
X95526099Y-104969775D01*
X95448192Y-104948900D01*
X95316408Y-104948900D01*
X95238500Y-104969775D01*
X95189109Y-104983009D01*
X95074990Y-105048896D01*
X94981796Y-105142090D01*
X94915909Y-105256209D01*
X94909778Y-105279090D01*
X94881800Y-105383508D01*
X87536888Y-105383508D01*
X87476603Y-105279090D01*
X87476601Y-105279088D01*
X87476600Y-105279086D01*
X87383414Y-105185900D01*
X87383411Y-105185898D01*
X87383409Y-105185896D01*
X87269289Y-105120009D01*
X87269291Y-105120009D01*
X87219899Y-105106775D01*
X87141992Y-105085900D01*
X87010208Y-105085900D01*
X86932300Y-105106775D01*
X86882909Y-105120009D01*
X86768790Y-105185896D01*
X86675596Y-105279090D01*
X86609709Y-105393209D01*
X86601729Y-105422992D01*
X86575600Y-105520508D01*
X85683971Y-105520508D01*
X85710100Y-105422992D01*
X85710100Y-105291208D01*
X85675992Y-105163914D01*
X85675990Y-105163911D01*
X85675990Y-105163909D01*
X85610103Y-105049790D01*
X85610101Y-105049788D01*
X85610100Y-105049786D01*
X85516914Y-104956600D01*
X85516911Y-104956598D01*
X85516909Y-104956596D01*
X85402789Y-104890709D01*
X85402791Y-104890709D01*
X85353399Y-104877475D01*
X85275492Y-104856600D01*
X85143708Y-104856600D01*
X85065800Y-104877475D01*
X85016409Y-104890709D01*
X84899559Y-104958174D01*
X84839711Y-104970896D01*
X84783815Y-104946010D01*
X84780074Y-104942460D01*
X84690614Y-104853000D01*
X84690611Y-104852998D01*
X84690609Y-104852996D01*
X84576489Y-104787109D01*
X84576491Y-104787109D01*
X84527099Y-104773875D01*
X84449192Y-104753000D01*
X84317408Y-104753000D01*
X84239500Y-104773875D01*
X84190109Y-104787109D01*
X84075990Y-104852996D01*
X83982796Y-104946190D01*
X83916909Y-105060309D01*
X83916908Y-105060314D01*
X83882800Y-105187608D01*
X82300500Y-105187608D01*
X82300500Y-104052908D01*
X86737100Y-104052908D01*
X86737100Y-104184692D01*
X86744092Y-104210786D01*
X86771209Y-104311990D01*
X86837096Y-104426109D01*
X86837098Y-104426111D01*
X86837100Y-104426114D01*
X86930286Y-104519300D01*
X86930288Y-104519301D01*
X86930290Y-104519303D01*
X87044410Y-104585190D01*
X87044408Y-104585190D01*
X87044412Y-104585191D01*
X87044414Y-104585192D01*
X87171708Y-104619300D01*
X87171710Y-104619300D01*
X87303490Y-104619300D01*
X87303492Y-104619300D01*
X87430786Y-104585192D01*
X87430788Y-104585190D01*
X87430790Y-104585190D01*
X87544909Y-104519303D01*
X87544909Y-104519302D01*
X87544914Y-104519300D01*
X87612006Y-104452208D01*
X99862000Y-104452208D01*
X99862000Y-104583992D01*
X99871461Y-104619300D01*
X99896109Y-104711290D01*
X99961996Y-104825409D01*
X99961998Y-104825411D01*
X99962000Y-104825414D01*
X100055186Y-104918600D01*
X100055188Y-104918601D01*
X100055190Y-104918603D01*
X100169310Y-104984490D01*
X100169308Y-104984490D01*
X100169312Y-104984491D01*
X100169314Y-104984492D01*
X100296608Y-105018600D01*
X100296610Y-105018600D01*
X100428390Y-105018600D01*
X100428392Y-105018600D01*
X100555686Y-104984492D01*
X100555688Y-104984490D01*
X100555690Y-104984490D01*
X100600895Y-104958391D01*
X100600902Y-104958386D01*
X100669814Y-104918600D01*
X100763000Y-104825414D01*
X100772369Y-104809186D01*
X100828890Y-104711290D01*
X100828890Y-104711288D01*
X100828892Y-104711286D01*
X100863000Y-104583992D01*
X100863000Y-104452208D01*
X100828892Y-104324914D01*
X100828890Y-104324911D01*
X100828890Y-104324909D01*
X100763003Y-104210790D01*
X100763001Y-104210788D01*
X100763000Y-104210786D01*
X100689522Y-104137308D01*
X107539500Y-104137308D01*
X107539500Y-104269092D01*
X107569579Y-104381351D01*
X107573609Y-104396390D01*
X107639496Y-104510509D01*
X107639498Y-104510511D01*
X107639500Y-104510514D01*
X107732686Y-104603700D01*
X107732688Y-104603701D01*
X107732690Y-104603703D01*
X107846810Y-104669590D01*
X107846808Y-104669590D01*
X107846812Y-104669591D01*
X107846814Y-104669592D01*
X107974108Y-104703700D01*
X107974110Y-104703700D01*
X108105890Y-104703700D01*
X108105892Y-104703700D01*
X108233186Y-104669592D01*
X108233188Y-104669590D01*
X108233190Y-104669590D01*
X108347309Y-104603703D01*
X108347309Y-104603702D01*
X108347314Y-104603700D01*
X108440500Y-104510514D01*
X108440503Y-104510509D01*
X108506390Y-104396390D01*
X108506390Y-104396388D01*
X108506392Y-104396386D01*
X108540500Y-104269092D01*
X108540500Y-104137308D01*
X108506392Y-104010014D01*
X108506390Y-104010011D01*
X108506390Y-104010009D01*
X108440503Y-103895890D01*
X108440501Y-103895888D01*
X108440500Y-103895886D01*
X108350618Y-103806004D01*
X115199500Y-103806004D01*
X115199500Y-103943995D01*
X115226420Y-104079327D01*
X115226420Y-104079329D01*
X115279222Y-104206806D01*
X115279228Y-104206817D01*
X115355885Y-104321541D01*
X115453458Y-104419114D01*
X115568182Y-104495771D01*
X115568193Y-104495777D01*
X115603760Y-104510509D01*
X115695672Y-104548580D01*
X115831007Y-104575500D01*
X115831008Y-104575500D01*
X115968992Y-104575500D01*
X115968993Y-104575500D01*
X116104328Y-104548580D01*
X116231811Y-104495775D01*
X116346542Y-104419114D01*
X116444114Y-104321542D01*
X116520775Y-104206811D01*
X116573580Y-104079328D01*
X116600500Y-103943993D01*
X116600500Y-103806007D01*
X116573580Y-103670672D01*
X116520775Y-103543189D01*
X116520774Y-103543187D01*
X116520771Y-103543182D01*
X116444114Y-103428458D01*
X116346541Y-103330885D01*
X116231817Y-103254228D01*
X116231806Y-103254222D01*
X116104328Y-103201420D01*
X115968995Y-103174500D01*
X115968993Y-103174500D01*
X115831007Y-103174500D01*
X115831004Y-103174500D01*
X115695672Y-103201420D01*
X115695670Y-103201420D01*
X115568193Y-103254222D01*
X115568182Y-103254228D01*
X115453458Y-103330885D01*
X115355885Y-103428458D01*
X115279228Y-103543182D01*
X115279222Y-103543193D01*
X115226420Y-103670670D01*
X115226420Y-103670672D01*
X115199500Y-103806004D01*
X108350618Y-103806004D01*
X108347314Y-103802700D01*
X108347311Y-103802698D01*
X108347309Y-103802696D01*
X108233189Y-103736809D01*
X108233191Y-103736809D01*
X108183799Y-103723575D01*
X108105892Y-103702700D01*
X107974108Y-103702700D01*
X107896200Y-103723575D01*
X107846809Y-103736809D01*
X107732690Y-103802696D01*
X107639496Y-103895890D01*
X107573609Y-104010009D01*
X107573608Y-104010014D01*
X107539500Y-104137308D01*
X100689522Y-104137308D01*
X100669814Y-104117600D01*
X100669811Y-104117598D01*
X100669809Y-104117596D01*
X100555689Y-104051709D01*
X100555691Y-104051709D01*
X100506299Y-104038475D01*
X100428392Y-104017600D01*
X100296608Y-104017600D01*
X100218700Y-104038475D01*
X100169309Y-104051709D01*
X100055190Y-104117596D01*
X99961996Y-104210790D01*
X99896109Y-104324909D01*
X99896108Y-104324914D01*
X99862000Y-104452208D01*
X87612006Y-104452208D01*
X87638100Y-104426114D01*
X87648421Y-104408236D01*
X87655361Y-104396218D01*
X87698475Y-104321541D01*
X87703992Y-104311986D01*
X87738100Y-104184692D01*
X87738100Y-104052908D01*
X87703992Y-103925614D01*
X87703990Y-103925611D01*
X87703990Y-103925609D01*
X87638103Y-103811490D01*
X87638101Y-103811488D01*
X87638100Y-103811486D01*
X87544914Y-103718300D01*
X87544911Y-103718298D01*
X87544909Y-103718296D01*
X87430789Y-103652409D01*
X87430791Y-103652409D01*
X87381399Y-103639175D01*
X87303492Y-103618300D01*
X87171708Y-103618300D01*
X87093800Y-103639175D01*
X87044409Y-103652409D01*
X86930290Y-103718296D01*
X86837096Y-103811490D01*
X86771209Y-103925609D01*
X86771208Y-103925614D01*
X86737100Y-104052908D01*
X82300500Y-104052908D01*
X82300500Y-101812308D01*
X84524700Y-101812308D01*
X84524700Y-101944092D01*
X84549758Y-102037609D01*
X84558809Y-102071390D01*
X84624696Y-102185509D01*
X84624698Y-102185511D01*
X84624700Y-102185514D01*
X84717886Y-102278700D01*
X84717888Y-102278701D01*
X84717890Y-102278703D01*
X84832010Y-102344590D01*
X84832008Y-102344590D01*
X84832012Y-102344591D01*
X84832014Y-102344592D01*
X84959308Y-102378700D01*
X84959310Y-102378700D01*
X85091090Y-102378700D01*
X85091092Y-102378700D01*
X85218386Y-102344592D01*
X85218388Y-102344590D01*
X85218390Y-102344590D01*
X85332509Y-102278703D01*
X85332509Y-102278702D01*
X85332514Y-102278700D01*
X85425700Y-102185514D01*
X85425703Y-102185509D01*
X85437597Y-102164908D01*
X86778100Y-102164908D01*
X86778100Y-102296692D01*
X86790934Y-102344590D01*
X86812209Y-102423990D01*
X86878096Y-102538109D01*
X86878098Y-102538111D01*
X86878100Y-102538114D01*
X86971286Y-102631300D01*
X86971288Y-102631301D01*
X86971290Y-102631303D01*
X87085410Y-102697190D01*
X87085408Y-102697190D01*
X87085412Y-102697191D01*
X87085414Y-102697192D01*
X87212708Y-102731300D01*
X87212710Y-102731300D01*
X87344490Y-102731300D01*
X87344492Y-102731300D01*
X87471786Y-102697192D01*
X87471788Y-102697190D01*
X87471790Y-102697190D01*
X87585909Y-102631303D01*
X87585909Y-102631302D01*
X87585914Y-102631300D01*
X87679100Y-102538114D01*
X87744992Y-102423986D01*
X87779100Y-102296692D01*
X87779100Y-102164908D01*
X87744992Y-102037614D01*
X87744990Y-102037611D01*
X87744990Y-102037609D01*
X87679103Y-101923490D01*
X87679101Y-101923488D01*
X87679100Y-101923486D01*
X87585914Y-101830300D01*
X87585911Y-101830298D01*
X87585909Y-101830296D01*
X87471792Y-101764411D01*
X87471787Y-101764408D01*
X87429354Y-101753038D01*
X87344492Y-101730300D01*
X87212708Y-101730300D01*
X87134800Y-101751175D01*
X87085409Y-101764409D01*
X86971290Y-101830296D01*
X86878096Y-101923490D01*
X86812209Y-102037609D01*
X86808001Y-102053314D01*
X86778100Y-102164908D01*
X85437597Y-102164908D01*
X85469923Y-102108919D01*
X85491590Y-102071390D01*
X85491590Y-102071388D01*
X85491592Y-102071386D01*
X85525700Y-101944092D01*
X85525700Y-101812308D01*
X85491592Y-101685014D01*
X85491590Y-101685011D01*
X85491590Y-101685009D01*
X85488760Y-101680108D01*
X88016500Y-101680108D01*
X88016500Y-101811892D01*
X88046401Y-101923486D01*
X88050609Y-101939190D01*
X88116496Y-102053309D01*
X88116498Y-102053311D01*
X88116500Y-102053314D01*
X88209686Y-102146500D01*
X88209688Y-102146501D01*
X88209690Y-102146503D01*
X88323810Y-102212390D01*
X88323808Y-102212390D01*
X88323812Y-102212391D01*
X88323814Y-102212392D01*
X88451108Y-102246500D01*
X88451110Y-102246500D01*
X88582890Y-102246500D01*
X88582892Y-102246500D01*
X88710186Y-102212392D01*
X88710188Y-102212390D01*
X88710190Y-102212390D01*
X88824309Y-102146503D01*
X88824309Y-102146502D01*
X88824314Y-102146500D01*
X88917500Y-102053314D01*
X88917503Y-102053309D01*
X88983390Y-101939190D01*
X88983390Y-101939188D01*
X88983392Y-101939186D01*
X89017500Y-101811892D01*
X89017500Y-101680108D01*
X88983392Y-101552814D01*
X88983390Y-101552811D01*
X88983390Y-101552809D01*
X88917503Y-101438690D01*
X88917501Y-101438688D01*
X88917500Y-101438686D01*
X88824314Y-101345500D01*
X88824311Y-101345498D01*
X88824309Y-101345496D01*
X88710189Y-101279609D01*
X88710191Y-101279609D01*
X88660799Y-101266375D01*
X88582892Y-101245500D01*
X88451108Y-101245500D01*
X88373200Y-101266375D01*
X88323809Y-101279609D01*
X88209690Y-101345496D01*
X88116496Y-101438690D01*
X88050609Y-101552809D01*
X88031539Y-101623978D01*
X88016500Y-101680108D01*
X85488760Y-101680108D01*
X85425703Y-101570890D01*
X85425701Y-101570888D01*
X85425700Y-101570886D01*
X85332514Y-101477700D01*
X85332511Y-101477698D01*
X85332509Y-101477696D01*
X85218389Y-101411809D01*
X85218391Y-101411809D01*
X85168999Y-101398575D01*
X85091092Y-101377700D01*
X84959308Y-101377700D01*
X84881400Y-101398575D01*
X84832009Y-101411809D01*
X84717890Y-101477696D01*
X84624696Y-101570890D01*
X84558809Y-101685009D01*
X84558808Y-101685014D01*
X84524700Y-101812308D01*
X82300500Y-101812308D01*
X82300500Y-100369108D01*
X83018500Y-100369108D01*
X83018500Y-100500892D01*
X83034209Y-100559519D01*
X83052609Y-100628190D01*
X83118496Y-100742309D01*
X83118498Y-100742311D01*
X83118500Y-100742314D01*
X83211686Y-100835500D01*
X83211688Y-100835501D01*
X83211690Y-100835503D01*
X83325810Y-100901390D01*
X83325808Y-100901390D01*
X83325812Y-100901391D01*
X83325814Y-100901392D01*
X83453108Y-100935500D01*
X83453110Y-100935500D01*
X83584890Y-100935500D01*
X83584892Y-100935500D01*
X83672570Y-100912007D01*
X90309500Y-100912007D01*
X90309500Y-101027993D01*
X90324484Y-101083914D01*
X90339520Y-101140031D01*
X90397508Y-101240468D01*
X90397510Y-101240470D01*
X90397512Y-101240473D01*
X90479527Y-101322488D01*
X90479529Y-101322489D01*
X90479531Y-101322491D01*
X90579969Y-101380479D01*
X90579967Y-101380479D01*
X90579971Y-101380480D01*
X90579973Y-101380481D01*
X90692007Y-101410500D01*
X90692009Y-101410500D01*
X90807991Y-101410500D01*
X90807993Y-101410500D01*
X90920027Y-101380481D01*
X90920029Y-101380479D01*
X90920031Y-101380479D01*
X91020468Y-101322491D01*
X91020468Y-101322490D01*
X91020473Y-101322488D01*
X91102488Y-101240473D01*
X91160479Y-101140031D01*
X91163726Y-101134408D01*
X91166150Y-101135808D01*
X91198269Y-101098200D01*
X91257763Y-101083914D01*
X91314292Y-101107326D01*
X91334649Y-101135345D01*
X91336274Y-101134408D01*
X91397508Y-101240468D01*
X91397510Y-101240470D01*
X91397512Y-101240473D01*
X91479527Y-101322488D01*
X91479529Y-101322489D01*
X91479531Y-101322491D01*
X91579969Y-101380479D01*
X91579967Y-101380479D01*
X91579971Y-101380480D01*
X91579973Y-101380481D01*
X91692007Y-101410500D01*
X91692009Y-101410500D01*
X91807991Y-101410500D01*
X91807993Y-101410500D01*
X91920027Y-101380481D01*
X91920029Y-101380479D01*
X91920031Y-101380479D01*
X92020468Y-101322491D01*
X92020468Y-101322490D01*
X92020473Y-101322488D01*
X92102488Y-101240473D01*
X92160479Y-101140031D01*
X92163726Y-101134408D01*
X92166150Y-101135808D01*
X92198269Y-101098200D01*
X92257763Y-101083914D01*
X92314292Y-101107326D01*
X92334649Y-101135345D01*
X92336274Y-101134408D01*
X92397508Y-101240468D01*
X92397510Y-101240470D01*
X92397512Y-101240473D01*
X92479527Y-101322488D01*
X92479529Y-101322489D01*
X92479531Y-101322491D01*
X92579969Y-101380479D01*
X92579967Y-101380479D01*
X92579971Y-101380480D01*
X92579973Y-101380481D01*
X92692007Y-101410500D01*
X92692009Y-101410500D01*
X92807991Y-101410500D01*
X92807993Y-101410500D01*
X92920027Y-101380481D01*
X92920029Y-101380479D01*
X92920031Y-101380479D01*
X93020468Y-101322491D01*
X93020468Y-101322490D01*
X93020473Y-101322488D01*
X93102488Y-101240473D01*
X93160481Y-101140027D01*
X93190500Y-101027993D01*
X93190500Y-100912007D01*
X93160481Y-100799973D01*
X93160479Y-100799970D01*
X93160479Y-100799968D01*
X93102491Y-100699531D01*
X93102489Y-100699529D01*
X93102488Y-100699527D01*
X93020473Y-100617512D01*
X93020470Y-100617510D01*
X93020468Y-100617508D01*
X92920030Y-100559520D01*
X92920032Y-100559520D01*
X92876561Y-100547872D01*
X92807993Y-100529500D01*
X92692007Y-100529500D01*
X92623438Y-100547872D01*
X92579968Y-100559520D01*
X92479531Y-100617508D01*
X92397508Y-100699531D01*
X92336274Y-100805592D01*
X92333852Y-100804194D01*
X92301708Y-100841813D01*
X92242210Y-100856083D01*
X92185687Y-100832655D01*
X92165345Y-100804657D01*
X92163726Y-100805592D01*
X92102491Y-100699531D01*
X92102489Y-100699529D01*
X92102488Y-100699527D01*
X92020473Y-100617512D01*
X92020470Y-100617510D01*
X92020468Y-100617508D01*
X91920030Y-100559520D01*
X91920032Y-100559520D01*
X91876561Y-100547872D01*
X91807993Y-100529500D01*
X91692007Y-100529500D01*
X91623438Y-100547872D01*
X91579968Y-100559520D01*
X91479531Y-100617508D01*
X91397508Y-100699531D01*
X91336274Y-100805592D01*
X91333852Y-100804194D01*
X91301708Y-100841813D01*
X91242210Y-100856083D01*
X91185687Y-100832655D01*
X91165345Y-100804657D01*
X91163726Y-100805592D01*
X91102491Y-100699531D01*
X91102489Y-100699529D01*
X91102488Y-100699527D01*
X91020473Y-100617512D01*
X91020470Y-100617510D01*
X91020468Y-100617508D01*
X90920030Y-100559520D01*
X90920032Y-100559520D01*
X90876561Y-100547872D01*
X90807993Y-100529500D01*
X90692007Y-100529500D01*
X90623438Y-100547872D01*
X90579968Y-100559520D01*
X90479531Y-100617508D01*
X90397508Y-100699531D01*
X90339520Y-100799968D01*
X90339519Y-100799973D01*
X90309500Y-100912007D01*
X83672570Y-100912007D01*
X83712186Y-100901392D01*
X83712188Y-100901390D01*
X83712190Y-100901390D01*
X83826309Y-100835503D01*
X83826309Y-100835502D01*
X83826314Y-100835500D01*
X83919500Y-100742314D01*
X83919503Y-100742309D01*
X83985390Y-100628190D01*
X83985390Y-100628188D01*
X83985392Y-100628186D01*
X84019500Y-100500892D01*
X84019500Y-100369108D01*
X83985392Y-100241814D01*
X83985390Y-100241811D01*
X83985390Y-100241809D01*
X83919503Y-100127690D01*
X83919501Y-100127688D01*
X83919500Y-100127686D01*
X83826314Y-100034500D01*
X83826311Y-100034498D01*
X83826309Y-100034496D01*
X83712189Y-99968609D01*
X83712191Y-99968609D01*
X83662799Y-99955375D01*
X83584892Y-99934500D01*
X83453108Y-99934500D01*
X83375200Y-99955375D01*
X83325809Y-99968609D01*
X83211690Y-100034496D01*
X83118496Y-100127690D01*
X83052609Y-100241809D01*
X83045272Y-100269192D01*
X83018500Y-100369108D01*
X82300500Y-100369108D01*
X82300500Y-99736908D01*
X84148300Y-99736908D01*
X84148300Y-99868692D01*
X84175072Y-99968608D01*
X84182409Y-99995990D01*
X84248296Y-100110109D01*
X84248298Y-100110111D01*
X84248300Y-100110114D01*
X84341486Y-100203300D01*
X84341488Y-100203301D01*
X84341490Y-100203303D01*
X84455610Y-100269190D01*
X84455608Y-100269190D01*
X84455612Y-100269191D01*
X84455614Y-100269192D01*
X84582908Y-100303300D01*
X84582910Y-100303300D01*
X84714690Y-100303300D01*
X84714692Y-100303300D01*
X84841986Y-100269192D01*
X84841988Y-100269190D01*
X84841990Y-100269190D01*
X84956109Y-100203303D01*
X84956109Y-100203302D01*
X84956114Y-100203300D01*
X84959706Y-100199708D01*
X102634800Y-100199708D01*
X102634800Y-100331492D01*
X102664879Y-100443751D01*
X102668909Y-100458790D01*
X102734796Y-100572909D01*
X102734798Y-100572911D01*
X102734800Y-100572914D01*
X102827986Y-100666100D01*
X102827988Y-100666101D01*
X102827990Y-100666103D01*
X102942110Y-100731990D01*
X102942108Y-100731990D01*
X102942112Y-100731991D01*
X102942114Y-100731992D01*
X103069408Y-100766100D01*
X103069410Y-100766100D01*
X103201190Y-100766100D01*
X103201192Y-100766100D01*
X103328486Y-100731992D01*
X103328488Y-100731990D01*
X103328490Y-100731990D01*
X103442609Y-100666103D01*
X103442609Y-100666102D01*
X103442614Y-100666100D01*
X103535800Y-100572914D01*
X103601692Y-100458786D01*
X103635800Y-100331492D01*
X103635800Y-100199708D01*
X103601692Y-100072414D01*
X103601690Y-100072411D01*
X103601690Y-100072409D01*
X103535803Y-99958290D01*
X103535801Y-99958288D01*
X103535800Y-99958286D01*
X103442614Y-99865100D01*
X103442611Y-99865098D01*
X103442609Y-99865096D01*
X103328489Y-99799209D01*
X103328491Y-99799209D01*
X103279099Y-99785975D01*
X103201192Y-99765100D01*
X103069408Y-99765100D01*
X102991500Y-99785975D01*
X102942109Y-99799209D01*
X102827990Y-99865096D01*
X102734796Y-99958290D01*
X102668909Y-100072409D01*
X102668908Y-100072414D01*
X102634800Y-100199708D01*
X84959706Y-100199708D01*
X85049300Y-100110114D01*
X85115192Y-99995986D01*
X85149300Y-99868692D01*
X85149300Y-99744333D01*
X85168207Y-99686142D01*
X85217707Y-99650178D01*
X85278893Y-99650178D01*
X85297797Y-99658595D01*
X85375214Y-99703292D01*
X85502508Y-99737400D01*
X85502510Y-99737400D01*
X85634290Y-99737400D01*
X85634292Y-99737400D01*
X85761586Y-99703292D01*
X85761588Y-99703290D01*
X85761590Y-99703290D01*
X85875709Y-99637403D01*
X85875709Y-99637402D01*
X85875714Y-99637400D01*
X85968900Y-99544214D01*
X86034792Y-99430086D01*
X86045692Y-99389408D01*
X86664100Y-99389408D01*
X86664100Y-99521192D01*
X86679674Y-99579314D01*
X86698209Y-99648490D01*
X86764096Y-99762609D01*
X86764098Y-99762611D01*
X86764100Y-99762614D01*
X86857286Y-99855800D01*
X86857288Y-99855801D01*
X86857290Y-99855803D01*
X86971410Y-99921690D01*
X86971408Y-99921690D01*
X86971412Y-99921691D01*
X86971414Y-99921692D01*
X87098708Y-99955800D01*
X87098710Y-99955800D01*
X87230490Y-99955800D01*
X87230492Y-99955800D01*
X87357786Y-99921692D01*
X87357788Y-99921690D01*
X87357790Y-99921690D01*
X87471909Y-99855803D01*
X87471909Y-99855802D01*
X87471914Y-99855800D01*
X87565100Y-99762614D01*
X87579086Y-99738390D01*
X87630990Y-99648490D01*
X87630990Y-99648488D01*
X87630992Y-99648486D01*
X87665100Y-99521192D01*
X87665100Y-99417121D01*
X87684007Y-99358930D01*
X87733507Y-99322966D01*
X87794693Y-99322966D01*
X87834101Y-99347115D01*
X87891386Y-99404400D01*
X87891388Y-99404401D01*
X87891390Y-99404403D01*
X88005510Y-99470290D01*
X88005508Y-99470290D01*
X88005512Y-99470291D01*
X88005514Y-99470292D01*
X88132808Y-99504400D01*
X88132810Y-99504400D01*
X88264590Y-99504400D01*
X88264592Y-99504400D01*
X88391886Y-99470292D01*
X88391888Y-99470290D01*
X88391890Y-99470290D01*
X88506009Y-99404403D01*
X88506009Y-99404402D01*
X88506014Y-99404400D01*
X88599200Y-99311214D01*
X88604063Y-99302792D01*
X88639615Y-99241214D01*
X88659883Y-99206108D01*
X91673800Y-99206108D01*
X91673800Y-99337892D01*
X91695029Y-99417121D01*
X91707909Y-99465190D01*
X91773796Y-99579309D01*
X91773798Y-99579311D01*
X91773800Y-99579314D01*
X91866986Y-99672500D01*
X91866988Y-99672501D01*
X91866990Y-99672503D01*
X91981110Y-99738390D01*
X91981108Y-99738390D01*
X91981112Y-99738391D01*
X91981114Y-99738392D01*
X92108408Y-99772500D01*
X92108410Y-99772500D01*
X92240190Y-99772500D01*
X92240192Y-99772500D01*
X92367486Y-99738392D01*
X92367488Y-99738390D01*
X92367490Y-99738390D01*
X92481609Y-99672503D01*
X92481609Y-99672502D01*
X92481614Y-99672500D01*
X92574800Y-99579314D01*
X92640692Y-99465186D01*
X92674800Y-99337892D01*
X92674800Y-99206108D01*
X92640692Y-99078814D01*
X92640690Y-99078811D01*
X92640690Y-99078809D01*
X92574803Y-98964690D01*
X92574801Y-98964688D01*
X92574800Y-98964686D01*
X92481614Y-98871500D01*
X92481611Y-98871498D01*
X92481609Y-98871496D01*
X92367489Y-98805609D01*
X92367491Y-98805609D01*
X92307705Y-98789590D01*
X92240192Y-98771500D01*
X92108408Y-98771500D01*
X92040895Y-98789590D01*
X91981109Y-98805609D01*
X91866990Y-98871496D01*
X91773796Y-98964690D01*
X91707909Y-99078809D01*
X91689374Y-99147986D01*
X91673800Y-99206108D01*
X88659883Y-99206108D01*
X88665092Y-99197086D01*
X88699200Y-99069792D01*
X88699200Y-98938008D01*
X88665092Y-98810714D01*
X88665090Y-98810711D01*
X88665090Y-98810709D01*
X88599203Y-98696590D01*
X88599201Y-98696588D01*
X88599200Y-98696586D01*
X88506014Y-98603400D01*
X88506011Y-98603398D01*
X88506009Y-98603396D01*
X88391889Y-98537509D01*
X88391891Y-98537509D01*
X88365762Y-98530508D01*
X95414700Y-98530508D01*
X95414700Y-98662292D01*
X95440160Y-98757310D01*
X95448809Y-98789590D01*
X95514696Y-98903709D01*
X95514698Y-98903711D01*
X95514700Y-98903714D01*
X95607886Y-98996900D01*
X95607888Y-98996901D01*
X95607890Y-98996903D01*
X95722010Y-99062790D01*
X95722008Y-99062790D01*
X95722012Y-99062791D01*
X95722014Y-99062792D01*
X95849308Y-99096900D01*
X95849310Y-99096900D01*
X95981090Y-99096900D01*
X95981092Y-99096900D01*
X96108386Y-99062792D01*
X96108388Y-99062790D01*
X96108390Y-99062790D01*
X96222509Y-98996903D01*
X96222509Y-98996902D01*
X96222514Y-98996900D01*
X96315700Y-98903714D01*
X96334301Y-98871496D01*
X96381590Y-98789590D01*
X96381590Y-98789588D01*
X96381592Y-98789586D01*
X96415700Y-98662292D01*
X96415700Y-98530508D01*
X96381592Y-98403214D01*
X96381590Y-98403211D01*
X96381590Y-98403209D01*
X96370562Y-98384108D01*
X98499500Y-98384108D01*
X98499500Y-98515892D01*
X98529160Y-98626586D01*
X98533609Y-98643190D01*
X98599496Y-98757309D01*
X98599498Y-98757311D01*
X98599500Y-98757314D01*
X98692686Y-98850500D01*
X98692688Y-98850501D01*
X98692690Y-98850503D01*
X98806810Y-98916390D01*
X98806808Y-98916390D01*
X98806812Y-98916391D01*
X98806814Y-98916392D01*
X98934108Y-98950500D01*
X98934110Y-98950500D01*
X99065890Y-98950500D01*
X99065892Y-98950500D01*
X99193186Y-98916392D01*
X99193188Y-98916390D01*
X99193190Y-98916390D01*
X99307309Y-98850503D01*
X99307309Y-98850502D01*
X99307314Y-98850500D01*
X99400500Y-98757314D01*
X99414264Y-98733474D01*
X99459733Y-98692534D01*
X99520583Y-98686138D01*
X99573571Y-98716731D01*
X99585734Y-98733471D01*
X99599500Y-98757314D01*
X99692686Y-98850500D01*
X99692688Y-98850501D01*
X99692690Y-98850503D01*
X99806810Y-98916390D01*
X99806808Y-98916390D01*
X99806812Y-98916391D01*
X99806814Y-98916392D01*
X99934108Y-98950500D01*
X99934110Y-98950500D01*
X100065890Y-98950500D01*
X100065892Y-98950500D01*
X100193186Y-98916392D01*
X100193188Y-98916390D01*
X100193190Y-98916390D01*
X100276990Y-98868008D01*
X101212600Y-98868008D01*
X101212600Y-98999792D01*
X101224369Y-99043714D01*
X101246709Y-99127090D01*
X101312596Y-99241209D01*
X101312598Y-99241211D01*
X101312600Y-99241214D01*
X101405786Y-99334400D01*
X101405788Y-99334401D01*
X101405790Y-99334403D01*
X101519910Y-99400290D01*
X101519908Y-99400290D01*
X101519912Y-99400291D01*
X101519914Y-99400292D01*
X101647208Y-99434400D01*
X101647210Y-99434400D01*
X101778990Y-99434400D01*
X101778992Y-99434400D01*
X101906286Y-99400292D01*
X101906288Y-99400290D01*
X101906290Y-99400290D01*
X102020409Y-99334403D01*
X102020409Y-99334402D01*
X102020414Y-99334400D01*
X102113600Y-99241214D01*
X102139076Y-99197089D01*
X102179490Y-99127090D01*
X102179490Y-99127088D01*
X102179492Y-99127086D01*
X102213600Y-98999792D01*
X102213600Y-98868008D01*
X102179492Y-98740714D01*
X102179490Y-98740711D01*
X102179490Y-98740709D01*
X102113603Y-98626590D01*
X102113601Y-98626588D01*
X102113600Y-98626586D01*
X102020414Y-98533400D01*
X102020411Y-98533398D01*
X102020409Y-98533396D01*
X101906289Y-98467509D01*
X101906291Y-98467509D01*
X101856899Y-98454275D01*
X101778992Y-98433400D01*
X101647208Y-98433400D01*
X101569300Y-98454275D01*
X101519909Y-98467509D01*
X101405790Y-98533396D01*
X101312596Y-98626590D01*
X101246709Y-98740709D01*
X101238459Y-98771500D01*
X101212600Y-98868008D01*
X100276990Y-98868008D01*
X100307309Y-98850503D01*
X100307309Y-98850502D01*
X100307314Y-98850500D01*
X100400500Y-98757314D01*
X100412575Y-98736400D01*
X100466390Y-98643190D01*
X100466390Y-98643188D01*
X100466392Y-98643186D01*
X100500500Y-98515892D01*
X100500500Y-98384108D01*
X100466392Y-98256814D01*
X100466390Y-98256811D01*
X100466390Y-98256809D01*
X100400503Y-98142690D01*
X100400501Y-98142688D01*
X100400500Y-98142686D01*
X100307314Y-98049500D01*
X100307311Y-98049498D01*
X100307309Y-98049496D01*
X100193189Y-97983609D01*
X100193191Y-97983609D01*
X100143799Y-97970375D01*
X100065892Y-97949500D01*
X99934108Y-97949500D01*
X99856200Y-97970375D01*
X99806809Y-97983609D01*
X99692690Y-98049496D01*
X99599498Y-98142688D01*
X99585736Y-98166525D01*
X99540266Y-98207465D01*
X99479416Y-98213860D01*
X99426428Y-98183267D01*
X99414264Y-98166525D01*
X99400501Y-98142688D01*
X99400500Y-98142686D01*
X99307314Y-98049500D01*
X99307311Y-98049498D01*
X99307309Y-98049496D01*
X99193189Y-97983609D01*
X99193191Y-97983609D01*
X99143799Y-97970375D01*
X99065892Y-97949500D01*
X98934108Y-97949500D01*
X98856200Y-97970375D01*
X98806809Y-97983609D01*
X98692690Y-98049496D01*
X98599496Y-98142690D01*
X98533609Y-98256809D01*
X98533608Y-98256814D01*
X98499500Y-98384108D01*
X96370562Y-98384108D01*
X96315703Y-98289090D01*
X96315701Y-98289088D01*
X96315700Y-98289086D01*
X96222514Y-98195900D01*
X96222511Y-98195898D01*
X96222509Y-98195896D01*
X96108389Y-98130009D01*
X96108391Y-98130009D01*
X96058999Y-98116775D01*
X95981092Y-98095900D01*
X95849308Y-98095900D01*
X95771400Y-98116775D01*
X95722009Y-98130009D01*
X95607890Y-98195896D01*
X95514696Y-98289090D01*
X95448809Y-98403209D01*
X95448808Y-98403214D01*
X95414700Y-98530508D01*
X88365762Y-98530508D01*
X88318177Y-98517758D01*
X88264592Y-98503400D01*
X88132808Y-98503400D01*
X88079223Y-98517758D01*
X88005509Y-98537509D01*
X87891390Y-98603396D01*
X87798196Y-98696590D01*
X87732309Y-98810709D01*
X87721647Y-98850500D01*
X87703993Y-98916390D01*
X87698200Y-98938009D01*
X87698200Y-99042079D01*
X87679293Y-99100270D01*
X87629793Y-99136234D01*
X87568607Y-99136234D01*
X87529198Y-99112084D01*
X87471914Y-99054800D01*
X87471911Y-99054798D01*
X87471909Y-99054796D01*
X87357789Y-98988909D01*
X87357791Y-98988909D01*
X87308399Y-98975675D01*
X87230492Y-98954800D01*
X87098708Y-98954800D01*
X87020800Y-98975675D01*
X86971409Y-98988909D01*
X86857290Y-99054796D01*
X86764096Y-99147990D01*
X86698209Y-99262109D01*
X86698208Y-99262114D01*
X86664100Y-99389408D01*
X86045692Y-99389408D01*
X86068900Y-99302792D01*
X86068900Y-99171008D01*
X86034792Y-99043714D01*
X86034790Y-99043711D01*
X86034790Y-99043709D01*
X85968903Y-98929590D01*
X85968901Y-98929588D01*
X85968900Y-98929586D01*
X85875714Y-98836400D01*
X85875711Y-98836398D01*
X85875709Y-98836396D01*
X85761589Y-98770509D01*
X85761591Y-98770509D01*
X85712199Y-98757275D01*
X85634292Y-98736400D01*
X85502508Y-98736400D01*
X85424600Y-98757275D01*
X85375209Y-98770509D01*
X85261090Y-98836396D01*
X85167896Y-98929590D01*
X85102009Y-99043709D01*
X85067900Y-99171009D01*
X85067900Y-99295366D01*
X85048993Y-99353557D01*
X84999493Y-99389521D01*
X84938307Y-99389521D01*
X84919400Y-99381103D01*
X84841987Y-99336408D01*
X84791819Y-99322966D01*
X84714692Y-99302300D01*
X84582908Y-99302300D01*
X84505781Y-99322966D01*
X84455609Y-99336409D01*
X84341490Y-99402296D01*
X84248296Y-99495490D01*
X84182409Y-99609609D01*
X84182408Y-99609614D01*
X84148300Y-99736908D01*
X82300500Y-99736908D01*
X82300500Y-96466608D01*
X90350700Y-96466608D01*
X90350700Y-96598392D01*
X90380779Y-96710651D01*
X90384809Y-96725690D01*
X90450696Y-96839809D01*
X90450698Y-96839811D01*
X90450700Y-96839814D01*
X90543886Y-96933000D01*
X90543888Y-96933001D01*
X90543890Y-96933003D01*
X90658010Y-96998890D01*
X90658008Y-96998890D01*
X90658012Y-96998891D01*
X90658014Y-96998892D01*
X90785308Y-97033000D01*
X90785310Y-97033000D01*
X90917090Y-97033000D01*
X90917092Y-97033000D01*
X91044386Y-96998892D01*
X91044388Y-96998890D01*
X91044390Y-96998890D01*
X91145193Y-96940691D01*
X93999500Y-96940691D01*
X93999500Y-97059309D01*
X94005819Y-97082890D01*
X94030202Y-97173890D01*
X94089507Y-97276608D01*
X94089509Y-97276610D01*
X94089511Y-97276613D01*
X94173387Y-97360489D01*
X94173389Y-97360490D01*
X94173391Y-97360492D01*
X94276110Y-97419797D01*
X94276111Y-97419797D01*
X94276114Y-97419799D01*
X94390691Y-97450500D01*
X94390693Y-97450500D01*
X94509307Y-97450500D01*
X94509309Y-97450500D01*
X94623886Y-97419799D01*
X94623888Y-97419797D01*
X94623890Y-97419797D01*
X94726608Y-97360492D01*
X94726608Y-97360491D01*
X94726613Y-97360489D01*
X94810489Y-97276613D01*
X94810492Y-97276608D01*
X94869797Y-97173890D01*
X94869797Y-97173888D01*
X94869799Y-97173886D01*
X94900500Y-97059309D01*
X94900500Y-96940691D01*
X94869799Y-96826114D01*
X94869796Y-96826109D01*
X94868468Y-96823808D01*
X96443100Y-96823808D01*
X96443100Y-96955592D01*
X96461837Y-97025519D01*
X96477209Y-97082890D01*
X96543096Y-97197009D01*
X96543098Y-97197011D01*
X96543100Y-97197014D01*
X96636286Y-97290200D01*
X96636288Y-97290201D01*
X96636290Y-97290203D01*
X96750410Y-97356090D01*
X96750408Y-97356090D01*
X96750412Y-97356091D01*
X96750414Y-97356092D01*
X96877708Y-97390200D01*
X96877710Y-97390200D01*
X97009490Y-97390200D01*
X97009492Y-97390200D01*
X97136786Y-97356092D01*
X97136788Y-97356090D01*
X97136790Y-97356090D01*
X97250909Y-97290203D01*
X97250909Y-97290202D01*
X97250914Y-97290200D01*
X97344100Y-97197014D01*
X97357453Y-97173886D01*
X97409990Y-97082890D01*
X97409990Y-97082888D01*
X97409992Y-97082886D01*
X97444100Y-96955592D01*
X97444100Y-96823808D01*
X97409992Y-96696514D01*
X97409990Y-96696511D01*
X97409990Y-96696509D01*
X97344103Y-96582390D01*
X97344101Y-96582388D01*
X97344100Y-96582386D01*
X97250914Y-96489200D01*
X97250911Y-96489198D01*
X97250909Y-96489196D01*
X97136789Y-96423309D01*
X97136791Y-96423309D01*
X97087399Y-96410075D01*
X97009492Y-96389200D01*
X96877708Y-96389200D01*
X96799800Y-96410075D01*
X96750409Y-96423309D01*
X96636290Y-96489196D01*
X96543096Y-96582390D01*
X96477209Y-96696509D01*
X96477208Y-96696514D01*
X96443100Y-96823808D01*
X94868468Y-96823808D01*
X94810492Y-96723391D01*
X94810490Y-96723389D01*
X94810489Y-96723387D01*
X94726613Y-96639511D01*
X94726610Y-96639509D01*
X94726608Y-96639507D01*
X94623889Y-96580202D01*
X94623890Y-96580202D01*
X94610351Y-96576574D01*
X94509309Y-96549500D01*
X94390691Y-96549500D01*
X94320567Y-96568289D01*
X94276109Y-96580202D01*
X94173391Y-96639507D01*
X94089507Y-96723391D01*
X94030202Y-96826109D01*
X94030201Y-96826114D01*
X93999500Y-96940691D01*
X91145193Y-96940691D01*
X91158509Y-96933003D01*
X91158509Y-96933002D01*
X91158514Y-96933000D01*
X91251700Y-96839814D01*
X91278623Y-96793182D01*
X91317590Y-96725690D01*
X91317590Y-96725688D01*
X91317592Y-96725686D01*
X91351700Y-96598392D01*
X91351700Y-96466608D01*
X91317592Y-96339314D01*
X91317590Y-96339311D01*
X91317590Y-96339309D01*
X91251703Y-96225190D01*
X91251701Y-96225188D01*
X91251700Y-96225186D01*
X91213410Y-96186896D01*
X91185635Y-96132382D01*
X91195206Y-96071950D01*
X91233915Y-96031159D01*
X91311614Y-95986300D01*
X91404800Y-95893114D01*
X91470692Y-95778986D01*
X91504800Y-95651692D01*
X91504800Y-95519908D01*
X91492073Y-95472408D01*
X92506800Y-95472408D01*
X92506800Y-95604192D01*
X92534212Y-95706496D01*
X92540909Y-95731490D01*
X92606796Y-95845609D01*
X92606798Y-95845611D01*
X92606800Y-95845614D01*
X92699986Y-95938800D01*
X92699988Y-95938801D01*
X92699990Y-95938803D01*
X92814110Y-96004690D01*
X92814108Y-96004690D01*
X92814112Y-96004691D01*
X92814114Y-96004692D01*
X92941408Y-96038800D01*
X92941410Y-96038800D01*
X93073190Y-96038800D01*
X93073192Y-96038800D01*
X93200486Y-96004692D01*
X93200488Y-96004690D01*
X93200490Y-96004690D01*
X93314609Y-95938803D01*
X93314609Y-95938802D01*
X93314614Y-95938800D01*
X93407800Y-95845614D01*
X93434317Y-95799686D01*
X93473690Y-95731490D01*
X93473690Y-95731488D01*
X93473692Y-95731486D01*
X93507800Y-95604192D01*
X93507800Y-95540691D01*
X93999500Y-95540691D01*
X93999500Y-95659309D01*
X94012144Y-95706496D01*
X94030202Y-95773890D01*
X94089507Y-95876608D01*
X94089509Y-95876610D01*
X94089511Y-95876613D01*
X94173387Y-95960489D01*
X94173389Y-95960490D01*
X94173391Y-95960492D01*
X94276110Y-96019797D01*
X94276111Y-96019797D01*
X94276114Y-96019799D01*
X94390691Y-96050500D01*
X94390693Y-96050500D01*
X94509307Y-96050500D01*
X94509309Y-96050500D01*
X94544360Y-96041108D01*
X104107900Y-96041108D01*
X104107900Y-96172892D01*
X104121912Y-96225186D01*
X104142009Y-96300190D01*
X104207896Y-96414309D01*
X104207898Y-96414311D01*
X104207900Y-96414314D01*
X104301086Y-96507500D01*
X104301088Y-96507501D01*
X104306653Y-96510714D01*
X104347596Y-96556182D01*
X104353993Y-96617032D01*
X104342893Y-96645952D01*
X104286508Y-96743612D01*
X104273223Y-96793193D01*
X104252400Y-96870908D01*
X104252400Y-97002692D01*
X104273888Y-97082886D01*
X104286509Y-97129990D01*
X104352396Y-97244109D01*
X104352398Y-97244111D01*
X104352400Y-97244114D01*
X104445586Y-97337300D01*
X104445588Y-97337301D01*
X104445590Y-97337303D01*
X104559710Y-97403190D01*
X104559708Y-97403190D01*
X104559712Y-97403191D01*
X104559714Y-97403192D01*
X104687008Y-97437300D01*
X104687010Y-97437300D01*
X104818790Y-97437300D01*
X104818792Y-97437300D01*
X104946086Y-97403192D01*
X104946088Y-97403190D01*
X104946090Y-97403190D01*
X105060209Y-97337303D01*
X105060209Y-97337302D01*
X105060214Y-97337300D01*
X105153400Y-97244114D01*
X105182336Y-97193995D01*
X105219290Y-97129990D01*
X105219290Y-97129988D01*
X105219292Y-97129986D01*
X105239115Y-97056004D01*
X115199500Y-97056004D01*
X115199500Y-97056007D01*
X115199500Y-97193993D01*
X115218637Y-97290203D01*
X115226420Y-97329327D01*
X115226420Y-97329329D01*
X115279222Y-97456806D01*
X115279228Y-97456817D01*
X115355885Y-97571541D01*
X115453458Y-97669114D01*
X115568182Y-97745771D01*
X115568193Y-97745777D01*
X115615283Y-97765282D01*
X115695672Y-97798580D01*
X115831007Y-97825500D01*
X115831008Y-97825500D01*
X115968992Y-97825500D01*
X115968993Y-97825500D01*
X116104328Y-97798580D01*
X116231811Y-97745775D01*
X116346542Y-97669114D01*
X116444114Y-97571542D01*
X116520775Y-97456811D01*
X116573580Y-97329328D01*
X116600500Y-97193993D01*
X116600500Y-97056007D01*
X116573580Y-96920672D01*
X116541383Y-96842942D01*
X116520777Y-96793193D01*
X116520771Y-96793182D01*
X116444114Y-96678458D01*
X116346541Y-96580885D01*
X116231817Y-96504228D01*
X116231806Y-96504222D01*
X116104328Y-96451420D01*
X115968995Y-96424500D01*
X115968993Y-96424500D01*
X115831007Y-96424500D01*
X115831004Y-96424500D01*
X115695672Y-96451420D01*
X115695670Y-96451420D01*
X115568193Y-96504222D01*
X115568182Y-96504228D01*
X115453458Y-96580885D01*
X115355885Y-96678458D01*
X115279228Y-96793182D01*
X115279222Y-96793193D01*
X115226420Y-96920670D01*
X115226420Y-96920672D01*
X115199500Y-97056004D01*
X105239115Y-97056004D01*
X105253400Y-97002692D01*
X105253400Y-96870908D01*
X105219292Y-96743614D01*
X105219290Y-96743611D01*
X105219290Y-96743609D01*
X105153403Y-96629490D01*
X105153401Y-96629488D01*
X105153400Y-96629486D01*
X105060214Y-96536300D01*
X105054644Y-96533084D01*
X105013702Y-96487615D01*
X105007306Y-96426765D01*
X105018405Y-96397850D01*
X105074792Y-96300186D01*
X105108900Y-96172892D01*
X105108900Y-96041108D01*
X105074792Y-95913814D01*
X105074790Y-95913811D01*
X105074790Y-95913809D01*
X105008903Y-95799690D01*
X105008901Y-95799688D01*
X105008900Y-95799686D01*
X104915714Y-95706500D01*
X104915711Y-95706498D01*
X104915709Y-95706496D01*
X104801589Y-95640609D01*
X104801591Y-95640609D01*
X104752199Y-95627375D01*
X104674292Y-95606500D01*
X104542508Y-95606500D01*
X104464600Y-95627375D01*
X104415209Y-95640609D01*
X104301090Y-95706496D01*
X104207896Y-95799690D01*
X104142009Y-95913809D01*
X104129501Y-95960492D01*
X104107900Y-96041108D01*
X94544360Y-96041108D01*
X94623886Y-96019799D01*
X94623888Y-96019797D01*
X94623890Y-96019797D01*
X94726608Y-95960492D01*
X94726608Y-95960491D01*
X94726613Y-95960489D01*
X94810489Y-95876613D01*
X94810492Y-95876608D01*
X94869797Y-95773890D01*
X94869797Y-95773888D01*
X94869799Y-95773886D01*
X94900500Y-95659309D01*
X94900500Y-95540691D01*
X94869799Y-95426114D01*
X94869797Y-95426111D01*
X94869797Y-95426109D01*
X94810492Y-95323391D01*
X94810490Y-95323389D01*
X94810489Y-95323387D01*
X94726613Y-95239511D01*
X94726610Y-95239509D01*
X94726608Y-95239507D01*
X94623889Y-95180202D01*
X94623890Y-95180202D01*
X94610351Y-95176574D01*
X94509309Y-95149500D01*
X94390691Y-95149500D01*
X94320567Y-95168289D01*
X94276109Y-95180202D01*
X94173391Y-95239507D01*
X94089507Y-95323391D01*
X94030202Y-95426109D01*
X94030201Y-95426114D01*
X93999500Y-95540691D01*
X93507800Y-95540691D01*
X93507800Y-95472408D01*
X93473692Y-95345114D01*
X93473690Y-95345111D01*
X93473690Y-95345109D01*
X93407803Y-95230990D01*
X93407801Y-95230988D01*
X93407800Y-95230986D01*
X93314614Y-95137800D01*
X93314611Y-95137798D01*
X93314609Y-95137796D01*
X93200489Y-95071909D01*
X93200491Y-95071909D01*
X93151099Y-95058675D01*
X93073192Y-95037800D01*
X92941408Y-95037800D01*
X92863500Y-95058675D01*
X92814109Y-95071909D01*
X92699990Y-95137796D01*
X92606796Y-95230990D01*
X92540909Y-95345109D01*
X92525612Y-95402200D01*
X92506800Y-95472408D01*
X91492073Y-95472408D01*
X91470692Y-95392614D01*
X91470690Y-95392611D01*
X91470690Y-95392609D01*
X91404803Y-95278490D01*
X91404801Y-95278488D01*
X91404800Y-95278486D01*
X91311614Y-95185300D01*
X91311611Y-95185298D01*
X91311609Y-95185296D01*
X91197489Y-95119409D01*
X91197491Y-95119409D01*
X91148099Y-95106175D01*
X91070192Y-95085300D01*
X90938408Y-95085300D01*
X90860500Y-95106175D01*
X90811109Y-95119409D01*
X90696990Y-95185296D01*
X90603796Y-95278490D01*
X90537909Y-95392609D01*
X90537908Y-95392614D01*
X90503800Y-95519908D01*
X90503800Y-95651692D01*
X90505841Y-95659309D01*
X90537909Y-95778990D01*
X90603796Y-95893109D01*
X90603798Y-95893111D01*
X90603800Y-95893114D01*
X90642088Y-95931402D01*
X90669864Y-95985917D01*
X90660293Y-96046349D01*
X90621584Y-96087140D01*
X90543888Y-96131998D01*
X90450696Y-96225190D01*
X90384809Y-96339309D01*
X90365739Y-96410478D01*
X90350700Y-96466608D01*
X82300500Y-96466608D01*
X82300500Y-94835808D01*
X97268400Y-94835808D01*
X97268400Y-94967592D01*
X97287212Y-95037800D01*
X97302509Y-95094890D01*
X97368396Y-95209009D01*
X97368398Y-95209011D01*
X97368400Y-95209014D01*
X97461586Y-95302200D01*
X97461588Y-95302201D01*
X97461590Y-95302203D01*
X97575710Y-95368090D01*
X97575708Y-95368090D01*
X97575712Y-95368091D01*
X97575714Y-95368092D01*
X97703008Y-95402200D01*
X97703010Y-95402200D01*
X97834790Y-95402200D01*
X97834792Y-95402200D01*
X97962086Y-95368092D01*
X97962088Y-95368090D01*
X97962090Y-95368090D01*
X98076209Y-95302203D01*
X98076209Y-95302202D01*
X98076214Y-95302200D01*
X98169400Y-95209014D01*
X98235292Y-95094886D01*
X98269400Y-94967592D01*
X98269400Y-94835808D01*
X98235292Y-94708514D01*
X98235290Y-94708511D01*
X98235290Y-94708509D01*
X98169403Y-94594390D01*
X98169401Y-94594388D01*
X98169400Y-94594386D01*
X98076214Y-94501200D01*
X98076211Y-94501198D01*
X98076209Y-94501196D01*
X97962089Y-94435309D01*
X97962091Y-94435309D01*
X97912699Y-94422075D01*
X97834792Y-94401200D01*
X97703008Y-94401200D01*
X97625100Y-94422075D01*
X97575709Y-94435309D01*
X97461590Y-94501196D01*
X97368396Y-94594390D01*
X97302509Y-94708509D01*
X97283597Y-94779090D01*
X97268400Y-94835808D01*
X82300500Y-94835808D01*
X82300500Y-93496608D01*
X92761100Y-93496608D01*
X92761100Y-93628392D01*
X92763244Y-93636392D01*
X92795209Y-93755690D01*
X92861096Y-93869809D01*
X92861098Y-93869811D01*
X92861100Y-93869814D01*
X92954286Y-93963000D01*
X92968287Y-93971083D01*
X93009229Y-94016552D01*
X93015625Y-94077403D01*
X93004527Y-94106316D01*
X92996908Y-94119512D01*
X92974169Y-94204376D01*
X92962800Y-94246808D01*
X92962800Y-94378592D01*
X92968858Y-94401200D01*
X92996909Y-94505890D01*
X93062796Y-94620009D01*
X93062798Y-94620011D01*
X93062800Y-94620014D01*
X93155986Y-94713200D01*
X93155988Y-94713201D01*
X93155990Y-94713203D01*
X93270110Y-94779090D01*
X93270108Y-94779090D01*
X93270112Y-94779091D01*
X93270114Y-94779092D01*
X93397408Y-94813200D01*
X93397410Y-94813200D01*
X93529190Y-94813200D01*
X93529192Y-94813200D01*
X93656486Y-94779092D01*
X93717991Y-94743582D01*
X93717994Y-94743581D01*
X93770609Y-94713203D01*
X93770609Y-94713202D01*
X93770614Y-94713200D01*
X93863800Y-94620014D01*
X93878594Y-94594390D01*
X93929690Y-94505890D01*
X93929690Y-94505888D01*
X93929692Y-94505886D01*
X93963800Y-94378592D01*
X93963800Y-94246808D01*
X93929692Y-94119514D01*
X93929690Y-94119511D01*
X93929690Y-94119509D01*
X93863803Y-94005390D01*
X93863801Y-94005388D01*
X93863800Y-94005386D01*
X93770614Y-93912200D01*
X93756611Y-93904115D01*
X93715671Y-93858647D01*
X93709274Y-93797797D01*
X93720374Y-93768878D01*
X93727992Y-93755686D01*
X93762100Y-93628392D01*
X93762100Y-93504608D01*
X97321500Y-93504608D01*
X97321500Y-93636392D01*
X97351579Y-93748651D01*
X97355609Y-93763690D01*
X97421496Y-93877809D01*
X97421498Y-93877811D01*
X97421500Y-93877814D01*
X97514686Y-93971000D01*
X97514688Y-93971001D01*
X97514690Y-93971003D01*
X97628810Y-94036890D01*
X97628808Y-94036890D01*
X97628812Y-94036891D01*
X97628814Y-94036892D01*
X97756108Y-94071000D01*
X97756110Y-94071000D01*
X97887890Y-94071000D01*
X97887892Y-94071000D01*
X98015186Y-94036892D01*
X98015188Y-94036890D01*
X98015190Y-94036890D01*
X98129309Y-93971003D01*
X98129309Y-93971002D01*
X98129314Y-93971000D01*
X98222500Y-93877814D01*
X98288392Y-93763686D01*
X98322500Y-93636392D01*
X98322500Y-93504608D01*
X98288392Y-93377314D01*
X98288390Y-93377311D01*
X98288390Y-93377309D01*
X98222503Y-93263190D01*
X98222501Y-93263188D01*
X98222500Y-93263186D01*
X98129314Y-93170000D01*
X98129311Y-93169998D01*
X98129309Y-93169996D01*
X98015189Y-93104109D01*
X98015191Y-93104109D01*
X97965799Y-93090875D01*
X97887892Y-93070000D01*
X97756108Y-93070000D01*
X97678200Y-93090875D01*
X97628809Y-93104109D01*
X97514690Y-93169996D01*
X97421496Y-93263190D01*
X97355609Y-93377309D01*
X97346211Y-93412383D01*
X97321500Y-93504608D01*
X93762100Y-93504608D01*
X93762100Y-93496608D01*
X93748799Y-93446967D01*
X93752002Y-93385869D01*
X93790507Y-93338319D01*
X93849607Y-93322483D01*
X93906729Y-93344410D01*
X93914419Y-93351333D01*
X93938486Y-93375400D01*
X93938488Y-93375401D01*
X93938490Y-93375403D01*
X94052610Y-93441290D01*
X94052608Y-93441290D01*
X94052612Y-93441291D01*
X94052614Y-93441292D01*
X94179908Y-93475400D01*
X94179910Y-93475400D01*
X94311690Y-93475400D01*
X94311692Y-93475400D01*
X94438986Y-93441292D01*
X94438988Y-93441290D01*
X94438990Y-93441290D01*
X94489059Y-93412383D01*
X94553109Y-93375403D01*
X94553109Y-93375402D01*
X94553114Y-93375400D01*
X94646300Y-93282214D01*
X94659241Y-93259800D01*
X94712190Y-93168090D01*
X94712190Y-93168088D01*
X94712192Y-93168086D01*
X94746300Y-93040792D01*
X94746300Y-92909008D01*
X94712192Y-92781714D01*
X94712190Y-92781711D01*
X94712190Y-92781709D01*
X94646303Y-92667590D01*
X94646301Y-92667588D01*
X94646300Y-92667586D01*
X94553114Y-92574400D01*
X94553111Y-92574398D01*
X94553109Y-92574396D01*
X94438989Y-92508509D01*
X94438991Y-92508509D01*
X94389599Y-92495275D01*
X94311692Y-92474400D01*
X94179908Y-92474400D01*
X94102000Y-92495275D01*
X94052609Y-92508509D01*
X93938490Y-92574396D01*
X93845296Y-92667590D01*
X93779409Y-92781709D01*
X93767759Y-92825190D01*
X93754654Y-92874100D01*
X93745300Y-92909009D01*
X93745300Y-93040791D01*
X93758600Y-93090430D01*
X93755397Y-93151532D01*
X93716891Y-93199081D01*
X93657791Y-93214916D01*
X93600669Y-93192989D01*
X93592979Y-93186065D01*
X93568914Y-93162000D01*
X93568911Y-93161998D01*
X93568909Y-93161996D01*
X93454789Y-93096109D01*
X93454791Y-93096109D01*
X93392165Y-93079329D01*
X93327492Y-93062000D01*
X93195708Y-93062000D01*
X93131035Y-93079329D01*
X93068409Y-93096109D01*
X92954290Y-93161996D01*
X92861096Y-93255190D01*
X92795209Y-93369309D01*
X92793064Y-93377314D01*
X92761100Y-93496608D01*
X82300500Y-93496608D01*
X82300500Y-92298208D01*
X84420600Y-92298208D01*
X84420600Y-92429992D01*
X84450679Y-92542251D01*
X84454709Y-92557290D01*
X84520596Y-92671409D01*
X84520598Y-92671411D01*
X84520600Y-92671414D01*
X84613786Y-92764600D01*
X84613788Y-92764601D01*
X84613790Y-92764603D01*
X84727910Y-92830490D01*
X84727908Y-92830490D01*
X84727912Y-92830491D01*
X84727914Y-92830492D01*
X84855208Y-92864600D01*
X84855210Y-92864600D01*
X84986990Y-92864600D01*
X84986992Y-92864600D01*
X85114286Y-92830492D01*
X85114288Y-92830490D01*
X85114290Y-92830490D01*
X85228409Y-92764603D01*
X85228409Y-92764602D01*
X85228414Y-92764600D01*
X85321600Y-92671414D01*
X85321603Y-92671409D01*
X85387490Y-92557290D01*
X85387490Y-92557288D01*
X85387492Y-92557286D01*
X85421600Y-92429992D01*
X85421600Y-92298208D01*
X85387492Y-92170914D01*
X85387490Y-92170911D01*
X85387490Y-92170909D01*
X85321603Y-92056790D01*
X85321601Y-92056788D01*
X85321600Y-92056786D01*
X85228414Y-91963600D01*
X85228411Y-91963598D01*
X85228409Y-91963596D01*
X85114289Y-91897709D01*
X85114291Y-91897709D01*
X85064899Y-91884475D01*
X84986992Y-91863600D01*
X84855208Y-91863600D01*
X84777300Y-91884475D01*
X84727909Y-91897709D01*
X84613790Y-91963596D01*
X84520596Y-92056790D01*
X84454709Y-92170909D01*
X84435639Y-92242078D01*
X84420600Y-92298208D01*
X82300500Y-92298208D01*
X82300500Y-91466542D01*
X86154200Y-91466542D01*
X86154200Y-91613457D01*
X86182860Y-91757541D01*
X86182860Y-91757543D01*
X86239078Y-91893266D01*
X86239078Y-91893267D01*
X86248394Y-91907209D01*
X86320699Y-92015420D01*
X86424580Y-92119301D01*
X86546731Y-92200920D01*
X86682458Y-92257140D01*
X86826545Y-92285800D01*
X86826547Y-92285800D01*
X86973453Y-92285800D01*
X86973455Y-92285800D01*
X87117542Y-92257140D01*
X87253269Y-92200920D01*
X87375420Y-92119301D01*
X87479301Y-92015420D01*
X87560920Y-91893269D01*
X87580496Y-91846008D01*
X90313800Y-91846008D01*
X90313800Y-91977792D01*
X90323883Y-92015423D01*
X90347909Y-92105090D01*
X90413796Y-92219209D01*
X90413798Y-92219211D01*
X90413800Y-92219214D01*
X90506986Y-92312400D01*
X90506988Y-92312401D01*
X90506990Y-92312403D01*
X90621110Y-92378290D01*
X90621108Y-92378290D01*
X90621112Y-92378291D01*
X90621114Y-92378292D01*
X90748408Y-92412400D01*
X90748410Y-92412400D01*
X90880190Y-92412400D01*
X90880192Y-92412400D01*
X91007486Y-92378292D01*
X91007488Y-92378290D01*
X91007490Y-92378290D01*
X91121609Y-92312403D01*
X91121609Y-92312402D01*
X91121614Y-92312400D01*
X91126306Y-92307708D01*
X97596800Y-92307708D01*
X97596800Y-92439492D01*
X97615293Y-92508508D01*
X97630909Y-92566790D01*
X97696796Y-92680909D01*
X97696798Y-92680911D01*
X97696800Y-92680914D01*
X97789986Y-92774100D01*
X97789988Y-92774101D01*
X97789990Y-92774103D01*
X97904110Y-92839990D01*
X97904108Y-92839990D01*
X97904112Y-92839991D01*
X97904114Y-92839992D01*
X98031408Y-92874100D01*
X98031410Y-92874100D01*
X98163190Y-92874100D01*
X98163192Y-92874100D01*
X98290486Y-92839992D01*
X98290488Y-92839990D01*
X98290490Y-92839990D01*
X98404609Y-92774103D01*
X98404609Y-92774102D01*
X98404614Y-92774100D01*
X98485306Y-92693408D01*
X99500000Y-92693408D01*
X99500000Y-92825192D01*
X99530079Y-92937451D01*
X99534109Y-92952490D01*
X99599996Y-93066609D01*
X99599998Y-93066611D01*
X99600000Y-93066614D01*
X99693186Y-93159800D01*
X99693188Y-93159801D01*
X99693190Y-93159803D01*
X99807310Y-93225690D01*
X99807308Y-93225690D01*
X99807312Y-93225691D01*
X99807314Y-93225692D01*
X99934608Y-93259800D01*
X99934610Y-93259800D01*
X100066390Y-93259800D01*
X100066392Y-93259800D01*
X100193686Y-93225692D01*
X100193688Y-93225690D01*
X100193690Y-93225690D01*
X100307809Y-93159803D01*
X100307809Y-93159802D01*
X100307814Y-93159800D01*
X100401000Y-93066614D01*
X100403664Y-93062000D01*
X100466890Y-92952490D01*
X100466890Y-92952488D01*
X100466892Y-92952486D01*
X100501000Y-92825192D01*
X100501000Y-92806004D01*
X115199500Y-92806004D01*
X115199500Y-92943995D01*
X115226420Y-93079327D01*
X115226420Y-93079329D01*
X115279222Y-93206806D01*
X115279228Y-93206817D01*
X115355885Y-93321541D01*
X115453458Y-93419114D01*
X115568182Y-93495771D01*
X115568193Y-93495777D01*
X115589516Y-93504609D01*
X115695672Y-93548580D01*
X115831007Y-93575500D01*
X115831008Y-93575500D01*
X115968992Y-93575500D01*
X115968993Y-93575500D01*
X116104328Y-93548580D01*
X116231811Y-93495775D01*
X116346542Y-93419114D01*
X116444114Y-93321542D01*
X116520775Y-93206811D01*
X116573580Y-93079328D01*
X116600500Y-92943993D01*
X116600500Y-92806007D01*
X116573580Y-92670672D01*
X116533703Y-92574400D01*
X116520777Y-92543193D01*
X116520771Y-92543182D01*
X116444114Y-92428458D01*
X116346541Y-92330885D01*
X116231817Y-92254228D01*
X116231806Y-92254222D01*
X116104328Y-92201420D01*
X115968995Y-92174500D01*
X115968993Y-92174500D01*
X115831007Y-92174500D01*
X115831004Y-92174500D01*
X115695672Y-92201420D01*
X115695670Y-92201420D01*
X115568193Y-92254222D01*
X115568182Y-92254228D01*
X115453458Y-92330885D01*
X115355885Y-92428458D01*
X115279228Y-92543182D01*
X115279222Y-92543193D01*
X115226420Y-92670670D01*
X115226420Y-92670672D01*
X115199500Y-92806004D01*
X100501000Y-92806004D01*
X100501000Y-92693408D01*
X100466892Y-92566114D01*
X100466890Y-92566111D01*
X100466890Y-92566109D01*
X100401003Y-92451990D01*
X100401001Y-92451988D01*
X100401000Y-92451986D01*
X100307814Y-92358800D01*
X100307811Y-92358798D01*
X100307809Y-92358796D01*
X100193689Y-92292909D01*
X100193691Y-92292909D01*
X100144299Y-92279675D01*
X100066392Y-92258800D01*
X99934608Y-92258800D01*
X99856700Y-92279675D01*
X99807309Y-92292909D01*
X99693190Y-92358796D01*
X99599996Y-92451990D01*
X99534109Y-92566109D01*
X99515039Y-92637278D01*
X99500000Y-92693408D01*
X98485306Y-92693408D01*
X98497800Y-92680914D01*
X98512619Y-92655245D01*
X98522913Y-92637418D01*
X98559298Y-92574396D01*
X98563692Y-92566786D01*
X98597800Y-92439492D01*
X98597800Y-92307708D01*
X98563692Y-92180414D01*
X98563690Y-92180411D01*
X98563690Y-92180409D01*
X98497803Y-92066290D01*
X98497801Y-92066288D01*
X98497800Y-92066286D01*
X98404614Y-91973100D01*
X98404611Y-91973098D01*
X98404609Y-91973096D01*
X98290489Y-91907209D01*
X98290491Y-91907209D01*
X98238453Y-91893266D01*
X98163192Y-91873100D01*
X98031408Y-91873100D01*
X97956147Y-91893266D01*
X97904109Y-91907209D01*
X97789990Y-91973096D01*
X97696796Y-92066290D01*
X97630909Y-92180409D01*
X97620513Y-92219209D01*
X97596800Y-92307708D01*
X91126306Y-92307708D01*
X91214800Y-92219214D01*
X91214803Y-92219209D01*
X91280690Y-92105090D01*
X91280690Y-92105088D01*
X91280692Y-92105086D01*
X91314800Y-91977792D01*
X91314800Y-91846008D01*
X91280692Y-91718714D01*
X91280690Y-91718711D01*
X91280690Y-91718709D01*
X91214803Y-91604590D01*
X91214801Y-91604588D01*
X91214800Y-91604586D01*
X91121614Y-91511400D01*
X91121611Y-91511398D01*
X91121609Y-91511396D01*
X91007489Y-91445509D01*
X91007491Y-91445509D01*
X90958099Y-91432275D01*
X90880192Y-91411400D01*
X90748408Y-91411400D01*
X90670500Y-91432275D01*
X90621109Y-91445509D01*
X90506990Y-91511396D01*
X90413796Y-91604590D01*
X90347909Y-91718709D01*
X90347908Y-91718714D01*
X90313800Y-91846008D01*
X87580496Y-91846008D01*
X87617140Y-91757542D01*
X87645800Y-91613455D01*
X87645800Y-91466545D01*
X87617140Y-91322458D01*
X87560921Y-91186733D01*
X87560921Y-91186732D01*
X87538983Y-91153900D01*
X87479301Y-91064580D01*
X87375420Y-90960699D01*
X87253269Y-90879080D01*
X87253268Y-90879079D01*
X87253266Y-90879078D01*
X87117542Y-90822860D01*
X86973457Y-90794200D01*
X86973455Y-90794200D01*
X86826545Y-90794200D01*
X86826542Y-90794200D01*
X86682458Y-90822860D01*
X86682456Y-90822860D01*
X86546733Y-90879078D01*
X86546732Y-90879078D01*
X86424580Y-90960699D01*
X86424576Y-90960702D01*
X86320702Y-91064576D01*
X86320699Y-91064580D01*
X86239078Y-91186732D01*
X86239078Y-91186733D01*
X86182860Y-91322456D01*
X86182860Y-91322458D01*
X86154200Y-91466542D01*
X82300500Y-91466542D01*
X82300500Y-90076108D01*
X84591900Y-90076108D01*
X84591900Y-90207892D01*
X84614755Y-90293190D01*
X84626009Y-90335190D01*
X84691896Y-90449309D01*
X84691898Y-90449311D01*
X84691900Y-90449314D01*
X84785086Y-90542500D01*
X84785088Y-90542501D01*
X84785090Y-90542503D01*
X84899210Y-90608390D01*
X84899208Y-90608390D01*
X84899212Y-90608391D01*
X84899214Y-90608392D01*
X85026508Y-90642500D01*
X85026510Y-90642500D01*
X85158290Y-90642500D01*
X85158292Y-90642500D01*
X85285586Y-90608392D01*
X85285588Y-90608390D01*
X85285590Y-90608390D01*
X85321758Y-90587508D01*
X91687100Y-90587508D01*
X91687100Y-90719292D01*
X91710255Y-90805708D01*
X91721209Y-90846590D01*
X91787096Y-90960709D01*
X91787098Y-90960711D01*
X91787100Y-90960714D01*
X91880286Y-91053900D01*
X91880288Y-91053901D01*
X91880290Y-91053903D01*
X91994410Y-91119790D01*
X91994408Y-91119790D01*
X91994412Y-91119791D01*
X91994414Y-91119792D01*
X92121708Y-91153900D01*
X92121710Y-91153900D01*
X92253490Y-91153900D01*
X92253492Y-91153900D01*
X92380786Y-91119792D01*
X92380788Y-91119790D01*
X92380790Y-91119790D01*
X92494909Y-91053903D01*
X92494909Y-91053902D01*
X92494914Y-91053900D01*
X92588100Y-90960714D01*
X92599015Y-90941808D01*
X94082500Y-90941808D01*
X94082500Y-91073592D01*
X94094879Y-91119790D01*
X94116609Y-91200890D01*
X94182496Y-91315009D01*
X94182498Y-91315011D01*
X94182500Y-91315014D01*
X94275686Y-91408200D01*
X94275688Y-91408201D01*
X94275690Y-91408203D01*
X94389810Y-91474090D01*
X94389808Y-91474090D01*
X94389812Y-91474091D01*
X94389814Y-91474092D01*
X94517108Y-91508200D01*
X94517110Y-91508200D01*
X94648890Y-91508200D01*
X94648892Y-91508200D01*
X94776186Y-91474092D01*
X94776188Y-91474090D01*
X94776190Y-91474090D01*
X94890309Y-91408203D01*
X94890309Y-91408202D01*
X94890314Y-91408200D01*
X94983500Y-91315014D01*
X95008275Y-91272103D01*
X95049390Y-91200890D01*
X95049390Y-91200888D01*
X95049392Y-91200886D01*
X95083500Y-91073592D01*
X95083500Y-90941808D01*
X95051628Y-90822860D01*
X95049392Y-90814514D01*
X95049390Y-90814510D01*
X95044308Y-90805708D01*
X96841600Y-90805708D01*
X96841600Y-90937492D01*
X96871679Y-91049751D01*
X96875709Y-91064790D01*
X96941596Y-91178909D01*
X96941598Y-91178911D01*
X96941600Y-91178914D01*
X97034786Y-91272100D01*
X97034788Y-91272101D01*
X97034790Y-91272103D01*
X97148910Y-91337990D01*
X97148908Y-91337990D01*
X97148912Y-91337991D01*
X97148914Y-91337992D01*
X97276208Y-91372100D01*
X97276210Y-91372100D01*
X97407990Y-91372100D01*
X97407992Y-91372100D01*
X97535286Y-91337992D01*
X97535288Y-91337990D01*
X97535290Y-91337990D01*
X97649409Y-91272103D01*
X97649409Y-91272102D01*
X97649414Y-91272100D01*
X97742600Y-91178914D01*
X97776734Y-91119792D01*
X97808490Y-91064790D01*
X97808490Y-91064788D01*
X97808492Y-91064786D01*
X97842600Y-90937492D01*
X97842600Y-90805708D01*
X97808492Y-90678414D01*
X97808490Y-90678411D01*
X97808490Y-90678409D01*
X97742603Y-90564290D01*
X97742601Y-90564288D01*
X97742600Y-90564286D01*
X97649414Y-90471100D01*
X97649411Y-90471098D01*
X97649409Y-90471096D01*
X97535289Y-90405209D01*
X97535291Y-90405209D01*
X97485899Y-90391975D01*
X97407992Y-90371100D01*
X97276208Y-90371100D01*
X97198300Y-90391975D01*
X97148909Y-90405209D01*
X97034790Y-90471096D01*
X96941596Y-90564290D01*
X96875709Y-90678409D01*
X96864755Y-90719290D01*
X96841600Y-90805708D01*
X95044308Y-90805708D01*
X94983503Y-90700390D01*
X94983501Y-90700388D01*
X94983500Y-90700386D01*
X94890314Y-90607200D01*
X94890311Y-90607198D01*
X94890309Y-90607196D01*
X94776189Y-90541309D01*
X94776191Y-90541309D01*
X94726799Y-90528075D01*
X94648892Y-90507200D01*
X94517108Y-90507200D01*
X94439200Y-90528075D01*
X94389809Y-90541309D01*
X94275690Y-90607196D01*
X94182496Y-90700390D01*
X94116609Y-90814509D01*
X94108014Y-90846586D01*
X94082500Y-90941808D01*
X92599015Y-90941808D01*
X92610780Y-90921429D01*
X92631342Y-90885818D01*
X92645179Y-90861850D01*
X92653992Y-90846586D01*
X92688100Y-90719292D01*
X92688100Y-90587508D01*
X92653992Y-90460214D01*
X92653990Y-90460211D01*
X92653990Y-90460209D01*
X92588103Y-90346090D01*
X92588101Y-90346088D01*
X92588100Y-90346086D01*
X92494914Y-90252900D01*
X92494911Y-90252898D01*
X92494909Y-90252896D01*
X92380789Y-90187009D01*
X92380791Y-90187009D01*
X92331399Y-90173775D01*
X92253492Y-90152900D01*
X92121708Y-90152900D01*
X92043800Y-90173775D01*
X91994409Y-90187009D01*
X91880290Y-90252896D01*
X91787096Y-90346090D01*
X91721209Y-90460209D01*
X91721208Y-90460214D01*
X91687100Y-90587508D01*
X85321758Y-90587508D01*
X85399709Y-90542503D01*
X85399709Y-90542502D01*
X85399714Y-90542500D01*
X85492900Y-90449314D01*
X85558792Y-90335186D01*
X85592900Y-90207892D01*
X85592900Y-90076108D01*
X85558792Y-89948814D01*
X85558790Y-89948811D01*
X85558790Y-89948809D01*
X85492903Y-89834690D01*
X85492901Y-89834688D01*
X85492900Y-89834686D01*
X85399714Y-89741500D01*
X85399711Y-89741498D01*
X85399709Y-89741496D01*
X85323346Y-89697408D01*
X89219700Y-89697408D01*
X89219700Y-89829192D01*
X89236714Y-89892690D01*
X89253809Y-89956490D01*
X89319696Y-90070609D01*
X89319698Y-90070611D01*
X89319700Y-90070614D01*
X89412886Y-90163800D01*
X89412888Y-90163801D01*
X89412890Y-90163803D01*
X89527010Y-90229690D01*
X89527008Y-90229690D01*
X89527012Y-90229691D01*
X89527014Y-90229692D01*
X89654308Y-90263800D01*
X89654310Y-90263800D01*
X89786090Y-90263800D01*
X89786092Y-90263800D01*
X89913386Y-90229692D01*
X89913388Y-90229690D01*
X89913390Y-90229690D01*
X90027509Y-90163803D01*
X90027509Y-90163802D01*
X90027514Y-90163800D01*
X90120700Y-90070614D01*
X90186592Y-89956486D01*
X90220700Y-89829192D01*
X90220700Y-89760908D01*
X93306000Y-89760908D01*
X93306000Y-89892692D01*
X93334029Y-89997300D01*
X93340109Y-90019990D01*
X93405996Y-90134109D01*
X93405998Y-90134111D01*
X93406000Y-90134114D01*
X93499186Y-90227300D01*
X93499188Y-90227301D01*
X93499190Y-90227303D01*
X93613310Y-90293190D01*
X93613308Y-90293190D01*
X93613312Y-90293191D01*
X93613314Y-90293192D01*
X93740608Y-90327300D01*
X93740610Y-90327300D01*
X93872390Y-90327300D01*
X93872392Y-90327300D01*
X93999686Y-90293192D01*
X93999688Y-90293190D01*
X93999690Y-90293190D01*
X94113809Y-90227303D01*
X94113809Y-90227302D01*
X94113814Y-90227300D01*
X94207000Y-90134114D01*
X94228255Y-90097300D01*
X94272890Y-90019990D01*
X94272890Y-90019988D01*
X94272892Y-90019986D01*
X94307000Y-89892692D01*
X94307000Y-89760908D01*
X94272892Y-89633614D01*
X94238427Y-89573919D01*
X94238426Y-89573916D01*
X94213595Y-89530908D01*
X97882400Y-89530908D01*
X97882400Y-89662692D01*
X97903515Y-89741496D01*
X97916509Y-89789990D01*
X97982396Y-89904109D01*
X97982398Y-89904111D01*
X97982400Y-89904114D01*
X98075586Y-89997300D01*
X98075588Y-89997301D01*
X98075590Y-89997303D01*
X98189710Y-90063190D01*
X98189708Y-90063190D01*
X98189712Y-90063191D01*
X98189714Y-90063192D01*
X98317008Y-90097300D01*
X98317010Y-90097300D01*
X98448790Y-90097300D01*
X98448792Y-90097300D01*
X98576086Y-90063192D01*
X98576088Y-90063190D01*
X98576090Y-90063190D01*
X98690209Y-89997303D01*
X98690209Y-89997302D01*
X98690214Y-89997300D01*
X98783400Y-89904114D01*
X98823482Y-89834690D01*
X98849290Y-89789990D01*
X98849290Y-89789988D01*
X98849292Y-89789986D01*
X98883400Y-89662692D01*
X98883400Y-89530908D01*
X98849292Y-89403614D01*
X98849290Y-89403611D01*
X98849290Y-89403609D01*
X98783403Y-89289490D01*
X98783401Y-89289488D01*
X98783400Y-89289486D01*
X98690214Y-89196300D01*
X98690211Y-89196298D01*
X98690209Y-89196296D01*
X98576089Y-89130409D01*
X98576091Y-89130409D01*
X98526699Y-89117175D01*
X98448792Y-89096300D01*
X98317008Y-89096300D01*
X98239100Y-89117175D01*
X98189709Y-89130409D01*
X98075590Y-89196296D01*
X97982396Y-89289490D01*
X97916509Y-89403609D01*
X97902475Y-89455986D01*
X97882400Y-89530908D01*
X94213595Y-89530908D01*
X94207003Y-89519490D01*
X94207001Y-89519488D01*
X94207000Y-89519486D01*
X94113814Y-89426300D01*
X94113811Y-89426298D01*
X94113809Y-89426296D01*
X93999689Y-89360409D01*
X93999691Y-89360409D01*
X93950299Y-89347175D01*
X93872392Y-89326300D01*
X93740608Y-89326300D01*
X93662700Y-89347175D01*
X93613309Y-89360409D01*
X93499190Y-89426296D01*
X93405996Y-89519490D01*
X93340109Y-89633609D01*
X93323015Y-89697408D01*
X93306000Y-89760908D01*
X90220700Y-89760908D01*
X90220700Y-89697408D01*
X90186592Y-89570114D01*
X90186590Y-89570111D01*
X90186590Y-89570109D01*
X90120703Y-89455990D01*
X90120701Y-89455988D01*
X90120700Y-89455986D01*
X90112216Y-89447502D01*
X90099443Y-89422433D01*
X90085386Y-89398085D01*
X90085668Y-89395397D01*
X90084441Y-89392988D01*
X90088842Y-89365198D01*
X90091781Y-89337235D01*
X90093588Y-89335226D01*
X90094012Y-89332556D01*
X90132721Y-89291765D01*
X90213936Y-89244875D01*
X90273781Y-89232154D01*
X90329677Y-89257040D01*
X90349170Y-89281111D01*
X90358291Y-89296908D01*
X90365800Y-89309914D01*
X90458986Y-89403100D01*
X90458988Y-89403101D01*
X90458990Y-89403103D01*
X90573110Y-89468990D01*
X90573108Y-89468990D01*
X90573112Y-89468991D01*
X90573114Y-89468992D01*
X90700408Y-89503100D01*
X90700410Y-89503100D01*
X90832190Y-89503100D01*
X90832192Y-89503100D01*
X90959486Y-89468992D01*
X90959488Y-89468990D01*
X90959490Y-89468990D01*
X91073609Y-89403103D01*
X91073609Y-89403102D01*
X91073614Y-89403100D01*
X91166800Y-89309914D01*
X91174309Y-89296908D01*
X91232690Y-89195790D01*
X91232690Y-89195788D01*
X91232692Y-89195786D01*
X91266800Y-89068492D01*
X91266800Y-88936708D01*
X91232692Y-88809414D01*
X91232690Y-88809411D01*
X91232690Y-88809409D01*
X91166803Y-88695290D01*
X91166801Y-88695288D01*
X91166800Y-88695286D01*
X91073614Y-88602100D01*
X91073611Y-88602098D01*
X91073609Y-88602096D01*
X90959489Y-88536209D01*
X90959491Y-88536209D01*
X90901198Y-88520590D01*
X90832192Y-88502100D01*
X90700408Y-88502100D01*
X90631402Y-88520590D01*
X90573109Y-88536209D01*
X90476265Y-88592123D01*
X90416417Y-88604845D01*
X90360521Y-88579958D01*
X90351832Y-88571087D01*
X90345711Y-88563998D01*
X90324400Y-88527086D01*
X90231214Y-88433900D01*
X90231211Y-88433898D01*
X90231209Y-88433896D01*
X90153114Y-88388808D01*
X91924200Y-88388808D01*
X91924200Y-88520592D01*
X91946039Y-88602096D01*
X91958309Y-88647890D01*
X92024196Y-88762009D01*
X92024198Y-88762011D01*
X92024200Y-88762014D01*
X92117386Y-88855200D01*
X92117388Y-88855201D01*
X92117390Y-88855203D01*
X92231510Y-88921090D01*
X92231508Y-88921090D01*
X92231512Y-88921091D01*
X92231514Y-88921092D01*
X92358808Y-88955200D01*
X92358810Y-88955200D01*
X92490590Y-88955200D01*
X92490592Y-88955200D01*
X92617886Y-88921092D01*
X92617888Y-88921090D01*
X92617890Y-88921090D01*
X92732009Y-88855203D01*
X92732009Y-88855202D01*
X92732014Y-88855200D01*
X92825200Y-88762014D01*
X92891092Y-88647886D01*
X92925200Y-88520592D01*
X92925200Y-88388808D01*
X92891092Y-88261514D01*
X92891090Y-88261511D01*
X92891090Y-88261509D01*
X92825203Y-88147390D01*
X92825201Y-88147388D01*
X92825200Y-88147386D01*
X92732014Y-88054200D01*
X92732011Y-88054198D01*
X92732009Y-88054196D01*
X92617889Y-87988309D01*
X92617891Y-87988309D01*
X92568499Y-87975075D01*
X92490592Y-87954200D01*
X92358808Y-87954200D01*
X92280900Y-87975075D01*
X92231509Y-87988309D01*
X92117390Y-88054196D01*
X92024196Y-88147390D01*
X91958309Y-88261509D01*
X91958308Y-88261514D01*
X91924200Y-88388808D01*
X90153114Y-88388808D01*
X90117089Y-88368009D01*
X90117091Y-88368009D01*
X90067699Y-88354775D01*
X89989792Y-88333900D01*
X89858008Y-88333900D01*
X89780100Y-88354775D01*
X89730709Y-88368009D01*
X89616590Y-88433896D01*
X89523396Y-88527090D01*
X89457509Y-88641209D01*
X89438439Y-88712378D01*
X89423400Y-88768508D01*
X89423400Y-88900292D01*
X89453479Y-89012551D01*
X89457509Y-89027590D01*
X89523396Y-89141709D01*
X89523398Y-89141711D01*
X89523400Y-89141714D01*
X89531882Y-89150196D01*
X89559658Y-89204711D01*
X89550087Y-89265143D01*
X89511378Y-89305934D01*
X89412888Y-89362798D01*
X89319696Y-89455990D01*
X89253809Y-89570109D01*
X89253808Y-89570114D01*
X89219700Y-89697408D01*
X85323346Y-89697408D01*
X85285589Y-89675609D01*
X85285591Y-89675609D01*
X85236199Y-89662375D01*
X85158292Y-89641500D01*
X85026508Y-89641500D01*
X84948600Y-89662375D01*
X84899209Y-89675609D01*
X84785090Y-89741496D01*
X84691896Y-89834690D01*
X84626009Y-89948809D01*
X84606939Y-90019978D01*
X84591900Y-90076108D01*
X82300500Y-90076108D01*
X82300500Y-88001952D01*
X82300576Y-87998065D01*
X82302054Y-87960438D01*
X82317917Y-87556695D01*
X82318527Y-87548957D01*
X82370215Y-87112245D01*
X82371424Y-87104607D01*
X82457222Y-86673271D01*
X82459028Y-86665749D01*
X82537773Y-86386542D01*
X85138200Y-86386542D01*
X85138200Y-86533457D01*
X85166860Y-86677541D01*
X85166860Y-86677543D01*
X85223078Y-86813266D01*
X85223078Y-86813267D01*
X85235729Y-86832200D01*
X85304699Y-86935420D01*
X85408580Y-87039301D01*
X85530731Y-87120920D01*
X85666458Y-87177140D01*
X85810545Y-87205800D01*
X85810547Y-87205800D01*
X85957453Y-87205800D01*
X85957455Y-87205800D01*
X86101542Y-87177140D01*
X86237269Y-87120920D01*
X86359420Y-87039301D01*
X86463301Y-86935420D01*
X86544920Y-86813269D01*
X86601140Y-86677542D01*
X86629800Y-86533455D01*
X86629800Y-86386545D01*
X86629799Y-86386542D01*
X87170200Y-86386542D01*
X87170200Y-86533457D01*
X87198860Y-86677541D01*
X87198860Y-86677543D01*
X87255078Y-86813266D01*
X87255078Y-86813267D01*
X87267729Y-86832200D01*
X87336699Y-86935420D01*
X87440580Y-87039301D01*
X87562731Y-87120920D01*
X87698458Y-87177140D01*
X87842545Y-87205800D01*
X87842547Y-87205800D01*
X87989453Y-87205800D01*
X87989455Y-87205800D01*
X88133542Y-87177140D01*
X88222590Y-87140254D01*
X88283586Y-87135454D01*
X88335755Y-87167424D01*
X88359170Y-87223952D01*
X88356102Y-87257340D01*
X88349600Y-87281605D01*
X88349600Y-87281608D01*
X88349600Y-87413392D01*
X88352948Y-87425886D01*
X88383709Y-87540690D01*
X88449596Y-87654809D01*
X88449598Y-87654811D01*
X88449600Y-87654814D01*
X88542786Y-87748000D01*
X88542788Y-87748001D01*
X88542790Y-87748003D01*
X88656910Y-87813890D01*
X88656908Y-87813890D01*
X88656912Y-87813891D01*
X88656914Y-87813892D01*
X88784208Y-87848000D01*
X88784210Y-87848000D01*
X88915990Y-87848000D01*
X88915992Y-87848000D01*
X89043286Y-87813892D01*
X89043288Y-87813890D01*
X89043290Y-87813890D01*
X89157409Y-87748003D01*
X89157409Y-87748002D01*
X89157414Y-87748000D01*
X89250600Y-87654814D01*
X89307243Y-87556706D01*
X89316490Y-87540690D01*
X89316490Y-87540688D01*
X89316492Y-87540686D01*
X89350600Y-87413392D01*
X89350600Y-87281608D01*
X89319840Y-87166808D01*
X92912800Y-87166808D01*
X92912800Y-87298592D01*
X92942879Y-87410851D01*
X92946909Y-87425890D01*
X93012796Y-87540009D01*
X93012798Y-87540011D01*
X93012800Y-87540014D01*
X93105986Y-87633200D01*
X93105988Y-87633201D01*
X93105990Y-87633203D01*
X93220110Y-87699090D01*
X93220108Y-87699090D01*
X93220112Y-87699091D01*
X93220114Y-87699092D01*
X93347408Y-87733200D01*
X93347410Y-87733200D01*
X93479190Y-87733200D01*
X93479192Y-87733200D01*
X93606486Y-87699092D01*
X93606488Y-87699090D01*
X93606490Y-87699090D01*
X93720609Y-87633203D01*
X93720609Y-87633202D01*
X93720614Y-87633200D01*
X93813800Y-87540014D01*
X93879692Y-87425886D01*
X93913800Y-87298592D01*
X93913800Y-87166808D01*
X93879692Y-87039514D01*
X93879690Y-87039511D01*
X93879690Y-87039509D01*
X93813803Y-86925390D01*
X93813801Y-86925388D01*
X93813800Y-86925386D01*
X93720614Y-86832200D01*
X93720611Y-86832198D01*
X93720609Y-86832196D01*
X93606489Y-86766309D01*
X93606491Y-86766309D01*
X93557099Y-86753075D01*
X93479192Y-86732200D01*
X93347408Y-86732200D01*
X93269500Y-86753075D01*
X93220109Y-86766309D01*
X93105990Y-86832196D01*
X93012796Y-86925390D01*
X92946909Y-87039509D01*
X92946908Y-87039514D01*
X92912800Y-87166808D01*
X89319840Y-87166808D01*
X89316492Y-87154314D01*
X89316490Y-87154311D01*
X89316490Y-87154309D01*
X89250603Y-87040190D01*
X89250601Y-87040188D01*
X89250600Y-87040186D01*
X89157414Y-86947000D01*
X89157411Y-86946998D01*
X89157409Y-86946996D01*
X89043289Y-86881109D01*
X89043291Y-86881109D01*
X88993899Y-86867875D01*
X88915992Y-86847000D01*
X88784208Y-86847000D01*
X88784205Y-86847000D01*
X88729234Y-86861729D01*
X88668133Y-86858526D01*
X88620584Y-86820020D01*
X88604749Y-86760919D01*
X88612147Y-86728223D01*
X88633140Y-86677542D01*
X88661800Y-86533455D01*
X88661800Y-86386545D01*
X88633140Y-86242458D01*
X88576921Y-86106733D01*
X88576921Y-86106732D01*
X88556585Y-86076298D01*
X88495301Y-85984580D01*
X88391420Y-85880699D01*
X88269269Y-85799080D01*
X88269268Y-85799079D01*
X88269266Y-85799078D01*
X88133542Y-85742860D01*
X87989457Y-85714200D01*
X87989455Y-85714200D01*
X87842545Y-85714200D01*
X87842542Y-85714200D01*
X87698458Y-85742860D01*
X87698456Y-85742860D01*
X87562733Y-85799078D01*
X87562732Y-85799078D01*
X87440580Y-85880699D01*
X87440576Y-85880702D01*
X87336702Y-85984576D01*
X87336699Y-85984580D01*
X87255078Y-86106732D01*
X87255078Y-86106733D01*
X87198860Y-86242456D01*
X87198860Y-86242458D01*
X87170200Y-86386542D01*
X86629799Y-86386542D01*
X86601140Y-86242458D01*
X86544921Y-86106733D01*
X86544921Y-86106732D01*
X86524585Y-86076298D01*
X86463301Y-85984580D01*
X86359420Y-85880699D01*
X86237269Y-85799080D01*
X86237268Y-85799079D01*
X86237266Y-85799078D01*
X86101542Y-85742860D01*
X85957457Y-85714200D01*
X85957455Y-85714200D01*
X85810545Y-85714200D01*
X85810542Y-85714200D01*
X85666458Y-85742860D01*
X85666456Y-85742860D01*
X85530733Y-85799078D01*
X85530732Y-85799078D01*
X85408580Y-85880699D01*
X85408576Y-85880702D01*
X85304702Y-85984576D01*
X85304699Y-85984580D01*
X85223078Y-86106732D01*
X85223078Y-86106733D01*
X85166860Y-86242456D01*
X85166860Y-86242458D01*
X85138200Y-86386542D01*
X82537773Y-86386542D01*
X82578402Y-86242483D01*
X82580798Y-86235110D01*
X82733012Y-85822516D01*
X82735968Y-85815380D01*
X82920086Y-85415998D01*
X82923595Y-85409111D01*
X83138490Y-85025387D01*
X83142521Y-85018809D01*
X83386865Y-84653123D01*
X83391403Y-84646877D01*
X83663658Y-84301525D01*
X83668703Y-84295618D01*
X83705309Y-84256018D01*
X83967216Y-83972688D01*
X83972688Y-83967216D01*
X84295622Y-83668699D01*
X84301529Y-83663655D01*
X84456157Y-83541756D01*
X84646877Y-83391403D01*
X84653123Y-83386865D01*
X85018809Y-83142521D01*
X85025387Y-83138490D01*
X85409111Y-82923595D01*
X85415998Y-82920086D01*
X85815380Y-82735968D01*
X85822516Y-82733012D01*
X86235127Y-82580791D01*
X86242483Y-82578402D01*
X86665749Y-82459028D01*
X86673271Y-82457222D01*
X87104607Y-82371424D01*
X87112245Y-82370215D01*
X87548968Y-82318526D01*
X87556695Y-82317917D01*
X87998066Y-82300576D01*
X88001953Y-82300500D01*
X88047595Y-82300500D01*
X93701000Y-82300500D01*
X93759191Y-82319407D01*
G37*
G04 #@! TD.AperFunction*
M02*
