G04 #@! TF.GenerationSoftware,KiCad,Pcbnew,10.0.2*
G04 #@! TF.CreationDate,2026-07-02T13:50:14-04:00*
G04 #@! TF.ProjectId,jrwatch,6a727761-7463-4682-9e6b-696361645f70,rev?*
G04 #@! TF.SameCoordinates,Original*
G04 #@! TF.FileFunction,Soldermask,Bot*
G04 #@! TF.FilePolarity,Negative*
%FSLAX46Y46*%
G04 Gerber Fmt 4.6, Leading zero omitted, Abs format (unit mm)*
G04 Created by KiCad (PCBNEW 10.0.2) date 2026-07-02 13:50:14*
%MOMM*%
%LPD*%
G01*
G04 APERTURE LIST*
G04 Aperture macros list*
%AMRoundRect*
0 Rectangle with rounded corners*
0 $1 Rounding radius*
0 $2 $3 $4 $5 $6 $7 $8 $9 X,Y pos of 4 corners*
0 Add a 4 corners polygon primitive as box body*
4,1,4,$2,$3,$4,$5,$6,$7,$8,$9,$2,$3,0*
0 Add four circle primitives for the rounded corners*
1,1,$1+$1,$2,$3*
1,1,$1+$1,$4,$5*
1,1,$1+$1,$6,$7*
1,1,$1+$1,$8,$9*
0 Add four rect primitives between the rounded corners*
20,1,$1+$1,$2,$3,$4,$5,0*
20,1,$1+$1,$4,$5,$6,$7,0*
20,1,$1+$1,$6,$7,$8,$9,0*
20,1,$1+$1,$8,$9,$2,$3,0*%
G04 Aperture macros list end*
%ADD10RoundRect,0.142500X0.707500X-0.332500X0.707500X0.332500X-0.707500X0.332500X-0.707500X-0.332500X0*%
%ADD11RoundRect,0.062500X-0.062500X0.117500X-0.062500X-0.117500X0.062500X-0.117500X0.062500X0.117500X0*%
%ADD12RoundRect,0.225000X0.250000X-0.225000X0.250000X0.225000X-0.250000X0.225000X-0.250000X-0.225000X0*%
%ADD13RoundRect,0.140000X0.140000X0.170000X-0.140000X0.170000X-0.140000X-0.170000X0.140000X-0.170000X0*%
%ADD14RoundRect,0.135000X0.135000X0.185000X-0.135000X0.185000X-0.135000X-0.185000X0.135000X-0.185000X0*%
%ADD15RoundRect,0.140000X0.170000X-0.140000X0.170000X0.140000X-0.170000X0.140000X-0.170000X-0.140000X0*%
%ADD16RoundRect,0.150000X0.150000X-0.512500X0.150000X0.512500X-0.150000X0.512500X-0.150000X-0.512500X0*%
%ADD17R,1.000000X1.800000*%
%ADD18C,0.900000*%
%ADD19RoundRect,0.187500X0.712500X-0.187500X0.712500X0.187500X-0.712500X0.187500X-0.712500X-0.187500X0*%
%ADD20RoundRect,0.150000X0.750000X-0.150000X0.750000X0.150000X-0.750000X0.150000X-0.750000X-0.150000X0*%
%ADD21RoundRect,0.225000X0.225000X-0.425000X0.225000X0.425000X-0.225000X0.425000X-0.225000X-0.425000X0*%
%ADD22RoundRect,0.135000X0.185000X-0.135000X0.185000X0.135000X-0.185000X0.135000X-0.185000X-0.135000X0*%
%ADD23RoundRect,0.140000X-0.170000X0.140000X-0.170000X-0.140000X0.170000X-0.140000X0.170000X0.140000X0*%
%ADD24RoundRect,0.150000X0.625000X-0.150000X0.625000X0.150000X-0.625000X0.150000X-0.625000X-0.150000X0*%
%ADD25RoundRect,0.250000X0.650000X-0.350000X0.650000X0.350000X-0.650000X0.350000X-0.650000X-0.350000X0*%
%ADD26C,0.990600*%
%ADD27C,0.787400*%
%ADD28R,0.675000X0.250000*%
%ADD29R,0.250000X0.675000*%
%ADD30R,0.600000X0.400000*%
%ADD31R,0.400000X0.600000*%
%ADD32RoundRect,0.062500X0.337500X0.062500X-0.337500X0.062500X-0.337500X-0.062500X0.337500X-0.062500X0*%
%ADD33RoundRect,0.062500X0.062500X0.337500X-0.062500X0.337500X-0.062500X-0.337500X0.062500X-0.337500X0*%
%ADD34R,3.500000X3.500000*%
%ADD35C,0.650000*%
%ADD36RoundRect,0.150000X0.150000X0.575000X-0.150000X0.575000X-0.150000X-0.575000X0.150000X-0.575000X0*%
%ADD37RoundRect,0.075000X0.075000X0.650000X-0.075000X0.650000X-0.075000X-0.650000X0.075000X-0.650000X0*%
%ADD38O,1.000000X1.600000*%
%ADD39O,1.000000X2.100000*%
G04 APERTURE END LIST*
D10*
X98000000Y-106850000D03*
X98000000Y-105150000D03*
D11*
X112600000Y-95420000D03*
X112600000Y-94580000D03*
D12*
X86300000Y-110925000D03*
X86300000Y-109375000D03*
D13*
X89680000Y-100000000D03*
X88720000Y-100000000D03*
D14*
X92710000Y-89400000D03*
X91690000Y-89400000D03*
D15*
X84700000Y-104280000D03*
X84700000Y-103320000D03*
D16*
X93150000Y-110737500D03*
X92200000Y-110737500D03*
X91250000Y-110737500D03*
X91250000Y-108462500D03*
X92200000Y-108462500D03*
X93150000Y-108462500D03*
D17*
X102150000Y-100300000D03*
X104650000Y-100300000D03*
D12*
X86300000Y-107875000D03*
X86300000Y-106325000D03*
D18*
X115900000Y-108125000D03*
X115900000Y-103875000D03*
D19*
X116800000Y-107225000D03*
X116800000Y-104775000D03*
D20*
X116800000Y-106000000D03*
D21*
X114850000Y-107850000D03*
X114850000Y-104150000D03*
D13*
X91730000Y-100000000D03*
X90770000Y-100000000D03*
D15*
X84700000Y-107480000D03*
X84700000Y-106520000D03*
D18*
X115900000Y-97125000D03*
X115900000Y-92875000D03*
D19*
X116800000Y-96225000D03*
X116800000Y-93775000D03*
D20*
X116800000Y-95000000D03*
D21*
X114850000Y-96850000D03*
X114850000Y-93150000D03*
D12*
X100600000Y-106975000D03*
X100600000Y-105425000D03*
D11*
X112600000Y-106420000D03*
X112600000Y-105580000D03*
D12*
X95400000Y-101675000D03*
X95400000Y-100125000D03*
X86300000Y-104825000D03*
X86300000Y-103275000D03*
D13*
X93780000Y-100000000D03*
X92820000Y-100000000D03*
D12*
X86300000Y-101775000D03*
X86300000Y-100225000D03*
D22*
X110900000Y-106510000D03*
X110900000Y-105490000D03*
X92200000Y-97410000D03*
X92200000Y-96390000D03*
D13*
X93680000Y-98600000D03*
X92720000Y-98600000D03*
D10*
X98000000Y-103250000D03*
X98000000Y-101550000D03*
D23*
X102100000Y-102170000D03*
X102100000Y-103130000D03*
D14*
X110510000Y-101500000D03*
X109490000Y-101500000D03*
D24*
X87400000Y-97500000D03*
X87400000Y-96500000D03*
D25*
X83525000Y-98800000D03*
X83525000Y-95200000D03*
D26*
X86900000Y-91540000D03*
X85884000Y-86460000D03*
X87916000Y-86460000D03*
D27*
X86265000Y-90270000D03*
X87535000Y-90270000D03*
X86265000Y-89000000D03*
X87535000Y-89000000D03*
X86265000Y-87730000D03*
X87535000Y-87730000D03*
D22*
X93600000Y-97410000D03*
X93600000Y-96390000D03*
D28*
X92262500Y-91250000D03*
X92262500Y-91750000D03*
X92262500Y-92250000D03*
X92262500Y-92750000D03*
D29*
X91500000Y-93012500D03*
X91000000Y-93012500D03*
X90500000Y-93012500D03*
D28*
X89737500Y-92750000D03*
X89737500Y-92250000D03*
X89737500Y-91750000D03*
X89737500Y-91250000D03*
D29*
X90500000Y-90987500D03*
X91000000Y-90987500D03*
X91500000Y-90987500D03*
D30*
X104650000Y-86800000D03*
X104650000Y-87900000D03*
X104650000Y-88700000D03*
X104650000Y-90300000D03*
X103750000Y-90700000D03*
X104650000Y-91100000D03*
X103750000Y-91500000D03*
X104650000Y-91900000D03*
X103750000Y-92300000D03*
X104650000Y-92700000D03*
X103750000Y-93100000D03*
X104650000Y-93500000D03*
X103750000Y-93900000D03*
X104650000Y-94300000D03*
D31*
X104800000Y-97700000D03*
X104000000Y-97700000D03*
X103200000Y-97700000D03*
X102400000Y-97700000D03*
X102000000Y-96800000D03*
X101600000Y-97700000D03*
X101200000Y-96800000D03*
X100800000Y-97700000D03*
X100400000Y-96800000D03*
X100000000Y-97700000D03*
X99600000Y-96800000D03*
X99200000Y-97700000D03*
X98800000Y-96800000D03*
X98400000Y-97700000D03*
X98000000Y-96800000D03*
X97600000Y-97700000D03*
X96800000Y-97700000D03*
X96000000Y-97700000D03*
X95200000Y-97700000D03*
D30*
X95350000Y-96700000D03*
X95350000Y-95900000D03*
X96250000Y-95500000D03*
X95350000Y-95100000D03*
X96250000Y-94700000D03*
X95350000Y-94300000D03*
X96250000Y-93900000D03*
X95350000Y-93500000D03*
X96250000Y-93100000D03*
X96250000Y-92300000D03*
X95350000Y-91900000D03*
X96250000Y-91500000D03*
X95350000Y-91100000D03*
X96250000Y-90700000D03*
X95350000Y-90300000D03*
X96250000Y-89900000D03*
X96250000Y-89100000D03*
X95350000Y-88700000D03*
X96250000Y-88300000D03*
X95350000Y-87900000D03*
X96250000Y-87500000D03*
X95350000Y-86800000D03*
D31*
X102000000Y-91100000D03*
X101200000Y-91100000D03*
X100400000Y-91100000D03*
X99600000Y-91100000D03*
X98800000Y-91100000D03*
X98000000Y-91100000D03*
D14*
X110510000Y-103200000D03*
X109490000Y-103200000D03*
D13*
X92380000Y-94350000D03*
X91420000Y-94350000D03*
D15*
X97600000Y-100380000D03*
X97600000Y-99420000D03*
D32*
X93450000Y-102450000D03*
X93450000Y-102950000D03*
X93450000Y-103450000D03*
X93450000Y-103950000D03*
X93450000Y-104450000D03*
X93450000Y-104950000D03*
X93450000Y-105450000D03*
X93450000Y-105950000D03*
D33*
X92750000Y-106650000D03*
X92250000Y-106650000D03*
X91750000Y-106650000D03*
X91250000Y-106650000D03*
X90750000Y-106650000D03*
X90250000Y-106650000D03*
X89750000Y-106650000D03*
X89250000Y-106650000D03*
D32*
X88550000Y-105950000D03*
X88550000Y-105450000D03*
X88550000Y-104950000D03*
X88550000Y-104450000D03*
X88550000Y-103950000D03*
X88550000Y-103450000D03*
X88550000Y-102950000D03*
X88550000Y-102450000D03*
D33*
X89250000Y-101750000D03*
X89750000Y-101750000D03*
X90250000Y-101750000D03*
X90750000Y-101750000D03*
X91250000Y-101750000D03*
X91750000Y-101750000D03*
X92250000Y-101750000D03*
X92750000Y-101750000D03*
D34*
X91000000Y-104200000D03*
D12*
X100550000Y-101225000D03*
X100550000Y-99675000D03*
D23*
X104500000Y-102170000D03*
X104500000Y-103130000D03*
D35*
X102890000Y-111000000D03*
X97110000Y-111000000D03*
D36*
X103250000Y-109555000D03*
X102450000Y-109555000D03*
D37*
X101250000Y-109555000D03*
X100250000Y-109555000D03*
X99750000Y-109555000D03*
X98750000Y-109555000D03*
D36*
X97550000Y-109555000D03*
X96750000Y-109555000D03*
X96750000Y-109555000D03*
X97550000Y-109555000D03*
D37*
X98250000Y-109555000D03*
X99250000Y-109555000D03*
X100750000Y-109555000D03*
X101750000Y-109555000D03*
D36*
X102450000Y-109555000D03*
X103250000Y-109555000D03*
D38*
X104320000Y-114650000D03*
D39*
X104320000Y-110470000D03*
D38*
X95680000Y-114650000D03*
D39*
X95680000Y-110470000D03*
D14*
X84810000Y-93200000D03*
X83790000Y-93200000D03*
D22*
X110900000Y-95510000D03*
X110900000Y-94490000D03*
D13*
X90280000Y-94350000D03*
X89320000Y-94350000D03*
D15*
X99000000Y-100380000D03*
X99000000Y-99420000D03*
M02*
