G04 #@! TF.GenerationSoftware,KiCad,Pcbnew,10.0.2*
G04 #@! TF.CreationDate,2026-07-02T13:50:14-04:00*
G04 #@! TF.ProjectId,jrwatch,6a727761-7463-4682-9e6b-696361645f70,rev?*
G04 #@! TF.SameCoordinates,Original*
G04 #@! TF.FileFunction,Copper,L1,Top*
G04 #@! TF.FilePolarity,Positive*
%FSLAX46Y46*%
G04 Gerber Fmt 4.6, Leading zero omitted, Abs format (unit mm)*
G04 Created by KiCad (PCBNEW 10.0.2) date 2026-07-02 13:50:14*
%MOMM*%
%LPD*%
G01*
G04 APERTURE LIST*
G04 Aperture macros list*
%AMRoundRect*
0 Rectangle with rounded corners*
0 $1 Rounding radius*
0 $2 $3 $4 $5 $6 $7 $8 $9 X,Y pos of 4 corners*
0 Add a 4 corners polygon primitive as box body*
4,1,4,$2,$3,$4,$5,$6,$7,$8,$9,$2,$3,0*
0 Add four circle primitives for the rounded corners*
1,1,$1+$1,$2,$3*
1,1,$1+$1,$4,$5*
1,1,$1+$1,$6,$7*
1,1,$1+$1,$8,$9*
0 Add four rect primitives between the rounded corners*
20,1,$1+$1,$2,$3,$4,$5,0*
20,1,$1+$1,$4,$5,$6,$7,0*
20,1,$1+$1,$6,$7,$8,$9,0*
20,1,$1+$1,$8,$9,$2,$3,0*%
G04 Aperture macros list end*
G04 #@! TA.AperFunction,SMDPad,CuDef*
%ADD10R,0.300000X1.300000*%
G04 #@! TD*
G04 #@! TA.AperFunction,SMDPad,CuDef*
%ADD11R,1.800000X2.200000*%
G04 #@! TD*
G04 #@! TA.AperFunction,SMDPad,CuDef*
%ADD12RoundRect,0.140000X-0.140000X-0.170000X0.140000X-0.170000X0.140000X0.170000X-0.140000X0.170000X0*%
G04 #@! TD*
G04 #@! TA.AperFunction,SMDPad,CuDef*
%ADD13RoundRect,0.135000X-0.135000X-0.185000X0.135000X-0.185000X0.135000X0.185000X-0.135000X0.185000X0*%
G04 #@! TD*
G04 #@! TA.AperFunction,HeatsinkPad*
%ADD14C,0.600000*%
G04 #@! TD*
G04 #@! TA.AperFunction,HeatsinkPad*
%ADD15R,3.500000X3.500000*%
G04 #@! TD*
G04 #@! TA.AperFunction,ComponentPad*
%ADD16O,1.000000X1.600000*%
G04 #@! TD*
G04 #@! TA.AperFunction,ComponentPad*
%ADD17O,1.000000X2.100000*%
G04 #@! TD*
G04 #@! TA.AperFunction,ViaPad*
%ADD18C,0.600000*%
G04 #@! TD*
G04 #@! TA.AperFunction,ViaPad*
%ADD19C,0.480000*%
G04 #@! TD*
G04 #@! TA.AperFunction,ViaPad*
%ADD20C,0.500000*%
G04 #@! TD*
G04 #@! TA.AperFunction,Conductor*
%ADD21C,0.150000*%
G04 #@! TD*
G04 #@! TA.AperFunction,Conductor*
%ADD22C,0.350000*%
G04 #@! TD*
G04 #@! TA.AperFunction,Conductor*
%ADD23C,0.200000*%
G04 #@! TD*
G04 APERTURE END LIST*
D10*
X87050000Y-110650000D03*
X87550000Y-110650000D03*
X88050000Y-110650000D03*
X88550000Y-110650000D03*
X89050000Y-110650000D03*
X89550000Y-110650000D03*
X90050000Y-110650000D03*
X90550000Y-110650000D03*
X91050000Y-110650000D03*
X91550000Y-110650000D03*
D11*
X85150000Y-113900000D03*
X93450000Y-113900000D03*
D12*
X92670000Y-108500000D03*
X93630000Y-108500000D03*
X90620000Y-108500000D03*
X91580000Y-108500000D03*
X88570000Y-108500000D03*
X89530000Y-108500000D03*
X86520000Y-108500000D03*
X87480000Y-108500000D03*
D13*
X84440000Y-108500000D03*
X85460000Y-108500000D03*
D14*
X92450000Y-105650000D03*
X92450000Y-104200000D03*
X92450000Y-102750000D03*
X91000000Y-105650000D03*
X91000000Y-104200000D03*
D15*
X91000000Y-104200000D03*
D14*
X91000000Y-102750000D03*
X89550000Y-105650000D03*
X89550000Y-104200000D03*
X89550000Y-102750000D03*
D16*
X104320000Y-114650000D03*
D17*
X104320000Y-110470000D03*
D16*
X95680000Y-114650000D03*
D17*
X95680000Y-110470000D03*
D18*
X94245800Y-92974900D03*
X84210400Y-109340400D03*
X93261600Y-93562500D03*
X83519000Y-100435000D03*
X104608400Y-96107000D03*
X104752900Y-96936800D03*
X101713100Y-98933900D03*
X100362500Y-104518100D03*
X88517000Y-101746000D03*
X99400000Y-95000000D03*
X106000000Y-99400000D03*
X106000000Y-95000000D03*
X95000000Y-117000000D03*
X101600000Y-117000000D03*
X105700000Y-97700000D03*
X101600000Y-88400000D03*
X106000000Y-101600000D03*
X84000000Y-114800000D03*
X112600000Y-112600000D03*
X108200000Y-92800000D03*
X99400000Y-103800000D03*
X86200000Y-95000000D03*
X112600000Y-92800000D03*
X117000000Y-110400000D03*
X112600000Y-99400000D03*
X92800000Y-84000000D03*
X97200000Y-114800000D03*
X112600000Y-97200000D03*
X112600000Y-86200000D03*
X112600000Y-114800000D03*
X108200000Y-90600000D03*
X106000000Y-106000000D03*
X110400000Y-86200000D03*
X88400000Y-84000000D03*
X108200000Y-97200000D03*
X86200000Y-84000000D03*
X88400000Y-117000000D03*
X84000000Y-112600000D03*
X103800000Y-117000000D03*
X106000000Y-90600000D03*
X92800000Y-114800000D03*
X84000000Y-97200000D03*
X117000000Y-88400000D03*
X106000000Y-117000000D03*
X114800000Y-86200000D03*
X95150000Y-98700000D03*
X114800000Y-90600000D03*
X110400000Y-88400000D03*
X114800000Y-112600000D03*
X114800000Y-99400000D03*
X112600000Y-110400000D03*
X106000000Y-114800000D03*
X110400000Y-117000000D03*
X108200000Y-86200000D03*
X114800000Y-88400000D03*
X117000000Y-112600000D03*
X97200000Y-117000000D03*
X112600000Y-88400000D03*
X92800000Y-117000000D03*
X99400000Y-114800000D03*
X112600000Y-108200000D03*
X110400000Y-92800000D03*
X108200000Y-88400000D03*
X102100000Y-103900000D03*
X112600000Y-117000000D03*
X110400000Y-90600000D03*
X94450000Y-87200000D03*
X84000000Y-86200000D03*
X114800000Y-110400000D03*
X90600000Y-117000000D03*
X117000000Y-101600000D03*
X86200000Y-114800000D03*
X106000000Y-103800000D03*
X112600000Y-90600000D03*
X108200000Y-117000000D03*
X99400000Y-117000000D03*
X106000000Y-108200000D03*
X114800000Y-101600000D03*
X105850000Y-87950000D03*
X117000000Y-90600000D03*
X101500000Y-105425000D03*
X90600000Y-86200000D03*
X108200000Y-114800000D03*
X114800000Y-84000000D03*
X101600000Y-108200000D03*
X101600000Y-95000000D03*
X114800000Y-114800000D03*
X112600000Y-101600000D03*
X84000000Y-88400000D03*
X104500000Y-103900000D03*
X101600000Y-92800000D03*
X108200000Y-112600000D03*
X117000000Y-99400000D03*
X112600000Y-103800000D03*
X108200000Y-84000000D03*
X110400000Y-84000000D03*
X112600000Y-84000000D03*
X110400000Y-99400000D03*
X105550000Y-87200000D03*
X90600000Y-84000000D03*
X90814300Y-91911900D03*
X101500000Y-106975000D03*
X100000000Y-98450000D03*
D19*
X92750000Y-100970000D03*
X90750000Y-100970000D03*
D18*
X99000000Y-98450000D03*
D19*
X91750000Y-100970000D03*
D18*
X85092400Y-90142000D03*
X90766300Y-89002600D03*
X93007300Y-95538300D03*
X85241800Y-110065300D03*
X88198700Y-99003900D03*
X87164600Y-99455300D03*
X94583000Y-91007700D03*
X92424700Y-88454700D03*
X89720200Y-89763300D03*
X93413300Y-87232700D03*
X85025200Y-101878200D03*
X87278600Y-102230800D03*
X103135300Y-100265600D03*
X87600900Y-112286600D03*
X104565400Y-105116500D03*
X103233500Y-112789100D03*
X109183600Y-106662800D03*
X95915200Y-98596400D03*
X83443200Y-108905100D03*
X92174300Y-99272000D03*
D20*
X99850000Y-110850000D03*
X99450000Y-107550000D03*
X91250000Y-107500000D03*
X94450000Y-95600000D03*
D18*
X98239400Y-110810800D03*
X101600000Y-110750000D03*
X93725300Y-109608200D03*
X85209600Y-105357100D03*
X87752200Y-107182900D03*
X87237600Y-104118800D03*
D20*
X94450000Y-97000000D03*
X93150000Y-107500000D03*
D18*
X87076100Y-105586400D03*
X84383300Y-105253500D03*
X97385100Y-113174300D03*
X90851200Y-96532500D03*
X89863700Y-112806000D03*
X93463300Y-94312700D03*
X108040000Y-104203200D03*
X88637300Y-112471500D03*
X104436400Y-111976400D03*
X84921100Y-92364100D03*
X97822000Y-93570500D03*
X98382900Y-89596800D03*
X88850100Y-87347500D03*
X91004300Y-95585800D03*
X97768900Y-94901700D03*
X90533300Y-107604500D03*
X93806500Y-89826800D03*
X97342100Y-90871600D03*
X89923900Y-88834400D03*
X100000500Y-92759300D03*
X98097300Y-92373600D03*
X92187600Y-90653400D03*
X96943600Y-96889700D03*
X95382300Y-105449400D03*
X109654100Y-114479900D03*
X88947000Y-114961500D03*
X84648800Y-99802800D03*
X85568400Y-99236900D03*
D21*
X84360900Y-110591900D02*
X85470300Y-110591900D01*
X86287300Y-109774900D02*
X87550000Y-109774900D01*
X94245800Y-92974900D02*
X90179200Y-92974900D01*
X82886200Y-109117200D02*
X84360900Y-110591900D01*
X82886200Y-100267900D02*
X82886200Y-109117200D01*
X85470300Y-110591900D02*
X86287300Y-109774900D01*
X87550000Y-110650000D02*
X87550000Y-109774900D01*
X90179200Y-92974900D02*
X82886200Y-100267900D01*
X88050000Y-110650000D02*
X88050000Y-109774900D01*
X84440000Y-109340400D02*
X84210400Y-109340400D01*
X87615500Y-109340400D02*
X84440000Y-109340400D01*
X88050000Y-109774900D02*
X87615500Y-109340400D01*
X83519000Y-100190000D02*
X83519000Y-100435000D01*
X84440000Y-109340400D02*
X84440000Y-108500000D01*
X93261600Y-93562500D02*
X90146500Y-93562500D01*
X90146500Y-93562500D02*
X83519000Y-100190000D01*
X88550000Y-110650000D02*
X88550000Y-111549100D01*
X88827600Y-111826700D02*
X99588000Y-111826700D01*
X104673100Y-96107000D02*
X104608400Y-96107000D01*
X99588000Y-111826700D02*
X103708500Y-107706200D01*
X103708500Y-98899300D02*
X105322600Y-97285200D01*
X105322600Y-97285200D02*
X105322600Y-96756500D01*
X105322600Y-96756500D02*
X104673100Y-96107000D01*
X103708500Y-107706200D02*
X103708500Y-98899300D01*
X88550000Y-111549100D02*
X88827600Y-111826700D01*
X103710200Y-96936800D02*
X101713100Y-98933900D01*
X89050000Y-110650000D02*
X89050000Y-111525100D01*
X100362500Y-104518100D02*
X99712400Y-104518100D01*
X104752900Y-96936800D02*
X103710200Y-96936800D01*
X99712400Y-104518100D02*
X92705400Y-111525100D01*
X92705400Y-111525100D02*
X89050000Y-111525100D01*
D22*
X90550000Y-109674900D02*
X90550000Y-110650000D01*
X88517000Y-107848500D02*
X88570000Y-107848500D01*
X90550000Y-109246300D02*
X90550000Y-109674900D01*
X90620000Y-109176300D02*
X90550000Y-109246300D01*
X91993700Y-109176300D02*
X90620000Y-109176300D01*
X90620000Y-108500000D02*
X90620000Y-109176300D01*
X87089900Y-107848500D02*
X88517000Y-107848500D01*
X90050000Y-110162400D02*
X90050000Y-109818500D01*
X92670000Y-108500000D02*
X91993700Y-109176300D01*
X89550000Y-110650000D02*
X89550000Y-109674900D01*
X89906400Y-109674900D02*
X89550000Y-109674900D01*
X88570000Y-107848500D02*
X89893300Y-107848500D01*
X88570000Y-107848500D02*
X88570000Y-108500000D01*
X90050000Y-109818500D02*
X89906400Y-109674900D01*
X90550000Y-109674900D02*
X90050000Y-109674900D01*
X90544800Y-108500000D02*
X90620000Y-108500000D01*
X89893300Y-107848500D02*
X90544800Y-108500000D01*
X86520000Y-108500000D02*
X86520000Y-108418400D01*
X90050000Y-110650000D02*
X90050000Y-110162400D01*
X88517000Y-107848500D02*
X88517000Y-101746000D01*
X90050000Y-109818500D02*
X90050000Y-109674900D01*
X86520000Y-108418400D02*
X87089900Y-107848500D01*
X90646400Y-90388400D02*
X90646400Y-91744000D01*
X90646400Y-89122500D02*
X90646400Y-90388400D01*
X85338800Y-90388400D02*
X90646400Y-90388400D01*
X90646400Y-91744000D02*
X90814300Y-91911900D01*
X85092400Y-90142000D02*
X85338800Y-90388400D01*
X90766300Y-89002600D02*
X90646400Y-89122500D01*
X87747300Y-99455300D02*
X87164600Y-99455300D01*
X88198700Y-99003900D02*
X87747300Y-99455300D01*
D21*
X92424700Y-89187600D02*
X94244800Y-91007700D01*
X94244800Y-91007700D02*
X94583000Y-91007700D01*
X92424700Y-88454700D02*
X92424700Y-89187600D01*
X91625000Y-85444400D02*
X87532100Y-85444400D01*
X86900000Y-86943100D02*
X89720200Y-89763300D01*
X86900000Y-86076500D02*
X86900000Y-86943100D01*
X87532100Y-85444400D02*
X86900000Y-86076500D01*
X93413300Y-87232700D02*
X91625000Y-85444400D01*
D22*
X107637300Y-105116500D02*
X109183600Y-106662800D01*
X104565400Y-105116500D02*
X107637300Y-105116500D01*
X87278600Y-102004600D02*
X85151600Y-102004600D01*
X92174300Y-99272000D02*
X90011200Y-99272000D01*
X85151600Y-102004600D02*
X85025200Y-101878200D01*
X87278600Y-102004600D02*
X87278600Y-102230800D01*
X100897600Y-98408600D02*
X98730800Y-96241800D01*
X103135300Y-100265600D02*
X102094200Y-100265600D01*
X83443200Y-103713000D02*
X83443200Y-108905100D01*
X98730800Y-96241800D02*
X96663000Y-96241800D01*
X91100300Y-115818500D02*
X100204100Y-115818500D01*
X85151600Y-102004600D02*
X83443200Y-103713000D01*
X95915200Y-96989600D02*
X95915200Y-98596400D01*
X96663000Y-96241800D02*
X95915200Y-96989600D01*
X87600900Y-112286600D02*
X87600900Y-112319100D01*
X100897600Y-99069000D02*
X100897600Y-98408600D01*
X87600900Y-112319100D02*
X91100300Y-115818500D01*
X102094200Y-100265600D02*
X100897600Y-99069000D01*
X100204100Y-115818500D02*
X103233500Y-112789100D01*
X90011200Y-99272000D02*
X87278600Y-102004600D01*
D23*
X99850000Y-110850000D02*
X99850000Y-107950000D01*
X99850000Y-107950000D02*
X99450000Y-107550000D01*
X91250000Y-107500000D02*
X91900000Y-106850000D01*
X93550000Y-96300000D02*
X94050000Y-95800000D01*
X93550000Y-106500000D02*
X93550000Y-96300000D01*
X94050000Y-95800000D02*
X94450000Y-95600000D01*
X91900000Y-106850000D02*
X93200000Y-106850000D01*
X93200000Y-106850000D02*
X93550000Y-106500000D01*
D22*
X87752200Y-107182900D02*
X87752200Y-105364400D01*
X86872100Y-104484300D02*
X87237600Y-104118800D01*
X87752200Y-105364400D02*
X86872100Y-104484300D01*
X85209600Y-105357100D02*
X85999300Y-105357100D01*
X85999300Y-105357100D02*
X86872100Y-104484300D01*
D23*
X94500000Y-97300000D02*
X94450000Y-97000000D01*
X94500000Y-106150000D02*
X94500000Y-97300000D01*
X93150000Y-107500000D02*
X94500000Y-106150000D01*
D22*
X86635900Y-106026600D02*
X84994800Y-106026600D01*
X84994800Y-106026600D02*
X84383300Y-105415100D01*
X87076100Y-105586400D02*
X86635900Y-106026600D01*
X84383300Y-105415100D02*
X84383300Y-105253500D01*
D21*
X91527400Y-94312700D02*
X93463300Y-94312700D01*
X90479100Y-96160400D02*
X90479100Y-95361000D01*
X90094900Y-112574800D02*
X89863700Y-112806000D01*
X93463300Y-94312700D02*
X103629200Y-94312700D01*
X96785600Y-112574800D02*
X90094900Y-112574800D01*
X90851200Y-96532500D02*
X90479100Y-96160400D01*
X108040000Y-98723500D02*
X108040000Y-104203200D01*
X90479100Y-95361000D02*
X91527400Y-94312700D01*
X97385100Y-113174300D02*
X96785600Y-112574800D01*
X103629200Y-94312700D02*
X108040000Y-98723500D01*
X88844900Y-112263900D02*
X104148900Y-112263900D01*
X104148900Y-112263900D02*
X104436400Y-111976400D01*
X88637300Y-112471500D02*
X88844900Y-112263900D01*
X96701300Y-92449800D02*
X93207100Y-92449800D01*
X97822000Y-93570500D02*
X96701300Y-92449800D01*
X85072700Y-92515700D02*
X84921100Y-92364100D01*
X93207100Y-92449800D02*
X93141200Y-92515700D01*
X93141200Y-92515700D02*
X85072700Y-92515700D01*
X89378900Y-87876300D02*
X88850100Y-87347500D01*
X96662400Y-87876300D02*
X89378900Y-87876300D01*
X98382900Y-89596800D02*
X96662400Y-87876300D01*
X90750000Y-102000000D02*
X91260000Y-101350000D01*
X88998200Y-106069400D02*
X88998200Y-102352900D01*
X91259900Y-100781400D02*
X91716500Y-100324800D01*
X90020000Y-102170000D02*
X90750000Y-102000000D01*
X91259900Y-100933800D02*
X91259900Y-100781400D01*
X92699500Y-99587700D02*
X92699500Y-97281000D01*
X91004300Y-95585800D02*
X91688400Y-94901700D01*
X90533300Y-107604500D02*
X88998200Y-106069400D01*
X91962400Y-100324800D02*
X92699500Y-99587700D01*
X91260000Y-101350000D02*
X91260000Y-100930000D01*
X91716500Y-100324800D02*
X91962400Y-100324800D01*
X88998200Y-102352900D02*
X89177500Y-102173600D01*
X89177500Y-102173600D02*
X90020100Y-102173600D01*
X92699500Y-97281000D02*
X91004300Y-95585800D01*
X91688400Y-94901700D02*
X97768900Y-94901700D01*
X97342100Y-90871600D02*
X96297300Y-89826800D01*
X96297300Y-89826800D02*
X93806500Y-89826800D01*
X92804700Y-92026700D02*
X91332000Y-90554000D01*
X97892000Y-92917800D02*
X97000900Y-92026700D01*
X100000500Y-92759300D02*
X99842000Y-92917800D01*
X91332000Y-88807500D02*
X90979200Y-88454700D01*
X90979200Y-88454700D02*
X90303600Y-88454700D01*
X99842000Y-92917800D02*
X97892000Y-92917800D01*
X97000900Y-92026700D02*
X92804700Y-92026700D01*
X90303600Y-88454700D02*
X89923900Y-88834400D01*
X91332000Y-90554000D02*
X91332000Y-88807500D01*
X97260600Y-91536900D02*
X93071100Y-91536900D01*
X98097300Y-92373600D02*
X97260600Y-91536900D01*
X93071100Y-91536900D02*
X92187600Y-90653400D01*
X96943600Y-96889700D02*
X96943600Y-103888100D01*
X96943600Y-103888100D02*
X95382300Y-105449400D01*
X107882900Y-116251100D02*
X109654100Y-114479900D01*
X90236600Y-116251100D02*
X107882900Y-116251100D01*
X88947000Y-114961500D02*
X90236600Y-116251100D01*
X85214700Y-99236900D02*
X84648800Y-99802800D01*
X85568400Y-99236900D02*
X85214700Y-99236900D01*
G04 #@! TA.AperFunction,Conductor*
G36*
X89346151Y-112558307D02*
G01*
X89382115Y-112607807D01*
X89383586Y-112664022D01*
X89363200Y-112740108D01*
X89363200Y-112871892D01*
X89392464Y-112981109D01*
X89397309Y-112999190D01*
X89463196Y-113113309D01*
X89463198Y-113113311D01*
X89463200Y-113113314D01*
X89556386Y-113206500D01*
X89556388Y-113206501D01*
X89556390Y-113206503D01*
X89670510Y-113272390D01*
X89670508Y-113272390D01*
X89670512Y-113272391D01*
X89670514Y-113272392D01*
X89797808Y-113306500D01*
X89797810Y-113306500D01*
X89929590Y-113306500D01*
X89929592Y-113306500D01*
X90056886Y-113272392D01*
X90056888Y-113272390D01*
X90056890Y-113272390D01*
X90171009Y-113206503D01*
X90171009Y-113206502D01*
X90171014Y-113206500D01*
X90264200Y-113113314D01*
X90267032Y-113108409D01*
X90330090Y-112999190D01*
X90330090Y-112999188D01*
X90330092Y-112999186D01*
X90350324Y-112923675D01*
X90383648Y-112872363D01*
X90440770Y-112850436D01*
X90445951Y-112850300D01*
X96630477Y-112850300D01*
X96688668Y-112869207D01*
X96700481Y-112879296D01*
X96855604Y-113034419D01*
X96883381Y-113088936D01*
X96884600Y-113104423D01*
X96884600Y-113108408D01*
X96884600Y-113240192D01*
X96902367Y-113306500D01*
X96918709Y-113367490D01*
X96984596Y-113481609D01*
X96984598Y-113481611D01*
X96984600Y-113481614D01*
X97077786Y-113574800D01*
X97077788Y-113574801D01*
X97077790Y-113574803D01*
X97191910Y-113640690D01*
X97191908Y-113640690D01*
X97191912Y-113640691D01*
X97191914Y-113640692D01*
X97319208Y-113674800D01*
X97319210Y-113674800D01*
X97450990Y-113674800D01*
X97450992Y-113674800D01*
X97578286Y-113640692D01*
X97578288Y-113640690D01*
X97578290Y-113640690D01*
X97692409Y-113574803D01*
X97692409Y-113574802D01*
X97692414Y-113574800D01*
X97785600Y-113481614D01*
X97851492Y-113367486D01*
X97885600Y-113240192D01*
X97885600Y-113108408D01*
X97851492Y-112981114D01*
X97851490Y-112981111D01*
X97851490Y-112981109D01*
X97785603Y-112866990D01*
X97785601Y-112866988D01*
X97785600Y-112866986D01*
X97692414Y-112773800D01*
X97692411Y-112773798D01*
X97692409Y-112773796D01*
X97606395Y-112724136D01*
X97565454Y-112678667D01*
X97559058Y-112617817D01*
X97589651Y-112564829D01*
X97645547Y-112539942D01*
X97655895Y-112539400D01*
X102653232Y-112539400D01*
X102678931Y-112547750D01*
X102705189Y-112554130D01*
X102707712Y-112557101D01*
X102711423Y-112558307D01*
X102727311Y-112580174D01*
X102744799Y-112600764D01*
X102745044Y-112604582D01*
X102747387Y-112607807D01*
X102749433Y-112661774D01*
X102749160Y-112662896D01*
X102733000Y-112723208D01*
X102733000Y-112729408D01*
X102730201Y-112740929D01*
X102720062Y-112757371D01*
X102714093Y-112775746D01*
X102704004Y-112787559D01*
X100077559Y-115414004D01*
X100023042Y-115441781D01*
X100007555Y-115443000D01*
X91296845Y-115443000D01*
X91238654Y-115424093D01*
X91226841Y-115414004D01*
X88871152Y-113058315D01*
X88843375Y-113003798D01*
X88852946Y-112943366D01*
X88891655Y-112902575D01*
X88944614Y-112872000D01*
X89037800Y-112778814D01*
X89103692Y-112664686D01*
X89106954Y-112652510D01*
X89117602Y-112612776D01*
X89119073Y-112610510D01*
X89119073Y-112607807D01*
X89135613Y-112585041D01*
X89150926Y-112561462D01*
X89153448Y-112560493D01*
X89155037Y-112558307D01*
X89181796Y-112549612D01*
X89208048Y-112539536D01*
X89213228Y-112539400D01*
X89287960Y-112539400D01*
X89346151Y-112558307D01*
G37*
G04 #@! TD.AperFunction*
G04 #@! TA.AperFunction,Conductor*
G36*
X98592446Y-96636207D02*
G01*
X98604259Y-96646296D01*
X99801015Y-97843052D01*
X99828792Y-97897569D01*
X99819221Y-97958001D01*
X99780512Y-97998792D01*
X99692688Y-98049498D01*
X99599498Y-98142688D01*
X99585736Y-98166525D01*
X99540266Y-98207465D01*
X99479416Y-98213860D01*
X99426428Y-98183267D01*
X99414264Y-98166525D01*
X99400501Y-98142688D01*
X99400500Y-98142686D01*
X99307314Y-98049500D01*
X99307311Y-98049498D01*
X99307309Y-98049496D01*
X99193189Y-97983609D01*
X99193191Y-97983609D01*
X99143799Y-97970375D01*
X99065892Y-97949500D01*
X98934108Y-97949500D01*
X98856200Y-97970375D01*
X98806809Y-97983609D01*
X98692690Y-98049496D01*
X98599496Y-98142690D01*
X98533609Y-98256809D01*
X98524961Y-98289086D01*
X98499500Y-98384108D01*
X98499500Y-98515892D01*
X98523860Y-98606807D01*
X98533609Y-98643190D01*
X98599496Y-98757309D01*
X98599498Y-98757311D01*
X98599500Y-98757314D01*
X98692686Y-98850500D01*
X98692688Y-98850501D01*
X98692690Y-98850503D01*
X98806810Y-98916390D01*
X98806808Y-98916390D01*
X98806812Y-98916391D01*
X98806814Y-98916392D01*
X98934108Y-98950500D01*
X98934110Y-98950500D01*
X99065890Y-98950500D01*
X99065892Y-98950500D01*
X99193186Y-98916392D01*
X99193188Y-98916390D01*
X99193190Y-98916390D01*
X99307309Y-98850503D01*
X99307309Y-98850502D01*
X99307314Y-98850500D01*
X99400500Y-98757314D01*
X99414264Y-98733474D01*
X99459733Y-98692534D01*
X99520583Y-98686138D01*
X99573571Y-98716731D01*
X99585734Y-98733471D01*
X99599500Y-98757314D01*
X99692686Y-98850500D01*
X99692688Y-98850501D01*
X99692690Y-98850503D01*
X99806810Y-98916390D01*
X99806808Y-98916390D01*
X99806812Y-98916391D01*
X99806814Y-98916392D01*
X99934108Y-98950500D01*
X99934110Y-98950500D01*
X100065890Y-98950500D01*
X100065892Y-98950500D01*
X100193186Y-98916392D01*
X100193188Y-98916390D01*
X100193190Y-98916390D01*
X100307309Y-98850503D01*
X100307309Y-98850502D01*
X100307314Y-98850500D01*
X100353098Y-98804715D01*
X100407613Y-98776940D01*
X100468045Y-98786511D01*
X100511310Y-98829776D01*
X100522100Y-98874721D01*
X100522100Y-99118439D01*
X100524411Y-99127062D01*
X100524412Y-99127065D01*
X100536187Y-99171008D01*
X100547690Y-99213938D01*
X100591389Y-99289627D01*
X100597123Y-99299559D01*
X100597124Y-99299560D01*
X100597126Y-99299563D01*
X101793725Y-100496162D01*
X101793724Y-100496162D01*
X101863638Y-100566075D01*
X101949258Y-100615508D01*
X101949262Y-100615510D01*
X101996568Y-100628186D01*
X101996569Y-100628186D01*
X102044764Y-100641100D01*
X102044765Y-100641100D01*
X102761979Y-100641100D01*
X102820170Y-100660007D01*
X102822776Y-100662233D01*
X102822840Y-100662151D01*
X102827990Y-100666103D01*
X102942110Y-100731990D01*
X102942108Y-100731990D01*
X102942112Y-100731991D01*
X102942114Y-100731992D01*
X103069408Y-100766100D01*
X103069410Y-100766100D01*
X103201190Y-100766100D01*
X103201192Y-100766100D01*
X103308380Y-100737379D01*
X103369478Y-100740581D01*
X103417028Y-100779086D01*
X103433000Y-100833006D01*
X103433000Y-107551076D01*
X103414093Y-107609267D01*
X103404004Y-107621080D01*
X100390008Y-110635075D01*
X100370280Y-110645126D01*
X100352661Y-110658530D01*
X100343581Y-110658729D01*
X100335491Y-110662852D01*
X100313625Y-110659388D01*
X100291491Y-110659876D01*
X100285186Y-110654885D01*
X100275059Y-110653281D01*
X100241211Y-110625010D01*
X100237405Y-110620007D01*
X100210489Y-110573387D01*
X100174763Y-110537661D01*
X100170707Y-110532329D01*
X100162716Y-110509461D01*
X100151719Y-110487876D01*
X100150714Y-110475112D01*
X100150524Y-110474568D01*
X100150640Y-110474179D01*
X100150500Y-110472390D01*
X100150500Y-107910437D01*
X100150499Y-107910435D01*
X100130021Y-107834011D01*
X100130019Y-107834007D01*
X100090460Y-107765489D01*
X100034511Y-107709539D01*
X100034511Y-107709540D01*
X99929496Y-107604525D01*
X99901719Y-107550008D01*
X99900500Y-107534521D01*
X99900500Y-107490692D01*
X99900500Y-107490691D01*
X99869799Y-107376114D01*
X99869797Y-107376111D01*
X99869797Y-107376109D01*
X99810492Y-107273391D01*
X99810490Y-107273389D01*
X99810489Y-107273387D01*
X99726613Y-107189511D01*
X99726610Y-107189509D01*
X99726608Y-107189507D01*
X99623889Y-107130202D01*
X99623890Y-107130202D01*
X99610351Y-107126574D01*
X99509309Y-107099500D01*
X99390691Y-107099500D01*
X99325351Y-107117008D01*
X99276109Y-107130202D01*
X99173391Y-107189507D01*
X99089507Y-107273391D01*
X99030202Y-107376109D01*
X99030201Y-107376114D01*
X98999500Y-107490691D01*
X98999500Y-107609309D01*
X99016805Y-107673890D01*
X99030202Y-107723890D01*
X99089507Y-107826608D01*
X99089509Y-107826610D01*
X99089511Y-107826613D01*
X99173387Y-107910489D01*
X99173389Y-107910490D01*
X99173391Y-107910492D01*
X99276110Y-107969797D01*
X99276111Y-107969797D01*
X99276114Y-107969799D01*
X99390691Y-108000500D01*
X99434521Y-108000500D01*
X99442118Y-108002968D01*
X99450008Y-108001719D01*
X99470663Y-108012243D01*
X99492712Y-108019407D01*
X99504525Y-108029496D01*
X99520504Y-108045475D01*
X99548281Y-108099992D01*
X99549500Y-108115479D01*
X99549500Y-110472390D01*
X99530593Y-110530581D01*
X99520505Y-110542393D01*
X99489507Y-110573391D01*
X99430202Y-110676109D01*
X99418612Y-110719365D01*
X99399500Y-110790691D01*
X99399500Y-110909309D01*
X99424869Y-111003986D01*
X99430202Y-111023890D01*
X99489507Y-111126608D01*
X99489509Y-111126610D01*
X99489511Y-111126613D01*
X99573387Y-111210489D01*
X99573389Y-111210490D01*
X99573391Y-111210492D01*
X99614572Y-111234268D01*
X99655513Y-111279737D01*
X99661909Y-111340587D01*
X99635076Y-111390007D01*
X99502882Y-111522203D01*
X99448366Y-111549981D01*
X99432878Y-111551200D01*
X97611687Y-111551200D01*
X97553496Y-111532293D01*
X97517532Y-111482793D01*
X97517532Y-111421607D01*
X97541681Y-111382198D01*
X97570515Y-111353365D01*
X97646281Y-111222135D01*
X97664834Y-111152890D01*
X97698156Y-111101578D01*
X97755277Y-111079651D01*
X97814378Y-111095486D01*
X97834111Y-111113725D01*
X97834312Y-111113525D01*
X97838898Y-111118111D01*
X97838900Y-111118114D01*
X97932086Y-111211300D01*
X97932088Y-111211301D01*
X97932090Y-111211303D01*
X98046210Y-111277190D01*
X98046208Y-111277190D01*
X98046212Y-111277191D01*
X98046214Y-111277192D01*
X98173508Y-111311300D01*
X98173510Y-111311300D01*
X98305290Y-111311300D01*
X98305292Y-111311300D01*
X98432586Y-111277192D01*
X98432588Y-111277190D01*
X98432590Y-111277190D01*
X98546709Y-111211303D01*
X98546709Y-111211302D01*
X98546714Y-111211300D01*
X98639900Y-111118114D01*
X98642434Y-111113725D01*
X98705790Y-111003990D01*
X98705790Y-111003988D01*
X98705792Y-111003986D01*
X98739900Y-110876692D01*
X98739900Y-110744908D01*
X98705792Y-110617614D01*
X98705790Y-110617610D01*
X98705790Y-110617609D01*
X98639903Y-110503490D01*
X98639901Y-110503488D01*
X98639900Y-110503486D01*
X98546714Y-110410300D01*
X98546711Y-110410298D01*
X98546709Y-110410296D01*
X98432589Y-110344409D01*
X98432591Y-110344409D01*
X98383199Y-110331175D01*
X98305292Y-110310300D01*
X98173508Y-110310300D01*
X98095600Y-110331175D01*
X98046209Y-110344409D01*
X97932090Y-110410296D01*
X97838896Y-110503490D01*
X97773009Y-110617610D01*
X97773007Y-110617614D01*
X97765368Y-110646125D01*
X97732044Y-110697439D01*
X97674923Y-110719365D01*
X97615822Y-110703529D01*
X97584005Y-110670001D01*
X97570515Y-110646635D01*
X97463365Y-110539485D01*
X97463362Y-110539483D01*
X97463360Y-110539481D01*
X97332138Y-110463720D01*
X97332140Y-110463720D01*
X97275347Y-110448503D01*
X97185766Y-110424500D01*
X97034234Y-110424500D01*
X96944652Y-110448503D01*
X96887860Y-110463720D01*
X96756639Y-110539481D01*
X96649481Y-110646639D01*
X96573720Y-110777860D01*
X96551793Y-110859693D01*
X96534500Y-110924234D01*
X96534500Y-111075766D01*
X96555166Y-111152893D01*
X96573720Y-111222139D01*
X96649481Y-111353360D01*
X96649483Y-111353362D01*
X96649485Y-111353365D01*
X96678318Y-111382198D01*
X96706094Y-111436713D01*
X96696523Y-111497145D01*
X96653258Y-111540410D01*
X96608313Y-111551200D01*
X93307923Y-111551200D01*
X93249732Y-111532293D01*
X93213768Y-111482793D01*
X93213768Y-111421607D01*
X93237919Y-111382196D01*
X97711008Y-106909108D01*
X100999500Y-106909108D01*
X100999500Y-107040892D01*
X101010033Y-107080201D01*
X101033609Y-107168190D01*
X101099496Y-107282309D01*
X101099498Y-107282311D01*
X101099500Y-107282314D01*
X101192686Y-107375500D01*
X101192688Y-107375501D01*
X101192690Y-107375503D01*
X101306810Y-107441390D01*
X101306808Y-107441390D01*
X101306812Y-107441391D01*
X101306814Y-107441392D01*
X101434108Y-107475500D01*
X101434110Y-107475500D01*
X101565890Y-107475500D01*
X101565892Y-107475500D01*
X101693186Y-107441392D01*
X101693188Y-107441390D01*
X101693190Y-107441390D01*
X101807309Y-107375503D01*
X101807309Y-107375502D01*
X101807314Y-107375500D01*
X101900500Y-107282314D01*
X101945715Y-107204000D01*
X101966390Y-107168190D01*
X101966390Y-107168188D01*
X101966392Y-107168186D01*
X102000500Y-107040892D01*
X102000500Y-106909108D01*
X101966392Y-106781814D01*
X101966390Y-106781811D01*
X101966390Y-106781809D01*
X101900503Y-106667690D01*
X101900501Y-106667688D01*
X101900500Y-106667686D01*
X101807314Y-106574500D01*
X101807311Y-106574498D01*
X101807309Y-106574496D01*
X101693189Y-106508609D01*
X101693191Y-106508609D01*
X101643799Y-106495375D01*
X101565892Y-106474500D01*
X101434108Y-106474500D01*
X101356200Y-106495375D01*
X101306809Y-106508609D01*
X101192690Y-106574496D01*
X101099496Y-106667690D01*
X101033609Y-106781809D01*
X101033608Y-106781814D01*
X100999500Y-106909108D01*
X97711008Y-106909108D01*
X97787501Y-106832615D01*
X99797520Y-104822596D01*
X99804637Y-104818969D01*
X99809333Y-104812507D01*
X99831381Y-104805343D01*
X99852037Y-104794819D01*
X99867524Y-104793600D01*
X99889179Y-104793600D01*
X99947370Y-104812507D01*
X99959183Y-104822596D01*
X99961998Y-104825411D01*
X99962000Y-104825414D01*
X100055186Y-104918600D01*
X100055188Y-104918601D01*
X100055190Y-104918603D01*
X100169310Y-104984490D01*
X100169308Y-104984490D01*
X100169312Y-104984491D01*
X100169314Y-104984492D01*
X100296608Y-105018600D01*
X100296610Y-105018600D01*
X100428390Y-105018600D01*
X100428392Y-105018600D01*
X100555686Y-104984492D01*
X100555688Y-104984490D01*
X100555690Y-104984490D01*
X100669809Y-104918603D01*
X100669809Y-104918602D01*
X100669814Y-104918600D01*
X100763000Y-104825414D01*
X100770452Y-104812507D01*
X100828890Y-104711290D01*
X100828890Y-104711288D01*
X100828892Y-104711286D01*
X100863000Y-104583992D01*
X100863000Y-104452208D01*
X100828892Y-104324914D01*
X100828890Y-104324911D01*
X100828890Y-104324909D01*
X100763003Y-104210790D01*
X100763001Y-104210788D01*
X100763000Y-104210786D01*
X100669814Y-104117600D01*
X100669811Y-104117598D01*
X100669809Y-104117596D01*
X100555689Y-104051709D01*
X100555691Y-104051709D01*
X100506299Y-104038475D01*
X100428392Y-104017600D01*
X100296608Y-104017600D01*
X100218700Y-104038475D01*
X100169309Y-104051709D01*
X100055190Y-104117596D01*
X100055189Y-104117597D01*
X100055186Y-104117599D01*
X100055186Y-104117600D01*
X99962000Y-104210786D01*
X99961998Y-104210788D01*
X99959183Y-104213604D01*
X99904666Y-104241381D01*
X99889179Y-104242600D01*
X99657600Y-104242600D01*
X99593644Y-104269092D01*
X99593643Y-104269092D01*
X99556343Y-104284541D01*
X99556342Y-104284542D01*
X94362429Y-109478454D01*
X94307912Y-109506231D01*
X94247480Y-109496660D01*
X94204215Y-109453395D01*
X94196799Y-109434076D01*
X94191692Y-109415014D01*
X94191689Y-109415009D01*
X94125803Y-109300890D01*
X94125801Y-109300888D01*
X94125800Y-109300886D01*
X94032614Y-109207700D01*
X94032611Y-109207698D01*
X94032609Y-109207696D01*
X93918489Y-109141809D01*
X93918491Y-109141809D01*
X93869099Y-109128575D01*
X93791192Y-109107700D01*
X93659408Y-109107700D01*
X93581500Y-109128575D01*
X93532109Y-109141809D01*
X93417990Y-109207696D01*
X93324796Y-109300890D01*
X93258909Y-109415009D01*
X93258908Y-109415014D01*
X93224800Y-109542308D01*
X93224800Y-109674092D01*
X93240073Y-109731093D01*
X93258909Y-109801390D01*
X93324796Y-109915509D01*
X93324798Y-109915511D01*
X93324800Y-109915514D01*
X93417986Y-110008700D01*
X93417988Y-110008701D01*
X93417990Y-110008703D01*
X93532110Y-110074590D01*
X93532111Y-110074591D01*
X93532113Y-110074591D01*
X93532114Y-110074592D01*
X93551173Y-110079698D01*
X93602487Y-110113021D01*
X93624415Y-110170141D01*
X93608581Y-110229242D01*
X93595555Y-110245329D01*
X92620281Y-111220604D01*
X92565764Y-111248381D01*
X92550277Y-111249600D01*
X90999500Y-111249600D01*
X90941309Y-111230693D01*
X90905345Y-111181193D01*
X90900500Y-111150600D01*
X90900500Y-110805770D01*
X90903873Y-110780147D01*
X90925500Y-110699435D01*
X90925500Y-109650800D01*
X90944407Y-109592609D01*
X90993907Y-109556645D01*
X91024500Y-109551800D01*
X92043135Y-109551800D01*
X92043136Y-109551800D01*
X92111110Y-109533586D01*
X92138638Y-109526210D01*
X92224262Y-109476775D01*
X92294175Y-109406862D01*
X92294174Y-109406862D01*
X92661542Y-109039495D01*
X92716058Y-109011718D01*
X92731545Y-109010499D01*
X92849897Y-109010499D01*
X92849900Y-109010499D01*
X92899487Y-109003972D01*
X92899488Y-109003972D01*
X92985067Y-108964065D01*
X93008316Y-108953224D01*
X93093224Y-108868316D01*
X93143972Y-108759487D01*
X93150500Y-108709901D01*
X93150499Y-108290100D01*
X93143972Y-108240513D01*
X93143972Y-108240511D01*
X93093225Y-108131686D01*
X93093224Y-108131685D01*
X93093224Y-108131684D01*
X93081041Y-108119501D01*
X93053266Y-108064987D01*
X93062837Y-108004555D01*
X93106102Y-107961290D01*
X93151047Y-107950500D01*
X93209307Y-107950500D01*
X93209309Y-107950500D01*
X93323886Y-107919799D01*
X93323888Y-107919797D01*
X93323890Y-107919797D01*
X93426608Y-107860492D01*
X93426608Y-107860491D01*
X93426613Y-107860489D01*
X93510489Y-107776613D01*
X93549215Y-107709539D01*
X93569797Y-107673890D01*
X93569797Y-107673888D01*
X93569799Y-107673886D01*
X93600500Y-107559309D01*
X93600500Y-107515478D01*
X93619407Y-107457287D01*
X93629490Y-107445480D01*
X94740460Y-106334511D01*
X94751442Y-106315489D01*
X94780021Y-106265989D01*
X94800500Y-106189562D01*
X94800500Y-105812084D01*
X94819407Y-105753893D01*
X94868907Y-105717929D01*
X94930093Y-105717929D01*
X94978041Y-105751816D01*
X94981794Y-105756707D01*
X94981798Y-105756711D01*
X94981800Y-105756714D01*
X95074986Y-105849900D01*
X95074988Y-105849901D01*
X95074990Y-105849903D01*
X95189110Y-105915790D01*
X95189108Y-105915790D01*
X95189112Y-105915791D01*
X95189114Y-105915792D01*
X95316408Y-105949900D01*
X95316410Y-105949900D01*
X95448190Y-105949900D01*
X95448192Y-105949900D01*
X95575486Y-105915792D01*
X95575488Y-105915790D01*
X95575490Y-105915790D01*
X95689609Y-105849903D01*
X95689609Y-105849902D01*
X95689614Y-105849900D01*
X95782800Y-105756714D01*
X95827172Y-105679860D01*
X95848690Y-105642590D01*
X95848690Y-105642588D01*
X95848692Y-105642586D01*
X95882800Y-105515292D01*
X95882800Y-105383508D01*
X95882800Y-105379522D01*
X95901707Y-105321331D01*
X95911796Y-105309518D01*
X96193409Y-105027905D01*
X97177158Y-104044158D01*
X97192651Y-104006752D01*
X97219100Y-103942901D01*
X97219100Y-97363021D01*
X97238007Y-97304830D01*
X97248096Y-97293017D01*
X97250911Y-97290201D01*
X97250914Y-97290200D01*
X97344100Y-97197014D01*
X97345845Y-97193991D01*
X97409990Y-97082890D01*
X97409990Y-97082888D01*
X97409992Y-97082886D01*
X97444100Y-96955592D01*
X97444100Y-96823808D01*
X97422159Y-96741922D01*
X97425362Y-96680821D01*
X97463867Y-96633271D01*
X97517786Y-96617300D01*
X98534255Y-96617300D01*
X98592446Y-96636207D01*
G37*
G04 #@! TD.AperFunction*
G04 #@! TA.AperFunction,Conductor*
G36*
X88048691Y-108242907D02*
G01*
X88084655Y-108292407D01*
X88089500Y-108323000D01*
X88089500Y-108709896D01*
X88089501Y-108709907D01*
X88096027Y-108759486D01*
X88096027Y-108759488D01*
X88146774Y-108868313D01*
X88146775Y-108868314D01*
X88146776Y-108868316D01*
X88231684Y-108953224D01*
X88340513Y-109003972D01*
X88390099Y-109010500D01*
X88749900Y-109010499D01*
X88799487Y-109003972D01*
X88799488Y-109003972D01*
X88885067Y-108964065D01*
X88908316Y-108953224D01*
X88993224Y-108868316D01*
X89043972Y-108759487D01*
X89050500Y-108709901D01*
X89050499Y-108322999D01*
X89069406Y-108264809D01*
X89118906Y-108228845D01*
X89149499Y-108224000D01*
X89696755Y-108224000D01*
X89754946Y-108242907D01*
X89766759Y-108252996D01*
X90110504Y-108596741D01*
X90138281Y-108651258D01*
X90139500Y-108666743D01*
X90139500Y-108709894D01*
X90139501Y-108709907D01*
X90146027Y-108759486D01*
X90146027Y-108759488D01*
X90196774Y-108868313D01*
X90196775Y-108868314D01*
X90196776Y-108868316D01*
X90215505Y-108887045D01*
X90219130Y-108894160D01*
X90225593Y-108898856D01*
X90232756Y-108920904D01*
X90243281Y-108941560D01*
X90244500Y-108957047D01*
X90244500Y-108997913D01*
X90231237Y-109047412D01*
X90200090Y-109101360D01*
X90200090Y-109101362D01*
X90190898Y-109135664D01*
X90179160Y-109179472D01*
X90179158Y-109179479D01*
X90177856Y-109184342D01*
X90174500Y-109196865D01*
X90174500Y-109208337D01*
X90173234Y-109216179D01*
X90162713Y-109236674D01*
X90155593Y-109258591D01*
X90149009Y-109263374D01*
X90145294Y-109270613D01*
X90124735Y-109281010D01*
X90106093Y-109294555D01*
X90094244Y-109296431D01*
X90090694Y-109298227D01*
X90086837Y-109297604D01*
X90075500Y-109299400D01*
X90000565Y-109299400D01*
X90000562Y-109299400D01*
X89994136Y-109300247D01*
X89993910Y-109298534D01*
X89962492Y-109298531D01*
X89962267Y-109300247D01*
X89955837Y-109299400D01*
X89955836Y-109299400D01*
X89955835Y-109299400D01*
X89599435Y-109299400D01*
X89500565Y-109299400D01*
X89442114Y-109315061D01*
X89405057Y-109324991D01*
X89319440Y-109374423D01*
X89249523Y-109444340D01*
X89200091Y-109529957D01*
X89192940Y-109556645D01*
X89174501Y-109625464D01*
X89174500Y-109625466D01*
X89174500Y-109700500D01*
X89155593Y-109758691D01*
X89106093Y-109794655D01*
X89075500Y-109799500D01*
X88880248Y-109799500D01*
X88819314Y-109811621D01*
X88780686Y-109811621D01*
X88719751Y-109799500D01*
X88719748Y-109799500D01*
X88422541Y-109799500D01*
X88364350Y-109780593D01*
X88328386Y-109731093D01*
X88325548Y-109720214D01*
X88283559Y-109618844D01*
X88283558Y-109618843D01*
X88283558Y-109618842D01*
X87771558Y-109106843D01*
X87771556Y-109106842D01*
X87771555Y-109106841D01*
X87771556Y-109106841D01*
X87758326Y-109101361D01*
X87758326Y-109101362D01*
X87670300Y-109064900D01*
X87670299Y-109064900D01*
X86985647Y-109064900D01*
X86927456Y-109045993D01*
X86891492Y-108996493D01*
X86891492Y-108935307D01*
X86915641Y-108895898D01*
X86943224Y-108868316D01*
X86993972Y-108759487D01*
X87000500Y-108709901D01*
X87000499Y-108509942D01*
X87019406Y-108451753D01*
X87029489Y-108439946D01*
X87216441Y-108252996D01*
X87270958Y-108225219D01*
X87286444Y-108224000D01*
X87990500Y-108224000D01*
X88048691Y-108242907D01*
G37*
G04 #@! TD.AperFunction*
G04 #@! TA.AperFunction,Conductor*
G36*
X83937325Y-105541566D02*
G01*
X83948293Y-105541566D01*
X83975302Y-105558117D01*
X83983362Y-105561630D01*
X83985594Y-105563608D01*
X84075986Y-105654000D01*
X84109274Y-105673219D01*
X84116768Y-105679860D01*
X84121110Y-105683947D01*
X84764238Y-106327075D01*
X84764240Y-106327076D01*
X84764241Y-106327077D01*
X84764242Y-106327078D01*
X84849859Y-106376509D01*
X84849857Y-106376509D01*
X84849861Y-106376510D01*
X84849863Y-106376511D01*
X84945364Y-106402100D01*
X84945365Y-106402100D01*
X84945366Y-106402100D01*
X86685335Y-106402100D01*
X86685336Y-106402100D01*
X86752840Y-106384012D01*
X86780838Y-106376510D01*
X86866462Y-106327075D01*
X86936375Y-106257162D01*
X86936374Y-106257162D01*
X87077641Y-106115896D01*
X87132158Y-106088119D01*
X87135571Y-106087850D01*
X87135558Y-106087747D01*
X87141989Y-106086900D01*
X87141992Y-106086900D01*
X87252080Y-106057402D01*
X87313178Y-106060604D01*
X87360728Y-106099110D01*
X87376700Y-106153029D01*
X87376700Y-106809578D01*
X87357793Y-106867769D01*
X87355567Y-106870377D01*
X87355649Y-106870440D01*
X87351696Y-106875590D01*
X87285809Y-106989709D01*
X87266739Y-107060878D01*
X87251700Y-107117008D01*
X87251700Y-107248792D01*
X87278383Y-107348378D01*
X87275181Y-107409479D01*
X87236676Y-107457028D01*
X87182757Y-107473000D01*
X87139336Y-107473000D01*
X87040464Y-107473000D01*
X87001745Y-107483375D01*
X87001744Y-107483374D01*
X86944962Y-107498589D01*
X86944958Y-107498591D01*
X86859336Y-107548025D01*
X86859329Y-107548033D01*
X86446857Y-107960504D01*
X86392341Y-107988281D01*
X86376856Y-107989500D01*
X86340105Y-107989500D01*
X86340092Y-107989501D01*
X86290513Y-107996027D01*
X86290511Y-107996027D01*
X86181686Y-108046774D01*
X86096774Y-108131686D01*
X86046029Y-108240510D01*
X86046028Y-108240511D01*
X86039500Y-108290100D01*
X86039500Y-108709896D01*
X86039501Y-108709907D01*
X86046027Y-108759486D01*
X86046027Y-108759488D01*
X86096774Y-108868313D01*
X86096775Y-108868314D01*
X86096776Y-108868316D01*
X86124358Y-108895898D01*
X86152134Y-108950413D01*
X86142563Y-109010845D01*
X86099298Y-109054110D01*
X86054353Y-109064900D01*
X84908576Y-109064900D01*
X84850385Y-109045993D01*
X84814421Y-108996493D01*
X84814421Y-108935307D01*
X84838570Y-108895898D01*
X84854065Y-108880404D01*
X84904068Y-108773173D01*
X84910500Y-108724316D01*
X84910500Y-108275684D01*
X84904068Y-108226827D01*
X84903318Y-108225219D01*
X84854066Y-108119598D01*
X84854065Y-108119597D01*
X84854065Y-108119596D01*
X84770404Y-108035935D01*
X84770402Y-108035934D01*
X84770401Y-108035933D01*
X84663175Y-107985932D01*
X84630601Y-107981644D01*
X84614316Y-107979500D01*
X84265684Y-107979500D01*
X84249398Y-107981644D01*
X84216825Y-107985932D01*
X84216824Y-107985932D01*
X84109598Y-108035933D01*
X84025933Y-108119598D01*
X84007424Y-108159292D01*
X83965696Y-108204040D01*
X83905634Y-108215714D01*
X83850182Y-108189856D01*
X83820519Y-108136341D01*
X83818700Y-108117452D01*
X83818700Y-105635721D01*
X83824980Y-105616391D01*
X83826945Y-105596168D01*
X83834217Y-105587961D01*
X83837607Y-105577530D01*
X83854049Y-105565583D01*
X83867526Y-105550377D01*
X83878233Y-105548012D01*
X83887107Y-105541566D01*
X83907431Y-105541566D01*
X83927273Y-105537185D01*
X83937325Y-105541566D01*
G37*
G04 #@! TD.AperFunction*
G04 #@! TA.AperFunction,Conductor*
G36*
X92718310Y-107169407D02*
G01*
X92754274Y-107218907D01*
X92754274Y-107280093D01*
X92745855Y-107299001D01*
X92730202Y-107326111D01*
X92730201Y-107326113D01*
X92730201Y-107326114D01*
X92699500Y-107440691D01*
X92699500Y-107559309D01*
X92712897Y-107609307D01*
X92730202Y-107673890D01*
X92789507Y-107776608D01*
X92789509Y-107776610D01*
X92789511Y-107776613D01*
X92833396Y-107820498D01*
X92861172Y-107875013D01*
X92851601Y-107935445D01*
X92808336Y-107978710D01*
X92763391Y-107989500D01*
X92490104Y-107989500D01*
X92490092Y-107989501D01*
X92440513Y-107996027D01*
X92440511Y-107996027D01*
X92331686Y-108046774D01*
X92246774Y-108131686D01*
X92196029Y-108240510D01*
X92196028Y-108240511D01*
X92189500Y-108290100D01*
X92189500Y-108408454D01*
X92170593Y-108466645D01*
X92160504Y-108478457D01*
X91927049Y-108711914D01*
X91867160Y-108771803D01*
X91812643Y-108799581D01*
X91797156Y-108800800D01*
X91199500Y-108800800D01*
X91141309Y-108781893D01*
X91105345Y-108732393D01*
X91100500Y-108701800D01*
X91100499Y-108290103D01*
X91100498Y-108290092D01*
X91093972Y-108240513D01*
X91093972Y-108240511D01*
X91043225Y-108131686D01*
X91043224Y-108131685D01*
X91043224Y-108131684D01*
X91002999Y-108091459D01*
X90975224Y-108036945D01*
X90984795Y-107976513D01*
X91028060Y-107933248D01*
X91088492Y-107923677D01*
X91098616Y-107925828D01*
X91190691Y-107950500D01*
X91190693Y-107950500D01*
X91309307Y-107950500D01*
X91309309Y-107950500D01*
X91423886Y-107919799D01*
X91423888Y-107919797D01*
X91423890Y-107919797D01*
X91526608Y-107860492D01*
X91526608Y-107860491D01*
X91526613Y-107860489D01*
X91610489Y-107776613D01*
X91649215Y-107709539D01*
X91669797Y-107673890D01*
X91669797Y-107673888D01*
X91669799Y-107673886D01*
X91700500Y-107559309D01*
X91700500Y-107515478D01*
X91719407Y-107457288D01*
X91729496Y-107445475D01*
X91995475Y-107179496D01*
X92049992Y-107151719D01*
X92065479Y-107150500D01*
X92660119Y-107150500D01*
X92718310Y-107169407D01*
G37*
G04 #@! TD.AperFunction*
G04 #@! TA.AperFunction,Conductor*
G36*
X92314292Y-101107326D02*
G01*
X92334649Y-101135345D01*
X92336274Y-101134408D01*
X92397508Y-101240468D01*
X92397510Y-101240470D01*
X92397512Y-101240473D01*
X92479527Y-101322488D01*
X92479529Y-101322489D01*
X92479531Y-101322491D01*
X92579969Y-101380479D01*
X92579967Y-101380479D01*
X92579971Y-101380480D01*
X92579973Y-101380481D01*
X92692007Y-101410500D01*
X92692009Y-101410500D01*
X92807991Y-101410500D01*
X92807993Y-101410500D01*
X92920027Y-101380481D01*
X92920029Y-101380479D01*
X92920031Y-101380479D01*
X93020468Y-101322491D01*
X93020468Y-101322490D01*
X93020473Y-101322488D01*
X93080498Y-101262462D01*
X93135013Y-101234687D01*
X93195445Y-101244258D01*
X93238710Y-101287523D01*
X93249500Y-101332468D01*
X93249500Y-106334521D01*
X93247031Y-106342118D01*
X93248281Y-106350008D01*
X93237756Y-106370663D01*
X93230593Y-106392712D01*
X93220504Y-106404525D01*
X93104525Y-106520504D01*
X93050008Y-106548281D01*
X93034521Y-106549500D01*
X91860435Y-106549500D01*
X91784014Y-106569977D01*
X91784011Y-106569979D01*
X91728907Y-106601793D01*
X91720933Y-106606396D01*
X91715488Y-106609540D01*
X91304524Y-107020504D01*
X91250008Y-107048281D01*
X91234521Y-107049500D01*
X91190691Y-107049500D01*
X91139178Y-107063303D01*
X91076109Y-107080202D01*
X90973391Y-107139507D01*
X90973385Y-107139512D01*
X90937619Y-107175278D01*
X90883102Y-107203055D01*
X90822670Y-107193483D01*
X90818116Y-107191010D01*
X90726489Y-107138109D01*
X90726491Y-107138109D01*
X90677099Y-107124875D01*
X90599192Y-107104000D01*
X90467408Y-107104000D01*
X90463424Y-107104000D01*
X90405233Y-107085093D01*
X90393420Y-107075004D01*
X89302696Y-105984280D01*
X89274919Y-105929763D01*
X89273700Y-105914276D01*
X89273700Y-102548100D01*
X89292607Y-102489909D01*
X89342107Y-102453945D01*
X89372700Y-102449100D01*
X90019143Y-102449100D01*
X90029114Y-102450749D01*
X90036195Y-102449100D01*
X90074900Y-102449100D01*
X90117095Y-102431621D01*
X90132517Y-102426668D01*
X90797892Y-102271718D01*
X90837416Y-102266948D01*
X90850842Y-102259386D01*
X90855809Y-102258229D01*
X90865857Y-102255891D01*
X90893844Y-102235846D01*
X90902909Y-102230071D01*
X90932919Y-102213176D01*
X90942435Y-102201046D01*
X90954963Y-102192075D01*
X90975990Y-102158280D01*
X91462856Y-101537764D01*
X91470723Y-101528890D01*
X91493557Y-101506058D01*
X91494897Y-101502820D01*
X91496525Y-101499112D01*
X91501355Y-101488696D01*
X91510574Y-101476949D01*
X91516291Y-101456495D01*
X91519665Y-101449222D01*
X91535290Y-101432397D01*
X91548002Y-101413276D01*
X91555707Y-101410412D01*
X91561302Y-101404389D01*
X91583834Y-101399961D01*
X91605356Y-101391964D01*
X91617627Y-101393320D01*
X91621339Y-101392591D01*
X91624563Y-101394086D01*
X91635094Y-101395250D01*
X91692007Y-101410500D01*
X91692009Y-101410500D01*
X91807991Y-101410500D01*
X91807993Y-101410500D01*
X91920027Y-101380481D01*
X91920029Y-101380479D01*
X91920031Y-101380479D01*
X92020468Y-101322491D01*
X92020468Y-101322490D01*
X92020473Y-101322488D01*
X92102488Y-101240473D01*
X92106001Y-101234388D01*
X92163726Y-101134408D01*
X92166150Y-101135808D01*
X92198269Y-101098200D01*
X92257763Y-101083914D01*
X92314292Y-101107326D01*
G37*
G04 #@! TD.AperFunction*
G04 #@! TA.AperFunction,Conductor*
G36*
X103532268Y-94607107D02*
G01*
X103544081Y-94617196D01*
X104420524Y-95493639D01*
X104448301Y-95548156D01*
X104438730Y-95608588D01*
X104400020Y-95649379D01*
X104301090Y-95706496D01*
X104207896Y-95799690D01*
X104142009Y-95913809D01*
X104129501Y-95960492D01*
X104107900Y-96041108D01*
X104107900Y-96172892D01*
X104121912Y-96225186D01*
X104142009Y-96300190D01*
X104207896Y-96414309D01*
X104207898Y-96414311D01*
X104207900Y-96414314D01*
X104285884Y-96492298D01*
X104313660Y-96546813D01*
X104304089Y-96607245D01*
X104260824Y-96650510D01*
X104215879Y-96661300D01*
X103655400Y-96661300D01*
X103583972Y-96690887D01*
X103583971Y-96690887D01*
X103554144Y-96703241D01*
X101852980Y-98404404D01*
X101798463Y-98432181D01*
X101782976Y-98433400D01*
X101778992Y-98433400D01*
X101647208Y-98433400D01*
X101569300Y-98454275D01*
X101519909Y-98467509D01*
X101421600Y-98524269D01*
X101361752Y-98536991D01*
X101305856Y-98512104D01*
X101275263Y-98459116D01*
X101273100Y-98438533D01*
X101273100Y-98359166D01*
X101252943Y-98283940D01*
X101247510Y-98263662D01*
X101247508Y-98263659D01*
X101247508Y-98263657D01*
X101198075Y-98178038D01*
X101128162Y-98108124D01*
X101128162Y-98108125D01*
X98961363Y-95941326D01*
X98961363Y-95941325D01*
X98875741Y-95891891D01*
X98875737Y-95891889D01*
X98806892Y-95873442D01*
X98806891Y-95873442D01*
X98780238Y-95866300D01*
X98780236Y-95866300D01*
X98780235Y-95866300D01*
X96712436Y-95866300D01*
X96613564Y-95866300D01*
X96586907Y-95873443D01*
X96586906Y-95873442D01*
X96518062Y-95891889D01*
X96518058Y-95891891D01*
X96432436Y-95941325D01*
X96432437Y-95941326D01*
X95684638Y-96689125D01*
X95684637Y-96689124D01*
X95614724Y-96759038D01*
X95565291Y-96844658D01*
X95565290Y-96844660D01*
X95563315Y-96852032D01*
X95555285Y-96882000D01*
X95541989Y-96931624D01*
X95539700Y-96940165D01*
X95539700Y-96940167D01*
X95539700Y-98223078D01*
X95520793Y-98281269D01*
X95518567Y-98283877D01*
X95518649Y-98283940D01*
X95514696Y-98289090D01*
X95448809Y-98403209D01*
X95448808Y-98403214D01*
X95414700Y-98530508D01*
X95414700Y-98662292D01*
X95440160Y-98757312D01*
X95448809Y-98789590D01*
X95514696Y-98903709D01*
X95514698Y-98903711D01*
X95514700Y-98903714D01*
X95607886Y-98996900D01*
X95607888Y-98996901D01*
X95607890Y-98996903D01*
X95722010Y-99062790D01*
X95722008Y-99062790D01*
X95722012Y-99062791D01*
X95722014Y-99062792D01*
X95849308Y-99096900D01*
X95849310Y-99096900D01*
X95981090Y-99096900D01*
X95981092Y-99096900D01*
X96108386Y-99062792D01*
X96108388Y-99062790D01*
X96108390Y-99062790D01*
X96222509Y-98996903D01*
X96222509Y-98996902D01*
X96222514Y-98996900D01*
X96315700Y-98903714D01*
X96319650Y-98896873D01*
X96381590Y-98789590D01*
X96381590Y-98789588D01*
X96381592Y-98789586D01*
X96415700Y-98662292D01*
X96415700Y-98530508D01*
X96381592Y-98403214D01*
X96381590Y-98403211D01*
X96381590Y-98403209D01*
X96315703Y-98289090D01*
X96311751Y-98283940D01*
X96314101Y-98282135D01*
X96291906Y-98238482D01*
X96290700Y-98223078D01*
X96290700Y-97186143D01*
X96293168Y-97178545D01*
X96291919Y-97170656D01*
X96302443Y-97150000D01*
X96309607Y-97127952D01*
X96319685Y-97116151D01*
X96340498Y-97095338D01*
X96395012Y-97067563D01*
X96455444Y-97077134D01*
X96496235Y-97115843D01*
X96543098Y-97197011D01*
X96543100Y-97197014D01*
X96636286Y-97290200D01*
X96636288Y-97290201D01*
X96639104Y-97293017D01*
X96666881Y-97347534D01*
X96668100Y-97363021D01*
X96668100Y-103732976D01*
X96649193Y-103791167D01*
X96639104Y-103802980D01*
X95522180Y-104919904D01*
X95467663Y-104947681D01*
X95452176Y-104948900D01*
X95448192Y-104948900D01*
X95316408Y-104948900D01*
X95241169Y-104969060D01*
X95189109Y-104983009D01*
X95074990Y-105048896D01*
X94981793Y-105142093D01*
X94978038Y-105146987D01*
X94927612Y-105181640D01*
X94866447Y-105180035D01*
X94817908Y-105142784D01*
X94800500Y-105086715D01*
X94800500Y-97320441D01*
X94813764Y-97270940D01*
X94839595Y-97226200D01*
X94869799Y-97173886D01*
X94900500Y-97059309D01*
X94900500Y-96940691D01*
X94869799Y-96826114D01*
X94869797Y-96826111D01*
X94869797Y-96826109D01*
X94810492Y-96723391D01*
X94810490Y-96723389D01*
X94810489Y-96723387D01*
X94726613Y-96639511D01*
X94726610Y-96639509D01*
X94726608Y-96639507D01*
X94623889Y-96580202D01*
X94623890Y-96580202D01*
X94610351Y-96576574D01*
X94509309Y-96549500D01*
X94390691Y-96549500D01*
X94320567Y-96568289D01*
X94276109Y-96580202D01*
X94173391Y-96639507D01*
X94089509Y-96723389D01*
X94035236Y-96817392D01*
X93989766Y-96858332D01*
X93928916Y-96864727D01*
X93875928Y-96834134D01*
X93851042Y-96778239D01*
X93850500Y-96767891D01*
X93850500Y-96465477D01*
X93869407Y-96407286D01*
X93879490Y-96395480D01*
X94216646Y-96058323D01*
X94242371Y-96039782D01*
X94246572Y-96037682D01*
X94307072Y-96028577D01*
X94316458Y-96030609D01*
X94390691Y-96050500D01*
X94390693Y-96050500D01*
X94509307Y-96050500D01*
X94509309Y-96050500D01*
X94623886Y-96019799D01*
X94623888Y-96019797D01*
X94623890Y-96019797D01*
X94726608Y-95960492D01*
X94726608Y-95960491D01*
X94726613Y-95960489D01*
X94810489Y-95876613D01*
X94816443Y-95866300D01*
X94869797Y-95773890D01*
X94869797Y-95773888D01*
X94869799Y-95773886D01*
X94900500Y-95659309D01*
X94900500Y-95540691D01*
X94869799Y-95426114D01*
X94869797Y-95426110D01*
X94869797Y-95426109D01*
X94811825Y-95325700D01*
X94799103Y-95265852D01*
X94823989Y-95209956D01*
X94876977Y-95179364D01*
X94897561Y-95177200D01*
X97295579Y-95177200D01*
X97353770Y-95196107D01*
X97365583Y-95206196D01*
X97368398Y-95209011D01*
X97368400Y-95209014D01*
X97461586Y-95302200D01*
X97461588Y-95302201D01*
X97461590Y-95302203D01*
X97575710Y-95368090D01*
X97575708Y-95368090D01*
X97575712Y-95368091D01*
X97575714Y-95368092D01*
X97703008Y-95402200D01*
X97703010Y-95402200D01*
X97834790Y-95402200D01*
X97834792Y-95402200D01*
X97962086Y-95368092D01*
X97962088Y-95368090D01*
X97962090Y-95368090D01*
X98076209Y-95302203D01*
X98076209Y-95302202D01*
X98076214Y-95302200D01*
X98169400Y-95209014D01*
X98171027Y-95206196D01*
X98235290Y-95094890D01*
X98235290Y-95094888D01*
X98235292Y-95094886D01*
X98269400Y-94967592D01*
X98269400Y-94835808D01*
X98236446Y-94712821D01*
X98239649Y-94651721D01*
X98278154Y-94604172D01*
X98332073Y-94588200D01*
X103474077Y-94588200D01*
X103532268Y-94607107D01*
G37*
G04 #@! TD.AperFunction*
G04 #@! TA.AperFunction,Conductor*
G36*
X105767101Y-96840217D02*
G01*
X106672656Y-97745771D01*
X107735504Y-98808619D01*
X107763281Y-98863136D01*
X107764500Y-98878623D01*
X107764500Y-103729879D01*
X107745593Y-103788070D01*
X107735504Y-103799883D01*
X107732688Y-103802698D01*
X107732686Y-103802700D01*
X107684032Y-103851354D01*
X107639497Y-103895889D01*
X107639496Y-103895890D01*
X107573609Y-104010009D01*
X107573608Y-104010014D01*
X107539500Y-104137308D01*
X107539500Y-104269092D01*
X107569579Y-104381351D01*
X107573609Y-104396390D01*
X107639496Y-104510509D01*
X107639498Y-104510511D01*
X107639500Y-104510514D01*
X107700984Y-104571998D01*
X107728760Y-104626513D01*
X107719189Y-104686945D01*
X107675924Y-104730210D01*
X107630979Y-104741000D01*
X104938721Y-104741000D01*
X104880530Y-104722093D01*
X104877923Y-104719866D01*
X104877860Y-104719949D01*
X104872709Y-104715996D01*
X104758589Y-104650109D01*
X104758591Y-104650109D01*
X104709199Y-104636875D01*
X104631292Y-104616000D01*
X104499508Y-104616000D01*
X104421600Y-104636875D01*
X104372209Y-104650109D01*
X104258090Y-104715996D01*
X104164894Y-104809192D01*
X104161539Y-104813565D01*
X104111113Y-104848219D01*
X104049949Y-104846614D01*
X104001409Y-104809364D01*
X103984000Y-104753294D01*
X103984000Y-99054423D01*
X104002907Y-98996232D01*
X104012996Y-98984419D01*
X104758933Y-98238482D01*
X105556157Y-97441259D01*
X105571926Y-97403190D01*
X105586346Y-97368377D01*
X105586346Y-97368376D01*
X105589613Y-97360489D01*
X105598100Y-97340000D01*
X105598100Y-96910223D01*
X105617007Y-96852032D01*
X105666507Y-96816068D01*
X105727693Y-96816068D01*
X105767101Y-96840217D01*
G37*
G04 #@! TD.AperFunction*
G04 #@! TA.AperFunction,Conductor*
G36*
X91528068Y-85738807D02*
G01*
X91539880Y-85748895D01*
X92883805Y-87092820D01*
X92911581Y-87147336D01*
X92912800Y-87162823D01*
X92912800Y-87166808D01*
X92912800Y-87298592D01*
X92944628Y-87417376D01*
X92946909Y-87425889D01*
X92962158Y-87452301D01*
X92974879Y-87512149D01*
X92949992Y-87568044D01*
X92897004Y-87598637D01*
X92876421Y-87600800D01*
X89534024Y-87600800D01*
X89526426Y-87598331D01*
X89518537Y-87599581D01*
X89497881Y-87589056D01*
X89475833Y-87581893D01*
X89464020Y-87571804D01*
X89379596Y-87487380D01*
X89351819Y-87432863D01*
X89350600Y-87417376D01*
X89350600Y-87281609D01*
X89335151Y-87223952D01*
X89316492Y-87154314D01*
X89316490Y-87154311D01*
X89316490Y-87154309D01*
X89250603Y-87040190D01*
X89250601Y-87040188D01*
X89250600Y-87040186D01*
X89157414Y-86947000D01*
X89157411Y-86946998D01*
X89157409Y-86946996D01*
X89043289Y-86881109D01*
X89043291Y-86881109D01*
X88993899Y-86867875D01*
X88915992Y-86847000D01*
X88784208Y-86847000D01*
X88784205Y-86847000D01*
X88729234Y-86861729D01*
X88668133Y-86858526D01*
X88620584Y-86820020D01*
X88604749Y-86760919D01*
X88612147Y-86728223D01*
X88633140Y-86677542D01*
X88661800Y-86533455D01*
X88661800Y-86386545D01*
X88633140Y-86242458D01*
X88576921Y-86106733D01*
X88576921Y-86106732D01*
X88530598Y-86037406D01*
X88495301Y-85984580D01*
X88399625Y-85888904D01*
X88371848Y-85834387D01*
X88381419Y-85773955D01*
X88424684Y-85730690D01*
X88469629Y-85719900D01*
X91469877Y-85719900D01*
X91528068Y-85738807D01*
G37*
G04 #@! TD.AperFunction*
G04 #@! TA.AperFunction,Conductor*
G36*
X93759191Y-82319407D02*
G01*
X93795155Y-82368907D01*
X93800000Y-82399500D01*
X93800000Y-86550000D01*
X93800001Y-86550000D01*
X106199999Y-86550000D01*
X106200000Y-86550000D01*
X106200000Y-82800000D01*
X106200000Y-82399500D01*
X106218907Y-82341309D01*
X106268407Y-82305345D01*
X106299000Y-82300500D01*
X111952405Y-82300500D01*
X111998047Y-82300500D01*
X112001934Y-82300576D01*
X112443302Y-82317917D01*
X112451033Y-82318526D01*
X112887750Y-82370214D01*
X112895395Y-82371425D01*
X113326722Y-82457222D01*
X113334256Y-82459031D01*
X113757508Y-82578400D01*
X113764878Y-82580795D01*
X113983586Y-82661481D01*
X114177460Y-82733005D01*
X114184641Y-82735980D01*
X114583981Y-82920077D01*
X114590909Y-82923606D01*
X114974590Y-83138479D01*
X114981213Y-83142538D01*
X115346854Y-83386851D01*
X115353143Y-83391421D01*
X115698470Y-83663655D01*
X115704381Y-83668703D01*
X116027298Y-83967204D01*
X116032795Y-83972701D01*
X116331296Y-84295618D01*
X116336344Y-84301529D01*
X116608578Y-84646856D01*
X116613148Y-84653145D01*
X116857461Y-85018786D01*
X116861522Y-85025413D01*
X117076393Y-85409091D01*
X117079922Y-85416018D01*
X117264019Y-85815358D01*
X117266994Y-85822539D01*
X117419200Y-86235110D01*
X117421602Y-86242503D01*
X117540965Y-86665731D01*
X117542780Y-86673290D01*
X117628571Y-87104587D01*
X117629787Y-87112265D01*
X117681472Y-87548957D01*
X117682082Y-87556706D01*
X117699424Y-87998065D01*
X117699500Y-88001952D01*
X117699500Y-111998047D01*
X117699424Y-112001934D01*
X117682082Y-112443292D01*
X117681472Y-112451041D01*
X117629786Y-112887734D01*
X117628570Y-112895412D01*
X117542780Y-113326709D01*
X117540965Y-113334268D01*
X117421602Y-113757496D01*
X117419200Y-113764888D01*
X117266995Y-114177459D01*
X117264020Y-114184641D01*
X117079919Y-114583985D01*
X117076390Y-114590912D01*
X116861520Y-114974590D01*
X116857459Y-114981217D01*
X116613155Y-115346844D01*
X116608585Y-115353133D01*
X116336343Y-115698469D01*
X116331295Y-115704380D01*
X116032794Y-116027297D01*
X116027297Y-116032794D01*
X115704380Y-116331295D01*
X115698469Y-116336343D01*
X115353133Y-116608585D01*
X115346844Y-116613155D01*
X114981217Y-116857459D01*
X114974590Y-116861520D01*
X114590912Y-117076390D01*
X114583985Y-117079919D01*
X114184641Y-117264020D01*
X114177459Y-117266995D01*
X113764888Y-117419200D01*
X113757496Y-117421602D01*
X113334268Y-117540965D01*
X113326709Y-117542780D01*
X112895412Y-117628570D01*
X112887734Y-117629786D01*
X112451041Y-117681472D01*
X112443292Y-117682082D01*
X112001934Y-117699424D01*
X111998047Y-117699500D01*
X88001953Y-117699500D01*
X87998066Y-117699424D01*
X87556706Y-117682082D01*
X87548957Y-117681472D01*
X87112265Y-117629787D01*
X87104587Y-117628571D01*
X86673290Y-117542780D01*
X86665731Y-117540965D01*
X86242503Y-117421602D01*
X86235110Y-117419200D01*
X85822539Y-117266994D01*
X85815358Y-117264019D01*
X85416018Y-117079922D01*
X85409091Y-117076393D01*
X85025413Y-116861522D01*
X85018786Y-116857461D01*
X84653145Y-116613148D01*
X84646856Y-116608578D01*
X84301529Y-116336344D01*
X84295618Y-116331296D01*
X83972701Y-116032795D01*
X83967204Y-116027298D01*
X83668703Y-115704381D01*
X83663655Y-115698470D01*
X83391421Y-115353143D01*
X83386851Y-115346854D01*
X83386844Y-115346844D01*
X83142535Y-114981209D01*
X83138477Y-114974586D01*
X83136408Y-114970892D01*
X82923606Y-114590908D01*
X82920077Y-114583981D01*
X82735980Y-114184641D01*
X82733005Y-114177460D01*
X82580799Y-113764889D01*
X82578400Y-113757508D01*
X82459031Y-113334256D01*
X82457222Y-113326722D01*
X82371425Y-112895395D01*
X82370214Y-112887750D01*
X82318526Y-112451033D01*
X82317917Y-112443293D01*
X82317897Y-112442792D01*
X82300576Y-112001934D01*
X82300500Y-111998047D01*
X82300500Y-100213100D01*
X82610700Y-100213100D01*
X82610700Y-109172000D01*
X82652643Y-109273258D01*
X84204842Y-110825458D01*
X84204843Y-110825458D01*
X84204844Y-110825459D01*
X84306098Y-110867400D01*
X84306100Y-110867400D01*
X85525099Y-110867400D01*
X85525100Y-110867400D01*
X85626358Y-110825457D01*
X85703857Y-110747958D01*
X85703856Y-110747958D01*
X86372420Y-110079396D01*
X86379536Y-110075770D01*
X86384232Y-110069307D01*
X86406281Y-110062142D01*
X86426936Y-110051619D01*
X86442423Y-110050400D01*
X86600500Y-110050400D01*
X86658691Y-110069307D01*
X86694655Y-110118807D01*
X86699500Y-110149400D01*
X86699500Y-111319746D01*
X86699501Y-111319758D01*
X86711132Y-111378227D01*
X86711134Y-111378233D01*
X86740116Y-111421607D01*
X86755448Y-111444552D01*
X86821769Y-111488867D01*
X86863385Y-111497145D01*
X86880241Y-111500498D01*
X86880246Y-111500498D01*
X86880252Y-111500500D01*
X86880253Y-111500500D01*
X87219747Y-111500500D01*
X87219748Y-111500500D01*
X87274501Y-111489609D01*
X87280685Y-111488379D01*
X87319315Y-111488379D01*
X87380241Y-111500498D01*
X87380246Y-111500498D01*
X87380252Y-111500500D01*
X87380253Y-111500500D01*
X87719747Y-111500500D01*
X87719748Y-111500500D01*
X87774501Y-111489609D01*
X87780685Y-111488379D01*
X87819315Y-111488379D01*
X87880241Y-111500498D01*
X87880246Y-111500498D01*
X87880252Y-111500500D01*
X87880253Y-111500500D01*
X88175500Y-111500500D01*
X88233691Y-111519407D01*
X88269655Y-111568907D01*
X88269716Y-111569098D01*
X88274500Y-111583923D01*
X88274500Y-111603900D01*
X88302146Y-111670642D01*
X88303669Y-111674319D01*
X88303672Y-111674328D01*
X88316441Y-111705155D01*
X88316442Y-111705156D01*
X88316443Y-111705158D01*
X88462105Y-111850821D01*
X88489881Y-111905335D01*
X88480310Y-111965767D01*
X88441601Y-112006558D01*
X88329987Y-112070998D01*
X88239318Y-112161667D01*
X88184801Y-112189444D01*
X88124369Y-112179872D01*
X88081105Y-112136608D01*
X88073688Y-112117286D01*
X88067292Y-112093414D01*
X88067290Y-112093411D01*
X88067290Y-112093409D01*
X88001403Y-111979290D01*
X88001401Y-111979288D01*
X88001400Y-111979286D01*
X87908214Y-111886100D01*
X87908211Y-111886098D01*
X87908209Y-111886096D01*
X87794089Y-111820209D01*
X87794091Y-111820209D01*
X87744699Y-111806975D01*
X87666792Y-111786100D01*
X87535008Y-111786100D01*
X87457100Y-111806975D01*
X87407709Y-111820209D01*
X87293590Y-111886096D01*
X87200396Y-111979290D01*
X87134509Y-112093409D01*
X87122934Y-112136608D01*
X87100400Y-112220708D01*
X87100400Y-112352492D01*
X87106940Y-112376900D01*
X87134509Y-112479790D01*
X87200396Y-112593909D01*
X87200398Y-112593911D01*
X87200400Y-112593914D01*
X87293586Y-112687100D01*
X87293588Y-112687101D01*
X87293590Y-112687103D01*
X87407710Y-112752990D01*
X87407708Y-112752990D01*
X87407712Y-112752991D01*
X87407714Y-112752992D01*
X87513285Y-112781279D01*
X87557664Y-112806901D01*
X89042759Y-114291996D01*
X89070536Y-114346513D01*
X89060965Y-114406945D01*
X89017700Y-114450210D01*
X88972755Y-114461000D01*
X88881108Y-114461000D01*
X88803200Y-114481875D01*
X88753809Y-114495109D01*
X88639690Y-114560996D01*
X88546496Y-114654190D01*
X88480609Y-114768309D01*
X88480608Y-114768314D01*
X88446500Y-114895608D01*
X88446500Y-115027392D01*
X88456008Y-115062876D01*
X88480609Y-115154690D01*
X88546496Y-115268809D01*
X88546498Y-115268811D01*
X88546500Y-115268814D01*
X88639686Y-115362000D01*
X88639688Y-115362001D01*
X88639690Y-115362003D01*
X88753810Y-115427890D01*
X88753808Y-115427890D01*
X88753812Y-115427891D01*
X88753814Y-115427892D01*
X88881108Y-115462000D01*
X88881110Y-115462000D01*
X89016877Y-115462000D01*
X89075068Y-115480907D01*
X89086880Y-115490995D01*
X90080542Y-116484658D01*
X90080543Y-116484658D01*
X90080544Y-116484659D01*
X90181798Y-116526600D01*
X90181800Y-116526600D01*
X107937699Y-116526600D01*
X107937700Y-116526600D01*
X108038958Y-116484657D01*
X108116457Y-116407158D01*
X108116456Y-116407158D01*
X108779632Y-115743982D01*
X109514219Y-115009396D01*
X109568736Y-114981619D01*
X109584223Y-114980400D01*
X109719990Y-114980400D01*
X109719992Y-114980400D01*
X109847286Y-114946292D01*
X109847288Y-114946290D01*
X109847290Y-114946290D01*
X109961409Y-114880403D01*
X109961409Y-114880402D01*
X109961414Y-114880400D01*
X110054600Y-114787214D01*
X110120492Y-114673086D01*
X110154600Y-114545792D01*
X110154600Y-114414008D01*
X110120492Y-114286714D01*
X110120490Y-114286711D01*
X110120490Y-114286709D01*
X110054603Y-114172590D01*
X110054601Y-114172588D01*
X110054600Y-114172586D01*
X109961414Y-114079400D01*
X109961411Y-114079398D01*
X109961409Y-114079396D01*
X109847289Y-114013509D01*
X109847291Y-114013509D01*
X109797899Y-114000275D01*
X109719992Y-113979400D01*
X109588208Y-113979400D01*
X109510300Y-114000275D01*
X109460909Y-114013509D01*
X109346790Y-114079396D01*
X109253596Y-114172590D01*
X109187709Y-114286709D01*
X109153600Y-114414009D01*
X109153600Y-114549775D01*
X109134693Y-114607966D01*
X109124604Y-114619779D01*
X107797781Y-115946604D01*
X107743264Y-115974381D01*
X107727777Y-115975600D01*
X100817045Y-115975600D01*
X100758854Y-115956693D01*
X100722890Y-115907193D01*
X100722890Y-115846007D01*
X100747041Y-115806596D01*
X103235041Y-113318596D01*
X103289558Y-113290819D01*
X103292971Y-113290550D01*
X103292958Y-113290447D01*
X103299389Y-113289600D01*
X103299392Y-113289600D01*
X103426686Y-113255492D01*
X103426688Y-113255490D01*
X103426690Y-113255490D01*
X103540809Y-113189603D01*
X103540809Y-113189602D01*
X103540814Y-113189600D01*
X103634000Y-113096414D01*
X103634003Y-113096409D01*
X103699890Y-112982290D01*
X103699890Y-112982288D01*
X103699892Y-112982286D01*
X103734000Y-112854992D01*
X103734000Y-112723208D01*
X103718141Y-112664021D01*
X103721344Y-112602921D01*
X103759849Y-112555372D01*
X103813768Y-112539400D01*
X104203699Y-112539400D01*
X104203700Y-112539400D01*
X104304958Y-112497457D01*
X104304962Y-112497452D01*
X104310750Y-112493586D01*
X104365754Y-112476900D01*
X104502290Y-112476900D01*
X104502292Y-112476900D01*
X104629586Y-112442792D01*
X104629588Y-112442790D01*
X104629590Y-112442790D01*
X104743709Y-112376903D01*
X104743709Y-112376902D01*
X104743714Y-112376900D01*
X104836900Y-112283714D01*
X104891327Y-112189444D01*
X104902790Y-112169590D01*
X104902790Y-112169588D01*
X104902792Y-112169586D01*
X104936900Y-112042292D01*
X104936900Y-111910508D01*
X104902792Y-111783214D01*
X104902790Y-111783211D01*
X104902790Y-111783209D01*
X104836903Y-111669090D01*
X104836901Y-111669088D01*
X104836900Y-111669086D01*
X104743714Y-111575900D01*
X104743711Y-111575898D01*
X104743709Y-111575896D01*
X104629589Y-111510009D01*
X104629591Y-111510009D01*
X104580199Y-111496775D01*
X104502292Y-111475900D01*
X104370508Y-111475900D01*
X104292600Y-111496775D01*
X104243209Y-111510009D01*
X104129090Y-111575896D01*
X104035896Y-111669090D01*
X103970009Y-111783209D01*
X103960313Y-111819396D01*
X103935900Y-111910508D01*
X103935900Y-111910509D01*
X103934691Y-111915023D01*
X103901367Y-111966337D01*
X103844246Y-111988264D01*
X103839064Y-111988400D01*
X100054923Y-111988400D01*
X99996732Y-111969493D01*
X99960768Y-111919993D01*
X99960768Y-111858807D01*
X99984919Y-111819396D01*
X100463728Y-111340587D01*
X100954778Y-110849536D01*
X101009293Y-110821761D01*
X101069725Y-110831332D01*
X101112990Y-110874597D01*
X101120406Y-110893918D01*
X101133607Y-110943185D01*
X101133609Y-110943189D01*
X101199496Y-111057309D01*
X101199498Y-111057311D01*
X101199500Y-111057314D01*
X101292686Y-111150500D01*
X101292688Y-111150501D01*
X101292690Y-111150503D01*
X101406810Y-111216390D01*
X101406808Y-111216390D01*
X101406812Y-111216391D01*
X101406814Y-111216392D01*
X101534108Y-111250500D01*
X101534110Y-111250500D01*
X101665890Y-111250500D01*
X101665892Y-111250500D01*
X101793186Y-111216392D01*
X101793188Y-111216390D01*
X101793190Y-111216390D01*
X101907309Y-111150503D01*
X101907309Y-111150502D01*
X101907314Y-111150500D01*
X102000500Y-111057314D01*
X102000503Y-111057309D01*
X102066390Y-110943190D01*
X102066390Y-110943188D01*
X102066392Y-110943186D01*
X102071470Y-110924234D01*
X102314500Y-110924234D01*
X102314500Y-111075766D01*
X102335166Y-111152893D01*
X102353720Y-111222139D01*
X102429481Y-111353360D01*
X102429483Y-111353362D01*
X102429485Y-111353365D01*
X102536635Y-111460515D01*
X102536637Y-111460516D01*
X102536639Y-111460518D01*
X102667861Y-111536279D01*
X102667859Y-111536279D01*
X102667863Y-111536280D01*
X102667865Y-111536281D01*
X102814234Y-111575500D01*
X102814236Y-111575500D01*
X102965764Y-111575500D01*
X102965766Y-111575500D01*
X103112135Y-111536281D01*
X103112137Y-111536279D01*
X103112139Y-111536279D01*
X103243360Y-111460518D01*
X103243360Y-111460517D01*
X103243365Y-111460515D01*
X103350515Y-111353365D01*
X103350518Y-111353360D01*
X103426279Y-111222139D01*
X103426279Y-111222137D01*
X103426281Y-111222135D01*
X103465500Y-111075766D01*
X103465500Y-110924234D01*
X103426281Y-110777865D01*
X103426279Y-110777862D01*
X103426279Y-110777860D01*
X103350518Y-110646639D01*
X103350516Y-110646637D01*
X103350515Y-110646635D01*
X103243365Y-110539485D01*
X103243362Y-110539483D01*
X103243360Y-110539481D01*
X103112138Y-110463720D01*
X103112140Y-110463720D01*
X103055347Y-110448503D01*
X102965766Y-110424500D01*
X102814234Y-110424500D01*
X102724652Y-110448503D01*
X102667860Y-110463720D01*
X102536639Y-110539481D01*
X102429481Y-110646639D01*
X102353720Y-110777860D01*
X102331793Y-110859693D01*
X102314500Y-110924234D01*
X102071470Y-110924234D01*
X102100500Y-110815892D01*
X102100500Y-110684108D01*
X102066392Y-110556814D01*
X102066390Y-110556811D01*
X102066390Y-110556809D01*
X102000503Y-110442690D01*
X102000501Y-110442688D01*
X102000500Y-110442686D01*
X101907314Y-110349500D01*
X101907311Y-110349498D01*
X101907309Y-110349496D01*
X101793189Y-110283609D01*
X101793185Y-110283607D01*
X101743918Y-110270406D01*
X101692604Y-110237082D01*
X101670678Y-110179961D01*
X101686514Y-110120860D01*
X101699533Y-110104781D01*
X103748311Y-108056004D01*
X115199500Y-108056004D01*
X115199500Y-108193995D01*
X115226420Y-108329327D01*
X115226420Y-108329329D01*
X115279222Y-108456806D01*
X115279228Y-108456817D01*
X115355885Y-108571541D01*
X115453458Y-108669114D01*
X115568182Y-108745771D01*
X115568193Y-108745777D01*
X115615283Y-108765282D01*
X115695672Y-108798580D01*
X115831007Y-108825500D01*
X115831008Y-108825500D01*
X115968992Y-108825500D01*
X115968993Y-108825500D01*
X116104328Y-108798580D01*
X116231811Y-108745775D01*
X116346542Y-108669114D01*
X116444114Y-108571542D01*
X116520775Y-108456811D01*
X116573580Y-108329328D01*
X116600500Y-108193993D01*
X116600500Y-108056007D01*
X116573580Y-107920672D01*
X116555978Y-107878177D01*
X116520777Y-107793193D01*
X116520771Y-107793182D01*
X116444114Y-107678458D01*
X116346541Y-107580885D01*
X116231817Y-107504228D01*
X116231806Y-107504222D01*
X116104328Y-107451420D01*
X115968995Y-107424500D01*
X115968993Y-107424500D01*
X115831007Y-107424500D01*
X115831004Y-107424500D01*
X115695672Y-107451420D01*
X115695670Y-107451420D01*
X115568193Y-107504222D01*
X115568182Y-107504228D01*
X115453458Y-107580885D01*
X115355885Y-107678458D01*
X115279228Y-107793182D01*
X115279222Y-107793193D01*
X115226420Y-107920670D01*
X115226420Y-107920672D01*
X115199500Y-108056004D01*
X103748311Y-108056004D01*
X103942057Y-107862258D01*
X103945404Y-107854178D01*
X103947174Y-107849907D01*
X103960016Y-107818899D01*
X103984000Y-107761000D01*
X103984000Y-105479705D01*
X104002907Y-105421514D01*
X104052407Y-105385550D01*
X104113593Y-105385550D01*
X104161542Y-105419438D01*
X104164895Y-105423808D01*
X104164898Y-105423811D01*
X104164900Y-105423814D01*
X104258086Y-105517000D01*
X104258088Y-105517001D01*
X104258090Y-105517003D01*
X104372210Y-105582890D01*
X104372208Y-105582890D01*
X104372212Y-105582891D01*
X104372214Y-105582892D01*
X104499508Y-105617000D01*
X104499510Y-105617000D01*
X104631290Y-105617000D01*
X104631292Y-105617000D01*
X104758586Y-105582892D01*
X104758588Y-105582890D01*
X104758590Y-105582890D01*
X104872709Y-105517003D01*
X104872709Y-105517002D01*
X104872714Y-105517000D01*
X104872717Y-105516996D01*
X104877860Y-105513051D01*
X104879673Y-105515413D01*
X104923234Y-105493219D01*
X104938721Y-105492000D01*
X107440755Y-105492000D01*
X107498946Y-105510907D01*
X107510759Y-105520996D01*
X108654104Y-106664341D01*
X108681881Y-106718858D01*
X108682149Y-106722271D01*
X108682253Y-106722258D01*
X108683099Y-106728689D01*
X108717209Y-106855990D01*
X108783096Y-106970109D01*
X108783098Y-106970111D01*
X108783100Y-106970114D01*
X108876286Y-107063300D01*
X108876288Y-107063301D01*
X108876290Y-107063303D01*
X108990410Y-107129190D01*
X108990408Y-107129190D01*
X108990412Y-107129191D01*
X108990414Y-107129192D01*
X109117708Y-107163300D01*
X109117710Y-107163300D01*
X109249490Y-107163300D01*
X109249492Y-107163300D01*
X109376786Y-107129192D01*
X109376788Y-107129190D01*
X109376790Y-107129190D01*
X109490909Y-107063303D01*
X109490909Y-107063302D01*
X109490914Y-107063300D01*
X109584100Y-106970114D01*
X109584103Y-106970109D01*
X109649990Y-106855990D01*
X109649990Y-106855988D01*
X109649992Y-106855986D01*
X109684100Y-106728692D01*
X109684100Y-106596908D01*
X109649992Y-106469614D01*
X109649990Y-106469611D01*
X109649990Y-106469609D01*
X109584103Y-106355490D01*
X109584101Y-106355488D01*
X109584100Y-106355486D01*
X109490914Y-106262300D01*
X109490911Y-106262298D01*
X109490909Y-106262296D01*
X109376789Y-106196409D01*
X109376791Y-106196409D01*
X109249489Y-106162299D01*
X109243058Y-106161453D01*
X109243446Y-106158499D01*
X109196954Y-106143393D01*
X109185141Y-106133304D01*
X107924541Y-104872704D01*
X107896764Y-104818187D01*
X107906335Y-104757755D01*
X107949600Y-104714490D01*
X107994545Y-104703700D01*
X108105890Y-104703700D01*
X108105892Y-104703700D01*
X108233186Y-104669592D01*
X108233188Y-104669590D01*
X108233190Y-104669590D01*
X108347309Y-104603703D01*
X108347309Y-104603702D01*
X108347314Y-104603700D01*
X108440500Y-104510514D01*
X108445021Y-104502684D01*
X108506390Y-104396390D01*
X108506390Y-104396388D01*
X108506392Y-104396386D01*
X108540500Y-104269092D01*
X108540500Y-104137308D01*
X108506392Y-104010014D01*
X108506390Y-104010011D01*
X108506390Y-104010009D01*
X108440503Y-103895890D01*
X108440501Y-103895888D01*
X108440500Y-103895886D01*
X108350618Y-103806004D01*
X115199500Y-103806004D01*
X115199500Y-103943995D01*
X115226420Y-104079327D01*
X115226420Y-104079329D01*
X115279222Y-104206806D01*
X115279228Y-104206817D01*
X115355885Y-104321541D01*
X115453458Y-104419114D01*
X115568182Y-104495771D01*
X115568193Y-104495777D01*
X115603760Y-104510509D01*
X115695672Y-104548580D01*
X115831007Y-104575500D01*
X115831008Y-104575500D01*
X115968992Y-104575500D01*
X115968993Y-104575500D01*
X116104328Y-104548580D01*
X116231811Y-104495775D01*
X116346542Y-104419114D01*
X116444114Y-104321542D01*
X116520775Y-104206811D01*
X116573580Y-104079328D01*
X116600500Y-103943993D01*
X116600500Y-103806007D01*
X116573580Y-103670672D01*
X116520775Y-103543189D01*
X116520774Y-103543187D01*
X116520771Y-103543182D01*
X116444114Y-103428458D01*
X116346541Y-103330885D01*
X116231817Y-103254228D01*
X116231806Y-103254222D01*
X116104328Y-103201420D01*
X115968995Y-103174500D01*
X115968993Y-103174500D01*
X115831007Y-103174500D01*
X115831004Y-103174500D01*
X115695672Y-103201420D01*
X115695670Y-103201420D01*
X115568193Y-103254222D01*
X115568182Y-103254228D01*
X115453458Y-103330885D01*
X115355885Y-103428458D01*
X115279228Y-103543182D01*
X115279222Y-103543193D01*
X115226420Y-103670670D01*
X115226420Y-103670672D01*
X115199500Y-103806004D01*
X108350618Y-103806004D01*
X108347314Y-103802700D01*
X108347311Y-103802698D01*
X108344496Y-103799883D01*
X108316719Y-103745366D01*
X108315500Y-103729879D01*
X108315500Y-98668700D01*
X108279284Y-98581267D01*
X108273557Y-98567442D01*
X108273557Y-98567441D01*
X106762120Y-97056004D01*
X115199500Y-97056004D01*
X115199500Y-97193995D01*
X115226420Y-97329327D01*
X115226420Y-97329329D01*
X115279222Y-97456806D01*
X115279228Y-97456817D01*
X115355885Y-97571541D01*
X115453458Y-97669114D01*
X115568182Y-97745771D01*
X115568193Y-97745777D01*
X115615283Y-97765282D01*
X115695672Y-97798580D01*
X115831007Y-97825500D01*
X115831008Y-97825500D01*
X115968992Y-97825500D01*
X115968993Y-97825500D01*
X116104328Y-97798580D01*
X116231811Y-97745775D01*
X116346542Y-97669114D01*
X116444114Y-97571542D01*
X116520775Y-97456811D01*
X116573580Y-97329328D01*
X116600500Y-97193993D01*
X116600500Y-97056007D01*
X116573580Y-96920672D01*
X116547758Y-96858332D01*
X116520777Y-96793193D01*
X116520771Y-96793182D01*
X116444114Y-96678458D01*
X116346541Y-96580885D01*
X116231817Y-96504228D01*
X116231806Y-96504222D01*
X116104328Y-96451420D01*
X115968995Y-96424500D01*
X115968993Y-96424500D01*
X115831007Y-96424500D01*
X115831004Y-96424500D01*
X115695672Y-96451420D01*
X115695670Y-96451420D01*
X115568193Y-96504222D01*
X115568182Y-96504228D01*
X115453458Y-96580885D01*
X115355885Y-96678458D01*
X115279228Y-96793182D01*
X115279222Y-96793193D01*
X115226420Y-96920670D01*
X115226420Y-96920672D01*
X115199500Y-97056004D01*
X106762120Y-97056004D01*
X103785258Y-94079143D01*
X103785256Y-94079142D01*
X103785255Y-94079141D01*
X103765600Y-94071000D01*
X103765599Y-94071000D01*
X103684000Y-94037200D01*
X103683999Y-94037200D01*
X98300951Y-94037200D01*
X98242760Y-94018293D01*
X98206796Y-93968793D01*
X98206796Y-93907607D01*
X98219454Y-93883548D01*
X98219256Y-93883434D01*
X98222177Y-93878374D01*
X98222411Y-93877930D01*
X98222495Y-93877818D01*
X98222500Y-93877814D01*
X98268698Y-93797797D01*
X98288390Y-93763690D01*
X98288390Y-93763688D01*
X98288392Y-93763686D01*
X98322500Y-93636392D01*
X98322500Y-93504608D01*
X98288392Y-93377314D01*
X98267888Y-93341800D01*
X98255167Y-93281951D01*
X98280054Y-93226056D01*
X98333042Y-93195463D01*
X98353625Y-93193300D01*
X99724683Y-93193300D01*
X99774183Y-93206563D01*
X99807314Y-93225692D01*
X99934608Y-93259800D01*
X99934610Y-93259800D01*
X100066390Y-93259800D01*
X100066392Y-93259800D01*
X100193686Y-93225692D01*
X100193688Y-93225690D01*
X100193690Y-93225690D01*
X100307809Y-93159803D01*
X100307809Y-93159802D01*
X100307814Y-93159800D01*
X100401000Y-93066614D01*
X100401003Y-93066609D01*
X100466890Y-92952490D01*
X100466890Y-92952488D01*
X100466892Y-92952486D01*
X100501000Y-92825192D01*
X100501000Y-92806004D01*
X115199500Y-92806004D01*
X115199500Y-92943995D01*
X115226420Y-93079327D01*
X115226420Y-93079329D01*
X115279222Y-93206806D01*
X115279228Y-93206817D01*
X115355885Y-93321541D01*
X115453458Y-93419114D01*
X115568182Y-93495771D01*
X115568193Y-93495777D01*
X115589516Y-93504609D01*
X115695672Y-93548580D01*
X115831007Y-93575500D01*
X115831008Y-93575500D01*
X115968992Y-93575500D01*
X115968993Y-93575500D01*
X116104328Y-93548580D01*
X116231811Y-93495775D01*
X116346542Y-93419114D01*
X116444114Y-93321542D01*
X116520775Y-93206811D01*
X116573580Y-93079328D01*
X116600500Y-92943993D01*
X116600500Y-92806007D01*
X116573580Y-92670672D01*
X116520775Y-92543189D01*
X116520774Y-92543187D01*
X116520771Y-92543182D01*
X116444114Y-92428458D01*
X116346541Y-92330885D01*
X116231817Y-92254228D01*
X116231806Y-92254222D01*
X116104328Y-92201420D01*
X115968995Y-92174500D01*
X115968993Y-92174500D01*
X115831007Y-92174500D01*
X115831004Y-92174500D01*
X115695672Y-92201420D01*
X115695670Y-92201420D01*
X115568193Y-92254222D01*
X115568182Y-92254228D01*
X115453458Y-92330885D01*
X115355885Y-92428458D01*
X115279228Y-92543182D01*
X115279222Y-92543193D01*
X115226420Y-92670670D01*
X115226420Y-92670672D01*
X115199500Y-92806004D01*
X100501000Y-92806004D01*
X100501000Y-92693408D01*
X100466892Y-92566114D01*
X100466890Y-92566111D01*
X100466890Y-92566109D01*
X100401003Y-92451990D01*
X100401001Y-92451988D01*
X100401000Y-92451986D01*
X100307814Y-92358800D01*
X100307811Y-92358798D01*
X100307809Y-92358796D01*
X100193689Y-92292909D01*
X100193691Y-92292909D01*
X100144299Y-92279675D01*
X100066392Y-92258800D01*
X99934608Y-92258800D01*
X99856700Y-92279675D01*
X99807309Y-92292909D01*
X99693190Y-92358796D01*
X99599996Y-92451990D01*
X99534109Y-92566110D01*
X99534108Y-92566111D01*
X99533356Y-92568921D01*
X99532221Y-92570667D01*
X99531626Y-92572106D01*
X99531359Y-92571995D01*
X99500033Y-92620236D01*
X99442912Y-92642164D01*
X99437729Y-92642300D01*
X98672477Y-92642300D01*
X98614286Y-92623393D01*
X98578322Y-92573893D01*
X98576850Y-92517679D01*
X98597800Y-92439492D01*
X98597800Y-92307708D01*
X98563692Y-92180414D01*
X98563690Y-92180411D01*
X98563690Y-92180409D01*
X98497803Y-92066290D01*
X98497801Y-92066288D01*
X98497800Y-92066286D01*
X98404614Y-91973100D01*
X98404611Y-91973098D01*
X98404609Y-91973096D01*
X98290489Y-91907209D01*
X98290491Y-91907209D01*
X98222308Y-91888940D01*
X98163192Y-91873100D01*
X98031408Y-91873100D01*
X98027424Y-91873100D01*
X97969233Y-91854193D01*
X97957420Y-91844104D01*
X97573276Y-91459960D01*
X97545499Y-91405443D01*
X97555070Y-91345011D01*
X97593779Y-91304220D01*
X97649414Y-91272100D01*
X97742600Y-91178914D01*
X97766928Y-91136777D01*
X97808490Y-91064790D01*
X97808490Y-91064788D01*
X97808492Y-91064786D01*
X97842600Y-90937492D01*
X97842600Y-90805708D01*
X97808492Y-90678414D01*
X97808490Y-90678411D01*
X97808490Y-90678409D01*
X97742603Y-90564290D01*
X97742601Y-90564288D01*
X97742600Y-90564286D01*
X97649414Y-90471100D01*
X97649411Y-90471098D01*
X97649409Y-90471096D01*
X97535289Y-90405209D01*
X97535291Y-90405209D01*
X97485899Y-90391975D01*
X97407992Y-90371100D01*
X97276208Y-90371100D01*
X97272224Y-90371100D01*
X97214033Y-90352193D01*
X97202221Y-90342104D01*
X96453357Y-89593241D01*
X96423529Y-89580887D01*
X96423528Y-89580887D01*
X96352100Y-89551300D01*
X96352099Y-89551300D01*
X94279821Y-89551300D01*
X94221630Y-89532393D01*
X94209817Y-89522304D01*
X94207001Y-89519488D01*
X94207000Y-89519486D01*
X94113814Y-89426300D01*
X94113811Y-89426298D01*
X94113809Y-89426296D01*
X93999689Y-89360409D01*
X93999691Y-89360409D01*
X93950299Y-89347175D01*
X93872392Y-89326300D01*
X93740608Y-89326300D01*
X93662700Y-89347175D01*
X93613309Y-89360409D01*
X93499190Y-89426296D01*
X93405998Y-89519488D01*
X93375416Y-89572458D01*
X93329946Y-89613398D01*
X93269096Y-89619793D01*
X93219676Y-89592960D01*
X92729196Y-89102479D01*
X92725570Y-89095362D01*
X92719107Y-89090667D01*
X92711942Y-89068617D01*
X92701419Y-89047963D01*
X92700200Y-89032476D01*
X92700200Y-88928021D01*
X92719107Y-88869830D01*
X92729196Y-88858017D01*
X92732011Y-88855201D01*
X92732014Y-88855200D01*
X92825200Y-88762014D01*
X92825203Y-88762009D01*
X92891090Y-88647890D01*
X92891090Y-88647888D01*
X92891092Y-88647886D01*
X92925200Y-88520592D01*
X92925200Y-88388808D01*
X92895086Y-88276420D01*
X92898289Y-88215322D01*
X92936794Y-88167772D01*
X92990713Y-88151800D01*
X96507277Y-88151800D01*
X96565468Y-88170707D01*
X96577280Y-88180795D01*
X97853405Y-89456920D01*
X97881181Y-89511436D01*
X97882400Y-89526923D01*
X97882400Y-89530908D01*
X97882400Y-89662692D01*
X97891468Y-89696533D01*
X97916509Y-89789990D01*
X97982396Y-89904109D01*
X97982398Y-89904111D01*
X97982400Y-89904114D01*
X98075586Y-89997300D01*
X98075588Y-89997301D01*
X98075590Y-89997303D01*
X98189710Y-90063190D01*
X98189708Y-90063190D01*
X98189712Y-90063191D01*
X98189714Y-90063192D01*
X98317008Y-90097300D01*
X98317010Y-90097300D01*
X98448790Y-90097300D01*
X98448792Y-90097300D01*
X98576086Y-90063192D01*
X98576088Y-90063190D01*
X98576090Y-90063190D01*
X98690209Y-89997303D01*
X98690209Y-89997302D01*
X98690214Y-89997300D01*
X98783400Y-89904114D01*
X98823482Y-89834690D01*
X98849290Y-89789990D01*
X98849290Y-89789988D01*
X98849292Y-89789986D01*
X98883400Y-89662692D01*
X98883400Y-89530908D01*
X98849292Y-89403614D01*
X98849290Y-89403611D01*
X98849290Y-89403609D01*
X98783403Y-89289490D01*
X98783401Y-89289488D01*
X98783400Y-89289486D01*
X98690214Y-89196300D01*
X98690211Y-89196298D01*
X98690209Y-89196296D01*
X98576089Y-89130409D01*
X98576091Y-89130409D01*
X98526699Y-89117175D01*
X98448792Y-89096300D01*
X98317008Y-89096300D01*
X98313024Y-89096300D01*
X98254833Y-89077393D01*
X98243020Y-89067304D01*
X97905915Y-88730199D01*
X96818458Y-87642743D01*
X96795419Y-87633200D01*
X96717200Y-87600800D01*
X96717199Y-87600800D01*
X93950179Y-87600800D01*
X93891988Y-87581893D01*
X93856024Y-87532393D01*
X93856024Y-87471207D01*
X93864442Y-87452301D01*
X93879690Y-87425889D01*
X93879689Y-87425889D01*
X93879692Y-87425886D01*
X93913800Y-87298592D01*
X93913800Y-87166808D01*
X93879692Y-87039514D01*
X93879690Y-87039511D01*
X93879690Y-87039509D01*
X93813803Y-86925390D01*
X93813801Y-86925388D01*
X93813800Y-86925386D01*
X93720614Y-86832200D01*
X93720611Y-86832198D01*
X93720609Y-86832196D01*
X93606489Y-86766309D01*
X93606491Y-86766309D01*
X93557099Y-86753075D01*
X93479192Y-86732200D01*
X93347408Y-86732200D01*
X93343424Y-86732200D01*
X93285233Y-86713293D01*
X93273420Y-86703204D01*
X92930115Y-86359899D01*
X91781058Y-85210843D01*
X91679800Y-85168900D01*
X87477300Y-85168900D01*
X87477299Y-85168900D01*
X87405699Y-85198557D01*
X87405699Y-85198558D01*
X87376041Y-85210843D01*
X86743942Y-85842943D01*
X86743941Y-85842942D01*
X86666446Y-85920438D01*
X86666442Y-85920444D01*
X86643181Y-85976599D01*
X86603444Y-86023123D01*
X86543948Y-86037406D01*
X86487421Y-86013990D01*
X86469403Y-85993713D01*
X86463301Y-85984580D01*
X86359420Y-85880699D01*
X86237269Y-85799080D01*
X86237268Y-85799079D01*
X86237266Y-85799078D01*
X86101542Y-85742860D01*
X85957457Y-85714200D01*
X85957455Y-85714200D01*
X85810545Y-85714200D01*
X85810542Y-85714200D01*
X85666458Y-85742860D01*
X85666456Y-85742860D01*
X85530733Y-85799078D01*
X85530732Y-85799078D01*
X85408580Y-85880699D01*
X85408576Y-85880702D01*
X85304702Y-85984576D01*
X85304699Y-85984580D01*
X85223078Y-86106732D01*
X85223078Y-86106733D01*
X85166860Y-86242456D01*
X85166860Y-86242458D01*
X85138200Y-86386542D01*
X85138200Y-86533457D01*
X85166860Y-86677541D01*
X85166860Y-86677543D01*
X85223078Y-86813266D01*
X85223078Y-86813267D01*
X85235729Y-86832200D01*
X85304699Y-86935420D01*
X85408580Y-87039301D01*
X85530731Y-87120920D01*
X85666458Y-87177140D01*
X85810545Y-87205800D01*
X85810547Y-87205800D01*
X85957453Y-87205800D01*
X85957455Y-87205800D01*
X86101542Y-87177140D01*
X86237269Y-87120920D01*
X86359420Y-87039301D01*
X86456421Y-86942300D01*
X86510938Y-86914522D01*
X86571370Y-86924093D01*
X86614634Y-86967358D01*
X86623522Y-86992984D01*
X86624499Y-86997899D01*
X86642016Y-87040187D01*
X86666441Y-87099155D01*
X86666442Y-87099156D01*
X86666443Y-87099158D01*
X89190705Y-89623421D01*
X89218481Y-89677936D01*
X89219700Y-89693423D01*
X89219700Y-89697408D01*
X89219700Y-89829192D01*
X89235532Y-89888277D01*
X89232329Y-89949379D01*
X89193824Y-89996929D01*
X89139905Y-90012900D01*
X85651487Y-90012900D01*
X85593296Y-89993993D01*
X85562087Y-89954403D01*
X85562037Y-89954433D01*
X85561834Y-89954082D01*
X85560022Y-89951783D01*
X85558790Y-89948810D01*
X85492903Y-89834690D01*
X85492901Y-89834688D01*
X85492900Y-89834686D01*
X85399714Y-89741500D01*
X85399711Y-89741498D01*
X85399709Y-89741496D01*
X85285589Y-89675609D01*
X85285591Y-89675609D01*
X85234512Y-89661923D01*
X85158292Y-89641500D01*
X85026508Y-89641500D01*
X84950288Y-89661923D01*
X84899209Y-89675609D01*
X84785090Y-89741496D01*
X84691896Y-89834690D01*
X84626009Y-89948809D01*
X84608836Y-90012900D01*
X84591900Y-90076108D01*
X84591900Y-90207892D01*
X84597101Y-90227301D01*
X84626009Y-90335190D01*
X84691896Y-90449309D01*
X84691898Y-90449311D01*
X84691900Y-90449314D01*
X84785086Y-90542500D01*
X84785088Y-90542501D01*
X84785090Y-90542503D01*
X84899210Y-90608390D01*
X84899208Y-90608390D01*
X84899212Y-90608391D01*
X84899214Y-90608392D01*
X85026508Y-90642500D01*
X85026510Y-90642500D01*
X85032942Y-90643347D01*
X85032553Y-90646300D01*
X85079047Y-90661407D01*
X85090853Y-90671490D01*
X85108238Y-90688875D01*
X85108240Y-90688876D01*
X85193858Y-90738308D01*
X85193862Y-90738310D01*
X85241612Y-90751105D01*
X85241613Y-90751105D01*
X85289364Y-90763900D01*
X85289365Y-90763900D01*
X86392752Y-90763900D01*
X86450943Y-90782807D01*
X86486907Y-90832307D01*
X86486907Y-90893493D01*
X86450943Y-90942993D01*
X86447769Y-90945204D01*
X86424580Y-90960699D01*
X86424576Y-90960702D01*
X86320702Y-91064576D01*
X86320699Y-91064580D01*
X86239078Y-91186732D01*
X86239078Y-91186733D01*
X86182860Y-91322456D01*
X86182860Y-91322458D01*
X86154200Y-91466542D01*
X86154200Y-91613457D01*
X86182860Y-91757541D01*
X86182860Y-91757543D01*
X86239078Y-91893266D01*
X86239078Y-91893267D01*
X86279749Y-91954134D01*
X86320699Y-92015420D01*
X86320702Y-92015423D01*
X86376475Y-92071196D01*
X86404252Y-92125713D01*
X86394681Y-92186145D01*
X86351416Y-92229410D01*
X86306471Y-92240200D01*
X85482022Y-92240200D01*
X85423831Y-92221293D01*
X85391209Y-92176394D01*
X85389974Y-92176906D01*
X85387490Y-92170910D01*
X85321603Y-92056790D01*
X85321601Y-92056788D01*
X85321600Y-92056786D01*
X85228414Y-91963600D01*
X85228411Y-91963598D01*
X85228409Y-91963596D01*
X85114289Y-91897709D01*
X85114291Y-91897709D01*
X85057928Y-91882607D01*
X84986992Y-91863600D01*
X84855208Y-91863600D01*
X84784272Y-91882607D01*
X84727909Y-91897709D01*
X84613790Y-91963596D01*
X84520596Y-92056790D01*
X84454709Y-92170909D01*
X84446668Y-92200920D01*
X84420600Y-92298208D01*
X84420600Y-92429992D01*
X84444095Y-92517677D01*
X84454709Y-92557290D01*
X84520596Y-92671409D01*
X84520598Y-92671411D01*
X84520600Y-92671414D01*
X84613786Y-92764600D01*
X84613788Y-92764601D01*
X84613790Y-92764603D01*
X84727910Y-92830490D01*
X84727908Y-92830490D01*
X84727912Y-92830491D01*
X84727914Y-92830492D01*
X84855208Y-92864600D01*
X84855210Y-92864600D01*
X84986990Y-92864600D01*
X84986992Y-92864600D01*
X85114286Y-92830492D01*
X85159370Y-92804462D01*
X85208869Y-92791200D01*
X89734276Y-92791200D01*
X89792467Y-92810107D01*
X89828431Y-92859607D01*
X89828431Y-92920793D01*
X89804280Y-92960204D01*
X82730142Y-100034343D01*
X82730141Y-100034342D01*
X82652646Y-100111838D01*
X82652644Y-100111840D01*
X82652643Y-100111842D01*
X82610700Y-100213100D01*
X82300500Y-100213100D01*
X82300500Y-88001952D01*
X82300576Y-87998065D01*
X82310401Y-87748000D01*
X82317917Y-87556695D01*
X82318527Y-87548957D01*
X82370215Y-87112245D01*
X82371424Y-87104607D01*
X82457222Y-86673271D01*
X82459028Y-86665749D01*
X82578402Y-86242483D01*
X82580798Y-86235110D01*
X82733012Y-85822516D01*
X82735968Y-85815380D01*
X82920086Y-85415998D01*
X82923595Y-85409111D01*
X83138490Y-85025387D01*
X83142521Y-85018809D01*
X83386865Y-84653123D01*
X83391403Y-84646877D01*
X83663658Y-84301525D01*
X83668703Y-84295618D01*
X83705309Y-84256018D01*
X83967216Y-83972688D01*
X83972688Y-83967216D01*
X84295622Y-83668699D01*
X84301529Y-83663655D01*
X84456157Y-83541756D01*
X84646877Y-83391403D01*
X84653123Y-83386865D01*
X85018809Y-83142521D01*
X85025387Y-83138490D01*
X85409111Y-82923595D01*
X85415998Y-82920086D01*
X85815380Y-82735968D01*
X85822516Y-82733012D01*
X86235127Y-82580791D01*
X86242483Y-82578402D01*
X86665749Y-82459028D01*
X86673271Y-82457222D01*
X87104607Y-82371424D01*
X87112245Y-82370215D01*
X87548968Y-82318526D01*
X87556695Y-82317917D01*
X87998066Y-82300576D01*
X88001953Y-82300500D01*
X88047595Y-82300500D01*
X93701000Y-82300500D01*
X93759191Y-82319407D01*
G37*
G04 #@! TD.AperFunction*
M02*
