G04 #@! TF.GenerationSoftware,KiCad,Pcbnew,10.0.2*
G04 #@! TF.CreationDate,2026-07-02T13:50:14-04:00*
G04 #@! TF.ProjectId,jrwatch,6a727761-7463-4682-9e6b-696361645f70,rev?*
G04 #@! TF.SameCoordinates,Original*
G04 #@! TF.FileFunction,Legend,Bot*
G04 #@! TF.FilePolarity,Positive*
%FSLAX46Y46*%
G04 Gerber Fmt 4.6, Leading zero omitted, Abs format (unit mm)*
G04 Created by KiCad (PCBNEW 10.0.2) date 2026-07-02 13:50:14*
%MOMM*%
%LPD*%
G01*
G04 APERTURE LIST*
G04 Aperture macros list*
%AMRoundRect*
0 Rectangle with rounded corners*
0 $1 Rounding radius*
0 $2 $3 $4 $5 $6 $7 $8 $9 X,Y pos of 4 corners*
0 Add a 4 corners polygon primitive as box body*
4,1,4,$2,$3,$4,$5,$6,$7,$8,$9,$2,$3,0*
0 Add four circle primitives for the rounded corners*
1,1,$1+$1,$2,$3*
1,1,$1+$1,$4,$5*
1,1,$1+$1,$6,$7*
1,1,$1+$1,$8,$9*
0 Add four rect primitives between the rounded corners*
20,1,$1+$1,$2,$3,$4,$5,0*
20,1,$1+$1,$4,$5,$6,$7,0*
20,1,$1+$1,$6,$7,$8,$9,0*
20,1,$1+$1,$8,$9,$2,$3,0*%
G04 Aperture macros list end*
%ADD10C,0.150000*%
%ADD11C,0.120000*%
%ADD12C,0.100000*%
%ADD13RoundRect,0.142500X0.707500X-0.332500X0.707500X0.332500X-0.707500X0.332500X-0.707500X-0.332500X0*%
%ADD14RoundRect,0.062500X-0.062500X0.117500X-0.062500X-0.117500X0.062500X-0.117500X0.062500X0.117500X0*%
%ADD15RoundRect,0.225000X0.250000X-0.225000X0.250000X0.225000X-0.250000X0.225000X-0.250000X-0.225000X0*%
%ADD16RoundRect,0.140000X0.140000X0.170000X-0.140000X0.170000X-0.140000X-0.170000X0.140000X-0.170000X0*%
%ADD17RoundRect,0.135000X0.135000X0.185000X-0.135000X0.185000X-0.135000X-0.185000X0.135000X-0.185000X0*%
%ADD18RoundRect,0.140000X0.170000X-0.140000X0.170000X0.140000X-0.170000X0.140000X-0.170000X-0.140000X0*%
%ADD19RoundRect,0.150000X0.150000X-0.512500X0.150000X0.512500X-0.150000X0.512500X-0.150000X-0.512500X0*%
%ADD20R,1.000000X1.800000*%
%ADD21C,0.900000*%
%ADD22RoundRect,0.187500X0.712500X-0.187500X0.712500X0.187500X-0.712500X0.187500X-0.712500X-0.187500X0*%
%ADD23RoundRect,0.150000X0.750000X-0.150000X0.750000X0.150000X-0.750000X0.150000X-0.750000X-0.150000X0*%
%ADD24RoundRect,0.225000X0.225000X-0.425000X0.225000X0.425000X-0.225000X0.425000X-0.225000X-0.425000X0*%
%ADD25RoundRect,0.135000X0.185000X-0.135000X0.185000X0.135000X-0.185000X0.135000X-0.185000X-0.135000X0*%
%ADD26RoundRect,0.140000X-0.170000X0.140000X-0.170000X-0.140000X0.170000X-0.140000X0.170000X0.140000X0*%
%ADD27RoundRect,0.150000X0.625000X-0.150000X0.625000X0.150000X-0.625000X0.150000X-0.625000X-0.150000X0*%
%ADD28RoundRect,0.250000X0.650000X-0.350000X0.650000X0.350000X-0.650000X0.350000X-0.650000X-0.350000X0*%
%ADD29C,0.990600*%
%ADD30C,0.787400*%
%ADD31R,0.675000X0.250000*%
%ADD32R,0.250000X0.675000*%
%ADD33R,0.600000X0.400000*%
%ADD34R,0.400000X0.600000*%
%ADD35RoundRect,0.062500X0.337500X0.062500X-0.337500X0.062500X-0.337500X-0.062500X0.337500X-0.062500X0*%
%ADD36RoundRect,0.062500X0.062500X0.337500X-0.062500X0.337500X-0.062500X-0.337500X0.062500X-0.337500X0*%
%ADD37R,3.500000X3.500000*%
%ADD38C,0.650000*%
%ADD39RoundRect,0.150000X0.150000X0.575000X-0.150000X0.575000X-0.150000X-0.575000X0.150000X-0.575000X0*%
%ADD40RoundRect,0.075000X0.075000X0.650000X-0.075000X0.650000X-0.075000X-0.650000X0.075000X-0.650000X0*%
%ADD41O,1.000000X1.600000*%
%ADD42O,1.000000X2.100000*%
G04 APERTURE END LIST*
D10*
X89342857Y-96565700D02*
X88657143Y-96565700D01*
X89342857Y-97565700D02*
X88657143Y-97565700D01*
X89000000Y-97908557D02*
X89000000Y-97222842D01*
D11*
X97000000Y-106350000D02*
X97000000Y-105650000D01*
X99000000Y-106350000D02*
X99000000Y-105650000D01*
X112200000Y-94500000D02*
X112200000Y-95860000D01*
X113000000Y-94500000D02*
X113000000Y-95860000D01*
X113000000Y-95860000D02*
X112200000Y-95860000D01*
X85790000Y-110290580D02*
X85790000Y-110009420D01*
X86810000Y-110290580D02*
X86810000Y-110009420D01*
X89307836Y-99640000D02*
X89092164Y-99640000D01*
X89307836Y-100360000D02*
X89092164Y-100360000D01*
X92353641Y-89020000D02*
X92046359Y-89020000D01*
X92353641Y-89780000D02*
X92046359Y-89780000D01*
X84340000Y-103907836D02*
X84340000Y-103692164D01*
X85060000Y-103907836D02*
X85060000Y-103692164D01*
X90640000Y-108690000D02*
X90640000Y-110510000D01*
X90640000Y-110510000D02*
X90690000Y-110510000D01*
X90690000Y-108690000D02*
X90640000Y-108690000D01*
X93710000Y-110510000D02*
X93760000Y-110510000D01*
X93760000Y-108690000D02*
X93710000Y-108690000D01*
X93760000Y-110510000D02*
X93760000Y-108690000D01*
X93710000Y-111050000D02*
X94040000Y-111290000D01*
X94040000Y-110810000D01*
X93710000Y-111050000D01*
G36*
X94040000Y-111290000D02*
G01*
X93710000Y-111050000D01*
X94040000Y-110810000D01*
X94040000Y-111290000D01*
G37*
X104075000Y-99425000D02*
X102725000Y-99425000D01*
X104075000Y-101175000D02*
X102725000Y-101175000D01*
X85790000Y-107240580D02*
X85790000Y-106959420D01*
X86810000Y-107240580D02*
X86810000Y-106959420D01*
X114600000Y-107000000D02*
X114600000Y-105000000D01*
X117400000Y-103600000D02*
X116400000Y-103600000D01*
X117400000Y-104200000D02*
X117400000Y-103600000D01*
X117400000Y-107800000D02*
X117400000Y-108400000D01*
X117400000Y-108400000D02*
X116400000Y-108400000D01*
X91357836Y-99640000D02*
X91142164Y-99640000D01*
X91357836Y-100360000D02*
X91142164Y-100360000D01*
X84340000Y-107107836D02*
X84340000Y-106892164D01*
X85060000Y-107107836D02*
X85060000Y-106892164D01*
X114600000Y-96000000D02*
X114600000Y-94000000D01*
X117400000Y-92600000D02*
X116400000Y-92600000D01*
X117400000Y-93200000D02*
X117400000Y-92600000D01*
X117400000Y-96800000D02*
X117400000Y-97400000D01*
X117400000Y-97400000D02*
X116400000Y-97400000D01*
X100090000Y-106340580D02*
X100090000Y-106059420D01*
X101110000Y-106340580D02*
X101110000Y-106059420D01*
X112200000Y-105500000D02*
X112200000Y-106860000D01*
X113000000Y-105500000D02*
X113000000Y-106860000D01*
X113000000Y-106860000D02*
X112200000Y-106860000D01*
X94890000Y-101040580D02*
X94890000Y-100759420D01*
X95910000Y-101040580D02*
X95910000Y-100759420D01*
X85790000Y-104190580D02*
X85790000Y-103909420D01*
X86810000Y-104190580D02*
X86810000Y-103909420D01*
X93407836Y-99640000D02*
X93192164Y-99640000D01*
X93407836Y-100360000D02*
X93192164Y-100360000D01*
X85790000Y-101140580D02*
X85790000Y-100859420D01*
X86810000Y-101140580D02*
X86810000Y-100859420D01*
X110520000Y-106153641D02*
X110520000Y-105846359D01*
X111280000Y-106153641D02*
X111280000Y-105846359D01*
X91820000Y-97053641D02*
X91820000Y-96746359D01*
X92580000Y-97053641D02*
X92580000Y-96746359D01*
X93307836Y-98240000D02*
X93092164Y-98240000D01*
X93307836Y-98960000D02*
X93092164Y-98960000D01*
X97000000Y-102750000D02*
X97000000Y-102050000D01*
X99000000Y-102750000D02*
X99000000Y-102050000D01*
X101740000Y-102542164D02*
X101740000Y-102757836D01*
X102460000Y-102542164D02*
X102460000Y-102757836D01*
X110153641Y-101120000D02*
X109846359Y-101120000D01*
X110153641Y-101880000D02*
X109846359Y-101880000D01*
X82715000Y-97940000D02*
X82715000Y-96060000D01*
X84685000Y-94890000D02*
X87185000Y-94890000D01*
X84685000Y-99110000D02*
X87185000Y-99110000D01*
X87185000Y-94890000D02*
X87185000Y-95940000D01*
X87185000Y-98060000D02*
X88175000Y-98060000D01*
X87185000Y-99110000D02*
X87185000Y-98060000D01*
X85630000Y-90270000D02*
X85630000Y-90905000D01*
X85630000Y-90905000D02*
X86265000Y-90905000D01*
X93220000Y-97053641D02*
X93220000Y-96746359D01*
X93980000Y-97053641D02*
X93980000Y-96746359D01*
D12*
X89400000Y-90650000D02*
X89400000Y-90870000D01*
X89400000Y-93130000D02*
X89400000Y-93350000D01*
X89400000Y-93350000D02*
X90120000Y-93350000D01*
X90120000Y-90650000D02*
X89400000Y-90650000D01*
X92400000Y-90650000D02*
X91880000Y-90650000D01*
X92600000Y-93350000D02*
X91880000Y-93350000D01*
X92600000Y-93350000D02*
X92600000Y-93130000D01*
X92600000Y-90650000D02*
X92960000Y-90650000D01*
X92600000Y-90290000D01*
X92600000Y-90650000D01*
G36*
X92960000Y-90650000D02*
G01*
X92600000Y-90650000D01*
X92600000Y-90290000D01*
X92960000Y-90650000D01*
G37*
D11*
X94650000Y-82700000D02*
X94650000Y-83800000D01*
X94650000Y-97300000D02*
X94650000Y-98400000D01*
X94650000Y-98400000D02*
X95750000Y-98400000D01*
X95750000Y-82700000D02*
X94650000Y-82700000D01*
X104250000Y-82700000D02*
X105350000Y-82700000D01*
X105350000Y-82700000D02*
X105350000Y-83800000D01*
X105350000Y-97300000D02*
X105350000Y-98400000D01*
X105350000Y-98400000D02*
X104250000Y-98400000D01*
X105375000Y-86800000D02*
X105711000Y-87040000D01*
X105711000Y-86560000D01*
X105375000Y-86800000D01*
G36*
X105711000Y-87040000D02*
G01*
X105375000Y-86800000D01*
X105711000Y-86560000D01*
X105711000Y-87040000D01*
G37*
X110153641Y-102820000D02*
X109846359Y-102820000D01*
X110153641Y-103580000D02*
X109846359Y-103580000D01*
X92007836Y-93990000D02*
X91792164Y-93990000D01*
X92007836Y-94710000D02*
X91792164Y-94710000D01*
X97240000Y-100007836D02*
X97240000Y-99792164D01*
X97960000Y-100007836D02*
X97960000Y-99792164D01*
X88390000Y-101590000D02*
X88390000Y-102065000D01*
X88390000Y-106335000D02*
X88390000Y-106810000D01*
X88390000Y-106810000D02*
X88865000Y-106810000D01*
X88865000Y-101590000D02*
X88390000Y-101590000D01*
X93135000Y-106810000D02*
X93610000Y-106810000D01*
X93610000Y-101590000D02*
X93135000Y-101590000D01*
X93610000Y-102065000D02*
X93610000Y-101590000D01*
X93610000Y-106810000D02*
X93610000Y-106335000D01*
X94110000Y-102450000D02*
X94440000Y-102690000D01*
X94440000Y-102210000D01*
X94110000Y-102450000D01*
G36*
X94440000Y-102690000D02*
G01*
X94110000Y-102450000D01*
X94440000Y-102210000D01*
X94440000Y-102690000D01*
G37*
X100040000Y-100590580D02*
X100040000Y-100309420D01*
X101060000Y-100590580D02*
X101060000Y-100309420D01*
X104140000Y-102542164D02*
X104140000Y-102757836D01*
X104860000Y-102542164D02*
X104860000Y-102757836D01*
X95300000Y-111700000D02*
X95300000Y-113700000D01*
X95300000Y-115600000D02*
X95300000Y-117500000D01*
X104700000Y-111700000D02*
X104700000Y-113700000D01*
X104700000Y-115600000D02*
X104700000Y-117500000D01*
X104700000Y-117500000D02*
X95300000Y-117500000D01*
X84453641Y-92820000D02*
X84146359Y-92820000D01*
X84453641Y-93580000D02*
X84146359Y-93580000D01*
X110520000Y-95153641D02*
X110520000Y-94846359D01*
X111280000Y-95153641D02*
X111280000Y-94846359D01*
X89907836Y-93990000D02*
X89692164Y-93990000D01*
X89907836Y-94710000D02*
X89692164Y-94710000D01*
X98640000Y-100007836D02*
X98640000Y-99792164D01*
X99360000Y-100007836D02*
X99360000Y-99792164D01*
%LPC*%
D13*
X98000000Y-106850000D03*
X98000000Y-105150000D03*
D14*
X112600000Y-95420000D03*
X112600000Y-94580000D03*
D15*
X86300000Y-110925000D03*
X86300000Y-109375000D03*
D16*
X89680000Y-100000000D03*
X88720000Y-100000000D03*
D17*
X92710000Y-89400000D03*
X91690000Y-89400000D03*
D18*
X84700000Y-104280000D03*
X84700000Y-103320000D03*
D19*
X93150000Y-110737500D03*
X92200000Y-110737500D03*
X91250000Y-110737500D03*
X91250000Y-108462500D03*
X92200000Y-108462500D03*
X93150000Y-108462500D03*
D20*
X102150000Y-100300000D03*
X104650000Y-100300000D03*
D15*
X86300000Y-107875000D03*
X86300000Y-106325000D03*
D21*
X115900000Y-108125000D03*
X115900000Y-103875000D03*
D22*
X116800000Y-107225000D03*
X116800000Y-104775000D03*
D23*
X116800000Y-106000000D03*
D24*
X114850000Y-107850000D03*
X114850000Y-104150000D03*
D16*
X91730000Y-100000000D03*
X90770000Y-100000000D03*
D18*
X84700000Y-107480000D03*
X84700000Y-106520000D03*
D21*
X115900000Y-97125000D03*
X115900000Y-92875000D03*
D22*
X116800000Y-96225000D03*
X116800000Y-93775000D03*
D23*
X116800000Y-95000000D03*
D24*
X114850000Y-96850000D03*
X114850000Y-93150000D03*
D15*
X100600000Y-106975000D03*
X100600000Y-105425000D03*
D14*
X112600000Y-106420000D03*
X112600000Y-105580000D03*
D15*
X95400000Y-101675000D03*
X95400000Y-100125000D03*
X86300000Y-104825000D03*
X86300000Y-103275000D03*
D16*
X93780000Y-100000000D03*
X92820000Y-100000000D03*
D15*
X86300000Y-101775000D03*
X86300000Y-100225000D03*
D25*
X110900000Y-106510000D03*
X110900000Y-105490000D03*
X92200000Y-97410000D03*
X92200000Y-96390000D03*
D16*
X93680000Y-98600000D03*
X92720000Y-98600000D03*
D13*
X98000000Y-103250000D03*
X98000000Y-101550000D03*
D26*
X102100000Y-102170000D03*
X102100000Y-103130000D03*
D17*
X110510000Y-101500000D03*
X109490000Y-101500000D03*
D27*
X87400000Y-97500000D03*
X87400000Y-96500000D03*
D28*
X83525000Y-98800000D03*
X83525000Y-95200000D03*
D29*
X86900000Y-91540000D03*
X85884000Y-86460000D03*
X87916000Y-86460000D03*
D30*
X86265000Y-90270000D03*
X87535000Y-90270000D03*
X86265000Y-89000000D03*
X87535000Y-89000000D03*
X86265000Y-87730000D03*
X87535000Y-87730000D03*
D25*
X93600000Y-97410000D03*
X93600000Y-96390000D03*
D31*
X92262500Y-91250000D03*
X92262500Y-91750000D03*
X92262500Y-92250000D03*
X92262500Y-92750000D03*
D32*
X91500000Y-93012500D03*
X91000000Y-93012500D03*
X90500000Y-93012500D03*
D31*
X89737500Y-92750000D03*
X89737500Y-92250000D03*
X89737500Y-91750000D03*
X89737500Y-91250000D03*
D32*
X90500000Y-90987500D03*
X91000000Y-90987500D03*
X91500000Y-90987500D03*
D33*
X104650000Y-86800000D03*
X104650000Y-87900000D03*
X104650000Y-88700000D03*
X104650000Y-90300000D03*
X103750000Y-90700000D03*
X104650000Y-91100000D03*
X103750000Y-91500000D03*
X104650000Y-91900000D03*
X103750000Y-92300000D03*
X104650000Y-92700000D03*
X103750000Y-93100000D03*
X104650000Y-93500000D03*
X103750000Y-93900000D03*
X104650000Y-94300000D03*
D34*
X104800000Y-97700000D03*
X104000000Y-97700000D03*
X103200000Y-97700000D03*
X102400000Y-97700000D03*
X102000000Y-96800000D03*
X101600000Y-97700000D03*
X101200000Y-96800000D03*
X100800000Y-97700000D03*
X100400000Y-96800000D03*
X100000000Y-97700000D03*
X99600000Y-96800000D03*
X99200000Y-97700000D03*
X98800000Y-96800000D03*
X98400000Y-97700000D03*
X98000000Y-96800000D03*
X97600000Y-97700000D03*
X96800000Y-97700000D03*
X96000000Y-97700000D03*
X95200000Y-97700000D03*
D33*
X95350000Y-96700000D03*
X95350000Y-95900000D03*
X96250000Y-95500000D03*
X95350000Y-95100000D03*
X96250000Y-94700000D03*
X95350000Y-94300000D03*
X96250000Y-93900000D03*
X95350000Y-93500000D03*
X96250000Y-93100000D03*
X96250000Y-92300000D03*
X95350000Y-91900000D03*
X96250000Y-91500000D03*
X95350000Y-91100000D03*
X96250000Y-90700000D03*
X95350000Y-90300000D03*
X96250000Y-89900000D03*
X96250000Y-89100000D03*
X95350000Y-88700000D03*
X96250000Y-88300000D03*
X95350000Y-87900000D03*
X96250000Y-87500000D03*
X95350000Y-86800000D03*
D34*
X102000000Y-91100000D03*
X101200000Y-91100000D03*
X100400000Y-91100000D03*
X99600000Y-91100000D03*
X98800000Y-91100000D03*
X98000000Y-91100000D03*
D17*
X110510000Y-103200000D03*
X109490000Y-103200000D03*
D16*
X92380000Y-94350000D03*
X91420000Y-94350000D03*
D18*
X97600000Y-100380000D03*
X97600000Y-99420000D03*
D35*
X93450000Y-102450000D03*
X93450000Y-102950000D03*
X93450000Y-103450000D03*
X93450000Y-103950000D03*
X93450000Y-104450000D03*
X93450000Y-104950000D03*
X93450000Y-105450000D03*
X93450000Y-105950000D03*
D36*
X92750000Y-106650000D03*
X92250000Y-106650000D03*
X91750000Y-106650000D03*
X91250000Y-106650000D03*
X90750000Y-106650000D03*
X90250000Y-106650000D03*
X89750000Y-106650000D03*
X89250000Y-106650000D03*
D35*
X88550000Y-105950000D03*
X88550000Y-105450000D03*
X88550000Y-104950000D03*
X88550000Y-104450000D03*
X88550000Y-103950000D03*
X88550000Y-103450000D03*
X88550000Y-102950000D03*
X88550000Y-102450000D03*
D36*
X89250000Y-101750000D03*
X89750000Y-101750000D03*
X90250000Y-101750000D03*
X90750000Y-101750000D03*
X91250000Y-101750000D03*
X91750000Y-101750000D03*
X92250000Y-101750000D03*
X92750000Y-101750000D03*
D37*
X91000000Y-104200000D03*
D15*
X100550000Y-101225000D03*
X100550000Y-99675000D03*
D26*
X104500000Y-102170000D03*
X104500000Y-103130000D03*
D38*
X102890000Y-111000000D03*
X97110000Y-111000000D03*
D39*
X103250000Y-109555000D03*
X102450000Y-109555000D03*
D40*
X101250000Y-109555000D03*
X100250000Y-109555000D03*
X99750000Y-109555000D03*
X98750000Y-109555000D03*
D39*
X97550000Y-109555000D03*
X96750000Y-109555000D03*
X96750000Y-109555000D03*
X97550000Y-109555000D03*
D40*
X98250000Y-109555000D03*
X99250000Y-109555000D03*
X100750000Y-109555000D03*
X101750000Y-109555000D03*
D39*
X102450000Y-109555000D03*
X103250000Y-109555000D03*
D41*
X104320000Y-114650000D03*
D42*
X104320000Y-110470000D03*
D41*
X95680000Y-114650000D03*
D42*
X95680000Y-110470000D03*
D17*
X84810000Y-93200000D03*
X83790000Y-93200000D03*
D25*
X110900000Y-95510000D03*
X110900000Y-94490000D03*
D16*
X90280000Y-94350000D03*
X89320000Y-94350000D03*
D18*
X99000000Y-100380000D03*
X99000000Y-99420000D03*
%LPD*%
M02*
